{
	"asset":{
		"generator":"Khronos glTF Blender I/O v4.4.56",
		"version":"2.0"
	},
	"scene":0,
	"scenes":[
		{
			"name":"Scene",
			"nodes":[
				0,
				1
			]
		}
	],
	"nodes":[
		{
			"mesh":0,
			"name":"Circle_Material.003_0",
			"rotation":[
				-0.4422088861465454,
				0.16426196694374084,
				0.044554997235536575,
				0.8806158900260925
			],
			"scale":[
				0.00801599957048893,
				0.00801599957048893,
				0.00801599957048893
			]
		},
		{
			"mesh":1,
			"name":"Sphere_Material_0",
			"rotation":[
				-0.44220882654190063,
				0.16426192224025726,
				0.04455499351024628,
				0.8806158304214478
			],
			"scale":[
				0.0008373030577786267,
				0.0008373030577786267,
				0.0008373027667403221
			]
		}
	],
	"materials":[
		{
			"alphaCutoff":0.29731285572052,
			"alphaMode":"MASK",
			"doubleSided":true,
			"name":"Material.001",
			"pbrMetallicRoughness":{
				"baseColorTexture":{
					"index":0
				},
				"metallicFactor":0,
				"roughnessFactor":0.8040408492088318
			}
		},
		{
			"doubleSided":true,
			"name":"Material.006",
			"pbrMetallicRoughness":{
				"baseColorTexture":{
					"index":1
				},
				"metallicFactor":0,
				"roughnessFactor":0.9371004104614258
			}
		}
	],
	"meshes":[
		{
			"name":"Circle_Material.003_0",
			"primitives":[
				{
					"attributes":{
						"POSITION":0,
						"NORMAL":1,
						"TEXCOORD_0":2
					},
					"indices":3,
					"material":0
				}
			]
		},
		{
			"name":"Sphere_Material_0",
			"primitives":[
				{
					"attributes":{
						"POSITION":4,
						"NORMAL":5,
						"TEXCOORD_0":6
					},
					"indices":7,
					"material":1
				}
			]
		}
	],
	"textures":[
		{
			"sampler":0,
			"source":0
		},
		{
			"sampler":0,
			"source":1
		}
	],
	"images":[
		{
			"mimeType":"image/png",
			"name":"Material_003_baseColor",
			"uri":"textures/Material_003_baseColor.png"
		},
		{
			"mimeType":"image/jpeg",
			"name":"material_baseColor",
			"uri":"textures/material_baseColor.jpg"
		}
	],
	"accessors":[
		{
			"bufferView":0,
			"componentType":5126,
			"count":1024,
			"max":[
				106.43611145019531,
				106.43608093261719,
				7.3877636168617755e-06
			],
			"min":[
				-106.43611145019531,
				-106.43608093261719,
				-6.597256287932396e-06
			],
			"type":"VEC3"
		},
		{
			"bufferView":1,
			"componentType":5126,
			"count":1024,
			"type":"VEC3"
		},
		{
			"bufferView":2,
			"componentType":5126,
			"count":1024,
			"type":"VEC2"
		},
		{
			"bufferView":3,
			"componentType":5123,
			"count":1536,
			"type":"SCALAR"
		},
		{
			"bufferView":4,
			"componentType":5126,
			"count":8459,
			"max":[
				597.1554565429688,
				597.155517578125,
				597.155517578125
			],
			"min":[
				-597.1552734375,
				-597.1553344726562,
				-597.155517578125
			],
			"type":"VEC3"
		},
		{
			"bufferView":5,
			"componentType":5126,
			"count":8459,
			"type":"VEC3"
		},
		{
			"bufferView":6,
			"componentType":5126,
			"count":8459,
			"type":"VEC2"
		},
		{
			"bufferView":7,
			"componentType":5123,
			"count":47973,
			"type":"SCALAR"
		}
	],
	"bufferViews":[
		{
			"buffer":0,
			"byteLength":12288,
			"byteOffset":0,
			"target":34962
		},
		{
			"buffer":0,
			"byteLength":12288,
			"byteOffset":12288,
			"target":34962
		},
		{
			"buffer":0,
			"byteLength":8192,
			"byteOffset":24576,
			"target":34962
		},
		{
			"buffer":0,
			"byteLength":3072,
			"byteOffset":32768,
			"target":34963
		},
		{
			"buffer":0,
			"byteLength":101508,
			"byteOffset":35840,
			"target":34962
		},
		{
			"buffer":0,
			"byteLength":101508,
			"byteOffset":137348,
			"target":34962
		},
		{
			"buffer":0,
			"byteLength":67672,
			"byteOffset":238856,
			"target":34962
		},
		{
			"buffer":0,
			"byteLength":95946,
			"byteOffset":306528,
			"target":34963
		}
	],
	"samplers":[
		{
			"magFilter":9729,
			"minFilter":9987
		}
	],
	"buffers":[
		{
			"byteLength":402476,
			"uri":"uranus.bin"
		}
	]
}
