{
	"asset":{
		"generator":"Khronos glTF Blender I/O v4.4.56",
		"version":"2.0"
	},
	"scene":0,
	"scenes":[
		{
			"name":"Scene",
			"nodes":[
				10
			]
		}
	],
	"nodes":[
		{
			"mesh":0,
			"name":"Layer_0"
		},
		{
			"children":[
				0
			],
			"name":"Pivot-Layer_0"
		},
		{
			"mesh":1,
			"name":"Layer_1"
		},
		{
			"children":[
				2
			],
			"name":"Pivot-Layer_1"
		},
		{
			"mesh":2,
			"name":"Layer_2"
		},
		{
			"children":[
				4
			],
			"name":"Pivot-Layer_2"
		},
		{
			"mesh":3,
			"name":"Layer_3",
			"scale":[
				3.508770227432251,
				3.508770227432251,
				3.508770227432251
			]
		},
		{
			"children":[
				6
			],
			"name":"Pivot-Layer_3"
		},
		{
			"mesh":4,
			"name":"Layer_4"
		},
		{
			"children":[
				8
			],
			"name":"Pivot-Layer_4"
		},
		{
			"children":[
				1,
				3,
				5,
				7,
				9
			],
			"name":"<LWORoot>",
			"scale":[
				0.03803148865699768,
				0.03803148865699768,
				0.03803148865699768
			]
		}
	],
	"materials":[
		{
			"name":"Crater-flat-black",
			"pbrMetallicRoughness":{
				"baseColorFactor":[
					0,
					0,
					0,
					1
				],
				"metallicFactor":0
			}
		},
		{
			"name":"Crater-flat-gold",
			"pbrMetallicRoughness":{
				"baseColorFactor":[
					0.7843137383460999,
					0.5491722226142883,
					0.15651178359985352,
					1
				],
				"metallicFactor":0,
				"roughnessFactor":0.8102633953094482
			}
		},
		{
			"doubleSided":true,
			"name":"Crater-smooth-gold",
			"pbrMetallicRoughness":{
				"baseColorFactor":[
					0.7843137383460999,
					0.5491722226142883,
					0.15651178359985352,
					1
				],
				"metallicFactor":0,
				"roughnessFactor":0.8102633953094482
			}
		},
		{
			"name":"Default",
			"pbrMetallicRoughness":{
				"baseColorFactor":[
					0.7843137383460999,
					0.7843137383460999,
					0.7843137383460999,
					1
				],
				"metallicFactor":0
			}
		},
		{
			"name":"LRO-accs-black-fl",
			"pbrMetallicRoughness":{
				"baseColorFactor":[
					0,
					0,
					0,
					1
				],
				"metallicFactor":0
			}
		},
		{
			"doubleSided":true,
			"name":"LRO-accs-bronze-fl",
			"pbrMetallicRoughness":{
				"baseColorFactor":[
					0.7601739764213562,
					0.6431525349617004,
					0.3681391477584839,
					1
				],
				"metallicFactor":0,
				"roughnessFactor":0.8102633953094482
			}
		},
		{
			"doubleSided":true,
			"name":"LRO-accs-bronze-sm",
			"pbrMetallicRoughness":{
				"baseColorFactor":[
					0.7601739764213562,
					0.6431525349617004,
					0.3681391477584839,
					1
				],
				"metallicFactor":0,
				"roughnessFactor":0.8102633953094482
			}
		},
		{
			"doubleSided":true,
			"name":"LRO-accs-gold-fl",
			"pbrMetallicRoughness":{
				"baseColorFactor":[
					0.7837033867835999,
					0.5498283505439758,
					0.15596246719360352,
					1
				],
				"metallicFactor":0,
				"roughnessFactor":0.8102633953094482
			}
		},
		{
			"doubleSided":true,
			"name":"LRO-accs-gold-sm",
			"pbrMetallicRoughness":{
				"baseColorFactor":[
					0.7837033867835999,
					0.5498283505439758,
					0.15596246719360352,
					1
				],
				"metallicFactor":0,
				"roughnessFactor":0.8102633953094482
			}
		},
		{
			"doubleSided":true,
			"name":"LRO-accs-grey-fl",
			"pbrMetallicRoughness":{
				"baseColorFactor":[
					0.30769819021224976,
					0.29202717542648315,
					0.29568931460380554,
					1
				],
				"metallicFactor":0,
				"roughnessFactor":0.8102633953094482
			}
		},
		{
			"doubleSided":true,
			"name":"LRO-accs-grey-sm",
			"pbrMetallicRoughness":{
				"baseColorFactor":[
					0.30769819021224976,
					0.29202717542648315,
					0.29568931460380554,
					1
				],
				"metallicFactor":0,
				"roughnessFactor":0.8102633953094482
			}
		},
		{
			"doubleSided":true,
			"name":"LRO-accs-silver-fl",
			"pbrMetallicRoughness":{
				"baseColorFactor":[
					0.7843137383460999,
					0.7843137383460999,
					0.7843137383460999,
					1
				],
				"metallicFactor":0,
				"roughnessFactor":0.8102633953094482
			}
		},
		{
			"name":"LRO-accs-silver-sm",
			"pbrMetallicRoughness":{
				"baseColorFactor":[
					0.7843137383460999,
					0.7843137383460999,
					0.7843137383460999,
					1
				],
				"metallicFactor":0,
				"roughnessFactor":0.8102633953094482
			}
		},
		{
			"name":"LRO-accs-thermal-fl",
			"pbrMetallicRoughness":{
				"baseColorFactor":[
					0.7843137383460999,
					0.6245670318603516,
					0.40830090641975403,
					1
				],
				"metallicFactor":0,
				"roughnessFactor":0.8102633953094482
			}
		},
		{
			"name":"LRO-DetailBlackFlat",
			"pbrMetallicRoughness":{
				"baseColorFactor":[
					0,
					0,
					0,
					1
				],
				"metallicFactor":0
			}
		},
		{
			"name":"LRO-DetailBlackSmooth",
			"pbrMetallicRoughness":{
				"baseColorFactor":[
					0.09773403406143188,
					0.09773403406143188,
					0.09773403406143188,
					1
				],
				"metallicFactor":0,
				"roughnessFactor":0.8102633953094482
			}
		},
		{
			"doubleSided":true,
			"name":"LRO-DetailGoldFlat",
			"pbrMetallicRoughness":{
				"baseColorFactor":[
					0.7843137383460999,
					0.5490196347236633,
					0.1568627953529358,
					1
				],
				"metallicFactor":0,
				"roughnessFactor":0.8102633953094482
			}
		},
		{
			"doubleSided":true,
			"name":"LRO-DetailGoldSmooth",
			"pbrMetallicRoughness":{
				"baseColorFactor":[
					0.7843137383460999,
					0.5477988719940186,
					0.1576562076807022,
					1
				],
				"metallicFactor":0,
				"roughnessFactor":0.8102633953094482
			}
		},
		{
			"doubleSided":true,
			"name":"LRO-DetailGreyFlat",
			"pbrMetallicRoughness":{
				"baseColorFactor":[
					0.6334782838821411,
					0.6334782838821411,
					0.6334782838821411,
					1
				],
				"metallicFactor":0,
				"roughnessFactor":0.8102633953094482
			}
		},
		{
			"doubleSided":true,
			"name":"LRO-DetailGreySmooth",
			"pbrMetallicRoughness":{
				"baseColorFactor":[
					0.6334782838821411,
					0.6334782838821411,
					0.6334782838821411,
					1
				],
				"metallicFactor":0,
				"roughnessFactor":0.8102633953094482
			}
		},
		{
			"name":"LRO-mainbox",
			"pbrMetallicRoughness":{
				"baseColorFactor":[
					0.7837033867835999,
					0.5498283505439758,
					0.15596246719360352,
					1
				],
				"metallicFactor":0,
				"roughnessFactor":0.8102633953094482
			}
		},
		{
			"name":"LRO-radiator-base",
			"pbrMetallicRoughness":{
				"baseColorFactor":[
					0.2895246744155884,
					0.2848859429359436,
					0.3348439633846283,
					1
				],
				"metallicFactor":0,
				"roughnessFactor":0.8102633953094482
			}
		},
		{
			"name":"LRO-solarpanel-bronze-sm",
			"pbrMetallicRoughness":{
				"baseColorFactor":[
					0.7782863974571228,
					0.740199863910675,
					0.574013888835907,
					1
				],
				"metallicFactor":0
			}
		},
		{
			"doubleSided":true,
			"name":"LRO-Dish",
			"pbrMetallicRoughness":{
				"baseColorFactor":[
					0.7140459418296814,
					0.7194628715515137,
					0.6913710236549377,
					1
				],
				"metallicFactor":0,
				"roughnessFactor":0.7833839654922485
			}
		},
		{
			"name":"LRO-solarpanel-1",
			"pbrMetallicRoughness":{
				"baseColorFactor":[
					0.19280697405338287,
					0.20414426922798157,
					0.31113457679748535,
					1
				],
				"metallicFactor":0,
				"roughnessFactor":0.8102633953094482
			}
		},
		{
			"name":"LRO-solarpanel-2",
			"pbrMetallicRoughness":{
				"baseColorFactor":[
					0.1684727966785431,
					0.178392693400383,
					0.2718801200389862,
					1
				],
				"metallicFactor":0,
				"roughnessFactor":0.8102633953094482
			}
		},
		{
			"name":"LRO-solarpanel-3",
			"pbrMetallicRoughness":{
				"baseColorFactor":[
					0.15929457545280457,
					0.1816176027059555,
					0.26635971665382385,
					1
				],
				"metallicFactor":0,
				"roughnessFactor":0.8102633953094482
			}
		},
		{
			"name":"LRO-solarpanel-4",
			"pbrMetallicRoughness":{
				"baseColorFactor":[
					0.19445030391216278,
					0.20590218901634216,
					0.31379643082618713,
					1
				],
				"metallicFactor":0,
				"roughnessFactor":0.8102633953094482
			}
		},
		{
			"name":"LRO-solarpanel-5",
			"pbrMetallicRoughness":{
				"baseColorFactor":[
					0.17565758526325226,
					0.18598704040050507,
					0.28346043825149536,
					1
				],
				"metallicFactor":0,
				"roughnessFactor":0.8102633953094482
			}
		},
		{
			"name":"LRO-solarpanel-6",
			"pbrMetallicRoughness":{
				"baseColorFactor":[
					0.17209568619728088,
					0.16885648667812347,
					0.24841199815273285,
					1
				],
				"metallicFactor":0,
				"roughnessFactor":0.8102633953094482
			}
		},
		{
			"name":"LRO-solarpanel-7",
			"pbrMetallicRoughness":{
				"baseColorFactor":[
					0.19346913695335388,
					0.2048676311969757,
					0.31221485137939453,
					1
				],
				"metallicFactor":0,
				"roughnessFactor":0.8102633953094482
			}
		},
		{
			"name":"LRO-solarpanel-bak",
			"pbrMetallicRoughness":{
				"baseColorFactor":[
					0.17103837430477142,
					0.18110932409763336,
					0.27602043747901917,
					1
				],
				"metallicFactor":0,
				"roughnessFactor":0.8102633953094482
			}
		},
		{
			"name":"LRO-solarpanel-bronze",
			"pbrMetallicRoughness":{
				"baseColorFactor":[
					0.7692378163337708,
					0.6973068118095398,
					0.3788204789161682,
					1
				],
				"metallicFactor":0,
				"roughnessFactor":0.8102633953094482
			}
		},
		{
			"name":"LRO-solarpanel-gold",
			"pbrMetallicRoughness":{
				"baseColorFactor":[
					0.7692378163337708,
					0.5978332161903381,
					0.26340124011039734,
					1
				],
				"metallicFactor":0,
				"roughnessFactor":0.8102633953094482
			}
		}
	],
	"meshes":[
		{
			"name":"Mesh_0.001",
			"primitives":[
				{
					"attributes":{
						"POSITION":0,
						"NORMAL":1
					},
					"indices":2,
					"material":0
				},
				{
					"attributes":{
						"POSITION":3,
						"NORMAL":4
					},
					"indices":5,
					"material":1
				},
				{
					"attributes":{
						"POSITION":6,
						"NORMAL":7
					},
					"indices":8,
					"material":2
				},
				{
					"attributes":{
						"POSITION":9,
						"NORMAL":10
					},
					"indices":11,
					"material":3
				},
				{
					"attributes":{
						"POSITION":12,
						"NORMAL":13
					},
					"indices":14,
					"material":4
				},
				{
					"attributes":{
						"POSITION":15,
						"NORMAL":16
					},
					"indices":17,
					"material":5
				},
				{
					"attributes":{
						"POSITION":18,
						"NORMAL":19
					},
					"indices":20,
					"material":6
				},
				{
					"attributes":{
						"POSITION":21,
						"NORMAL":22
					},
					"indices":23,
					"material":7
				},
				{
					"attributes":{
						"POSITION":24,
						"NORMAL":25
					},
					"indices":26,
					"material":8
				},
				{
					"attributes":{
						"POSITION":27,
						"NORMAL":28
					},
					"indices":29,
					"material":9
				},
				{
					"attributes":{
						"POSITION":30,
						"NORMAL":31
					},
					"indices":32,
					"material":10
				},
				{
					"attributes":{
						"POSITION":33,
						"NORMAL":34
					},
					"indices":35,
					"material":11
				},
				{
					"attributes":{
						"POSITION":36,
						"NORMAL":37
					},
					"indices":38,
					"material":12
				},
				{
					"attributes":{
						"POSITION":39,
						"NORMAL":40
					},
					"indices":41,
					"material":13
				},
				{
					"attributes":{
						"POSITION":42,
						"NORMAL":43
					},
					"indices":44,
					"material":14
				},
				{
					"attributes":{
						"POSITION":45,
						"NORMAL":46
					},
					"indices":47,
					"material":15
				},
				{
					"attributes":{
						"POSITION":48,
						"NORMAL":49
					},
					"indices":50,
					"material":16
				},
				{
					"attributes":{
						"POSITION":51,
						"NORMAL":52
					},
					"indices":53,
					"material":17
				},
				{
					"attributes":{
						"POSITION":54,
						"NORMAL":55
					},
					"indices":56,
					"material":18
				},
				{
					"attributes":{
						"POSITION":57,
						"NORMAL":58
					},
					"indices":59,
					"material":19
				},
				{
					"attributes":{
						"POSITION":60,
						"NORMAL":61
					},
					"indices":62,
					"material":20
				},
				{
					"attributes":{
						"POSITION":63,
						"NORMAL":64
					},
					"indices":65,
					"material":21
				},
				{
					"attributes":{
						"POSITION":66,
						"NORMAL":67
					},
					"indices":68,
					"material":22
				}
			]
		},
		{
			"name":"Mesh_1",
			"primitives":[
				{
					"attributes":{
						"POSITION":69,
						"NORMAL":70
					},
					"indices":71,
					"material":5
				},
				{
					"attributes":{
						"POSITION":72,
						"NORMAL":73
					},
					"indices":74,
					"material":6
				},
				{
					"attributes":{
						"POSITION":75,
						"NORMAL":76
					},
					"indices":77,
					"material":8
				},
				{
					"attributes":{
						"POSITION":78,
						"NORMAL":79
					},
					"indices":80,
					"material":9
				},
				{
					"attributes":{
						"POSITION":81,
						"NORMAL":82
					},
					"indices":83,
					"material":10
				},
				{
					"attributes":{
						"POSITION":84,
						"NORMAL":85
					},
					"indices":86,
					"material":18
				},
				{
					"attributes":{
						"POSITION":87,
						"NORMAL":88
					},
					"indices":89,
					"material":19
				}
			]
		},
		{
			"name":"Mesh_2",
			"primitives":[
				{
					"attributes":{
						"POSITION":90,
						"NORMAL":91
					},
					"indices":92,
					"material":3
				},
				{
					"attributes":{
						"POSITION":93,
						"NORMAL":94
					},
					"indices":95,
					"material":5
				},
				{
					"attributes":{
						"POSITION":96,
						"NORMAL":97
					},
					"indices":98,
					"material":6
				},
				{
					"attributes":{
						"POSITION":99,
						"NORMAL":100
					},
					"indices":101,
					"material":8
				},
				{
					"attributes":{
						"POSITION":102,
						"NORMAL":103
					},
					"indices":65,
					"material":9
				},
				{
					"attributes":{
						"POSITION":104,
						"NORMAL":105
					},
					"indices":65,
					"material":11
				},
				{
					"attributes":{
						"POSITION":106,
						"NORMAL":107
					},
					"indices":108,
					"material":12
				}
			]
		},
		{
			"name":"Mesh_3",
			"primitives":[
				{
					"attributes":{
						"POSITION":109,
						"NORMAL":110
					},
					"indices":111,
					"material":5
				},
				{
					"attributes":{
						"POSITION":112,
						"NORMAL":113
					},
					"indices":114,
					"material":6
				},
				{
					"attributes":{
						"POSITION":115,
						"NORMAL":116
					},
					"indices":117,
					"material":11
				},
				{
					"attributes":{
						"POSITION":118,
						"NORMAL":119
					},
					"indices":120,
					"material":12
				},
				{
					"attributes":{
						"POSITION":121,
						"NORMAL":122
					},
					"indices":86,
					"material":18
				},
				{
					"attributes":{
						"POSITION":123,
						"NORMAL":124
					},
					"indices":125,
					"material":19
				},
				{
					"attributes":{
						"POSITION":126,
						"NORMAL":127
					},
					"indices":128,
					"material":23
				}
			]
		},
		{
			"name":"Mesh_4",
			"primitives":[
				{
					"attributes":{
						"POSITION":129,
						"NORMAL":130
					},
					"indices":131,
					"material":24
				},
				{
					"attributes":{
						"POSITION":132,
						"NORMAL":133
					},
					"indices":134,
					"material":25
				},
				{
					"attributes":{
						"POSITION":135,
						"NORMAL":136
					},
					"indices":137,
					"material":26
				},
				{
					"attributes":{
						"POSITION":138,
						"NORMAL":139
					},
					"indices":140,
					"material":27
				},
				{
					"attributes":{
						"POSITION":141,
						"NORMAL":142
					},
					"indices":143,
					"material":28
				},
				{
					"attributes":{
						"POSITION":144,
						"NORMAL":145
					},
					"indices":146,
					"material":29
				},
				{
					"attributes":{
						"POSITION":147,
						"NORMAL":148
					},
					"indices":149,
					"material":30
				},
				{
					"attributes":{
						"POSITION":150,
						"NORMAL":151
					},
					"indices":86,
					"material":31
				},
				{
					"attributes":{
						"POSITION":152,
						"NORMAL":153
					},
					"indices":154,
					"material":32
				},
				{
					"attributes":{
						"POSITION":155,
						"NORMAL":156
					},
					"indices":157,
					"material":22
				},
				{
					"attributes":{
						"POSITION":158,
						"NORMAL":159
					},
					"indices":160,
					"material":33
				}
			]
		}
	],
	"accessors":[
		{
			"bufferView":0,
			"componentType":5126,
			"count":1494,
			"max":[
				7.229270935058594,
				2.6262502670288086,
				5.625
			],
			"min":[
				0.4399999976158142,
				-13.640000343322754,
				2.8102028369903564
			],
			"type":"VEC3"
		},
		{
			"bufferView":1,
			"componentType":5126,
			"count":1494,
			"type":"VEC3"
		},
		{
			"bufferView":2,
			"componentType":5123,
			"count":1494,
			"type":"SCALAR"
		},
		{
			"bufferView":3,
			"componentType":5126,
			"count":2112,
			"max":[
				1.7599999904632568,
				-12.949999809265137,
				5.664519309997559
			],
			"min":[
				0.3339998126029968,
				-13.749998092651367,
				4.735438823699951
			],
			"type":"VEC3"
		},
		{
			"bufferView":4,
			"componentType":5126,
			"count":2112,
			"type":"VEC3"
		},
		{
			"bufferView":5,
			"componentType":5123,
			"count":2112,
			"type":"SCALAR"
		},
		{
			"bufferView":6,
			"componentType":5126,
			"count":19446,
			"max":[
				2.03719162940979,
				-11.050000190734863,
				5.670499324798584
			],
			"min":[
				0.3280002474784851,
				-13.755999565124512,
				4.719939231872559
			],
			"type":"VEC3"
		},
		{
			"bufferView":7,
			"componentType":5126,
			"count":19446,
			"type":"VEC3"
		},
		{
			"bufferView":8,
			"componentType":5123,
			"count":19446,
			"type":"SCALAR"
		},
		{
			"bufferView":9,
			"componentType":5126,
			"count":10167,
			"max":[
				4.119726657867432,
				0.012713992968201637,
				4.820000171661377
			],
			"min":[
				-4.820000171661377,
				-10.90000057220459,
				-4.570009708404541
			],
			"type":"VEC3"
		},
		{
			"bufferView":10,
			"componentType":5126,
			"count":10167,
			"type":"VEC3"
		},
		{
			"bufferView":11,
			"componentType":5123,
			"count":10167,
			"type":"SCALAR"
		},
		{
			"bufferView":12,
			"componentType":5126,
			"count":1548,
			"max":[
				6.4863691329956055,
				10.000844955444336,
				7.73900032043457
			],
			"min":[
				-0.7745793461799622,
				-8.658939361572266,
				-0.7725400924682617
			],
			"type":"VEC3"
		},
		{
			"bufferView":13,
			"componentType":5126,
			"count":1548,
			"type":"VEC3"
		},
		{
			"bufferView":14,
			"componentType":5123,
			"count":1548,
			"type":"SCALAR"
		},
		{
			"bufferView":15,
			"componentType":5126,
			"count":5340,
			"max":[
				8.827022552490234,
				7.363376140594482,
				6.0960001945495605
			],
			"min":[
				-7.980000019073486,
				-9.655563354492188,
				-6.2347588539123535
			],
			"type":"VEC3"
		},
		{
			"bufferView":16,
			"componentType":5126,
			"count":5340,
			"type":"VEC3"
		},
		{
			"bufferView":17,
			"componentType":5123,
			"count":5340,
			"type":"SCALAR"
		},
		{
			"bufferView":18,
			"componentType":5126,
			"count":50499,
			"max":[
				9.000067710876465,
				9.379244804382324,
				7.111999988555908
			],
			"min":[
				-9.189051628112793,
				-16.079303741455078,
				-6.539551258087158
			],
			"type":"VEC3"
		},
		{
			"bufferView":19,
			"componentType":5126,
			"count":50499,
			"type":"VEC3"
		},
		{
			"bufferView":20,
			"componentType":5123,
			"count":50499,
			"type":"SCALAR"
		},
		{
			"bufferView":21,
			"componentType":5126,
			"count":744,
			"max":[
				8.257783889770508,
				6.91249942779541,
				7.459688186645508
			],
			"min":[
				-4.820000171661377,
				-10.050000190734863,
				-0.0705723762512207
			],
			"type":"VEC3"
		},
		{
			"bufferView":22,
			"componentType":5126,
			"count":744,
			"type":"VEC3"
		},
		{
			"bufferView":23,
			"componentType":5123,
			"count":744,
			"type":"SCALAR"
		},
		{
			"bufferView":24,
			"componentType":5126,
			"count":4374,
			"max":[
				7.393332481384277,
				1.683910846710205,
				7.459688186645508
			],
			"min":[
				2.26869797706604,
				-9.455434799194336,
				-5.833041191101074
			],
			"type":"VEC3"
		},
		{
			"bufferView":25,
			"componentType":5126,
			"count":4374,
			"type":"VEC3"
		},
		{
			"bufferView":26,
			"componentType":5123,
			"count":4374,
			"type":"SCALAR"
		},
		{
			"bufferView":27,
			"componentType":5126,
			"count":2160,
			"max":[
				8.385396957397461,
				10.000844955444336,
				7.650000095367432
			],
			"min":[
				-9.317150115966797,
				-9.850000381469727,
				-5.253109455108643
			],
			"type":"VEC3"
		},
		{
			"bufferView":28,
			"componentType":5126,
			"count":2160,
			"type":"VEC3"
		},
		{
			"bufferView":29,
			"componentType":5123,
			"count":2160,
			"type":"SCALAR"
		},
		{
			"bufferView":30,
			"componentType":5126,
			"count":17508,
			"max":[
				7.676413536071777,
				10.000844955444336,
				5.730000019073486
			],
			"min":[
				-9.176241874694824,
				-9.75,
				-6.318460941314697
			],
			"type":"VEC3"
		},
		{
			"bufferView":31,
			"componentType":5126,
			"count":17508,
			"type":"VEC3"
		},
		{
			"bufferView":32,
			"componentType":5123,
			"count":17508,
			"type":"SCALAR"
		},
		{
			"bufferView":33,
			"componentType":5126,
			"count":6822,
			"max":[
				9.052925109863281,
				8.058783531188965,
				7.971916198730469
			],
			"min":[
				-7.812385559082031,
				-16.27878189086914,
				-5.149839401245117
			],
			"type":"VEC3"
		},
		{
			"bufferView":34,
			"componentType":5126,
			"count":6822,
			"type":"VEC3"
		},
		{
			"bufferView":35,
			"componentType":5123,
			"count":6822,
			"type":"SCALAR"
		},
		{
			"bufferView":36,
			"componentType":5126,
			"count":16377,
			"max":[
				8.969970703125,
				8.072905540466309,
				7.827981948852539
			],
			"min":[
				-8.079999923706055,
				-16.292903900146484,
				-6.235566139221191
			],
			"type":"VEC3"
		},
		{
			"bufferView":37,
			"componentType":5126,
			"count":16377,
			"type":"VEC3"
		},
		{
			"bufferView":38,
			"componentType":5123,
			"count":16377,
			"type":"SCALAR"
		},
		{
			"bufferView":39,
			"componentType":5126,
			"count":1644,
			"max":[
				4.115461349487305,
				6.989999771118164,
				-4.914999961853027
			],
			"min":[
				-7.430000305175781,
				-10.90999984741211,
				-5.169574737548828
			],
			"type":"VEC3"
		},
		{
			"bufferView":40,
			"componentType":5126,
			"count":1644,
			"type":"VEC3"
		},
		{
			"bufferView":41,
			"componentType":5123,
			"count":1644,
			"type":"SCALAR"
		},
		{
			"bufferView":42,
			"componentType":5126,
			"count":1284,
			"max":[
				7.676241874694824,
				8.10605525970459,
				5.138835430145264
			],
			"min":[
				-9.176241874694824,
				-8.145691871643066,
				-5.048981189727783
			],
			"type":"VEC3"
		},
		{
			"bufferView":43,
			"componentType":5126,
			"count":1284,
			"type":"VEC3"
		},
		{
			"bufferView":44,
			"componentType":5123,
			"count":1284,
			"type":"SCALAR"
		},
		{
			"bufferView":45,
			"componentType":5126,
			"count":4410,
			"max":[
				8.219133377075195,
				9.4232759475708,
				5.275604248046875
			],
			"min":[
				-3.785761594772339,
				-7.9786176681518555,
				-6.47861385345459
			],
			"type":"VEC3"
		},
		{
			"bufferView":46,
			"componentType":5126,
			"count":4410,
			"type":"VEC3"
		},
		{
			"bufferView":47,
			"componentType":5123,
			"count":4410,
			"type":"SCALAR"
		},
		{
			"bufferView":48,
			"componentType":5126,
			"count":1722,
			"max":[
				6.9559645652771,
				9.425971984863281,
				4.820000171661377
			],
			"min":[
				-4.820000171661377,
				-12.950000762939453,
				-4.882673740386963
			],
			"type":"VEC3"
		},
		{
			"bufferView":49,
			"componentType":5126,
			"count":1722,
			"type":"VEC3"
		},
		{
			"bufferView":50,
			"componentType":5123,
			"count":1722,
			"type":"SCALAR"
		},
		{
			"bufferView":51,
			"componentType":5126,
			"count":12186,
			"max":[
				8.802536964416504,
				9.42586612701416,
				0.5964580774307251
			],
			"min":[
				-7.562411308288574,
				-15.708374977111816,
				-4.883582592010498
			],
			"type":"VEC3"
		},
		{
			"bufferView":52,
			"componentType":5126,
			"count":12186,
			"type":"VEC3"
		},
		{
			"bufferView":53,
			"componentType":5123,
			"count":12186,
			"type":"SCALAR"
		},
		{
			"bufferView":54,
			"componentType":5126,
			"count":1404,
			"max":[
				4.991995334625244,
				9.300000190734863,
				4.992000102996826
			],
			"min":[
				-4.992000102996826,
				5.701075077056885,
				-5.111013889312744
			],
			"type":"VEC3"
		},
		{
			"bufferView":55,
			"componentType":5126,
			"count":1404,
			"type":"VEC3"
		},
		{
			"bufferView":56,
			"componentType":5123,
			"count":1404,
			"type":"SCALAR"
		},
		{
			"bufferView":57,
			"componentType":5126,
			"count":2202,
			"max":[
				7.250000476837158,
				9.300000190734863,
				4.992000102996826
			],
			"min":[
				-4.992000102996826,
				-2.6498308181762695,
				-5.110658168792725
			],
			"type":"VEC3"
		},
		{
			"bufferView":58,
			"componentType":5126,
			"count":2202,
			"type":"VEC3"
		},
		{
			"bufferView":59,
			"componentType":5123,
			"count":2202,
			"type":"SCALAR"
		},
		{
			"bufferView":60,
			"componentType":5126,
			"count":20808,
			"max":[
				4.126439571380615,
				6.97599983215332,
				4.826000213623047
			],
			"min":[
				-7.437373638153076,
				-9.788000106811523,
				-4.57158088684082
			],
			"type":"VEC3"
		},
		{
			"bufferView":61,
			"componentType":5126,
			"count":20808,
			"type":"VEC3"
		},
		{
			"bufferView":62,
			"componentType":5123,
			"count":20808,
			"type":"SCALAR"
		},
		{
			"bufferView":63,
			"componentType":5126,
			"count":36,
			"max":[
				-1.8190653324127197,
				6.701749324798584,
				7.840804576873779
			],
			"min":[
				-4.731081008911133,
				-6.759748935699463,
				4.928789138793945
			],
			"type":"VEC3"
		},
		{
			"bufferView":64,
			"componentType":5126,
			"count":36,
			"type":"VEC3"
		},
		{
			"bufferView":65,
			"componentType":5123,
			"count":36,
			"type":"SCALAR"
		},
		{
			"bufferView":66,
			"componentType":5126,
			"count":288,
			"max":[
				2.1761343479156494,
				9.300000190734863,
				2.1761343479156494
			],
			"min":[
				-2.1761343479156494,
				9.030092239379883,
				-2.1761343479156494
			],
			"type":"VEC3"
		},
		{
			"bufferView":67,
			"componentType":5126,
			"count":288,
			"type":"VEC3"
		},
		{
			"bufferView":68,
			"componentType":5123,
			"count":288,
			"type":"SCALAR"
		},
		{
			"bufferView":69,
			"componentType":5126,
			"count":138,
			"max":[
				0.847205638885498,
				-14.177203178405762,
				0.2975994050502777
			],
			"min":[
				0.41960400342941284,
				-14.67636489868164,
				-1.0752004384994507
			],
			"type":"VEC3"
		},
		{
			"bufferView":70,
			"componentType":5126,
			"count":138,
			"type":"VEC3"
		},
		{
			"bufferView":71,
			"componentType":5123,
			"count":138,
			"type":"SCALAR"
		},
		{
			"bufferView":72,
			"componentType":5126,
			"count":882,
			"max":[
				0.8472005724906921,
				0.3990386426448822,
				0.5409075021743774
			],
			"min":[
				-0.6352224946022034,
				-14.676403045654297,
				-1.0749428272247314
			],
			"type":"VEC3"
		},
		{
			"bufferView":73,
			"componentType":5126,
			"count":882,
			"type":"VEC3"
		},
		{
			"bufferView":74,
			"componentType":5123,
			"count":882,
			"type":"SCALAR"
		},
		{
			"bufferView":75,
			"componentType":5126,
			"count":72,
			"max":[
				-0.4303203225135803,
				-0.779999852180481,
				0.13999995589256287
			],
			"min":[
				-0.6799998879432678,
				-14.280000686645508,
				-0.09979130327701569
			],
			"type":"VEC3"
		},
		{
			"bufferView":76,
			"componentType":5126,
			"count":72,
			"type":"VEC3"
		},
		{
			"bufferView":77,
			"componentType":5123,
			"count":72,
			"type":"SCALAR"
		},
		{
			"bufferView":78,
			"componentType":5126,
			"count":294,
			"max":[
				0.4899999499320984,
				-0.8199998140335083,
				-0.19000044465065002
			],
			"min":[
				-0.544999897480011,
				-1.4600281715393066,
				-0.779994010925293
			],
			"type":"VEC3"
		},
		{
			"bufferView":79,
			"componentType":5126,
			"count":294,
			"type":"VEC3"
		},
		{
			"bufferView":80,
			"componentType":5123,
			"count":294,
			"type":"SCALAR"
		},
		{
			"bufferView":81,
			"componentType":5126,
			"count":276,
			"max":[
				0.6443993449211121,
				-0.43616974353790283,
				0.6732479333877563
			],
			"min":[
				-0.6734886765480042,
				-0.8255109786987305,
				-0.6446400880813599
			],
			"type":"VEC3"
		},
		{
			"bufferView":82,
			"componentType":5126,
			"count":276,
			"type":"VEC3"
		},
		{
			"bufferView":83,
			"componentType":5123,
			"count":276,
			"type":"SCALAR"
		},
		{
			"bufferView":84,
			"componentType":5126,
			"count":132,
			"max":[
				0.6736792922019958,
				-14.252519607543945,
				0.7406555414199829
			],
			"min":[
				-0.7230709195137024,
				-14.392159461975098,
				-0.7027000188827515
			],
			"type":"VEC3"
		},
		{
			"bufferView":85,
			"componentType":5126,
			"count":132,
			"type":"VEC3"
		},
		{
			"bufferView":86,
			"componentType":5123,
			"count":132,
			"type":"SCALAR"
		},
		{
			"bufferView":87,
			"componentType":5126,
			"count":354,
			"max":[
				0.6735420823097229,
				-0.8372775316238403,
				0.7406555414199829
			],
			"min":[
				-0.7230709195137024,
				-14.392200469970703,
				-0.7022905349731445
			],
			"type":"VEC3"
		},
		{
			"bufferView":88,
			"componentType":5126,
			"count":354,
			"type":"VEC3"
		},
		{
			"bufferView":89,
			"componentType":5123,
			"count":354,
			"type":"SCALAR"
		},
		{
			"bufferView":90,
			"componentType":5126,
			"count":66,
			"max":[
				0.6223000288009644,
				-0.06984999775886536,
				0.6096000075340271
			],
			"min":[
				-0.6223000288009644,
				-0.06984999775886536,
				-0.6096263527870178
			],
			"type":"VEC3"
		},
		{
			"bufferView":91,
			"componentType":5126,
			"count":66,
			"type":"VEC3"
		},
		{
			"bufferView":92,
			"componentType":5123,
			"count":66,
			"type":"SCALAR"
		},
		{
			"bufferView":93,
			"componentType":5126,
			"count":792,
			"max":[
				1.2062751054763794,
				-0.42880311608314514,
				0.45042502880096436
			],
			"min":[
				-0.8061248064041138,
				-2.3344597816467285,
				-1.0831654071807861
			],
			"type":"VEC3"
		},
		{
			"bufferView":94,
			"componentType":5126,
			"count":792,
			"type":"VEC3"
		},
		{
			"bufferView":95,
			"componentType":5123,
			"count":792,
			"type":"SCALAR"
		},
		{
			"bufferView":96,
			"componentType":5126,
			"count":702,
			"max":[
				0.6664530038833618,
				2.0265580324974053e-09,
				0.6659559011459351
			],
			"min":[
				-0.8104830980300903,
				-1.240020513534546,
				-0.6653870344161987
			],
			"type":"VEC3"
		},
		{
			"bufferView":97,
			"componentType":5126,
			"count":702,
			"type":"VEC3"
		},
		{
			"bufferView":98,
			"componentType":5123,
			"count":702,
			"type":"SCALAR"
		},
		{
			"bufferView":99,
			"componentType":5126,
			"count":942,
			"max":[
				0.8630750179290771,
				-0.7408033609390259,
				0.41682469844818115
			],
			"min":[
				-0.8685249090194702,
				-2.3343658447265625,
				-0.21893030405044556
			],
			"type":"VEC3"
		},
		{
			"bufferView":100,
			"componentType":5126,
			"count":942,
			"type":"VEC3"
		},
		{
			"bufferView":101,
			"componentType":5123,
			"count":942,
			"type":"SCALAR"
		},
		{
			"bufferView":102,
			"componentType":5126,
			"count":36,
			"max":[
				0.6602752208709717,
				-1.302402138710022,
				0.40362489223480225
			],
			"min":[
				-0.6345251798629761,
				-1.3804079294204712,
				-0.45435917377471924
			],
			"type":"VEC3"
		},
		{
			"bufferView":103,
			"componentType":5126,
			"count":36,
			"type":"VEC3"
		},
		{
			"bufferView":104,
			"componentType":5126,
			"count":36,
			"max":[
				0.8630750179290771,
				-0.3508049547672272,
				0.8716243505477905
			],
			"min":[
				-0.8685249090194702,
				-0.4444506764411926,
				-0.8131527900695801
			],
			"type":"VEC3"
		},
		{
			"bufferView":105,
			"componentType":5126,
			"count":36,
			"type":"VEC3"
		},
		{
			"bufferView":106,
			"componentType":5126,
			"count":2424,
			"max":[
				1.2062872648239136,
				-0.06775441765785217,
				0.6659559011459351
			],
			"min":[
				-0.6649130582809448,
				-2.394399404525757,
				-1.0831108093261719
			],
			"type":"VEC3"
		},
		{
			"bufferView":107,
			"componentType":5126,
			"count":2424,
			"type":"VEC3"
		},
		{
			"bufferView":108,
			"componentType":5123,
			"count":2424,
			"type":"SCALAR"
		},
		{
			"bufferView":109,
			"componentType":5126,
			"count":306,
			"max":[
				0.3799845576286316,
				0.37999916076660156,
				0.3199997544288635
			],
			"min":[
				-0.43871766328811646,
				-0.5969158411026001,
				-1.2800002098083496
			],
			"type":"VEC3"
		},
		{
			"bufferView":110,
			"componentType":5126,
			"count":306,
			"type":"VEC3"
		},
		{
			"bufferView":111,
			"componentType":5123,
			"count":306,
			"type":"SCALAR"
		},
		{
			"bufferView":112,
			"componentType":5126,
			"count":1626,
			"max":[
				0.9550585150718689,
				0.4199991226196289,
				1.0489979982376099
			],
			"min":[
				-0.925000011920929,
				-1.792996883392334,
				-1.28000009059906
			],
			"type":"VEC3"
		},
		{
			"bufferView":113,
			"componentType":5126,
			"count":1626,
			"type":"VEC3"
		},
		{
			"bufferView":114,
			"componentType":5123,
			"count":1626,
			"type":"SCALAR"
		},
		{
			"bufferView":115,
			"componentType":5126,
			"count":282,
			"max":[
				0.2899932861328125,
				-0.12737654149532318,
				0.29475027322769165
			],
			"min":[
				-0.6299999356269836,
				-1.2899999618530273,
				-0.1599949300289154
			],
			"type":"VEC3"
		},
		{
			"bufferView":116,
			"componentType":5126,
			"count":282,
			"type":"VEC3"
		},
		{
			"bufferView":117,
			"componentType":5123,
			"count":282,
			"type":"SCALAR"
		},
		{
			"bufferView":118,
			"componentType":5126,
			"count":588,
			"max":[
				0.3118401765823364,
				-0.12737654149532318,
				0.42174917459487915
			],
			"min":[
				-0.3231237530708313,
				-1.5981264114379883,
				-0.21321475505828857
			],
			"type":"VEC3"
		},
		{
			"bufferView":119,
			"componentType":5126,
			"count":588,
			"type":"VEC3"
		},
		{
			"bufferView":120,
			"componentType":5123,
			"count":588,
			"type":"SCALAR"
		},
		{
			"bufferView":121,
			"componentType":5126,
			"count":132,
			"max":[
				0.17457488179206848,
				-2.137362480163574,
				0.265846312046051
			],
			"min":[
				-0.14363759756088257,
				-2.2745301723480225,
				-0.052366167306900024
			],
			"type":"VEC3"
		},
		{
			"bufferView":122,
			"componentType":5126,
			"count":132,
			"type":"VEC3"
		},
		{
			"bufferView":123,
			"componentType":5126,
			"count":1662,
			"max":[
				0.7899523377418518,
				-1.7508468627929688,
				0.632522702217102
			],
			"min":[
				-0.7590168118476868,
				-2.891749620437622,
				-0.7798255681991577
			],
			"type":"VEC3"
		},
		{
			"bufferView":124,
			"componentType":5126,
			"count":1662,
			"type":"VEC3"
		},
		{
			"bufferView":125,
			"componentType":5123,
			"count":1662,
			"type":"SCALAR"
		},
		{
			"bufferView":126,
			"componentType":5126,
			"count":4602,
			"max":[
				3.7572710514068604,
				-1.7730016708374023,
				3.8492658138275146
			],
			"min":[
				-3.727268934249878,
				-2.8470511436462402,
				-3.6352741718292236
			],
			"type":"VEC3"
		},
		{
			"bufferView":127,
			"componentType":5126,
			"count":4602,
			"type":"VEC3"
		},
		{
			"bufferView":128,
			"componentType":5123,
			"count":4602,
			"type":"SCALAR"
		},
		{
			"bufferView":129,
			"componentType":5126,
			"count":3303,
			"max":[
				-1.6747207641601562,
				-0.16350127756595612,
				15.95925521850586
			],
			"min":[
				-24.187047958374023,
				-0.16350127756595612,
				-16.218326568603516
			],
			"type":"VEC3"
		},
		{
			"bufferView":130,
			"componentType":5126,
			"count":3303,
			"type":"VEC3"
		},
		{
			"bufferView":131,
			"componentType":5123,
			"count":3303,
			"type":"SCALAR"
		},
		{
			"bufferView":132,
			"componentType":5126,
			"count":2175,
			"max":[
				-1.6747207641601562,
				-0.16350127756595612,
				15.95925521850586
			],
			"min":[
				-24.187047958374023,
				-0.16350127756595612,
				-16.218326568603516
			],
			"type":"VEC3"
		},
		{
			"bufferView":133,
			"componentType":5126,
			"count":2175,
			"type":"VEC3"
		},
		{
			"bufferView":134,
			"componentType":5123,
			"count":2175,
			"type":"SCALAR"
		},
		{
			"bufferView":135,
			"componentType":5126,
			"count":2505,
			"max":[
				-1.6747207641601562,
				-0.16350127756595612,
				15.95925521850586
			],
			"min":[
				-24.187047958374023,
				-0.16350127756595612,
				-16.218326568603516
			],
			"type":"VEC3"
		},
		{
			"bufferView":136,
			"componentType":5126,
			"count":2505,
			"type":"VEC3"
		},
		{
			"bufferView":137,
			"componentType":5123,
			"count":2505,
			"type":"SCALAR"
		},
		{
			"bufferView":138,
			"componentType":5126,
			"count":2154,
			"max":[
				-1.6747207641601562,
				-0.16350127756595612,
				15.95925521850586
			],
			"min":[
				-24.187047958374023,
				-0.16350127756595612,
				-16.218326568603516
			],
			"type":"VEC3"
		},
		{
			"bufferView":139,
			"componentType":5126,
			"count":2154,
			"type":"VEC3"
		},
		{
			"bufferView":140,
			"componentType":5123,
			"count":2154,
			"type":"SCALAR"
		},
		{
			"bufferView":141,
			"componentType":5126,
			"count":2217,
			"max":[
				-1.6747207641601562,
				-0.16350127756595612,
				15.95925521850586
			],
			"min":[
				-24.187047958374023,
				-0.16350127756595612,
				-16.218326568603516
			],
			"type":"VEC3"
		},
		{
			"bufferView":142,
			"componentType":5126,
			"count":2217,
			"type":"VEC3"
		},
		{
			"bufferView":143,
			"componentType":5123,
			"count":2217,
			"type":"SCALAR"
		},
		{
			"bufferView":144,
			"componentType":5126,
			"count":3081,
			"max":[
				-1.6747207641601562,
				-0.16350127756595612,
				15.95925521850586
			],
			"min":[
				-24.187047958374023,
				-0.16350127756595612,
				-16.218326568603516
			],
			"type":"VEC3"
		},
		{
			"bufferView":145,
			"componentType":5126,
			"count":3081,
			"type":"VEC3"
		},
		{
			"bufferView":146,
			"componentType":5123,
			"count":3081,
			"type":"SCALAR"
		},
		{
			"bufferView":147,
			"componentType":5126,
			"count":3027,
			"max":[
				-1.6747207641601562,
				-0.16350127756595612,
				15.95925521850586
			],
			"min":[
				-24.187047958374023,
				-0.16350127756595612,
				-16.218326568603516
			],
			"type":"VEC3"
		},
		{
			"bufferView":148,
			"componentType":5126,
			"count":3027,
			"type":"VEC3"
		},
		{
			"bufferView":149,
			"componentType":5123,
			"count":3027,
			"type":"SCALAR"
		},
		{
			"bufferView":150,
			"componentType":5126,
			"count":132,
			"max":[
				-1.6182518005371094,
				0.09325025230646133,
				16.00200080871582
			],
			"min":[
				-24.224252700805664,
				-0.16074976325035095,
				-16.25600242614746
			],
			"type":"VEC3"
		},
		{
			"bufferView":151,
			"componentType":5126,
			"count":132,
			"type":"VEC3"
		},
		{
			"bufferView":152,
			"componentType":5126,
			"count":3084,
			"max":[
				-0.7609996795654297,
				0.34725043177604675,
				5.8420000076293945
			],
			"min":[
				-21.811250686645508,
				-0.3196042478084564,
				-6.095855712890625
			],
			"type":"VEC3"
		},
		{
			"bufferView":153,
			"componentType":5126,
			"count":3084,
			"type":"VEC3"
		},
		{
			"bufferView":154,
			"componentType":5123,
			"count":3084,
			"type":"SCALAR"
		},
		{
			"bufferView":155,
			"componentType":5126,
			"count":636,
			"max":[
				-0.26569998264312744,
				0.28999993205070496,
				0.25
			],
			"min":[
				-1.420000433921814,
				-0.29000380635261536,
				-0.25003480911254883
			],
			"type":"VEC3"
		},
		{
			"bufferView":156,
			"componentType":5126,
			"count":636,
			"type":"VEC3"
		},
		{
			"bufferView":157,
			"componentType":5123,
			"count":636,
			"type":"SCALAR"
		},
		{
			"bufferView":158,
			"componentType":5126,
			"count":5814,
			"max":[
				0.2769012451171875,
				0.4107498824596405,
				5.5879998207092285
			],
			"min":[
				-22.50975227355957,
				-0.41542795300483704,
				-5.842184543609619
			],
			"type":"VEC3"
		},
		{
			"bufferView":159,
			"componentType":5126,
			"count":5814,
			"type":"VEC3"
		},
		{
			"bufferView":160,
			"componentType":5123,
			"count":5814,
			"type":"SCALAR"
		}
	],
	"bufferViews":[
		{
			"buffer":0,
			"byteLength":17928,
			"byteOffset":0,
			"target":34962
		},
		{
			"buffer":0,
			"byteLength":17928,
			"byteOffset":17928,
			"target":34962
		},
		{
			"buffer":0,
			"byteLength":2988,
			"byteOffset":35856,
			"target":34963
		},
		{
			"buffer":0,
			"byteLength":25344,
			"byteOffset":38844,
			"target":34962
		},
		{
			"buffer":0,
			"byteLength":25344,
			"byteOffset":64188,
			"target":34962
		},
		{
			"buffer":0,
			"byteLength":4224,
			"byteOffset":89532,
			"target":34963
		},
		{
			"buffer":0,
			"byteLength":233352,
			"byteOffset":93756,
			"target":34962
		},
		{
			"buffer":0,
			"byteLength":233352,
			"byteOffset":327108,
			"target":34962
		},
		{
			"buffer":0,
			"byteLength":38892,
			"byteOffset":560460,
			"target":34963
		},
		{
			"buffer":0,
			"byteLength":122004,
			"byteOffset":599352,
			"target":34962
		},
		{
			"buffer":0,
			"byteLength":122004,
			"byteOffset":721356,
			"target":34962
		},
		{
			"buffer":0,
			"byteLength":20334,
			"byteOffset":843360,
			"target":34963
		},
		{
			"buffer":0,
			"byteLength":18576,
			"byteOffset":863696,
			"target":34962
		},
		{
			"buffer":0,
			"byteLength":18576,
			"byteOffset":882272,
			"target":34962
		},
		{
			"buffer":0,
			"byteLength":3096,
			"byteOffset":900848,
			"target":34963
		},
		{
			"buffer":0,
			"byteLength":64080,
			"byteOffset":903944,
			"target":34962
		},
		{
			"buffer":0,
			"byteLength":64080,
			"byteOffset":968024,
			"target":34962
		},
		{
			"buffer":0,
			"byteLength":10680,
			"byteOffset":1032104,
			"target":34963
		},
		{
			"buffer":0,
			"byteLength":605988,
			"byteOffset":1042784,
			"target":34962
		},
		{
			"buffer":0,
			"byteLength":605988,
			"byteOffset":1648772,
			"target":34962
		},
		{
			"buffer":0,
			"byteLength":100998,
			"byteOffset":2254760,
			"target":34963
		},
		{
			"buffer":0,
			"byteLength":8928,
			"byteOffset":2355760,
			"target":34962
		},
		{
			"buffer":0,
			"byteLength":8928,
			"byteOffset":2364688,
			"target":34962
		},
		{
			"buffer":0,
			"byteLength":1488,
			"byteOffset":2373616,
			"target":34963
		},
		{
			"buffer":0,
			"byteLength":52488,
			"byteOffset":2375104,
			"target":34962
		},
		{
			"buffer":0,
			"byteLength":52488,
			"byteOffset":2427592,
			"target":34962
		},
		{
			"buffer":0,
			"byteLength":8748,
			"byteOffset":2480080,
			"target":34963
		},
		{
			"buffer":0,
			"byteLength":25920,
			"byteOffset":2488828,
			"target":34962
		},
		{
			"buffer":0,
			"byteLength":25920,
			"byteOffset":2514748,
			"target":34962
		},
		{
			"buffer":0,
			"byteLength":4320,
			"byteOffset":2540668,
			"target":34963
		},
		{
			"buffer":0,
			"byteLength":210096,
			"byteOffset":2544988,
			"target":34962
		},
		{
			"buffer":0,
			"byteLength":210096,
			"byteOffset":2755084,
			"target":34962
		},
		{
			"buffer":0,
			"byteLength":35016,
			"byteOffset":2965180,
			"target":34963
		},
		{
			"buffer":0,
			"byteLength":81864,
			"byteOffset":3000196,
			"target":34962
		},
		{
			"buffer":0,
			"byteLength":81864,
			"byteOffset":3082060,
			"target":34962
		},
		{
			"buffer":0,
			"byteLength":13644,
			"byteOffset":3163924,
			"target":34963
		},
		{
			"buffer":0,
			"byteLength":196524,
			"byteOffset":3177568,
			"target":34962
		},
		{
			"buffer":0,
			"byteLength":196524,
			"byteOffset":3374092,
			"target":34962
		},
		{
			"buffer":0,
			"byteLength":32754,
			"byteOffset":3570616,
			"target":34963
		},
		{
			"buffer":0,
			"byteLength":19728,
			"byteOffset":3603372,
			"target":34962
		},
		{
			"buffer":0,
			"byteLength":19728,
			"byteOffset":3623100,
			"target":34962
		},
		{
			"buffer":0,
			"byteLength":3288,
			"byteOffset":3642828,
			"target":34963
		},
		{
			"buffer":0,
			"byteLength":15408,
			"byteOffset":3646116,
			"target":34962
		},
		{
			"buffer":0,
			"byteLength":15408,
			"byteOffset":3661524,
			"target":34962
		},
		{
			"buffer":0,
			"byteLength":2568,
			"byteOffset":3676932,
			"target":34963
		},
		{
			"buffer":0,
			"byteLength":52920,
			"byteOffset":3679500,
			"target":34962
		},
		{
			"buffer":0,
			"byteLength":52920,
			"byteOffset":3732420,
			"target":34962
		},
		{
			"buffer":0,
			"byteLength":8820,
			"byteOffset":3785340,
			"target":34963
		},
		{
			"buffer":0,
			"byteLength":20664,
			"byteOffset":3794160,
			"target":34962
		},
		{
			"buffer":0,
			"byteLength":20664,
			"byteOffset":3814824,
			"target":34962
		},
		{
			"buffer":0,
			"byteLength":3444,
			"byteOffset":3835488,
			"target":34963
		},
		{
			"buffer":0,
			"byteLength":146232,
			"byteOffset":3838932,
			"target":34962
		},
		{
			"buffer":0,
			"byteLength":146232,
			"byteOffset":3985164,
			"target":34962
		},
		{
			"buffer":0,
			"byteLength":24372,
			"byteOffset":4131396,
			"target":34963
		},
		{
			"buffer":0,
			"byteLength":16848,
			"byteOffset":4155768,
			"target":34962
		},
		{
			"buffer":0,
			"byteLength":16848,
			"byteOffset":4172616,
			"target":34962
		},
		{
			"buffer":0,
			"byteLength":2808,
			"byteOffset":4189464,
			"target":34963
		},
		{
			"buffer":0,
			"byteLength":26424,
			"byteOffset":4192272,
			"target":34962
		},
		{
			"buffer":0,
			"byteLength":26424,
			"byteOffset":4218696,
			"target":34962
		},
		{
			"buffer":0,
			"byteLength":4404,
			"byteOffset":4245120,
			"target":34963
		},
		{
			"buffer":0,
			"byteLength":249696,
			"byteOffset":4249524,
			"target":34962
		},
		{
			"buffer":0,
			"byteLength":249696,
			"byteOffset":4499220,
			"target":34962
		},
		{
			"buffer":0,
			"byteLength":41616,
			"byteOffset":4748916,
			"target":34963
		},
		{
			"buffer":0,
			"byteLength":432,
			"byteOffset":4790532,
			"target":34962
		},
		{
			"buffer":0,
			"byteLength":432,
			"byteOffset":4790964,
			"target":34962
		},
		{
			"buffer":0,
			"byteLength":72,
			"byteOffset":4791396,
			"target":34963
		},
		{
			"buffer":0,
			"byteLength":3456,
			"byteOffset":4791468,
			"target":34962
		},
		{
			"buffer":0,
			"byteLength":3456,
			"byteOffset":4794924,
			"target":34962
		},
		{
			"buffer":0,
			"byteLength":576,
			"byteOffset":4798380,
			"target":34963
		},
		{
			"buffer":0,
			"byteLength":1656,
			"byteOffset":4798956,
			"target":34962
		},
		{
			"buffer":0,
			"byteLength":1656,
			"byteOffset":4800612,
			"target":34962
		},
		{
			"buffer":0,
			"byteLength":276,
			"byteOffset":4802268,
			"target":34963
		},
		{
			"buffer":0,
			"byteLength":10584,
			"byteOffset":4802544,
			"target":34962
		},
		{
			"buffer":0,
			"byteLength":10584,
			"byteOffset":4813128,
			"target":34962
		},
		{
			"buffer":0,
			"byteLength":1764,
			"byteOffset":4823712,
			"target":34963
		},
		{
			"buffer":0,
			"byteLength":864,
			"byteOffset":4825476,
			"target":34962
		},
		{
			"buffer":0,
			"byteLength":864,
			"byteOffset":4826340,
			"target":34962
		},
		{
			"buffer":0,
			"byteLength":144,
			"byteOffset":4827204,
			"target":34963
		},
		{
			"buffer":0,
			"byteLength":3528,
			"byteOffset":4827348,
			"target":34962
		},
		{
			"buffer":0,
			"byteLength":3528,
			"byteOffset":4830876,
			"target":34962
		},
		{
			"buffer":0,
			"byteLength":588,
			"byteOffset":4834404,
			"target":34963
		},
		{
			"buffer":0,
			"byteLength":3312,
			"byteOffset":4834992,
			"target":34962
		},
		{
			"buffer":0,
			"byteLength":3312,
			"byteOffset":4838304,
			"target":34962
		},
		{
			"buffer":0,
			"byteLength":552,
			"byteOffset":4841616,
			"target":34963
		},
		{
			"buffer":0,
			"byteLength":1584,
			"byteOffset":4842168,
			"target":34962
		},
		{
			"buffer":0,
			"byteLength":1584,
			"byteOffset":4843752,
			"target":34962
		},
		{
			"buffer":0,
			"byteLength":264,
			"byteOffset":4845336,
			"target":34963
		},
		{
			"buffer":0,
			"byteLength":4248,
			"byteOffset":4845600,
			"target":34962
		},
		{
			"buffer":0,
			"byteLength":4248,
			"byteOffset":4849848,
			"target":34962
		},
		{
			"buffer":0,
			"byteLength":708,
			"byteOffset":4854096,
			"target":34963
		},
		{
			"buffer":0,
			"byteLength":792,
			"byteOffset":4854804,
			"target":34962
		},
		{
			"buffer":0,
			"byteLength":792,
			"byteOffset":4855596,
			"target":34962
		},
		{
			"buffer":0,
			"byteLength":132,
			"byteOffset":4856388,
			"target":34963
		},
		{
			"buffer":0,
			"byteLength":9504,
			"byteOffset":4856520,
			"target":34962
		},
		{
			"buffer":0,
			"byteLength":9504,
			"byteOffset":4866024,
			"target":34962
		},
		{
			"buffer":0,
			"byteLength":1584,
			"byteOffset":4875528,
			"target":34963
		},
		{
			"buffer":0,
			"byteLength":8424,
			"byteOffset":4877112,
			"target":34962
		},
		{
			"buffer":0,
			"byteLength":8424,
			"byteOffset":4885536,
			"target":34962
		},
		{
			"buffer":0,
			"byteLength":1404,
			"byteOffset":4893960,
			"target":34963
		},
		{
			"buffer":0,
			"byteLength":11304,
			"byteOffset":4895364,
			"target":34962
		},
		{
			"buffer":0,
			"byteLength":11304,
			"byteOffset":4906668,
			"target":34962
		},
		{
			"buffer":0,
			"byteLength":1884,
			"byteOffset":4917972,
			"target":34963
		},
		{
			"buffer":0,
			"byteLength":432,
			"byteOffset":4919856,
			"target":34962
		},
		{
			"buffer":0,
			"byteLength":432,
			"byteOffset":4920288,
			"target":34962
		},
		{
			"buffer":0,
			"byteLength":432,
			"byteOffset":4920720,
			"target":34962
		},
		{
			"buffer":0,
			"byteLength":432,
			"byteOffset":4921152,
			"target":34962
		},
		{
			"buffer":0,
			"byteLength":29088,
			"byteOffset":4921584,
			"target":34962
		},
		{
			"buffer":0,
			"byteLength":29088,
			"byteOffset":4950672,
			"target":34962
		},
		{
			"buffer":0,
			"byteLength":4848,
			"byteOffset":4979760,
			"target":34963
		},
		{
			"buffer":0,
			"byteLength":3672,
			"byteOffset":4984608,
			"target":34962
		},
		{
			"buffer":0,
			"byteLength":3672,
			"byteOffset":4988280,
			"target":34962
		},
		{
			"buffer":0,
			"byteLength":612,
			"byteOffset":4991952,
			"target":34963
		},
		{
			"buffer":0,
			"byteLength":19512,
			"byteOffset":4992564,
			"target":34962
		},
		{
			"buffer":0,
			"byteLength":19512,
			"byteOffset":5012076,
			"target":34962
		},
		{
			"buffer":0,
			"byteLength":3252,
			"byteOffset":5031588,
			"target":34963
		},
		{
			"buffer":0,
			"byteLength":3384,
			"byteOffset":5034840,
			"target":34962
		},
		{
			"buffer":0,
			"byteLength":3384,
			"byteOffset":5038224,
			"target":34962
		},
		{
			"buffer":0,
			"byteLength":564,
			"byteOffset":5041608,
			"target":34963
		},
		{
			"buffer":0,
			"byteLength":7056,
			"byteOffset":5042172,
			"target":34962
		},
		{
			"buffer":0,
			"byteLength":7056,
			"byteOffset":5049228,
			"target":34962
		},
		{
			"buffer":0,
			"byteLength":1176,
			"byteOffset":5056284,
			"target":34963
		},
		{
			"buffer":0,
			"byteLength":1584,
			"byteOffset":5057460,
			"target":34962
		},
		{
			"buffer":0,
			"byteLength":1584,
			"byteOffset":5059044,
			"target":34962
		},
		{
			"buffer":0,
			"byteLength":19944,
			"byteOffset":5060628,
			"target":34962
		},
		{
			"buffer":0,
			"byteLength":19944,
			"byteOffset":5080572,
			"target":34962
		},
		{
			"buffer":0,
			"byteLength":3324,
			"byteOffset":5100516,
			"target":34963
		},
		{
			"buffer":0,
			"byteLength":55224,
			"byteOffset":5103840,
			"target":34962
		},
		{
			"buffer":0,
			"byteLength":55224,
			"byteOffset":5159064,
			"target":34962
		},
		{
			"buffer":0,
			"byteLength":9204,
			"byteOffset":5214288,
			"target":34963
		},
		{
			"buffer":0,
			"byteLength":39636,
			"byteOffset":5223492,
			"target":34962
		},
		{
			"buffer":0,
			"byteLength":39636,
			"byteOffset":5263128,
			"target":34962
		},
		{
			"buffer":0,
			"byteLength":6606,
			"byteOffset":5302764,
			"target":34963
		},
		{
			"buffer":0,
			"byteLength":26100,
			"byteOffset":5309372,
			"target":34962
		},
		{
			"buffer":0,
			"byteLength":26100,
			"byteOffset":5335472,
			"target":34962
		},
		{
			"buffer":0,
			"byteLength":4350,
			"byteOffset":5361572,
			"target":34963
		},
		{
			"buffer":0,
			"byteLength":30060,
			"byteOffset":5365924,
			"target":34962
		},
		{
			"buffer":0,
			"byteLength":30060,
			"byteOffset":5395984,
			"target":34962
		},
		{
			"buffer":0,
			"byteLength":5010,
			"byteOffset":5426044,
			"target":34963
		},
		{
			"buffer":0,
			"byteLength":25848,
			"byteOffset":5431056,
			"target":34962
		},
		{
			"buffer":0,
			"byteLength":25848,
			"byteOffset":5456904,
			"target":34962
		},
		{
			"buffer":0,
			"byteLength":4308,
			"byteOffset":5482752,
			"target":34963
		},
		{
			"buffer":0,
			"byteLength":26604,
			"byteOffset":5487060,
			"target":34962
		},
		{
			"buffer":0,
			"byteLength":26604,
			"byteOffset":5513664,
			"target":34962
		},
		{
			"buffer":0,
			"byteLength":4434,
			"byteOffset":5540268,
			"target":34963
		},
		{
			"buffer":0,
			"byteLength":36972,
			"byteOffset":5544704,
			"target":34962
		},
		{
			"buffer":0,
			"byteLength":36972,
			"byteOffset":5581676,
			"target":34962
		},
		{
			"buffer":0,
			"byteLength":6162,
			"byteOffset":5618648,
			"target":34963
		},
		{
			"buffer":0,
			"byteLength":36324,
			"byteOffset":5624812,
			"target":34962
		},
		{
			"buffer":0,
			"byteLength":36324,
			"byteOffset":5661136,
			"target":34962
		},
		{
			"buffer":0,
			"byteLength":6054,
			"byteOffset":5697460,
			"target":34963
		},
		{
			"buffer":0,
			"byteLength":1584,
			"byteOffset":5703516,
			"target":34962
		},
		{
			"buffer":0,
			"byteLength":1584,
			"byteOffset":5705100,
			"target":34962
		},
		{
			"buffer":0,
			"byteLength":37008,
			"byteOffset":5706684,
			"target":34962
		},
		{
			"buffer":0,
			"byteLength":37008,
			"byteOffset":5743692,
			"target":34962
		},
		{
			"buffer":0,
			"byteLength":6168,
			"byteOffset":5780700,
			"target":34963
		},
		{
			"buffer":0,
			"byteLength":7632,
			"byteOffset":5786868,
			"target":34962
		},
		{
			"buffer":0,
			"byteLength":7632,
			"byteOffset":5794500,
			"target":34962
		},
		{
			"buffer":0,
			"byteLength":1272,
			"byteOffset":5802132,
			"target":34963
		},
		{
			"buffer":0,
			"byteLength":69768,
			"byteOffset":5803404,
			"target":34962
		},
		{
			"buffer":0,
			"byteLength":69768,
			"byteOffset":5873172,
			"target":34962
		},
		{
			"buffer":0,
			"byteLength":11628,
			"byteOffset":5942940,
			"target":34963
		}
	],
	"buffers":[
		{
			"byteLength":5954568,
			"uri":"lro.bin"
		}
	]
}
