{
	"asset":{
		"generator":"Khronos glTF Blender I/O v4.4.56",
		"version":"2.0"
	},
	"extensionsUsed":[
		"KHR_materials_specular",
		"KHR_materials_ior"
	],
	"scene":0,
	"scenes":[
		{
			"name":"Scene",
			"nodes":[
				0,
				1
			]
		}
	],
	"nodes":[
		{
			"mesh":0,
			"name":"Circle_ring_0",
			"rotation":[
				1,
				0,
				0,
				1.4901161193847656e-07
			],
			"scale":[
				0.8168020844459534,
				0.8168030381202698,
				0.8168717622756958
			]
		},
		{
			"mesh":1,
			"name":"Sphere_Material.002_0",
			"rotation":[
				1,
				0,
				0,
				1.4901161193847656e-07
			],
			"scale":[
				0.5000004768371582,
				0.5000007152557373,
				0.5
			]
		}
	],
	"materials":[
		{
			"doubleSided":true,
			"extensions":{
				"KHR_materials_specular":{
					"specularColorFactor":[
						0.0,
						0.0,
						0.0
					]
				},
				"KHR_materials_ior":{
					"ior":1000
				}
			},
			"name":"ring",
			"pbrMetallicRoughness":{
				"baseColorTexture":{
					"index":0
				},
				"metallicFactor":0,
				"roughnessFactor":0.8040408492088318
			}
		},
		{
			"doubleSided":true,
			"extensions":{
				"KHR_materials_specular":{
					"specularColorFactor":[
						0.0,
						0.0,
						0.0
					]
				},
				"KHR_materials_ior":{
					"ior":1000
				}
			},
			"name":"Material.004",
			"pbrMetallicRoughness":{
				"baseColorTexture":{
					"index":1
				},
				"metallicFactor":0,
				"roughnessFactor":0.8040408492088318
			}
		}
	],
	"meshes":[
		{
			"name":"Circle_ring_0",
			"primitives":[
				{
					"attributes":{
						"POSITION":0,
						"NORMAL":1,
						"TEXCOORD_0":2
					},
					"indices":3,
					"material":0
				}
			]
		},
		{
			"name":"Sphere_Material.002_0",
			"primitives":[
				{
					"attributes":{
						"POSITION":4,
						"NORMAL":5,
						"TEXCOORD_0":6
					},
					"indices":7,
					"material":1
				}
			]
		}
	],
	"textures":[
		{
			"sampler":0,
			"source":0
		},
		{
			"sampler":0,
			"source":1
		}
	],
	"images":[
		{
			"mimeType":"image/jpeg",
			"name":"ring_diffuse",
			"uri":"textures/ring_diffuse.jpg"
		},
		{
			"mimeType":"image/jpeg",
			"name":"Material_002_diffuse",
			"uri":"textures/Material_002_diffuse.jpg"
		}
	],
	"accessors":[
		{
			"bufferView":0,
			"componentType":5126,
			"count":610,
			"max":[
				1.2027465105056763,
				1.2027463912963867,
				-0.00041665718890726566
			],
			"min":[
				-1.2027465105056763,
				-1.2027466297149658,
				-0.009583334438502789
			],
			"type":"VEC3"
		},
		{
			"bufferView":1,
			"componentType":5126,
			"count":610,
			"type":"VEC3"
		},
		{
			"bufferView":2,
			"componentType":5126,
			"count":610,
			"type":"VEC2"
		},
		{
			"bufferView":3,
			"componentType":5123,
			"count":3072,
			"type":"SCALAR"
		},
		{
			"bufferView":4,
			"componentType":5126,
			"count":3223,
			"max":[
				0.999999463558197,
				0.9999982118606567,
				1
			],
			"min":[
				-0.9999986290931702,
				-0.999998927116394,
				-1
			],
			"type":"VEC3"
		},
		{
			"bufferView":5,
			"componentType":5126,
			"count":3223,
			"type":"VEC3"
		},
		{
			"bufferView":6,
			"componentType":5126,
			"count":3223,
			"type":"VEC2"
		},
		{
			"bufferView":7,
			"componentType":5123,
			"count":17664,
			"type":"SCALAR"
		}
	],
	"bufferViews":[
		{
			"buffer":0,
			"byteLength":7320,
			"byteOffset":0,
			"target":34962
		},
		{
			"buffer":0,
			"byteLength":7320,
			"byteOffset":7320,
			"target":34962
		},
		{
			"buffer":0,
			"byteLength":4880,
			"byteOffset":14640,
			"target":34962
		},
		{
			"buffer":0,
			"byteLength":6144,
			"byteOffset":19520,
			"target":34963
		},
		{
			"buffer":0,
			"byteLength":38676,
			"byteOffset":25664,
			"target":34962
		},
		{
			"buffer":0,
			"byteLength":38676,
			"byteOffset":64340,
			"target":34962
		},
		{
			"buffer":0,
			"byteLength":25784,
			"byteOffset":103016,
			"target":34962
		},
		{
			"buffer":0,
			"byteLength":35328,
			"byteOffset":128800,
			"target":34963
		}
	],
	"samplers":[
		{
			"magFilter":9729,
			"minFilter":9987
		}
	],
	"buffers":[
		{
			"byteLength":164128,
			"uri":"saturn.bin"
		}
	]
}
