{"asset":{"generator":"Khronos glTF Blender I/O v4.4.56","version":"2.0"},"scene":0,"scenes":[{"name":"Scene","nodes":[79]}],"nodes":[{"mesh":0,"name":"mesh_2","matrix":[1.0,0.0,0.0,0.0,0.0,1.0,0.0,0.0,0.0,0.0,1.0,0.0,0.0,0.0,0.0,1.0]},{"mesh":1,"name":"mesh_2.001","matrix":[1.0,0.0,0.0,0.0,0.0,1.0,0.0,0.0,0.0,0.0,1.0,0.0,0.0,0.0,0.0,1.0]},{"mesh":2,"name":"mesh_2.002","matrix":[1.0,0.0,0.0,0.0,0.0,1.0,0.0,0.0,0.0,0.0,1.0,0.0,0.0,0.0,0.0,1.0]},{"mesh":3,"name":"mesh_2.003","matrix":[1.0,0.0,0.0,0.0,0.0,1.0,0.0,0.0,0.0,0.0,1.0,0.0,0.0,0.0,0.0,1.0]},{"mesh":4,"name":"mesh_2.004","matrix":[1.0,0.0,0.0,0.0,0.0,1.0,0.0,0.0,0.0,0.0,1.0,0.0,0.0,0.0,0.0,1.0]},{"children":[0,1,2,3,4],"name":"Booster.001_4","matrix":[0.24766966628089757,0.0,-0.2477790484909855,0.0,0.0,0.35033512115478516,0.0,0.0,0.2477790484909855,0.0,0.24766966628089757,0.0,-0.6700764298439026,1.248091697692871,-0.669780433177948,1.0]},{"mesh":5,"name":"mesh_2.005","matrix":[1.0,0.0,0.0,0.0,0.0,1.0,0.0,0.0,0.0,0.0,1.0,0.0,0.0,0.0,0.0,1.0]},{"mesh":6,"name":"mesh_2.006","matrix":[1.0,0.0,0.0,0.0,0.0,1.0,0.0,0.0,0.0,0.0,1.0,0.0,0.0,0.0,0.0,1.0]},{"mesh":7,"name":"mesh_2.007","matrix":[1.0,0.0,0.0,0.0,0.0,1.0,0.0,0.0,0.0,0.0,1.0,0.0,0.0,0.0,0.0,1.0]},{"mesh":8,"name":"mesh_2.008","matrix":[1.0,0.0,0.0,0.0,0.0,1.0,0.0,0.0,0.0,0.0,1.0,0.0,0.0,0.0,0.0,1.0]},{"mesh":9,"name":"mesh_2.009","matrix":[1.0,0.0,0.0,0.0,0.0,1.0,0.0,0.0,0.0,0.0,1.0,0.0,0.0,0.0,0.0,1.0]},{"children":[6,7,8,9,10],"name":"Booster.002_8","matrix":[-0.24766959211237036,0.0,0.24777903071776536,0.0,0.0,-0.35033508404137403,0.0,0.0,0.24777905179584206,0.0,0.24766965029455162,0.0,0.6700764298439026,1.248091697692871,0.669780433177948,1.0]},{"mesh":10,"name":"mesh_2.010","matrix":[1.0,0.0,0.0,0.0,0.0,1.0,0.0,0.0,0.0,0.0,1.0,0.0,0.0,0.0,0.0,1.0]},{"mesh":11,"name":"mesh_2.011","matrix":[1.0,0.0,0.0,0.0,0.0,1.0,0.0,0.0,0.0,0.0,1.0,0.0,0.0,0.0,0.0,1.0]},{"mesh":12,"name":"mesh_2.012","matrix":[1.0,0.0,0.0,0.0,0.0,1.0,0.0,0.0,0.0,0.0,1.0,0.0,0.0,0.0,0.0,1.0]},{"mesh":13,"name":"mesh_2.013","matrix":[1.0,0.0,0.0,0.0,0.0,1.0,0.0,0.0,0.0,0.0,1.0,0.0,0.0,0.0,0.0,1.0]},{"mesh":14,"name":"mesh_2.014","matrix":[1.0,0.0,0.0,0.0,0.0,1.0,0.0,0.0,0.0,0.0,1.0,0.0,0.0,0.0,0.0,1.0]},{"children":[12,13,14,15,16],"name":"Booster.003_9","matrix":[-0.24766228254689604,0.0,-0.247786406991383,0.0,0.0,0.35033512115478516,0.0,0.0,0.247786406991383,0.0,-0.24766228254689604,0.0,-0.670096218585968,1.248091697692871,0.6697605848312378,1.0]},{"mesh":15,"name":"mesh_2.015","matrix":[1.0,0.0,0.0,0.0,0.0,1.0,0.0,0.0,0.0,0.0,1.0,0.0,0.0,0.0,0.0,1.0]},{"mesh":16,"name":"mesh_2.016","matrix":[1.0,0.0,0.0,0.0,0.0,1.0,0.0,0.0,0.0,0.0,1.0,0.0,0.0,0.0,0.0,1.0]},{"mesh":17,"name":"mesh_2.017","matrix":[1.0,0.0,0.0,0.0,0.0,1.0,0.0,0.0,0.0,0.0,1.0,0.0,0.0,0.0,0.0,1.0]},{"mesh":18,"name":"mesh_2.018","matrix":[1.0,0.0,0.0,0.0,0.0,1.0,0.0,0.0,0.0,0.0,1.0,0.0,0.0,0.0,0.0,1.0]},{"mesh":19,"name":"mesh_2.019","matrix":[1.0,0.0,0.0,0.0,0.0,1.0,0.0,0.0,0.0,0.0,1.0,0.0,0.0,0.0,0.0,1.0]},{"children":[18,19,20,21,22],"name":"Booster_10","matrix":[0.2476623015246699,0.0,0.24778647933501408,0.0,0.0,-0.3503352775738201,0.0,0.0,0.24778645825630732,0.0,-0.24766243687557496,0.0,0.670096218585968,1.248091697692871,-0.6697605848312378,1.0]},{"mesh":20,"name":"Object_79","matrix":[1.0,0.0,0.0,0.0,0.0,1.0,0.0,0.0,0.0,0.0,1.0,0.0,0.0,0.0,0.0,1.0]},{"children":[24],"name":"Fairing.001_11","matrix":[0.43008393000953565,0.0,0.3520921846630289,0.0,0.0,0.5558245778083801,0.0,0.0,-0.3520921846630289,0.0,0.43008393000953565,0.0,0.0,7.710666179656982,0.0,1.0]},{"mesh":21,"name":"Object_59","matrix":[1.0,0.0,0.0,0.0,0.0,1.0,0.0,0.0,0.0,0.0,1.0,0.0,0.0,0.0,0.0,1.0]},{"children":[26],"name":"Fairing_7","matrix":[0.43008393000953565,0.0,0.3520921846630289,0.0,0.0,0.5558245778083801,0.0,0.0,-0.3520921846630289,0.0,0.43008393000953565,0.0,0.0,7.710666179656982,0.0,1.0]},{"mesh":22,"name":"Object_16","matrix":[1.0,0.0,0.0,0.0,0.0,1.0,0.0,0.0,0.0,0.0,1.0,0.0,0.0,0.0,0.0,1.0]},{"mesh":23,"name":"Object_17","matrix":[1.0,0.0,0.0,0.0,0.0,1.0,0.0,0.0,0.0,0.0,1.0,0.0,0.0,0.0,0.0,1.0]},{"mesh":24,"name":"Object_18","matrix":[1.0,0.0,0.0,0.0,0.0,1.0,0.0,0.0,0.0,0.0,1.0,0.0,0.0,0.0,0.0,1.0]},{"mesh":25,"name":"Object_19","matrix":[1.0,0.0,0.0,0.0,0.0,1.0,0.0,0.0,0.0,0.0,1.0,0.0,0.0,0.0,0.0,1.0]},{"mesh":26,"name":"Object_20","matrix":[1.0,0.0,0.0,0.0,0.0,1.0,0.0,0.0,0.0,0.0,1.0,0.0,0.0,0.0,0.0,1.0]},{"mesh":27,"name":"Object_21","matrix":[1.0,0.0,0.0,0.0,0.0,1.0,0.0,0.0,0.0,0.0,1.0,0.0,0.0,0.0,0.0,1.0]},{"mesh":28,"name":"Object_22","matrix":[1.0,0.0,0.0,0.0,0.0,1.0,0.0,0.0,0.0,0.0,1.0,0.0,0.0,0.0,0.0,1.0]},{"mesh":29,"name":"Object_23","matrix":[1.0,0.0,0.0,0.0,0.0,1.0,0.0,0.0,0.0,0.0,1.0,0.0,0.0,0.0,0.0,1.0]},{"mesh":30,"name":"Object_24","matrix":[1.0,0.0,0.0,0.0,0.0,1.0,0.0,0.0,0.0,0.0,1.0,0.0,0.0,0.0,0.0,1.0]},{"mesh":31,"name":"Object_25","matrix":[1.0,0.0,0.0,0.0,0.0,1.0,0.0,0.0,0.0,0.0,1.0,0.0,0.0,0.0,0.0,1.0]},{"mesh":32,"name":"Object_26","matrix":[1.0,0.0,0.0,0.0,0.0,1.0,0.0,0.0,0.0,0.0,1.0,0.0,0.0,0.0,0.0,1.0]},{"mesh":33,"name":"Object_27","matrix":[1.0,0.0,0.0,0.0,0.0,1.0,0.0,0.0,0.0,0.0,1.0,0.0,0.0,0.0,0.0,1.0]},{"mesh":34,"name":"Object_28","matrix":[1.0,0.0,0.0,0.0,0.0,1.0,0.0,0.0,0.0,0.0,1.0,0.0,0.0,0.0,0.0,1.0]},{"children":[28,29,30,31,32,33,34,35,36,37,38,39,40],"name":"Engine Nozzle.001_2","matrix":[0.23733125005008426,0.0,0.1588794225842762,0.0,0.0,0.28560250997543335,0.0,0.0,-0.1588794225842762,0.0,0.23733125005008426,0.0,-0.054472390562295914,-5.124429702758789,-0.060392025858163834,1.0]},{"mesh":35,"name":"Object_10","matrix":[1.0,0.0,0.0,0.0,0.0,1.0,0.0,0.0,0.0,0.0,1.0,0.0,0.0,0.0,0.0,1.0]},{"mesh":36,"name":"Object_11","matrix":[1.0,0.0,0.0,0.0,0.0,1.0,0.0,0.0,0.0,0.0,1.0,0.0,0.0,0.0,0.0,1.0]},{"mesh":37,"name":"Object_12","matrix":[1.0,0.0,0.0,0.0,0.0,1.0,0.0,0.0,0.0,0.0,1.0,0.0,0.0,0.0,0.0,1.0]},{"mesh":38,"name":"Object_13","matrix":[1.0,0.0,0.0,0.0,0.0,1.0,0.0,0.0,0.0,0.0,1.0,0.0,0.0,0.0,0.0,1.0]},{"mesh":39,"name":"Object_14","matrix":[1.0,0.0,0.0,0.0,0.0,1.0,0.0,0.0,0.0,0.0,1.0,0.0,0.0,0.0,0.0,1.0]},{"mesh":40,"name":"Object_4","matrix":[1.0,0.0,0.0,0.0,0.0,1.0,0.0,0.0,0.0,0.0,1.0,0.0,0.0,0.0,0.0,1.0]},{"mesh":41,"name":"Object_5","matrix":[1.0,0.0,0.0,0.0,0.0,1.0,0.0,0.0,0.0,0.0,1.0,0.0,0.0,0.0,0.0,1.0]},{"mesh":42,"name":"Object_6","matrix":[1.0,0.0,0.0,0.0,0.0,1.0,0.0,0.0,0.0,0.0,1.0,0.0,0.0,0.0,0.0,1.0]},{"mesh":43,"name":"Object_7","matrix":[1.0,0.0,0.0,0.0,0.0,1.0,0.0,0.0,0.0,0.0,1.0,0.0,0.0,0.0,0.0,1.0]},{"mesh":44,"name":"Object_8","matrix":[1.0,0.0,0.0,0.0,0.0,1.0,0.0,0.0,0.0,0.0,1.0,0.0,0.0,0.0,0.0,1.0]},{"mesh":45,"name":"Object_9","matrix":[1.0,0.0,0.0,0.0,0.0,1.0,0.0,0.0,0.0,0.0,1.0,0.0,0.0,0.0,0.0,1.0]},{"children":[41,42,43,44,45,46,47,48,49,50,51,52],"name":"First Stage_3","matrix":[0.5558245778083801,0.0,0.0,0.0,0.0,0.5558245778083801,0.0,0.0,0.0,0.0,0.5558245778083801,0.0,0.030182771384716034,3.804583787918091,0.03364386409521103,1.0]},{"mesh":46,"name":"Object_52","matrix":[1.0,0.0,0.0,0.0,0.0,1.0,0.0,0.0,0.0,0.0,1.0,0.0,0.0,0.0,0.0,1.0]},{"mesh":47,"name":"Object_53","matrix":[1.0,0.0,0.0,0.0,0.0,1.0,0.0,0.0,0.0,0.0,1.0,0.0,0.0,0.0,0.0,1.0]},{"mesh":48,"name":"Object_54","matrix":[1.0,0.0,0.0,0.0,0.0,1.0,0.0,0.0,0.0,0.0,1.0,0.0,0.0,0.0,0.0,1.0]},{"mesh":49,"name":"Object_55","matrix":[1.0,0.0,0.0,0.0,0.0,1.0,0.0,0.0,0.0,0.0,1.0,0.0,0.0,0.0,0.0,1.0]},{"mesh":50,"name":"Object_56","matrix":[1.0,0.0,0.0,0.0,0.0,1.0,0.0,0.0,0.0,0.0,1.0,0.0,0.0,0.0,0.0,1.0]},{"mesh":51,"name":"Object_57","matrix":[1.0,0.0,0.0,0.0,0.0,1.0,0.0,0.0,0.0,0.0,1.0,0.0,0.0,0.0,0.0,1.0]},{"children":[54,55,56,57,58,59],"name":"Engine Nozzle.002_5","matrix":[0.42478153109550476,0.0,0.0,0.0,0.0,0.42478156089782715,0.0,0.0,0.0,0.0,0.42478156089782715,0.0,8.591046207584441e-05,-1.634169578552246,0.0014202659949660301,1.0]},{"mesh":52,"name":"Object_36","matrix":[1.0,0.0,0.0,0.0,0.0,1.0,0.0,0.0,0.0,0.0,1.0,0.0,0.0,0.0,0.0,1.0]},{"mesh":53,"name":"Object_37","matrix":[1.0,0.0,0.0,0.0,0.0,1.0,0.0,0.0,0.0,0.0,1.0,0.0,0.0,0.0,0.0,1.0]},{"mesh":54,"name":"Object_38","matrix":[1.0,0.0,0.0,0.0,0.0,1.0,0.0,0.0,0.0,0.0,1.0,0.0,0.0,0.0,0.0,1.0]},{"mesh":55,"name":"Object_39","matrix":[1.0,0.0,0.0,0.0,0.0,1.0,0.0,0.0,0.0,0.0,1.0,0.0,0.0,0.0,0.0,1.0]},{"mesh":56,"name":"Object_40","matrix":[1.0,0.0,0.0,0.0,0.0,1.0,0.0,0.0,0.0,0.0,1.0,0.0,0.0,0.0,0.0,1.0]},{"mesh":57,"name":"Object_41","matrix":[1.0,0.0,0.0,0.0,0.0,1.0,0.0,0.0,0.0,0.0,1.0,0.0,0.0,0.0,0.0,1.0]},{"mesh":58,"name":"Object_42","matrix":[1.0,0.0,0.0,0.0,0.0,1.0,0.0,0.0,0.0,0.0,1.0,0.0,0.0,0.0,0.0,1.0]},{"mesh":59,"name":"Object_43","matrix":[1.0,0.0,0.0,0.0,0.0,1.0,0.0,0.0,0.0,0.0,1.0,0.0,0.0,0.0,0.0,1.0]},{"mesh":60,"name":"Object_44","matrix":[1.0,0.0,0.0,0.0,0.0,1.0,0.0,0.0,0.0,0.0,1.0,0.0,0.0,0.0,0.0,1.0]},{"mesh":61,"name":"Object_45","matrix":[1.0,0.0,0.0,0.0,0.0,1.0,0.0,0.0,0.0,0.0,1.0,0.0,0.0,0.0,0.0,1.0]},{"mesh":62,"name":"Object_46","matrix":[1.0,0.0,0.0,0.0,0.0,1.0,0.0,0.0,0.0,0.0,1.0,0.0,0.0,0.0,0.0,1.0]},{"mesh":63,"name":"Object_47","matrix":[1.0,0.0,0.0,0.0,0.0,1.0,0.0,0.0,0.0,0.0,1.0,0.0,0.0,0.0,0.0,1.0]},{"mesh":64,"name":"Object_48","matrix":[1.0,0.0,0.0,0.0,0.0,1.0,0.0,0.0,0.0,0.0,1.0,0.0,0.0,0.0,0.0,1.0]},{"mesh":65,"name":"Object_49","matrix":[1.0,0.0,0.0,0.0,0.0,1.0,0.0,0.0,0.0,0.0,1.0,0.0,0.0,0.0,0.0,1.0]},{"mesh":66,"name":"Object_50","matrix":[1.0,0.0,0.0,0.0,0.0,1.0,0.0,0.0,0.0,0.0,1.0,0.0,0.0,0.0,0.0,1.0]},{"children":[60,61,62,63,64,65,66,67,68,69,70,71,72,73,74,75],"name":"Second Stage_6","matrix":[0.5558245778083801,0.0,0.0,0.0,0.0,0.5558245778083801,0.0,0.0,0.0,0.0,0.5558245778083801,0.0,-2.5675537472125143e-05,7.926596641540527,0.0,1.0]},{"children":[5,11,17,23,25,27,53,76],"name":"GLTF_SceneRootNode","matrix":[1.0,0.0,0.0,0.0,0.0,-3.029462689596585e-07,0.9999999657714298,0.0,0.0,-0.9999999657714298,-3.029462689596585e-07,0.0,0.0,0.0,0.0,1.0]},{"children":[77],"name":"root","matrix":[1.0,0.0,0.0,0.0,0.0,1.0,0.0,0.0,0.0,0.0,1.0,0.0,0.0,0.0,0.0,1.0]},{"children":[78],"name":"Sketchfab_model","matrix":[0.0789639949798584,0.0,0.0,0.0,0.0,-2.3921849918422898e-08,-0.0789639997276141,0.0,0.0,0.0789639997276141,-2.3921849918422898e-08,0.0,0.0,0.0,0.0,1.0]}],"materials":[{"doubleSided":true,"name":"Material.111","pbrMetallicRoughness":{"metallicFactor":0,"metallicRoughnessTexture":{"index":0}}},{"doubleSided":true,"name":"Material.028","pbrMetallicRoughness":{"baseColorFactor":[0,0,0,1],"metallicFactor":0,"roughnessFactor":0.5}},{"doubleSided":true,"name":"Material.029","pbrMetallicRoughness":{"baseColorFactor":[0.03133999928832054,0.03133999928832054,0.03133999928832054,1],"metallicFactor":0.43636399507522583,"metallicRoughnessTexture":{"index":1}}},{"doubleSided":true,"name":"Material.002","pbrMetallicRoughness":{"baseColorFactor":[0.33465299010276794,0.33465299010276794,0.33465299010276794,1],"metallicFactor":0.7628459930419922,"metallicRoughnessTexture":{"index":2},"roughnessFactor":0.5043824911117554}},{"doubleSided":true,"name":"Material.068","pbrMetallicRoughness":{"baseColorFactor":[0,0.0021871801000088453,0.42922499775886536,1],"metallicFactor":0,"metallicRoughnessTexture":{"index":3}}},{"doubleSided":true,"name":"Material.022","pbrMetallicRoughness":{"baseColorFactor":[0.4700680077075958,0.4700680077075958,0.4700680077075958,1],"metallicFactor":0.889706015586853,"metallicRoughnessTexture":{"index":4}}},{"doubleSided":true,"name":"Material.021","pbrMetallicRoughness":{"baseColorFactor":[0.031063400208950043,0.031063400208950043,0.031063400208950043,1],"metallicFactor":0.3014709949493408,"metallicRoughnessTexture":{"index":5}}},{"doubleSided":true,"name":"Material.020","pbrMetallicRoughness":{"baseColorFactor":[0,0,0,1],"metallicFactor":0,"roughnessFactor":0.5}},{"doubleSided":true,"name":"Material.024","pbrMetallicRoughness":{"baseColorFactor":[0.0891055017709732,0.0891055017709732,0.0891055017709732,1],"metallicFactor":0.3014709949493408,"metallicRoughnessTexture":{"index":6}}},{"doubleSided":true,"name":"Material.027","pbrMetallicRoughness":{"baseColorFactor":[0.1023939996957779,0.1023939996957779,0.1023939996957779,1],"metallicFactor":0.3014709949493408,"metallicRoughnessTexture":{"index":7}}},{"doubleSided":true,"name":"Material.030","pbrMetallicRoughness":{"baseColorFactor":[0.02892420068383217,0.02892420068383217,0.02892420068383217,1],"metallicFactor":0.3014709949493408,"metallicRoughnessTexture":{"index":8}}},{"doubleSided":true,"name":"Material.031","pbrMetallicRoughness":{"baseColorFactor":[0.279231995344162,0.14875100553035736,0.09997919946908951,1],"metallicFactor":0.3014709949493408,"metallicRoughnessTexture":{"index":9}}},{"doubleSided":true,"name":"Material.032","pbrMetallicRoughness":{"baseColorFactor":[0.5955020189285278,0.31124699115753174,0.20609000325202942,1],"metallicFactor":0.3014709949493408,"metallicRoughnessTexture":{"index":10}}},{"doubleSided":true,"name":"Material.035","pbrMetallicRoughness":{"baseColorFactor":[0.5216670036315918,0.5216670036315918,0.5216670036315918,1],"metallicFactor":0.3014709949493408,"metallicRoughnessTexture":{"index":11}}},{"doubleSided":true,"name":"Material.037","pbrMetallicRoughness":{"baseColorFactor":[0.5543779730796814,0.5543779730796814,0.5543779730796814,1],"metallicFactor":0.7787430286407471,"metallicRoughnessTexture":{"index":12}}},{"doubleSided":true,"name":"Material.038","pbrMetallicRoughness":{"baseColorFactor":[0.23301400244235992,0.23301400244235992,0.23301400244235992,1],"metallicFactor":0.615106999874115,"metallicRoughnessTexture":{"index":13}}},{"doubleSided":true,"name":"Material.045","pbrMetallicRoughness":{"baseColorFactor":[0.04445530101656914,0.04445530101656914,0.04445530101656914,1],"metallicFactor":0,"metallicRoughnessTexture":{"index":14}}},{"doubleSided":true,"name":"Material.049","pbrMetallicRoughness":{"baseColorFactor":[0.3947409987449646,0.23851600289344788,0,1],"metallicFactor":0,"metallicRoughnessTexture":{"index":15}}},{"doubleSided":true,"name":"Material.064","pbrMetallicRoughness":{"baseColorFactor":[0.150285005569458,0.150285005569458,0.150285005569458,1],"metallicFactor":0.32727301120758057,"metallicRoughnessTexture":{"index":16}}},{"doubleSided":true,"name":"Material.058","pbrMetallicRoughness":{"baseColorFactor":[0.3965350091457367,0.3965350091457367,0.3965350091457367,1],"metallicFactor":0.6748350262641907,"metallicRoughnessTexture":{"index":17}}},{"doubleSided":true,"name":"Material.079","pbrMetallicRoughness":{"baseColorFactor":[0.15743300318717957,0.15743300318717957,0.15743300318717957,1],"metallicFactor":0.9372990131378174,"metallicRoughnessTexture":{"index":18}}},{"doubleSided":true,"name":"Material.023","pbrMetallicRoughness":{"baseColorFactor":[0.04954909905791283,0.04954909905791283,0.04954909905791283,1],"metallicFactor":0,"metallicRoughnessTexture":{"index":19}}},{"doubleSided":true,"name":"Material.025","pbrMetallicRoughness":{"baseColorFactor":[0.09773260354995728,0.09773260354995728,0.09773260354995728,1],"metallicFactor":0.42272698879241943,"metallicRoughnessTexture":{"index":20},"roughnessFactor":0.6872401833534241}},{"doubleSided":true,"name":"Material.062","pbrMetallicRoughness":{"baseColorFactor":[0.4897710084915161,0.4897710084915161,0.4897710084915161,1],"metallicFactor":0,"metallicRoughnessTexture":{"index":21}}},{"doubleSided":true,"name":"Material.063","pbrMetallicRoughness":{"baseColorFactor":[0.021665599197149277,0.021665599197149277,0.021665599197149277,1],"metallicFactor":0,"metallicRoughnessTexture":{"index":22}}},{"doubleSided":true,"name":"Material.060","pbrMetallicRoughness":{"baseColorFactor":[0.05496849864721298,0.05496849864721298,0.05496849864721298,1],"metallicFactor":0.3014709949493408,"metallicRoughnessTexture":{"index":23}}},{"doubleSided":true,"name":"Material.059","pbrMetallicRoughness":{"baseColorFactor":[0,0,0,1],"metallicFactor":0,"roughnessFactor":0.5}},{"doubleSided":true,"name":"Material.056","pbrMetallicRoughness":{"baseColorFactor":[0.09787970036268234,0.09787970036268234,0.09787970036268234,1],"metallicFactor":0.2545450031757355,"metallicRoughnessTexture":{"index":24}}},{"doubleSided":true,"name":"Material.057","pbrMetallicRoughness":{"baseColorFactor":[0.2330150008201599,0.0540447011590004,0,1],"metallicFactor":0.48181799054145813,"metallicRoughnessTexture":{"index":25}}},{"doubleSided":true,"name":"Material.067","pbrMetallicRoughness":{"baseColorTexture":{"index":26},"metallicFactor":0,"metallicRoughnessTexture":{"index":27}}},{"doubleSided":true,"name":"Base_Material","pbrMetallicRoughness":{"baseColorFactor":[0.08001130074262619,0.08001130074262619,0.08001130074262619,1],"metallicFactor":0.7136359810829163,"metallicRoughnessTexture":{"index":28}}},{"doubleSided":true,"name":"Material.006","pbrMetallicRoughness":{"baseColorFactor":[0.039361000061035156,0.039361000061035156,0.039361000061035156,1],"metallicFactor":0.6332889795303345}},{"doubleSided":true,"name":"Material.125","pbrMetallicRoughness":{"baseColorFactor":[0.24210099875926971,0.24210099875926971,0.24210099875926971,1],"metallicFactor":0.6818180084228516,"metallicRoughnessTexture":{"index":29}}}],"meshes":[{"name":"mesh_2","primitives":[{"attributes":{"POSITION":0,"NORMAL":1,"TEXCOORD_0":2},"indices":3,"material":0}]},{"name":"mesh_2.001","primitives":[{"attributes":{"POSITION":4,"NORMAL":5,"TEXCOORD_0":6},"indices":7,"material":1}]},{"name":"mesh_2.002","primitives":[{"attributes":{"POSITION":8,"NORMAL":9,"TEXCOORD_0":10},"indices":11,"material":2}]},{"name":"mesh_2.003","primitives":[{"attributes":{"POSITION":12,"NORMAL":13,"TEXCOORD_0":14},"indices":15,"material":3}]},{"name":"mesh_2.004","primitives":[{"attributes":{"POSITION":16,"NORMAL":17,"TEXCOORD_0":18},"indices":19,"material":4}]},{"name":"mesh_2.005","primitives":[{"attributes":{"POSITION":20,"NORMAL":21,"TEXCOORD_0":22},"indices":23,"material":0}]},{"name":"mesh_2.006","primitives":[{"attributes":{"POSITION":24,"NORMAL":25,"TEXCOORD_0":26},"indices":27,"material":1}]},{"name":"mesh_2.007","primitives":[{"attributes":{"POSITION":28,"NORMAL":29,"TEXCOORD_0":30},"indices":31,"material":2}]},{"name":"mesh_2.008","primitives":[{"attributes":{"POSITION":32,"NORMAL":33,"TEXCOORD_0":34},"indices":35,"material":3}]},{"name":"mesh_2.009","primitives":[{"attributes":{"POSITION":36,"NORMAL":37,"TEXCOORD_0":38},"indices":39,"material":4}]},{"name":"mesh_2.010","primitives":[{"attributes":{"POSITION":40,"NORMAL":41,"TEXCOORD_0":42},"indices":3,"material":0}]},{"name":"mesh_2.011","primitives":[{"attributes":{"POSITION":43,"NORMAL":44,"TEXCOORD_0":45},"indices":7,"material":1}]},{"name":"mesh_2.012","primitives":[{"attributes":{"POSITION":46,"NORMAL":47,"TEXCOORD_0":48},"indices":11,"material":2}]},{"name":"mesh_2.013","primitives":[{"attributes":{"POSITION":49,"NORMAL":50,"TEXCOORD_0":51},"indices":15,"material":3}]},{"name":"mesh_2.014","primitives":[{"attributes":{"POSITION":52,"NORMAL":53,"TEXCOORD_0":54},"indices":19,"material":4}]},{"name":"mesh_2.015","primitives":[{"attributes":{"POSITION":55,"NORMAL":56,"TEXCOORD_0":57},"indices":23,"material":0}]},{"name":"mesh_2.016","primitives":[{"attributes":{"POSITION":58,"NORMAL":59,"TEXCOORD_0":60},"indices":27,"material":1}]},{"name":"mesh_2.017","primitives":[{"attributes":{"POSITION":61,"NORMAL":62,"TEXCOORD_0":63},"indices":31,"material":2}]},{"name":"mesh_2.018","primitives":[{"attributes":{"POSITION":64,"NORMAL":65,"TEXCOORD_0":66},"indices":35,"material":3}]},{"name":"mesh_2.019","primitives":[{"attributes":{"POSITION":67,"NORMAL":68,"TEXCOORD_0":69},"indices":39,"material":4}]},{"name":"Object_66","primitives":[{"attributes":{"POSITION":70,"NORMAL":71,"TEXCOORD_0":72},"indices":73,"material":0}]},{"name":"Object_50","primitives":[{"attributes":{"POSITION":74,"NORMAL":75,"TEXCOORD_0":76},"indices":77,"material":0}]},{"name":"Object_11","primitives":[{"attributes":{"POSITION":78,"NORMAL":79,"TEXCOORD_0":80},"indices":81,"material":5}]},{"name":"Object_12","primitives":[{"attributes":{"POSITION":82,"NORMAL":83,"TEXCOORD_0":84},"indices":85,"material":6}]},{"name":"Object_13","primitives":[{"attributes":{"POSITION":86,"NORMAL":87,"TEXCOORD_0":88},"indices":89,"material":7}]},{"name":"Object_14","primitives":[{"attributes":{"POSITION":90,"NORMAL":91,"TEXCOORD_0":92},"indices":93,"material":8}]},{"name":"Object_15","primitives":[{"attributes":{"POSITION":94,"NORMAL":95,"TEXCOORD_0":96},"indices":97,"material":9}]},{"name":"Object_16","primitives":[{"attributes":{"POSITION":98,"NORMAL":99,"TEXCOORD_0":100},"indices":101,"material":10}]},{"name":"Object_17","primitives":[{"attributes":{"POSITION":102,"NORMAL":103,"TEXCOORD_0":104},"indices":105,"material":11}]},{"name":"Object_18","primitives":[{"attributes":{"POSITION":106,"NORMAL":107,"TEXCOORD_0":108},"indices":109,"material":12}]},{"name":"Object_19","primitives":[{"attributes":{"POSITION":110,"NORMAL":111,"TEXCOORD_0":112},"indices":113,"material":13}]},{"name":"Object_20","primitives":[{"attributes":{"POSITION":114,"NORMAL":115,"TEXCOORD_0":116},"indices":117,"material":14}]},{"name":"Object_21","primitives":[{"attributes":{"POSITION":118,"NORMAL":119,"TEXCOORD_0":120},"indices":121,"material":15}]},{"name":"Object_22","primitives":[{"attributes":{"POSITION":122,"NORMAL":123,"TEXCOORD_0":124},"indices":125,"material":16}]},{"name":"Object_23","primitives":[{"attributes":{"POSITION":126,"NORMAL":127,"TEXCOORD_0":128},"indices":129,"material":17}]},{"name":"Object_6","primitives":[{"attributes":{"POSITION":130,"NORMAL":131,"TEXCOORD_0":132},"indices":133,"material":18}]},{"name":"Object_7","primitives":[{"attributes":{"POSITION":134,"NORMAL":135,"TEXCOORD_0":136},"indices":137,"material":19}]},{"name":"Object_8","primitives":[{"attributes":{"POSITION":138,"NORMAL":139,"TEXCOORD_0":140},"indices":141,"material":5}]},{"name":"Object_9","primitives":[{"attributes":{"POSITION":142,"NORMAL":143,"TEXCOORD_0":144},"indices":145,"material":20}]},{"name":"Object_10","primitives":[{"attributes":{"POSITION":146,"NORMAL":147,"TEXCOORD_0":148},"indices":149,"material":21}]},{"name":"Object_0","primitives":[{"attributes":{"POSITION":150,"NORMAL":151,"TEXCOORD_0":152},"indices":153,"material":0}]},{"name":"Object_1","primitives":[{"attributes":{"POSITION":154,"NORMAL":155,"TEXCOORD_0":156},"indices":157,"material":3}]},{"name":"Object_2","primitives":[{"attributes":{"POSITION":158,"NORMAL":159,"TEXCOORD_0":160},"indices":161,"material":22}]},{"name":"Object_3","primitives":[{"attributes":{"POSITION":162,"NORMAL":163,"TEXCOORD_0":164},"indices":165,"material":23}]},{"name":"Object_4","primitives":[{"attributes":{"POSITION":166,"NORMAL":167,"TEXCOORD_0":168},"indices":169,"material":7}]},{"name":"Object_5","primitives":[{"attributes":{"POSITION":170,"NORMAL":171,"TEXCOORD_0":172},"indices":173,"material":24}]},{"name":"Object_44","primitives":[{"attributes":{"POSITION":174,"NORMAL":175,"TEXCOORD_0":176},"indices":177,"material":5}]},{"name":"Object_45","primitives":[{"attributes":{"POSITION":178,"NORMAL":179,"TEXCOORD_0":180},"indices":181,"material":25}]},{"name":"Object_46","primitives":[{"attributes":{"POSITION":182,"NORMAL":183,"TEXCOORD_0":184},"indices":185,"material":26}]},{"name":"Object_47","primitives":[{"attributes":{"POSITION":186,"NORMAL":187,"TEXCOORD_0":188},"indices":189,"material":15}]},{"name":"Object_48","primitives":[{"attributes":{"POSITION":190,"NORMAL":191,"TEXCOORD_0":192},"indices":193,"material":9}]},{"name":"Object_49","primitives":[{"attributes":{"POSITION":194,"NORMAL":195,"TEXCOORD_0":196},"indices":197,"material":10}]},{"name":"Object_29","primitives":[{"attributes":{"POSITION":198,"NORMAL":199,"TEXCOORD_0":200},"indices":201,"material":0}]},{"name":"Object_30","primitives":[{"attributes":{"POSITION":202,"NORMAL":203,"TEXCOORD_0":204},"indices":205,"material":3}]},{"name":"Object_31","primitives":[{"attributes":{"POSITION":206,"NORMAL":207,"TEXCOORD_0":208},"indices":209,"material":19}]},{"name":"Object_32","primitives":[{"attributes":{"POSITION":210,"NORMAL":211,"TEXCOORD_0":212},"indices":213,"material":27}]},{"name":"Object_33","primitives":[{"attributes":{"POSITION":214,"NORMAL":215,"TEXCOORD_0":216},"indices":217,"material":28}]},{"name":"Object_34","primitives":[{"attributes":{"POSITION":218,"NORMAL":219,"TEXCOORD_0":220},"indices":221,"material":29}]},{"name":"Object_35","primitives":[{"attributes":{"POSITION":222,"NORMAL":223,"TEXCOORD_0":224},"indices":225,"material":30}]},{"name":"Object_36","primitives":[{"attributes":{"POSITION":226,"NORMAL":227,"TEXCOORD_0":228},"indices":229,"material":31}]},{"name":"Object_37","primitives":[{"attributes":{"POSITION":230,"NORMAL":231,"TEXCOORD_0":232},"indices":233,"material":32}]},{"name":"Object_38","primitives":[{"attributes":{"POSITION":234,"NORMAL":235,"TEXCOORD_0":236},"indices":237,"material":18}]},{"name":"Object_39","primitives":[{"attributes":{"POSITION":238,"NORMAL":239,"TEXCOORD_0":240},"indices":241,"material":15}]},{"name":"Object_40","primitives":[{"attributes":{"POSITION":242,"NORMAL":243,"TEXCOORD_0":244},"indices":245,"material":22}]},{"name":"Object_41","primitives":[{"attributes":{"POSITION":246,"NORMAL":247,"TEXCOORD_0":248},"indices":249,"material":7}]},{"name":"Object_42","primitives":[{"attributes":{"POSITION":250,"NORMAL":251,"TEXCOORD_0":252},"indices":253,"material":20}]},{"name":"Object_43","primitives":[{"attributes":{"POSITION":254,"NORMAL":255,"TEXCOORD_0":256},"indices":257,"material":21}]}],"textures":[{"sampler":0,"source":0},{"sampler":0,"source":0},{"sampler":0,"source":0},{"sampler":0,"source":0},{"sampler":0,"source":0},{"sampler":0,"source":0},{"sampler":0,"source":0},{"sampler":0,"source":0},{"sampler":0,"source":0},{"sampler":0,"source":0},{"sampler":0,"source":0},{"sampler":0,"source":0},{"sampler":0,"source":0},{"sampler":0,"source":0},{"sampler":0,"source":0},{"sampler":0,"source":0},{"sampler":0,"source":0},{"sampler":0,"source":0},{"sampler":0,"source":0},{"sampler":0,"source":0},{"sampler":0,"source":0},{"sampler":0,"source":0},{"sampler":0,"source":0},{"sampler":0,"source":0},{"sampler":0,"source":0},{"sampler":0,"source":0},{"sampler":0,"source":1},{"sampler":0,"source":0},{"sampler":0,"source":0},{"sampler":0,"source":0}],"images":[{"mimeType":"image/png","name":"Material.111_metallicRoughness","uri":"textures/Material_111_metallicRoughness.png"},{"mimeType":"image/png","name":"Material.067_baseColor","uri":"textures/Material_067_baseColor.png"}],"accessors":[{"bufferView":0,"componentType":5126,"count":10439,"max":[1.0774011611938477,9.719409942626953,1.5764472484588623],"min":[-1.0769643783569336,-3.1405303478240967,-1.0115467309951782],"type":"VEC3"},{"bufferView":1,"componentType":5126,"count":10439,"type":"VEC3"},{"bufferView":2,"componentType":5126,"count":10439,"type":"VEC2"},{"bufferView":3,"componentType":5123,"count":49314,"type":"SCALAR"},{"bufferView":4,"componentType":5126,"count":158,"max":[0.8501773476600647,4.8189473152160645,0.7988883852958679],"min":[-0.8501772880554199,-3.167009115219116,-0.6300691962242126],"type":"VEC3"},{"bufferView":5,"componentType":5126,"count":158,"type":"VEC3"},{"bufferView":6,"componentType":5126,"count":158,"type":"VEC2"},{"bufferView":7,"componentType":5123,"count":366,"type":"SCALAR"},{"bufferView":8,"componentType":5126,"count":546,"max":[0.6805011630058289,-3.1405303478240967,0.6805011630058289],"min":[-0.6805012226104736,-3.37903094291687,-0.6805011630058289],"type":"VEC3"},{"bufferView":9,"componentType":5126,"count":546,"type":"VEC3"},{"bufferView":10,"componentType":5126,"count":546,"type":"VEC2"},{"bufferView":11,"componentType":5123,"count":1536,"type":"SCALAR"},{"bufferView":12,"componentType":5126,"count":544,"max":[0.920304536819458,-2.830894947052002,0.920304536819458],"min":[-0.9203045964241028,-3.002156972885132,-0.920304536819458],"type":"VEC3"},{"bufferView":13,"componentType":5126,"count":544,"type":"VEC3"},{"bufferView":14,"componentType":5126,"count":544,"type":"VEC2"},{"bufferView":15,"componentType":5123,"count":1536,"type":"SCALAR"},{"bufferView":16,"componentType":5126,"count":425,"max":[0.20177161693572998,9.66614818572998,0.5233396291732788],"min":[-0.20177152752876282,-2.7174291610717773,-1.031230092048645],"type":"VEC3"},{"bufferView":17,"componentType":5126,"count":425,"type":"VEC3"},{"bufferView":18,"componentType":5126,"count":425,"type":"VEC2"},{"bufferView":19,"componentType":5123,"count":1704,"type":"SCALAR"},{"bufferView":20,"componentType":5126,"count":10299,"max":[1.0769643783569336,3.1405303478240967,1.0115467309951782],"min":[-1.0774011611938477,-9.719409942626953,-1.5764472484588623],"type":"VEC3"},{"bufferView":21,"componentType":5126,"count":10299,"type":"VEC3"},{"bufferView":22,"componentType":5126,"count":10299,"type":"VEC2"},{"bufferView":23,"componentType":5123,"count":49314,"type":"SCALAR"},{"bufferView":24,"componentType":5126,"count":128,"max":[0.8501772880554199,3.167009115219116,0.6300691962242126],"min":[-0.8501773476600647,-4.8189473152160645,-0.7988883852958679],"type":"VEC3"},{"bufferView":25,"componentType":5126,"count":128,"type":"VEC3"},{"bufferView":26,"componentType":5126,"count":128,"type":"VEC2"},{"bufferView":27,"componentType":5123,"count":366,"type":"SCALAR"},{"bufferView":28,"componentType":5126,"count":546,"max":[0.6805012226104736,3.37903094291687,0.6805011630058289],"min":[-0.6805011630058289,3.1405303478240967,-0.6805011630058289],"type":"VEC3"},{"bufferView":29,"componentType":5126,"count":546,"type":"VEC3"},{"bufferView":30,"componentType":5126,"count":546,"type":"VEC2"},{"bufferView":31,"componentType":5123,"count":1536,"type":"SCALAR"},{"bufferView":32,"componentType":5126,"count":544,"max":[0.9203045964241028,3.002156972885132,0.920304536819458],"min":[-0.920304536819458,2.830894947052002,-0.920304536819458],"type":"VEC3"},{"bufferView":33,"componentType":5126,"count":544,"type":"VEC3"},{"bufferView":34,"componentType":5126,"count":544,"type":"VEC2"},{"bufferView":35,"componentType":5123,"count":1536,"type":"SCALAR"},{"bufferView":36,"componentType":5126,"count":425,"max":[0.20177152752876282,2.7174291610717773,1.031230092048645],"min":[-0.20177161693572998,-9.66614818572998,-0.5233396291732788],"type":"VEC3"},{"bufferView":37,"componentType":5126,"count":425,"type":"VEC3"},{"bufferView":38,"componentType":5126,"count":425,"type":"VEC2"},{"bufferView":39,"componentType":5123,"count":1704,"type":"SCALAR"},{"bufferView":40,"componentType":5126,"count":10439,"max":[1.0774011611938477,9.719409942626953,1.5764472484588623],"min":[-1.0769643783569336,-3.1405303478240967,-1.0115467309951782],"type":"VEC3"},{"bufferView":41,"componentType":5126,"count":10439,"type":"VEC3"},{"bufferView":42,"componentType":5126,"count":10439,"type":"VEC2"},{"bufferView":43,"componentType":5126,"count":158,"max":[0.8501773476600647,4.8189473152160645,0.7988883852958679],"min":[-0.8501772880554199,-3.167009115219116,-0.6300691962242126],"type":"VEC3"},{"bufferView":44,"componentType":5126,"count":158,"type":"VEC3"},{"bufferView":45,"componentType":5126,"count":158,"type":"VEC2"},{"bufferView":46,"componentType":5126,"count":546,"max":[0.6805011630058289,-3.1405303478240967,0.6805011630058289],"min":[-0.6805012226104736,-3.37903094291687,-0.6805011630058289],"type":"VEC3"},{"bufferView":47,"componentType":5126,"count":546,"type":"VEC3"},{"bufferView":48,"componentType":5126,"count":546,"type":"VEC2"},{"bufferView":49,"componentType":5126,"count":544,"max":[0.920304536819458,-2.830894947052002,0.920304536819458],"min":[-0.9203045964241028,-3.002156972885132,-0.920304536819458],"type":"VEC3"},{"bufferView":50,"componentType":5126,"count":544,"type":"VEC3"},{"bufferView":51,"componentType":5126,"count":544,"type":"VEC2"},{"bufferView":52,"componentType":5126,"count":425,"max":[0.20177161693572998,9.66614818572998,0.5233396291732788],"min":[-0.20177152752876282,-2.7174291610717773,-1.031230092048645],"type":"VEC3"},{"bufferView":53,"componentType":5126,"count":425,"type":"VEC3"},{"bufferView":54,"componentType":5126,"count":425,"type":"VEC2"},{"bufferView":55,"componentType":5126,"count":10299,"max":[1.0769643783569336,3.1405303478240967,1.0115467309951782],"min":[-1.0774011611938477,-9.719409942626953,-1.5764472484588623],"type":"VEC3"},{"bufferView":56,"componentType":5126,"count":10299,"type":"VEC3"},{"bufferView":57,"componentType":5126,"count":10299,"type":"VEC2"},{"bufferView":58,"componentType":5126,"count":128,"max":[0.8501772880554199,3.167009115219116,0.6300691962242126],"min":[-0.8501773476600647,-4.8189473152160645,-0.7988883852958679],"type":"VEC3"},{"bufferView":59,"componentType":5126,"count":128,"type":"VEC3"},{"bufferView":60,"componentType":5126,"count":128,"type":"VEC2"},{"bufferView":61,"componentType":5126,"count":546,"max":[0.6805012226104736,3.37903094291687,0.6805011630058289],"min":[-0.6805011630058289,3.1405303478240967,-0.6805011630058289],"type":"VEC3"},{"bufferView":62,"componentType":5126,"count":546,"type":"VEC3"},{"bufferView":63,"componentType":5126,"count":546,"type":"VEC2"},{"bufferView":64,"componentType":5126,"count":544,"max":[0.9203045964241028,3.002156972885132,0.920304536819458],"min":[-0.920304536819458,2.830894947052002,-0.920304536819458],"type":"VEC3"},{"bufferView":65,"componentType":5126,"count":544,"type":"VEC3"},{"bufferView":66,"componentType":5126,"count":544,"type":"VEC2"},{"bufferView":67,"componentType":5126,"count":425,"max":[0.20177152752876282,2.7174291610717773,1.031230092048645],"min":[-0.20177161693572998,-9.66614818572998,-0.5233396291732788],"type":"VEC3"},{"bufferView":68,"componentType":5126,"count":425,"type":"VEC3"},{"bufferView":69,"componentType":5126,"count":425,"type":"VEC2"},{"bufferView":70,"componentType":5126,"count":898,"max":[1,8.912408828735352,4.371138828673793e-08],"min":[-1,1.476583480834961,-1],"type":"VEC3"},{"bufferView":71,"componentType":5126,"count":898,"type":"VEC3"},{"bufferView":72,"componentType":5126,"count":898,"type":"VEC2"},{"bufferView":73,"componentType":5123,"count":4701,"type":"SCALAR"},{"bufferView":74,"componentType":5126,"count":917,"max":[1,8.912408828735352,1],"min":[-1,1.476583480834961,-1.1924880638503055e-08],"type":"VEC3"},{"bufferView":75,"componentType":5126,"count":917,"type":"VEC3"},{"bufferView":76,"componentType":5126,"count":917,"type":"VEC2"},{"bufferView":77,"componentType":5123,"count":4701,"type":"SCALAR"},{"bufferView":78,"componentType":5126,"count":584,"max":[0.891722559928894,0.12765836715698242,0.6184232831001282],"min":[-0.6270776987075806,-1.9639286994934082,-0.6341626048088074],"type":"VEC3"},{"bufferView":79,"componentType":5126,"count":584,"type":"VEC3"},{"bufferView":80,"componentType":5126,"count":584,"type":"VEC2"},{"bufferView":81,"componentType":5123,"count":1422,"type":"SCALAR"},{"bufferView":82,"componentType":5126,"count":1044,"max":[1.3909960985183716,-3.1127357482910156,1.390995979309082],"min":[-1.3909958600997925,-6.021739959716797,-1.390995979309082],"type":"VEC3"},{"bufferView":83,"componentType":5126,"count":1044,"type":"VEC3"},{"bufferView":84,"componentType":5126,"count":1044,"type":"VEC2"},{"bufferView":85,"componentType":5123,"count":2880,"type":"SCALAR"},{"bufferView":86,"componentType":5126,"count":88,"max":[1.0657211542129517,-1.9639286994934082,1.6658607721328735],"min":[-1.0657212734222412,-5.663390159606934,-1.6816003322601318],"type":"VEC3"},{"bufferView":87,"componentType":5126,"count":88,"type":"VEC3"},{"bufferView":88,"componentType":5126,"count":88,"type":"VEC2"},{"bufferView":89,"componentType":5123,"count":240,"type":"SCALAR"},{"bufferView":90,"componentType":5126,"count":1008,"max":[1.3762269020080566,-3.0675852298736572,1.376226782798767],"min":[-1.3762266635894775,-5.890726089477539,-1.376226782798767],"type":"VEC3"},{"bufferView":91,"componentType":5126,"count":1008,"type":"VEC3"},{"bufferView":92,"componentType":5126,"count":1008,"type":"VEC2"},{"bufferView":93,"componentType":5123,"count":2688,"type":"SCALAR"},{"bufferView":94,"componentType":5126,"count":639,"max":[0.9720367789268494,-0.9432761669158936,0.7693568468093872],"min":[-0.7693568468093872,-3.0675852298736572,-0.9405653476715088],"type":"VEC3"},{"bufferView":95,"componentType":5126,"count":639,"type":"VEC3"},{"bufferView":96,"componentType":5126,"count":639,"type":"VEC2"},{"bufferView":97,"componentType":5123,"count":2208,"type":"SCALAR"},{"bufferView":98,"componentType":5126,"count":3565,"max":[0.7073000073432922,-0.5240530967712402,0.6184232831001282],"min":[-0.6270776987075806,-1.943058967590332,-0.8957907557487488],"type":"VEC3"},{"bufferView":99,"componentType":5126,"count":3565,"type":"VEC3"},{"bufferView":100,"componentType":5126,"count":3565,"type":"VEC2"},{"bufferView":101,"componentType":5123,"count":8472,"type":"SCALAR"},{"bufferView":102,"componentType":5126,"count":362,"max":[0.32077136635780334,-0.162353515625,1.0514591932296753],"min":[-0.3061368763446808,-1.5225238800048828,-0.9405653476715088],"type":"VEC3"},{"bufferView":103,"componentType":5126,"count":362,"type":"VEC3"},{"bufferView":104,"componentType":5126,"count":362,"type":"VEC2"},{"bufferView":105,"componentType":5123,"count":996,"type":"SCALAR"},{"bufferView":106,"componentType":5126,"count":48,"max":[0.22024667263031006,-0.20148420333862305,1.0269070863723755],"min":[-0.2215941846370697,-0.9198956489562988,0.5761487483978271],"type":"VEC3"},{"bufferView":107,"componentType":5126,"count":48,"type":"VEC3"},{"bufferView":108,"componentType":5126,"count":48,"type":"VEC2"},{"bufferView":109,"componentType":5123,"count":132,"type":"SCALAR"},{"bufferView":110,"componentType":5126,"count":8280,"max":[0.23866218328475952,-0.20824718475341797,0.9883385896682739],"min":[-0.23861075937747955,-0.9007530212402344,0.6305848956108093],"type":"VEC3"},{"bufferView":111,"componentType":5126,"count":8280,"type":"VEC3"},{"bufferView":112,"componentType":5126,"count":8280,"type":"VEC2"},{"bufferView":113,"componentType":5123,"count":22320,"type":"SCALAR"},{"bufferView":114,"componentType":5126,"count":1248,"max":[0.8262573480606079,-0.2252492904663086,0.9559513330459595],"min":[-0.20326939225196838,-1.698411464691162,-0.16215373575687408],"type":"VEC3"},{"bufferView":115,"componentType":5126,"count":1248,"type":"VEC3"},{"bufferView":116,"componentType":5126,"count":1248,"type":"VEC2"},{"bufferView":117,"componentType":5123,"count":2976,"type":"SCALAR"},{"bufferView":118,"componentType":5126,"count":3228,"max":[0.953589916229248,-0.9307038187980652,1.7089449167251587],"min":[-0.8578161597251892,-5.946080684661865,-1.724684715270996],"type":"VEC3"},{"bufferView":119,"componentType":5126,"count":3228,"type":"VEC3"},{"bufferView":120,"componentType":5126,"count":3228,"type":"VEC2"},{"bufferView":121,"componentType":5123,"count":11268,"type":"SCALAR"},{"bufferView":122,"componentType":5126,"count":1287,"max":[0.9307000637054443,-0.2040843963623047,0.729210615158081],"min":[-0.637414813041687,-2.210789442062378,-0.6139194369316101],"type":"VEC3"},{"bufferView":123,"componentType":5126,"count":1287,"type":"VEC3"},{"bufferView":124,"componentType":5126,"count":1287,"type":"VEC2"},{"bufferView":125,"componentType":5123,"count":3300,"type":"SCALAR"},{"bufferView":126,"componentType":5126,"count":432,"max":[0.5803772211074829,-0.9065046310424805,0.8085947036743164],"min":[-0.3831241726875305,-1.4789953231811523,0.16698050498962402],"type":"VEC3"},{"bufferView":127,"componentType":5126,"count":432,"type":"VEC3"},{"bufferView":128,"componentType":5126,"count":432,"type":"VEC2"},{"bufferView":129,"componentType":5123,"count":1140,"type":"SCALAR"},{"bufferView":130,"componentType":5126,"count":608,"max":[0.9887096881866455,3.3371896743774414,1.0605297088623047],"min":[-0.09272352606058121,-4.310235500335693,-0.2608093321323395],"type":"VEC3"},{"bufferView":131,"componentType":5126,"count":608,"type":"VEC3"},{"bufferView":132,"componentType":5126,"count":608,"type":"VEC2"},{"bufferView":133,"componentType":5123,"count":1140,"type":"SCALAR"},{"bufferView":134,"componentType":5126,"count":4189,"max":[0.9456973075866699,4.132630348205566,0.9394703507423401],"min":[-1.05430269241333,-5.131734848022461,-1.0605297088623047],"type":"VEC3"},{"bufferView":135,"componentType":5126,"count":4189,"type":"VEC3"},{"bufferView":136,"componentType":5126,"count":4189,"type":"VEC2"},{"bufferView":137,"componentType":5123,"count":18024,"type":"SCALAR"},{"bufferView":138,"componentType":5126,"count":64,"max":[0.704401433467865,-5.014561176300049,0.6981745362281799],"min":[-0.8130068182945251,-5.143174171447754,-0.8192338347434998],"type":"VEC3"},{"bufferView":139,"componentType":5126,"count":64,"type":"VEC3"},{"bufferView":140,"componentType":5126,"count":64,"type":"VEC2"},{"bufferView":141,"componentType":5123,"count":120,"type":"SCALAR"},{"bufferView":142,"componentType":5126,"count":882,"max":[0.6909505128860474,3.9736340045928955,0.6847235560417175],"min":[-0.7995558977127075,3.866183042526245,-0.8057828545570374],"type":"VEC3"},{"bufferView":143,"componentType":5126,"count":882,"type":"VEC3"},{"bufferView":144,"componentType":5126,"count":882,"type":"VEC2"},{"bufferView":145,"componentType":5123,"count":3456,"type":"SCALAR"},{"bufferView":146,"componentType":5126,"count":374,"max":[0.8999602794647217,4.18745756149292,0.1309838742017746],"min":[-0.06414932012557983,-4.862170219421387,-0.24477264285087585],"type":"VEC3"},{"bufferView":147,"componentType":5126,"count":374,"type":"VEC3"},{"bufferView":148,"componentType":5126,"count":374,"type":"VEC2"},{"bufferView":149,"componentType":5123,"count":1128,"type":"SCALAR"},{"bufferView":150,"componentType":5126,"count":1510,"max":[1.021535038948059,6.1055006980896,1.0596411228179932],"min":[-1.05430269241333,-6.093444347381592,-1.0605297088623047],"type":"VEC3"},{"bufferView":151,"componentType":5126,"count":1510,"type":"VEC3"},{"bufferView":152,"componentType":5126,"count":1510,"type":"VEC2"},{"bufferView":153,"componentType":5123,"count":3918,"type":"SCALAR"},{"bufferView":154,"componentType":5126,"count":952,"max":[0.9456973075866699,6.183595180511475,0.9394703507423401],"min":[-1.05430269241333,-4.194399833679199,-1.0605297088623047],"type":"VEC3"},{"bufferView":155,"componentType":5126,"count":952,"type":"VEC3"},{"bufferView":156,"componentType":5126,"count":952,"type":"VEC2"},{"bufferView":157,"componentType":5123,"count":2688,"type":"SCALAR"},{"bufferView":158,"componentType":5126,"count":1048,"max":[1.05430269241333,-4.965587615966797,0.4923607110977173],"min":[-0.6071930527687073,-6.183595180511475,-0.6134200096130371],"type":"VEC3"},{"bufferView":159,"componentType":5126,"count":1048,"type":"VEC3"},{"bufferView":160,"componentType":5126,"count":1048,"type":"VEC2"},{"bufferView":161,"componentType":5123,"count":3036,"type":"SCALAR"},{"bufferView":162,"componentType":5126,"count":368,"max":[0.9456973075866699,3.5305542945861816,0.9394703507423401],"min":[-1.05430269241333,-4.055526256561279,-1.0605297088623047],"type":"VEC3"},{"bufferView":163,"componentType":5126,"count":368,"type":"VEC3"},{"bufferView":164,"componentType":5126,"count":368,"type":"VEC2"},{"bufferView":165,"componentType":5123,"count":1152,"type":"SCALAR"},{"bufferView":166,"componentType":5126,"count":128,"max":[1.0342085361480713,-4.975523471832275,0.13608022034168243],"min":[0.9926084280014038,-5.225481033325195,-0.25713953375816345],"type":"VEC3"},{"bufferView":167,"componentType":5126,"count":128,"type":"VEC3"},{"bufferView":168,"componentType":5126,"count":128,"type":"VEC2"},{"bufferView":169,"componentType":5123,"count":360,"type":"SCALAR"},{"bufferView":170,"componentType":5126,"count":564,"max":[0.9833000898361206,4.0096354484558105,1.0589773654937744],"min":[-0.08063933253288269,0.09461002051830292,-0.25148364901542664],"type":"VEC3"},{"bufferView":171,"componentType":5126,"count":564,"type":"VEC3"},{"bufferView":172,"componentType":5126,"count":564,"type":"VEC2"},{"bufferView":173,"componentType":5123,"count":2244,"type":"SCALAR"},{"bufferView":174,"componentType":5126,"count":1447,"max":[0.2818531394004822,0.05926108360290527,0.43488216400146484],"min":[-0.2818531394004822,-1.2082349061965942,-0.4114195704460144],"type":"VEC3"},{"bufferView":175,"componentType":5126,"count":1447,"type":"VEC3"},{"bufferView":176,"componentType":5126,"count":1447,"type":"VEC2"},{"bufferView":177,"componentType":5123,"count":4800,"type":"SCALAR"},{"bufferView":178,"componentType":5126,"count":324,"max":[0.8955487608909607,-1.2082349061965942,0.8955487608909607],"min":[-0.8955487608909607,-3.648143768310547,-0.8955487608909607],"type":"VEC3"},{"bufferView":179,"componentType":5126,"count":324,"type":"VEC3"},{"bufferView":180,"componentType":5126,"count":324,"type":"VEC2"},{"bufferView":181,"componentType":5123,"count":1344,"type":"SCALAR"},{"bufferView":182,"componentType":5126,"count":32,"max":[0.3569837510585785,-1.4127326011657715,0.3569837510585785],"min":[-0.3569837510585785,-1.4127326011657715,-0.3569837510585785],"type":"VEC3"},{"bufferView":183,"componentType":5126,"count":32,"type":"VEC3"},{"bufferView":184,"componentType":5126,"count":32,"type":"VEC2"},{"bufferView":185,"componentType":5123,"count":90,"type":"SCALAR"},{"bufferView":186,"componentType":5126,"count":3414,"max":[0.30920684337615967,-0.06189298629760742,0.30595681071281433],"min":[-0.30939382314682007,-1.2305126190185547,-0.44793856143951416],"type":"VEC3"},{"bufferView":187,"componentType":5126,"count":3414,"type":"VEC3"},{"bufferView":188,"componentType":5126,"count":3414,"type":"VEC2"},{"bufferView":189,"componentType":5123,"count":14364,"type":"SCALAR"},{"bufferView":190,"componentType":5126,"count":2556,"max":[0.22841623425483704,-0.08072495460510254,0.2285212129354477],"min":[-0.22843700647354126,-0.6086623668670654,-0.3976600766181946],"type":"VEC3"},{"bufferView":191,"componentType":5126,"count":2556,"type":"VEC3"},{"bufferView":192,"componentType":5126,"count":2556,"type":"VEC2"},{"bufferView":193,"componentType":5123,"count":8592,"type":"SCALAR"},{"bufferView":194,"componentType":5126,"count":24,"max":[0.06020065024495125,-0.31338024139404297,0.4549487233161926],"min":[-0.06038765236735344,-0.38175296783447266,0.09095650911331177],"type":"VEC3"},{"bufferView":195,"componentType":5126,"count":24,"type":"VEC3"},{"bufferView":196,"componentType":5126,"count":24,"type":"VEC2"},{"bufferView":197,"componentType":5123,"count":36,"type":"SCALAR"},{"bufferView":198,"componentType":5126,"count":1415,"max":[1.0000462532043457,1.0434731245040894,1.0540717840194702],"min":[-0.9999538064002991,-1.232437252998352,-1.0540717840194702],"type":"VEC3"},{"bufferView":199,"componentType":5126,"count":1415,"type":"VEC3"},{"bufferView":200,"componentType":5126,"count":1415,"type":"VEC2"},{"bufferView":201,"componentType":5123,"count":3984,"type":"SCALAR"},{"bufferView":202,"componentType":5126,"count":4882,"max":[1.0120337009429932,1.0880993604660034,1.0120519399642944],"min":[-1.0120337009429932,0.12394320964813232,-1.0120738744735718],"type":"VEC3"},{"bufferView":203,"componentType":5126,"count":4882,"type":"VEC3"},{"bufferView":204,"componentType":5126,"count":4882,"type":"VEC2"},{"bufferView":205,"componentType":5123,"count":8400,"type":"SCALAR"},{"bufferView":206,"componentType":5126,"count":2916,"max":[1.0000462532043457,1.3364707231521606,1],"min":[-0.9999538064002991,-1.6425741910934448,-1],"type":"VEC3"},{"bufferView":207,"componentType":5126,"count":2916,"type":"VEC3"},{"bufferView":208,"componentType":5126,"count":2916,"type":"VEC2"},{"bufferView":209,"componentType":5123,"count":12648,"type":"SCALAR"},{"bufferView":210,"componentType":5126,"count":352,"max":[1.0000462532043457,1.6346102952957153,1],"min":[-0.9999538064002991,0.8295495510101318,-1],"type":"VEC3"},{"bufferView":211,"componentType":5126,"count":352,"type":"VEC3"},{"bufferView":212,"componentType":5126,"count":352,"type":"VEC2"},{"bufferView":213,"componentType":5123,"count":954,"type":"SCALAR"},{"bufferView":214,"componentType":5126,"count":2803,"max":[0.47435978055000305,1.69845449924469,0.4743135869503021],"min":[-0.4742673933506012,1.3537827730178833,-0.4743135869503021],"type":"VEC3"},{"bufferView":215,"componentType":5126,"count":2803,"type":"VEC3"},{"bufferView":216,"componentType":5126,"count":2803,"type":"VEC2"},{"bufferView":217,"componentType":5123,"count":5106,"type":"SCALAR"},{"bufferView":218,"componentType":5126,"count":27,"max":[1.0000462532043457,0.12394320964813232,0.3826833963394165],"min":[0.9239256978034973,-1.086577296257019,-0.3826834261417389],"type":"VEC3"},{"bufferView":219,"componentType":5126,"count":27,"type":"VEC3"},{"bufferView":220,"componentType":5126,"count":27,"type":"VEC2"},{"bufferView":221,"componentType":5123,"count":96,"type":"SCALAR"},{"bufferView":222,"componentType":5126,"count":32,"max":[0.17873677611351013,1.6778621673583984,0.17789320647716522],"min":[-0.17877055704593658,1.6778621673583984,-0.1796141415834427],"type":"VEC3"},{"bufferView":223,"componentType":5126,"count":32,"type":"VEC3"},{"bufferView":224,"componentType":5126,"count":32,"type":"VEC2"},{"bufferView":225,"componentType":5123,"count":90,"type":"SCALAR"},{"bufferView":226,"componentType":5126,"count":64,"max":[0.1809091866016388,1.686743140220642,0.1800655871629715],"min":[-0.18094295263290405,1.6655247211456299,-0.18178655207157135],"type":"VEC3"},{"bufferView":227,"componentType":5126,"count":64,"type":"VEC3"},{"bufferView":228,"componentType":5126,"count":64,"type":"VEC2"},{"bufferView":229,"componentType":5123,"count":96,"type":"SCALAR"},{"bufferView":230,"componentType":5126,"count":559,"max":[0.1657075583934784,-1.358720302581787,-0.45519712567329407],"min":[-0.165615051984787,-1.6900432109832764,-0.7865196466445923],"type":"VEC3"},{"bufferView":231,"componentType":5126,"count":559,"type":"VEC3"},{"bufferView":232,"componentType":5126,"count":559,"type":"VEC2"},{"bufferView":233,"componentType":5123,"count":2880,"type":"SCALAR"},{"bufferView":234,"componentType":5126,"count":616,"max":[0.11147948354482651,-1.1394609212875366,-0.28629833459854126],"min":[-0.11118479818105698,-1.642581820487976,-0.7427080869674683],"type":"VEC3"},{"bufferView":235,"componentType":5126,"count":616,"type":"VEC3"},{"bufferView":236,"componentType":5126,"count":616,"type":"VEC2"},{"bufferView":237,"componentType":5123,"count":1488,"type":"SCALAR"},{"bufferView":238,"componentType":5126,"count":174,"max":[0.4568803310394287,-1.173687219619751,0.7323101758956909],"min":[-0.45678791403770447,-1.4781800508499146,0.2534888684749603],"type":"VEC3"},{"bufferView":239,"componentType":5126,"count":174,"type":"VEC3"},{"bufferView":240,"componentType":5126,"count":174,"type":"VEC2"},{"bufferView":241,"componentType":5123,"count":468,"type":"SCALAR"},{"bufferView":242,"componentType":5126,"count":1012,"max":[1.0044817924499512,-0.28468406200408936,0.615378737449646],"min":[0.764537513256073,-1.1788309812545776,-0.6062571406364441],"type":"VEC3"},{"bufferView":243,"componentType":5126,"count":1012,"type":"VEC3"},{"bufferView":244,"componentType":5126,"count":1012,"type":"VEC2"},{"bufferView":245,"componentType":5123,"count":2664,"type":"SCALAR"},{"bufferView":246,"componentType":5126,"count":268,"max":[0.988682746887207,-0.29461991786956787,1.0351519584655762],"min":[-0.029514331370592117,-1.1692684888839722,-1.0351519584655762],"type":"VEC3"},{"bufferView":247,"componentType":5126,"count":268,"type":"VEC3"},{"bufferView":248,"componentType":5126,"count":268,"type":"VEC2"},{"bufferView":249,"componentType":5123,"count":720,"type":"SCALAR"},{"bufferView":250,"componentType":5126,"count":1764,"max":[0.7215794920921326,1.247397541999817,0.7215332984924316],"min":[-0.7214871048927307,-1.4074313640594482,-0.7215332984924316],"type":"VEC3"},{"bufferView":251,"componentType":5126,"count":1764,"type":"VEC3"},{"bufferView":252,"componentType":5126,"count":1764,"type":"VEC2"},{"bufferView":253,"componentType":5123,"count":6912,"type":"SCALAR"},{"bufferView":254,"componentType":5126,"count":331,"max":[0.8692096471786499,1.5859031677246094,0.46953341364860535],"min":[-0.012255847454071045,-1.69845449924469,-0.4571203291416168],"type":"VEC3"},{"bufferView":255,"componentType":5126,"count":331,"type":"VEC3"},{"bufferView":256,"componentType":5126,"count":331,"type":"VEC2"},{"bufferView":257,"componentType":5123,"count":984,"type":"SCALAR"}],"bufferViews":[{"buffer":0,"byteLength":125268,"byteOffset":0,"target":34962},{"buffer":0,"byteLength":125268,"byteOffset":125268,"target":34962},{"buffer":0,"byteLength":83512,"byteOffset":250536,"target":34962},{"buffer":0,"byteLength":98628,"byteOffset":334048,"target":34963},{"buffer":0,"byteLength":1896,"byteOffset":432676,"target":34962},{"buffer":0,"byteLength":1896,"byteOffset":434572,"target":34962},{"buffer":0,"byteLength":1264,"byteOffset":436468,"target":34962},{"buffer":0,"byteLength":732,"byteOffset":437732,"target":34963},{"buffer":0,"byteLength":6552,"byteOffset":438464,"target":34962},{"buffer":0,"byteLength":6552,"byteOffset":445016,"target":34962},{"buffer":0,"byteLength":4368,"byteOffset":451568,"target":34962},{"buffer":0,"byteLength":3072,"byteOffset":455936,"target":34963},{"buffer":0,"byteLength":6528,"byteOffset":459008,"target":34962},{"buffer":0,"byteLength":6528,"byteOffset":465536,"target":34962},{"buffer":0,"byteLength":4352,"byteOffset":472064,"target":34962},{"buffer":0,"byteLength":3072,"byteOffset":476416,"target":34963},{"buffer":0,"byteLength":5100,"byteOffset":479488,"target":34962},{"buffer":0,"byteLength":5100,"byteOffset":484588,"target":34962},{"buffer":0,"byteLength":3400,"byteOffset":489688,"target":34962},{"buffer":0,"byteLength":3408,"byteOffset":493088,"target":34963},{"buffer":0,"byteLength":123588,"byteOffset":496496,"target":34962},{"buffer":0,"byteLength":123588,"byteOffset":620084,"target":34962},{"buffer":0,"byteLength":82392,"byteOffset":743672,"target":34962},{"buffer":0,"byteLength":98628,"byteOffset":826064,"target":34963},{"buffer":0,"byteLength":1536,"byteOffset":924692,"target":34962},{"buffer":0,"byteLength":1536,"byteOffset":926228,"target":34962},{"buffer":0,"byteLength":1024,"byteOffset":927764,"target":34962},{"buffer":0,"byteLength":732,"byteOffset":928788,"target":34963},{"buffer":0,"byteLength":6552,"byteOffset":929520,"target":34962},{"buffer":0,"byteLength":6552,"byteOffset":936072,"target":34962},{"buffer":0,"byteLength":4368,"byteOffset":942624,"target":34962},{"buffer":0,"byteLength":3072,"byteOffset":946992,"target":34963},{"buffer":0,"byteLength":6528,"byteOffset":950064,"target":34962},{"buffer":0,"byteLength":6528,"byteOffset":956592,"target":34962},{"buffer":0,"byteLength":4352,"byteOffset":963120,"target":34962},{"buffer":0,"byteLength":3072,"byteOffset":967472,"target":34963},{"buffer":0,"byteLength":5100,"byteOffset":970544,"target":34962},{"buffer":0,"byteLength":5100,"byteOffset":975644,"target":34962},{"buffer":0,"byteLength":3400,"byteOffset":980744,"target":34962},{"buffer":0,"byteLength":3408,"byteOffset":984144,"target":34963},{"buffer":0,"byteLength":125268,"byteOffset":987552,"target":34962},{"buffer":0,"byteLength":125268,"byteOffset":1112820,"target":34962},{"buffer":0,"byteLength":83512,"byteOffset":1238088,"target":34962},{"buffer":0,"byteLength":1896,"byteOffset":1321600,"target":34962},{"buffer":0,"byteLength":1896,"byteOffset":1323496,"target":34962},{"buffer":0,"byteLength":1264,"byteOffset":1325392,"target":34962},{"buffer":0,"byteLength":6552,"byteOffset":1326656,"target":34962},{"buffer":0,"byteLength":6552,"byteOffset":1333208,"target":34962},{"buffer":0,"byteLength":4368,"byteOffset":1339760,"target":34962},{"buffer":0,"byteLength":6528,"byteOffset":1344128,"target":34962},{"buffer":0,"byteLength":6528,"byteOffset":1350656,"target":34962},{"buffer":0,"byteLength":4352,"byteOffset":1357184,"target":34962},{"buffer":0,"byteLength":5100,"byteOffset":1361536,"target":34962},{"buffer":0,"byteLength":5100,"byteOffset":1366636,"target":34962},{"buffer":0,"byteLength":3400,"byteOffset":1371736,"target":34962},{"buffer":0,"byteLength":123588,"byteOffset":1375136,"target":34962},{"buffer":0,"byteLength":123588,"byteOffset":1498724,"target":34962},{"buffer":0,"byteLength":82392,"byteOffset":1622312,"target":34962},{"buffer":0,"byteLength":1536,"byteOffset":1704704,"target":34962},{"buffer":0,"byteLength":1536,"byteOffset":1706240,"target":34962},{"buffer":0,"byteLength":1024,"byteOffset":1707776,"target":34962},{"buffer":0,"byteLength":6552,"byteOffset":1708800,"target":34962},{"buffer":0,"byteLength":6552,"byteOffset":1715352,"target":34962},{"buffer":0,"byteLength":4368,"byteOffset":1721904,"target":34962},{"buffer":0,"byteLength":6528,"byteOffset":1726272,"target":34962},{"buffer":0,"byteLength":6528,"byteOffset":1732800,"target":34962},{"buffer":0,"byteLength":4352,"byteOffset":1739328,"target":34962},{"buffer":0,"byteLength":5100,"byteOffset":1743680,"target":34962},{"buffer":0,"byteLength":5100,"byteOffset":1748780,"target":34962},{"buffer":0,"byteLength":3400,"byteOffset":1753880,"target":34962},{"buffer":0,"byteLength":10776,"byteOffset":1757280,"target":34962},{"buffer":0,"byteLength":10776,"byteOffset":1768056,"target":34962},{"buffer":0,"byteLength":7184,"byteOffset":1778832,"target":34962},{"buffer":0,"byteLength":9402,"byteOffset":1786016,"target":34963},{"buffer":0,"byteLength":11004,"byteOffset":1795420,"target":34962},{"buffer":0,"byteLength":11004,"byteOffset":1806424,"target":34962},{"buffer":0,"byteLength":7336,"byteOffset":1817428,"target":34962},{"buffer":0,"byteLength":9402,"byteOffset":1824764,"target":34963},{"buffer":0,"byteLength":7008,"byteOffset":1834168,"target":34962},{"buffer":0,"byteLength":7008,"byteOffset":1841176,"target":34962},{"buffer":0,"byteLength":4672,"byteOffset":1848184,"target":34962},{"buffer":0,"byteLength":2844,"byteOffset":1852856,"target":34963},{"buffer":0,"byteLength":12528,"byteOffset":1855700,"target":34962},{"buffer":0,"byteLength":12528,"byteOffset":1868228,"target":34962},{"buffer":0,"byteLength":8352,"byteOffset":1880756,"target":34962},{"buffer":0,"byteLength":5760,"byteOffset":1889108,"target":34963},{"buffer":0,"byteLength":1056,"byteOffset":1894868,"target":34962},{"buffer":0,"byteLength":1056,"byteOffset":1895924,"target":34962},{"buffer":0,"byteLength":704,"byteOffset":1896980,"target":34962},{"buffer":0,"byteLength":480,"byteOffset":1897684,"target":34963},{"buffer":0,"byteLength":12096,"byteOffset":1898164,"target":34962},{"buffer":0,"byteLength":12096,"byteOffset":1910260,"target":34962},{"buffer":0,"byteLength":8064,"byteOffset":1922356,"target":34962},{"buffer":0,"byteLength":5376,"byteOffset":1930420,"target":34963},{"buffer":0,"byteLength":7668,"byteOffset":1935796,"target":34962},{"buffer":0,"byteLength":7668,"byteOffset":1943464,"target":34962},{"buffer":0,"byteLength":5112,"byteOffset":1951132,"target":34962},{"buffer":0,"byteLength":4416,"byteOffset":1956244,"target":34963},{"buffer":0,"byteLength":42780,"byteOffset":1960660,"target":34962},{"buffer":0,"byteLength":42780,"byteOffset":2003440,"target":34962},{"buffer":0,"byteLength":28520,"byteOffset":2046220,"target":34962},{"buffer":0,"byteLength":16944,"byteOffset":2074740,"target":34963},{"buffer":0,"byteLength":4344,"byteOffset":2091684,"target":34962},{"buffer":0,"byteLength":4344,"byteOffset":2096028,"target":34962},{"buffer":0,"byteLength":2896,"byteOffset":2100372,"target":34962},{"buffer":0,"byteLength":1992,"byteOffset":2103268,"target":34963},{"buffer":0,"byteLength":576,"byteOffset":2105260,"target":34962},{"buffer":0,"byteLength":576,"byteOffset":2105836,"target":34962},{"buffer":0,"byteLength":384,"byteOffset":2106412,"target":34962},{"buffer":0,"byteLength":264,"byteOffset":2106796,"target":34963},{"buffer":0,"byteLength":99360,"byteOffset":2107060,"target":34962},{"buffer":0,"byteLength":99360,"byteOffset":2206420,"target":34962},{"buffer":0,"byteLength":66240,"byteOffset":2305780,"target":34962},{"buffer":0,"byteLength":44640,"byteOffset":2372020,"target":34963},{"buffer":0,"byteLength":14976,"byteOffset":2416660,"target":34962},{"buffer":0,"byteLength":14976,"byteOffset":2431636,"target":34962},{"buffer":0,"byteLength":9984,"byteOffset":2446612,"target":34962},{"buffer":0,"byteLength":5952,"byteOffset":2456596,"target":34963},{"buffer":0,"byteLength":38736,"byteOffset":2462548,"target":34962},{"buffer":0,"byteLength":38736,"byteOffset":2501284,"target":34962},{"buffer":0,"byteLength":25824,"byteOffset":2540020,"target":34962},{"buffer":0,"byteLength":22536,"byteOffset":2565844,"target":34963},{"buffer":0,"byteLength":15444,"byteOffset":2588380,"target":34962},{"buffer":0,"byteLength":15444,"byteOffset":2603824,"target":34962},{"buffer":0,"byteLength":10296,"byteOffset":2619268,"target":34962},{"buffer":0,"byteLength":6600,"byteOffset":2629564,"target":34963},{"buffer":0,"byteLength":5184,"byteOffset":2636164,"target":34962},{"buffer":0,"byteLength":5184,"byteOffset":2641348,"target":34962},{"buffer":0,"byteLength":3456,"byteOffset":2646532,"target":34962},{"buffer":0,"byteLength":2280,"byteOffset":2649988,"target":34963},{"buffer":0,"byteLength":7296,"byteOffset":2652268,"target":34962},{"buffer":0,"byteLength":7296,"byteOffset":2659564,"target":34962},{"buffer":0,"byteLength":4864,"byteOffset":2666860,"target":34962},{"buffer":0,"byteLength":2280,"byteOffset":2671724,"target":34963},{"buffer":0,"byteLength":50268,"byteOffset":2674004,"target":34962},{"buffer":0,"byteLength":50268,"byteOffset":2724272,"target":34962},{"buffer":0,"byteLength":33512,"byteOffset":2774540,"target":34962},{"buffer":0,"byteLength":36048,"byteOffset":2808052,"target":34963},{"buffer":0,"byteLength":768,"byteOffset":2844100,"target":34962},{"buffer":0,"byteLength":768,"byteOffset":2844868,"target":34962},{"buffer":0,"byteLength":512,"byteOffset":2845636,"target":34962},{"buffer":0,"byteLength":240,"byteOffset":2846148,"target":34963},{"buffer":0,"byteLength":10584,"byteOffset":2846388,"target":34962},{"buffer":0,"byteLength":10584,"byteOffset":2856972,"target":34962},{"buffer":0,"byteLength":7056,"byteOffset":2867556,"target":34962},{"buffer":0,"byteLength":6912,"byteOffset":2874612,"target":34963},{"buffer":0,"byteLength":4488,"byteOffset":2881524,"target":34962},{"buffer":0,"byteLength":4488,"byteOffset":2886012,"target":34962},{"buffer":0,"byteLength":2992,"byteOffset":2890500,"target":34962},{"buffer":0,"byteLength":2256,"byteOffset":2893492,"target":34963},{"buffer":0,"byteLength":18120,"byteOffset":2895748,"target":34962},{"buffer":0,"byteLength":18120,"byteOffset":2913868,"target":34962},{"buffer":0,"byteLength":12080,"byteOffset":2931988,"target":34962},{"buffer":0,"byteLength":7836,"byteOffset":2944068,"target":34963},{"buffer":0,"byteLength":11424,"byteOffset":2951904,"target":34962},{"buffer":0,"byteLength":11424,"byteOffset":2963328,"target":34962},{"buffer":0,"byteLength":7616,"byteOffset":2974752,"target":34962},{"buffer":0,"byteLength":5376,"byteOffset":2982368,"target":34963},{"buffer":0,"byteLength":12576,"byteOffset":2987744,"target":34962},{"buffer":0,"byteLength":12576,"byteOffset":3000320,"target":34962},{"buffer":0,"byteLength":8384,"byteOffset":3012896,"target":34962},{"buffer":0,"byteLength":6072,"byteOffset":3021280,"target":34963},{"buffer":0,"byteLength":4416,"byteOffset":3027352,"target":34962},{"buffer":0,"byteLength":4416,"byteOffset":3031768,"target":34962},{"buffer":0,"byteLength":2944,"byteOffset":3036184,"target":34962},{"buffer":0,"byteLength":2304,"byteOffset":3039128,"target":34963},{"buffer":0,"byteLength":1536,"byteOffset":3041432,"target":34962},{"buffer":0,"byteLength":1536,"byteOffset":3042968,"target":34962},{"buffer":0,"byteLength":1024,"byteOffset":3044504,"target":34962},{"buffer":0,"byteLength":720,"byteOffset":3045528,"target":34963},{"buffer":0,"byteLength":6768,"byteOffset":3046248,"target":34962},{"buffer":0,"byteLength":6768,"byteOffset":3053016,"target":34962},{"buffer":0,"byteLength":4512,"byteOffset":3059784,"target":34962},{"buffer":0,"byteLength":4488,"byteOffset":3064296,"target":34963},{"buffer":0,"byteLength":17364,"byteOffset":3068784,"target":34962},{"buffer":0,"byteLength":17364,"byteOffset":3086148,"target":34962},{"buffer":0,"byteLength":11576,"byteOffset":3103512,"target":34962},{"buffer":0,"byteLength":9600,"byteOffset":3115088,"target":34963},{"buffer":0,"byteLength":3888,"byteOffset":3124688,"target":34962},{"buffer":0,"byteLength":3888,"byteOffset":3128576,"target":34962},{"buffer":0,"byteLength":2592,"byteOffset":3132464,"target":34962},{"buffer":0,"byteLength":2688,"byteOffset":3135056,"target":34963},{"buffer":0,"byteLength":384,"byteOffset":3137744,"target":34962},{"buffer":0,"byteLength":384,"byteOffset":3138128,"target":34962},{"buffer":0,"byteLength":256,"byteOffset":3138512,"target":34962},{"buffer":0,"byteLength":180,"byteOffset":3138768,"target":34963},{"buffer":0,"byteLength":40968,"byteOffset":3138948,"target":34962},{"buffer":0,"byteLength":40968,"byteOffset":3179916,"target":34962},{"buffer":0,"byteLength":27312,"byteOffset":3220884,"target":34962},{"buffer":0,"byteLength":28728,"byteOffset":3248196,"target":34963},{"buffer":0,"byteLength":30672,"byteOffset":3276924,"target":34962},{"buffer":0,"byteLength":30672,"byteOffset":3307596,"target":34962},{"buffer":0,"byteLength":20448,"byteOffset":3338268,"target":34962},{"buffer":0,"byteLength":17184,"byteOffset":3358716,"target":34963},{"buffer":0,"byteLength":288,"byteOffset":3375900,"target":34962},{"buffer":0,"byteLength":288,"byteOffset":3376188,"target":34962},{"buffer":0,"byteLength":192,"byteOffset":3376476,"target":34962},{"buffer":0,"byteLength":72,"byteOffset":3376668,"target":34963},{"buffer":0,"byteLength":16980,"byteOffset":3376740,"target":34962},{"buffer":0,"byteLength":16980,"byteOffset":3393720,"target":34962},{"buffer":0,"byteLength":11320,"byteOffset":3410700,"target":34962},{"buffer":0,"byteLength":7968,"byteOffset":3422020,"target":34963},{"buffer":0,"byteLength":58584,"byteOffset":3429988,"target":34962},{"buffer":0,"byteLength":58584,"byteOffset":3488572,"target":34962},{"buffer":0,"byteLength":39056,"byteOffset":3547156,"target":34962},{"buffer":0,"byteLength":16800,"byteOffset":3586212,"target":34963},{"buffer":0,"byteLength":34992,"byteOffset":3603012,"target":34962},{"buffer":0,"byteLength":34992,"byteOffset":3638004,"target":34962},{"buffer":0,"byteLength":23328,"byteOffset":3672996,"target":34962},{"buffer":0,"byteLength":25296,"byteOffset":3696324,"target":34963},{"buffer":0,"byteLength":4224,"byteOffset":3721620,"target":34962},{"buffer":0,"byteLength":4224,"byteOffset":3725844,"target":34962},{"buffer":0,"byteLength":2816,"byteOffset":3730068,"target":34962},{"buffer":0,"byteLength":1908,"byteOffset":3732884,"target":34963},{"buffer":0,"byteLength":33636,"byteOffset":3734792,"target":34962},{"buffer":0,"byteLength":33636,"byteOffset":3768428,"target":34962},{"buffer":0,"byteLength":22424,"byteOffset":3802064,"target":34962},{"buffer":0,"byteLength":10212,"byteOffset":3824488,"target":34963},{"buffer":0,"byteLength":324,"byteOffset":3834700,"target":34962},{"buffer":0,"byteLength":324,"byteOffset":3835024,"target":34962},{"buffer":0,"byteLength":216,"byteOffset":3835348,"target":34962},{"buffer":0,"byteLength":192,"byteOffset":3835564,"target":34963},{"buffer":0,"byteLength":384,"byteOffset":3835756,"target":34962},{"buffer":0,"byteLength":384,"byteOffset":3836140,"target":34962},{"buffer":0,"byteLength":256,"byteOffset":3836524,"target":34962},{"buffer":0,"byteLength":180,"byteOffset":3836780,"target":34963},{"buffer":0,"byteLength":768,"byteOffset":3836960,"target":34962},{"buffer":0,"byteLength":768,"byteOffset":3837728,"target":34962},{"buffer":0,"byteLength":512,"byteOffset":3838496,"target":34962},{"buffer":0,"byteLength":192,"byteOffset":3839008,"target":34963},{"buffer":0,"byteLength":6708,"byteOffset":3839200,"target":34962},{"buffer":0,"byteLength":6708,"byteOffset":3845908,"target":34962},{"buffer":0,"byteLength":4472,"byteOffset":3852616,"target":34962},{"buffer":0,"byteLength":5760,"byteOffset":3857088,"target":34963},{"buffer":0,"byteLength":7392,"byteOffset":3862848,"target":34962},{"buffer":0,"byteLength":7392,"byteOffset":3870240,"target":34962},{"buffer":0,"byteLength":4928,"byteOffset":3877632,"target":34962},{"buffer":0,"byteLength":2976,"byteOffset":3882560,"target":34963},{"buffer":0,"byteLength":2088,"byteOffset":3885536,"target":34962},{"buffer":0,"byteLength":2088,"byteOffset":3887624,"target":34962},{"buffer":0,"byteLength":1392,"byteOffset":3889712,"target":34962},{"buffer":0,"byteLength":936,"byteOffset":3891104,"target":34963},{"buffer":0,"byteLength":12144,"byteOffset":3892040,"target":34962},{"buffer":0,"byteLength":12144,"byteOffset":3904184,"target":34962},{"buffer":0,"byteLength":8096,"byteOffset":3916328,"target":34962},{"buffer":0,"byteLength":5328,"byteOffset":3924424,"target":34963},{"buffer":0,"byteLength":3216,"byteOffset":3929752,"target":34962},{"buffer":0,"byteLength":3216,"byteOffset":3932968,"target":34962},{"buffer":0,"byteLength":2144,"byteOffset":3936184,"target":34962},{"buffer":0,"byteLength":1440,"byteOffset":3938328,"target":34963},{"buffer":0,"byteLength":21168,"byteOffset":3939768,"target":34962},{"buffer":0,"byteLength":21168,"byteOffset":3960936,"target":34962},{"buffer":0,"byteLength":14112,"byteOffset":3982104,"target":34962},{"buffer":0,"byteLength":13824,"byteOffset":3996216,"target":34963},{"buffer":0,"byteLength":3972,"byteOffset":4010040,"target":34962},{"buffer":0,"byteLength":3972,"byteOffset":4014012,"target":34962},{"buffer":0,"byteLength":2648,"byteOffset":4017984,"target":34962},{"buffer":0,"byteLength":1968,"byteOffset":4020632,"target":34963}],"samplers":[{"magFilter":9729,"minFilter":9987}],"buffers":[{"byteLength":4022600,"uri":"ariane_64.bin"}]}