{
	"asset":{
		"generator":"Khronos glTF Blender I/O v4.4.56",
		"version":"2.0"
	},
	"scene":0,
	"scenes":[
		{
			"name":"Scene",
			"nodes":[
				25
			]
		}
	],
	"nodes":[
		{
			"mesh":0,
			"name":"Object_16"
		},
		{
			"mesh":1,
			"name":"Object_17"
		},
		{
			"mesh":2,
			"name":"Object_18"
		},
		{
			"mesh":3,
			"name":"Object_19"
		},
		{
			"mesh":4,
			"name":"Object_20"
		},
		{
			"mesh":5,
			"name":"Object_21"
		},
		{
			"mesh":6,
			"name":"Object_22"
		},
		{
			"mesh":7,
			"name":"Object_23"
		},
		{
			"mesh":8,
			"name":"Object_24"
		},
		{
			"mesh":9,
			"name":"Object_25"
		},
		{
			"mesh":10,
			"name":"Object_26"
		},
		{
			"mesh":11,
			"name":"Object_27"
		},
		{
			"mesh":12,
			"name":"Object_28"
		},
		{
			"children":[
				0,
				1,
				2,
				3,
				4,
				5,
				6,
				7,
				8,
				9,
				10,
				11,
				12
			],
			"name":"Engine Nozzle.001_2",
			"rotation":[
				0,
				-0.2907021939754486,
				0,
				0.9568135738372803
			],
			"scale":[
				0.28560250997543335,
				0.28560250997543335,
				0.28560250997543335
			],
			"translation":[
				-0.054472390562295914,
				-5.124429702758789,
				-0.060392025858163834
			]
		},
		{
			"mesh":13,
			"name":"Object_10"
		},
		{
			"mesh":14,
			"name":"Object_11"
		},
		{
			"mesh":15,
			"name":"Object_12"
		},
		{
			"mesh":16,
			"name":"Object_13"
		},
		{
			"mesh":17,
			"name":"Object_14"
		},
		{
			"mesh":18,
			"name":"Object_4"
		},
		{
			"mesh":19,
			"name":"Object_5"
		},
		{
			"mesh":20,
			"name":"Object_6"
		},
		{
			"mesh":21,
			"name":"Object_7"
		},
		{
			"mesh":22,
			"name":"Object_8"
		},
		{
			"mesh":23,
			"name":"Object_9"
		},
		{
			"children":[
				13,
				14,
				15,
				16,
				17,
				18,
				19,
				20,
				21,
				22,
				23,
				24
			],
			"name":"First Stage_3",
			"scale":[
				0.043890129774808884,
				0.043890126049518585,
				0.043890126049518585
			],
			"translation":[
				0.002383352257311344,
				0.30042511224746704,
				0.002656653756275773
			]
		}
	],
	"materials":[
		{
			"doubleSided":true,
			"name":"Material.100",
			"pbrMetallicRoughness":{
				"baseColorFactor":[
					0.4700680077075958,
					0.4700680077075958,
					0.4700680077075958,
					1
				],
				"metallicFactor":0.889706015586853,
				"metallicRoughnessTexture":{
					"index":0
				}
			}
		},
		{
			"doubleSided":true,
			"name":"Material.101",
			"pbrMetallicRoughness":{
				"baseColorFactor":[
					0.031063400208950043,
					0.031063400208950043,
					0.031063400208950043,
					1
				],
				"metallicFactor":0.3014709949493408,
				"metallicRoughnessTexture":{
					"index":1
				}
			}
		},
		{
			"doubleSided":true,
			"name":"Material.102",
			"pbrMetallicRoughness":{
				"baseColorFactor":[
					0,
					0,
					0,
					1
				],
				"metallicFactor":0,
				"roughnessFactor":0.5
			}
		},
		{
			"doubleSided":true,
			"name":"Material.103",
			"pbrMetallicRoughness":{
				"baseColorFactor":[
					0.0891055017709732,
					0.0891055017709732,
					0.0891055017709732,
					1
				],
				"metallicFactor":0.3014709949493408,
				"metallicRoughnessTexture":{
					"index":2
				}
			}
		},
		{
			"doubleSided":true,
			"name":"Material.104",
			"pbrMetallicRoughness":{
				"baseColorFactor":[
					0.1023939996957779,
					0.1023939996957779,
					0.1023939996957779,
					1
				],
				"metallicFactor":0.3014709949493408,
				"metallicRoughnessTexture":{
					"index":3
				}
			}
		},
		{
			"doubleSided":true,
			"name":"Material.105",
			"pbrMetallicRoughness":{
				"baseColorFactor":[
					0.02892420068383217,
					0.02892420068383217,
					0.02892420068383217,
					1
				],
				"metallicFactor":0.3014709949493408,
				"metallicRoughnessTexture":{
					"index":4
				}
			}
		},
		{
			"doubleSided":true,
			"name":"Material.106",
			"pbrMetallicRoughness":{
				"baseColorFactor":[
					0.279231995344162,
					0.14875100553035736,
					0.09997919946908951,
					1
				],
				"metallicFactor":0.3014709949493408,
				"metallicRoughnessTexture":{
					"index":5
				}
			}
		},
		{
			"doubleSided":true,
			"name":"Material.107",
			"pbrMetallicRoughness":{
				"baseColorFactor":[
					0.5955020189285278,
					0.31124699115753174,
					0.20609000325202942,
					1
				],
				"metallicFactor":0.3014709949493408,
				"metallicRoughnessTexture":{
					"index":6
				}
			}
		},
		{
			"doubleSided":true,
			"name":"Material.108",
			"pbrMetallicRoughness":{
				"baseColorFactor":[
					0.5216670036315918,
					0.5216670036315918,
					0.5216670036315918,
					1
				],
				"metallicFactor":0.3014709949493408,
				"metallicRoughnessTexture":{
					"index":7
				}
			}
		},
		{
			"doubleSided":true,
			"name":"Material.109",
			"pbrMetallicRoughness":{
				"baseColorFactor":[
					0.5543779730796814,
					0.5543779730796814,
					0.5543779730796814,
					1
				],
				"metallicFactor":0.7787430286407471,
				"metallicRoughnessTexture":{
					"index":8
				}
			}
		},
		{
			"doubleSided":true,
			"name":"Material.110",
			"pbrMetallicRoughness":{
				"baseColorFactor":[
					0.23301400244235992,
					0.23301400244235992,
					0.23301400244235992,
					1
				],
				"metallicFactor":0.615106999874115,
				"metallicRoughnessTexture":{
					"index":9
				}
			}
		},
		{
			"doubleSided":true,
			"name":"Material.112",
			"pbrMetallicRoughness":{
				"baseColorFactor":[
					0.04445530101656914,
					0.04445530101656914,
					0.04445530101656914,
					1
				],
				"metallicFactor":0,
				"metallicRoughnessTexture":{
					"index":10
				}
			}
		},
		{
			"doubleSided":true,
			"name":"Material.113",
			"pbrMetallicRoughness":{
				"baseColorFactor":[
					0.3947409987449646,
					0.23851600289344788,
					0,
					1
				],
				"metallicFactor":0,
				"metallicRoughnessTexture":{
					"index":11
				}
			}
		},
		{
			"doubleSided":true,
			"name":"Material.114",
			"pbrMetallicRoughness":{
				"baseColorFactor":[
					0.150285005569458,
					0.150285005569458,
					0.150285005569458,
					1
				],
				"metallicFactor":0.32727301120758057,
				"metallicRoughnessTexture":{
					"index":12
				}
			}
		},
		{
			"doubleSided":true,
			"name":"Material.115",
			"pbrMetallicRoughness":{
				"baseColorFactor":[
					0.3965350091457367,
					0.3965350091457367,
					0.3965350091457367,
					1
				],
				"metallicFactor":0.6748350262641907,
				"metallicRoughnessTexture":{
					"index":13
				}
			}
		},
		{
			"doubleSided":true,
			"name":"Material.116",
			"pbrMetallicRoughness":{
				"baseColorFactor":[
					0.15743300318717957,
					0.15743300318717957,
					0.15743300318717957,
					1
				],
				"metallicFactor":0.9372990131378174,
				"metallicRoughnessTexture":{
					"index":14
				}
			}
		},
		{
			"doubleSided":true,
			"name":"Material.117",
			"pbrMetallicRoughness":{
				"baseColorFactor":[
					0.04954909905791283,
					0.04954909905791283,
					0.04954909905791283,
					1
				],
				"metallicFactor":0,
				"metallicRoughnessTexture":{
					"index":15
				}
			}
		},
		{
			"doubleSided":true,
			"name":"Material.095",
			"pbrMetallicRoughness":{
				"metallicFactor":0,
				"metallicRoughnessTexture":{
					"index":16
				}
			}
		},
		{
			"doubleSided":true,
			"name":"Material.098",
			"pbrMetallicRoughness":{
				"baseColorFactor":[
					0.33465299010276794,
					0.33465299010276794,
					0.33465299010276794,
					1
				],
				"metallicFactor":0.7628459930419922,
				"metallicRoughnessTexture":{
					"index":17
				},
				"roughnessFactor":0.5043824911117554
			}
		},
		{
			"doubleSided":true,
			"name":"Material.118",
			"pbrMetallicRoughness":{
				"baseColorFactor":[
					0.09773260354995728,
					0.09773260354995728,
					0.09773260354995728,
					1
				],
				"metallicFactor":0.42272698879241943,
				"metallicRoughnessTexture":{
					"index":18
				},
				"roughnessFactor":0.6872401833534241
			}
		},
		{
			"doubleSided":true,
			"name":"Material.119",
			"pbrMetallicRoughness":{
				"baseColorFactor":[
					0.4897710084915161,
					0.4897710084915161,
					0.4897710084915161,
					1
				],
				"metallicFactor":0,
				"metallicRoughnessTexture":{
					"index":19
				}
			}
		},
		{
			"doubleSided":true,
			"name":"Material.120",
			"pbrMetallicRoughness":{
				"baseColorFactor":[
					0.021665599197149277,
					0.021665599197149277,
					0.021665599197149277,
					1
				],
				"metallicFactor":0,
				"metallicRoughnessTexture":{
					"index":20
				}
			}
		}
	],
	"meshes":[
		{
			"name":"Object_11.003",
			"primitives":[
				{
					"attributes":{
						"POSITION":0,
						"NORMAL":1,
						"TEXCOORD_0":2
					},
					"indices":3,
					"material":0
				}
			]
		},
		{
			"name":"Object_12.003",
			"primitives":[
				{
					"attributes":{
						"POSITION":4,
						"NORMAL":5,
						"TEXCOORD_0":6
					},
					"indices":7,
					"material":1
				}
			]
		},
		{
			"name":"Object_13.003",
			"primitives":[
				{
					"attributes":{
						"POSITION":8,
						"NORMAL":9,
						"TEXCOORD_0":10
					},
					"indices":11,
					"material":2
				}
			]
		},
		{
			"name":"Object_14.003",
			"primitives":[
				{
					"attributes":{
						"POSITION":12,
						"NORMAL":13,
						"TEXCOORD_0":14
					},
					"indices":15,
					"material":3
				}
			]
		},
		{
			"name":"Object_15.003",
			"primitives":[
				{
					"attributes":{
						"POSITION":16,
						"NORMAL":17,
						"TEXCOORD_0":18
					},
					"indices":19,
					"material":4
				}
			]
		},
		{
			"name":"Object_16.003",
			"primitives":[
				{
					"attributes":{
						"POSITION":20,
						"NORMAL":21,
						"TEXCOORD_0":22
					},
					"indices":23,
					"material":5
				}
			]
		},
		{
			"name":"Object_17.003",
			"primitives":[
				{
					"attributes":{
						"POSITION":24,
						"NORMAL":25,
						"TEXCOORD_0":26
					},
					"indices":27,
					"material":6
				}
			]
		},
		{
			"name":"Object_18.003",
			"primitives":[
				{
					"attributes":{
						"POSITION":28,
						"NORMAL":29,
						"TEXCOORD_0":30
					},
					"indices":31,
					"material":7
				}
			]
		},
		{
			"name":"Object_19.003",
			"primitives":[
				{
					"attributes":{
						"POSITION":32,
						"NORMAL":33,
						"TEXCOORD_0":34
					},
					"indices":35,
					"material":8
				}
			]
		},
		{
			"name":"Object_20.003",
			"primitives":[
				{
					"attributes":{
						"POSITION":36,
						"NORMAL":37,
						"TEXCOORD_0":38
					},
					"indices":39,
					"material":9
				}
			]
		},
		{
			"name":"Object_21.003",
			"primitives":[
				{
					"attributes":{
						"POSITION":40,
						"NORMAL":41,
						"TEXCOORD_0":42
					},
					"indices":43,
					"material":10
				}
			]
		},
		{
			"name":"Object_22.003",
			"primitives":[
				{
					"attributes":{
						"POSITION":44,
						"NORMAL":45,
						"TEXCOORD_0":46
					},
					"indices":47,
					"material":11
				}
			]
		},
		{
			"name":"Object_23.003",
			"primitives":[
				{
					"attributes":{
						"POSITION":48,
						"NORMAL":49,
						"TEXCOORD_0":50
					},
					"indices":51,
					"material":12
				}
			]
		},
		{
			"name":"Object_6.003",
			"primitives":[
				{
					"attributes":{
						"POSITION":52,
						"NORMAL":53,
						"TEXCOORD_0":54
					},
					"indices":55,
					"material":13
				}
			]
		},
		{
			"name":"Object_7.003",
			"primitives":[
				{
					"attributes":{
						"POSITION":56,
						"NORMAL":57,
						"TEXCOORD_0":58
					},
					"indices":59,
					"material":14
				}
			]
		},
		{
			"name":"Object_8.003",
			"primitives":[
				{
					"attributes":{
						"POSITION":60,
						"NORMAL":61,
						"TEXCOORD_0":62
					},
					"indices":63,
					"material":0
				}
			]
		},
		{
			"name":"Object_9.003",
			"primitives":[
				{
					"attributes":{
						"POSITION":64,
						"NORMAL":65,
						"TEXCOORD_0":66
					},
					"indices":67,
					"material":15
				}
			]
		},
		{
			"name":"Object_10.003",
			"primitives":[
				{
					"attributes":{
						"POSITION":68,
						"NORMAL":69,
						"TEXCOORD_0":70
					},
					"indices":71,
					"material":16
				}
			]
		},
		{
			"name":"Object_0.003",
			"primitives":[
				{
					"attributes":{
						"POSITION":72,
						"NORMAL":73,
						"TEXCOORD_0":74
					},
					"indices":75,
					"material":17
				}
			]
		},
		{
			"name":"Object_1.003",
			"primitives":[
				{
					"attributes":{
						"POSITION":76,
						"NORMAL":77,
						"TEXCOORD_0":78
					},
					"indices":79,
					"material":18
				}
			]
		},
		{
			"name":"Object_2.003",
			"primitives":[
				{
					"attributes":{
						"POSITION":80,
						"NORMAL":81,
						"TEXCOORD_0":82
					},
					"indices":83,
					"material":19
				}
			]
		},
		{
			"name":"Object_3.003",
			"primitives":[
				{
					"attributes":{
						"POSITION":84,
						"NORMAL":85,
						"TEXCOORD_0":86
					},
					"indices":87,
					"material":20
				}
			]
		},
		{
			"name":"Object_4.003",
			"primitives":[
				{
					"attributes":{
						"POSITION":88,
						"NORMAL":89,
						"TEXCOORD_0":90
					},
					"indices":91,
					"material":2
				}
			]
		},
		{
			"name":"Object_5.003",
			"primitives":[
				{
					"attributes":{
						"POSITION":92,
						"NORMAL":93,
						"TEXCOORD_0":94
					},
					"indices":95,
					"material":21
				}
			]
		}
	],
	"textures":[
		{
			"sampler":0,
			"source":0
		},
		{
			"sampler":0,
			"source":0
		},
		{
			"sampler":0,
			"source":0
		},
		{
			"sampler":0,
			"source":0
		},
		{
			"sampler":0,
			"source":0
		},
		{
			"sampler":0,
			"source":0
		},
		{
			"sampler":0,
			"source":0
		},
		{
			"sampler":0,
			"source":0
		},
		{
			"sampler":0,
			"source":0
		},
		{
			"sampler":0,
			"source":0
		},
		{
			"sampler":0,
			"source":0
		},
		{
			"sampler":0,
			"source":0
		},
		{
			"sampler":0,
			"source":0
		},
		{
			"sampler":0,
			"source":0
		},
		{
			"sampler":0,
			"source":0
		},
		{
			"sampler":0,
			"source":0
		},
		{
			"sampler":0,
			"source":0
		},
		{
			"sampler":0,
			"source":0
		},
		{
			"sampler":0,
			"source":0
		},
		{
			"sampler":0,
			"source":0
		},
		{
			"sampler":0,
			"source":0
		}
	],
	"images":[
		{
			"mimeType":"image/png",
			"name":"Material_111_metallicRoughness",
			"uri":"textures/Material_111_metallicRoughness.png"
		}
	],
	"accessors":[
		{
			"bufferView":0,
			"componentType":5126,
			"count":584,
			"max":[
				0.891722559928894,
				0.12765836715698242,
				0.6184232831001282
			],
			"min":[
				-0.6270776987075806,
				-1.9639286994934082,
				-0.6341626048088074
			],
			"type":"VEC3"
		},
		{
			"bufferView":1,
			"componentType":5126,
			"count":584,
			"type":"VEC3"
		},
		{
			"bufferView":2,
			"componentType":5126,
			"count":584,
			"type":"VEC2"
		},
		{
			"bufferView":3,
			"componentType":5123,
			"count":1422,
			"type":"SCALAR"
		},
		{
			"bufferView":4,
			"componentType":5126,
			"count":1044,
			"max":[
				1.3909960985183716,
				-3.1127357482910156,
				1.390995979309082
			],
			"min":[
				-1.3909958600997925,
				-6.021739959716797,
				-1.390995979309082
			],
			"type":"VEC3"
		},
		{
			"bufferView":5,
			"componentType":5126,
			"count":1044,
			"type":"VEC3"
		},
		{
			"bufferView":6,
			"componentType":5126,
			"count":1044,
			"type":"VEC2"
		},
		{
			"bufferView":7,
			"componentType":5123,
			"count":2880,
			"type":"SCALAR"
		},
		{
			"bufferView":8,
			"componentType":5126,
			"count":88,
			"max":[
				1.0657211542129517,
				-1.9639286994934082,
				1.6658607721328735
			],
			"min":[
				-1.0657212734222412,
				-5.663390159606934,
				-1.6816003322601318
			],
			"type":"VEC3"
		},
		{
			"bufferView":9,
			"componentType":5126,
			"count":88,
			"type":"VEC3"
		},
		{
			"bufferView":10,
			"componentType":5126,
			"count":88,
			"type":"VEC2"
		},
		{
			"bufferView":11,
			"componentType":5123,
			"count":240,
			"type":"SCALAR"
		},
		{
			"bufferView":12,
			"componentType":5126,
			"count":1008,
			"max":[
				1.3762269020080566,
				-3.0675852298736572,
				1.376226782798767
			],
			"min":[
				-1.3762266635894775,
				-5.890726089477539,
				-1.376226782798767
			],
			"type":"VEC3"
		},
		{
			"bufferView":13,
			"componentType":5126,
			"count":1008,
			"type":"VEC3"
		},
		{
			"bufferView":14,
			"componentType":5126,
			"count":1008,
			"type":"VEC2"
		},
		{
			"bufferView":15,
			"componentType":5123,
			"count":2688,
			"type":"SCALAR"
		},
		{
			"bufferView":16,
			"componentType":5126,
			"count":639,
			"max":[
				0.9720367789268494,
				-0.9432761669158936,
				0.7693568468093872
			],
			"min":[
				-0.7693568468093872,
				-3.0675852298736572,
				-0.9405653476715088
			],
			"type":"VEC3"
		},
		{
			"bufferView":17,
			"componentType":5126,
			"count":639,
			"type":"VEC3"
		},
		{
			"bufferView":18,
			"componentType":5126,
			"count":639,
			"type":"VEC2"
		},
		{
			"bufferView":19,
			"componentType":5123,
			"count":2208,
			"type":"SCALAR"
		},
		{
			"bufferView":20,
			"componentType":5126,
			"count":3567,
			"max":[
				0.7073000073432922,
				-0.5240530967712402,
				0.6184232831001282
			],
			"min":[
				-0.6270776987075806,
				-1.943058967590332,
				-0.8957907557487488
			],
			"type":"VEC3"
		},
		{
			"bufferView":21,
			"componentType":5126,
			"count":3567,
			"type":"VEC3"
		},
		{
			"bufferView":22,
			"componentType":5126,
			"count":3567,
			"type":"VEC2"
		},
		{
			"bufferView":23,
			"componentType":5123,
			"count":8472,
			"type":"SCALAR"
		},
		{
			"bufferView":24,
			"componentType":5126,
			"count":362,
			"max":[
				0.32077136635780334,
				-0.162353515625,
				1.0514591932296753
			],
			"min":[
				-0.3061368763446808,
				-1.5225238800048828,
				-0.9405653476715088
			],
			"type":"VEC3"
		},
		{
			"bufferView":25,
			"componentType":5126,
			"count":362,
			"type":"VEC3"
		},
		{
			"bufferView":26,
			"componentType":5126,
			"count":362,
			"type":"VEC2"
		},
		{
			"bufferView":27,
			"componentType":5123,
			"count":996,
			"type":"SCALAR"
		},
		{
			"bufferView":28,
			"componentType":5126,
			"count":48,
			"max":[
				0.22024667263031006,
				-0.20148420333862305,
				1.0269070863723755
			],
			"min":[
				-0.2215941846370697,
				-0.9198956489562988,
				0.5761487483978271
			],
			"type":"VEC3"
		},
		{
			"bufferView":29,
			"componentType":5126,
			"count":48,
			"type":"VEC3"
		},
		{
			"bufferView":30,
			"componentType":5126,
			"count":48,
			"type":"VEC2"
		},
		{
			"bufferView":31,
			"componentType":5123,
			"count":132,
			"type":"SCALAR"
		},
		{
			"bufferView":32,
			"componentType":5126,
			"count":8280,
			"max":[
				0.23866218328475952,
				-0.20824718475341797,
				0.9883385896682739
			],
			"min":[
				-0.23861075937747955,
				-0.9007530212402344,
				0.6305848956108093
			],
			"type":"VEC3"
		},
		{
			"bufferView":33,
			"componentType":5126,
			"count":8280,
			"type":"VEC3"
		},
		{
			"bufferView":34,
			"componentType":5126,
			"count":8280,
			"type":"VEC2"
		},
		{
			"bufferView":35,
			"componentType":5123,
			"count":22320,
			"type":"SCALAR"
		},
		{
			"bufferView":36,
			"componentType":5126,
			"count":1248,
			"max":[
				0.8262573480606079,
				-0.2252492904663086,
				0.9559513330459595
			],
			"min":[
				-0.20326939225196838,
				-1.698411464691162,
				-0.16215373575687408
			],
			"type":"VEC3"
		},
		{
			"bufferView":37,
			"componentType":5126,
			"count":1248,
			"type":"VEC3"
		},
		{
			"bufferView":38,
			"componentType":5126,
			"count":1248,
			"type":"VEC2"
		},
		{
			"bufferView":39,
			"componentType":5123,
			"count":2976,
			"type":"SCALAR"
		},
		{
			"bufferView":40,
			"componentType":5126,
			"count":3228,
			"max":[
				0.953589916229248,
				-0.9307038187980652,
				1.7089449167251587
			],
			"min":[
				-0.8578161597251892,
				-5.946080684661865,
				-1.724684715270996
			],
			"type":"VEC3"
		},
		{
			"bufferView":41,
			"componentType":5126,
			"count":3228,
			"type":"VEC3"
		},
		{
			"bufferView":42,
			"componentType":5126,
			"count":3228,
			"type":"VEC2"
		},
		{
			"bufferView":43,
			"componentType":5123,
			"count":11268,
			"type":"SCALAR"
		},
		{
			"bufferView":44,
			"componentType":5126,
			"count":1287,
			"max":[
				0.9307000637054443,
				-0.2040843963623047,
				0.729210615158081
			],
			"min":[
				-0.637414813041687,
				-2.210789442062378,
				-0.6139194369316101
			],
			"type":"VEC3"
		},
		{
			"bufferView":45,
			"componentType":5126,
			"count":1287,
			"type":"VEC3"
		},
		{
			"bufferView":46,
			"componentType":5126,
			"count":1287,
			"type":"VEC2"
		},
		{
			"bufferView":47,
			"componentType":5123,
			"count":3300,
			"type":"SCALAR"
		},
		{
			"bufferView":48,
			"componentType":5126,
			"count":432,
			"max":[
				0.5803772211074829,
				-0.9065046310424805,
				0.8085947036743164
			],
			"min":[
				-0.3831241726875305,
				-1.4789953231811523,
				0.16698050498962402
			],
			"type":"VEC3"
		},
		{
			"bufferView":49,
			"componentType":5126,
			"count":432,
			"type":"VEC3"
		},
		{
			"bufferView":50,
			"componentType":5126,
			"count":432,
			"type":"VEC2"
		},
		{
			"bufferView":51,
			"componentType":5123,
			"count":1140,
			"type":"SCALAR"
		},
		{
			"bufferView":52,
			"componentType":5126,
			"count":608,
			"max":[
				0.9887096881866455,
				3.3371896743774414,
				1.0605297088623047
			],
			"min":[
				-0.09272352606058121,
				-4.310235500335693,
				-0.2608093321323395
			],
			"type":"VEC3"
		},
		{
			"bufferView":53,
			"componentType":5126,
			"count":608,
			"type":"VEC3"
		},
		{
			"bufferView":54,
			"componentType":5126,
			"count":608,
			"type":"VEC2"
		},
		{
			"bufferView":55,
			"componentType":5123,
			"count":1140,
			"type":"SCALAR"
		},
		{
			"bufferView":56,
			"componentType":5126,
			"count":4189,
			"max":[
				0.9456973075866699,
				4.132630348205566,
				0.9394703507423401
			],
			"min":[
				-1.05430269241333,
				-5.131734848022461,
				-1.0605297088623047
			],
			"type":"VEC3"
		},
		{
			"bufferView":57,
			"componentType":5126,
			"count":4189,
			"type":"VEC3"
		},
		{
			"bufferView":58,
			"componentType":5126,
			"count":4189,
			"type":"VEC2"
		},
		{
			"bufferView":59,
			"componentType":5123,
			"count":18024,
			"type":"SCALAR"
		},
		{
			"bufferView":60,
			"componentType":5126,
			"count":64,
			"max":[
				0.704401433467865,
				-5.014561176300049,
				0.6981745362281799
			],
			"min":[
				-0.8130068182945251,
				-5.143174171447754,
				-0.8192338347434998
			],
			"type":"VEC3"
		},
		{
			"bufferView":61,
			"componentType":5126,
			"count":64,
			"type":"VEC3"
		},
		{
			"bufferView":62,
			"componentType":5126,
			"count":64,
			"type":"VEC2"
		},
		{
			"bufferView":63,
			"componentType":5123,
			"count":120,
			"type":"SCALAR"
		},
		{
			"bufferView":64,
			"componentType":5126,
			"count":882,
			"max":[
				0.6909505128860474,
				3.9736340045928955,
				0.6847235560417175
			],
			"min":[
				-0.7995558977127075,
				3.866183042526245,
				-0.8057828545570374
			],
			"type":"VEC3"
		},
		{
			"bufferView":65,
			"componentType":5126,
			"count":882,
			"type":"VEC3"
		},
		{
			"bufferView":66,
			"componentType":5126,
			"count":882,
			"type":"VEC2"
		},
		{
			"bufferView":67,
			"componentType":5123,
			"count":3456,
			"type":"SCALAR"
		},
		{
			"bufferView":68,
			"componentType":5126,
			"count":374,
			"max":[
				0.8999602794647217,
				4.18745756149292,
				0.1309838742017746
			],
			"min":[
				-0.06414932012557983,
				-4.862170219421387,
				-0.24477264285087585
			],
			"type":"VEC3"
		},
		{
			"bufferView":69,
			"componentType":5126,
			"count":374,
			"type":"VEC3"
		},
		{
			"bufferView":70,
			"componentType":5126,
			"count":374,
			"type":"VEC2"
		},
		{
			"bufferView":71,
			"componentType":5123,
			"count":1128,
			"type":"SCALAR"
		},
		{
			"bufferView":72,
			"componentType":5126,
			"count":1510,
			"max":[
				1.021535038948059,
				6.1055006980896,
				1.0596411228179932
			],
			"min":[
				-1.05430269241333,
				-6.093444347381592,
				-1.0605297088623047
			],
			"type":"VEC3"
		},
		{
			"bufferView":73,
			"componentType":5126,
			"count":1510,
			"type":"VEC3"
		},
		{
			"bufferView":74,
			"componentType":5126,
			"count":1510,
			"type":"VEC2"
		},
		{
			"bufferView":75,
			"componentType":5123,
			"count":3918,
			"type":"SCALAR"
		},
		{
			"bufferView":76,
			"componentType":5126,
			"count":952,
			"max":[
				0.9456973075866699,
				6.183595180511475,
				0.9394703507423401
			],
			"min":[
				-1.05430269241333,
				-4.194399833679199,
				-1.0605297088623047
			],
			"type":"VEC3"
		},
		{
			"bufferView":77,
			"componentType":5126,
			"count":952,
			"type":"VEC3"
		},
		{
			"bufferView":78,
			"componentType":5126,
			"count":952,
			"type":"VEC2"
		},
		{
			"bufferView":79,
			"componentType":5123,
			"count":2688,
			"type":"SCALAR"
		},
		{
			"bufferView":80,
			"componentType":5126,
			"count":1048,
			"max":[
				1.05430269241333,
				-4.965587615966797,
				0.4923607110977173
			],
			"min":[
				-0.6071930527687073,
				-6.183595180511475,
				-0.6134200096130371
			],
			"type":"VEC3"
		},
		{
			"bufferView":81,
			"componentType":5126,
			"count":1048,
			"type":"VEC3"
		},
		{
			"bufferView":82,
			"componentType":5126,
			"count":1048,
			"type":"VEC2"
		},
		{
			"bufferView":83,
			"componentType":5123,
			"count":3036,
			"type":"SCALAR"
		},
		{
			"bufferView":84,
			"componentType":5126,
			"count":368,
			"max":[
				0.9456973075866699,
				3.5305542945861816,
				0.9394703507423401
			],
			"min":[
				-1.05430269241333,
				-4.055526256561279,
				-1.0605297088623047
			],
			"type":"VEC3"
		},
		{
			"bufferView":85,
			"componentType":5126,
			"count":368,
			"type":"VEC3"
		},
		{
			"bufferView":86,
			"componentType":5126,
			"count":368,
			"type":"VEC2"
		},
		{
			"bufferView":87,
			"componentType":5123,
			"count":1152,
			"type":"SCALAR"
		},
		{
			"bufferView":88,
			"componentType":5126,
			"count":128,
			"max":[
				1.0342085361480713,
				-4.975523471832275,
				0.13608022034168243
			],
			"min":[
				0.9926084280014038,
				-5.225481033325195,
				-0.25713953375816345
			],
			"type":"VEC3"
		},
		{
			"bufferView":89,
			"componentType":5126,
			"count":128,
			"type":"VEC3"
		},
		{
			"bufferView":90,
			"componentType":5126,
			"count":128,
			"type":"VEC2"
		},
		{
			"bufferView":91,
			"componentType":5123,
			"count":360,
			"type":"SCALAR"
		},
		{
			"bufferView":92,
			"componentType":5126,
			"count":564,
			"max":[
				0.9833000898361206,
				4.0096354484558105,
				1.0589773654937744
			],
			"min":[
				-0.08063933253288269,
				0.09461002051830292,
				-0.25148364901542664
			],
			"type":"VEC3"
		},
		{
			"bufferView":93,
			"componentType":5126,
			"count":564,
			"type":"VEC3"
		},
		{
			"bufferView":94,
			"componentType":5126,
			"count":564,
			"type":"VEC2"
		},
		{
			"bufferView":95,
			"componentType":5123,
			"count":2244,
			"type":"SCALAR"
		}
	],
	"bufferViews":[
		{
			"buffer":0,
			"byteLength":7008,
			"byteOffset":0,
			"target":34962
		},
		{
			"buffer":0,
			"byteLength":7008,
			"byteOffset":7008,
			"target":34962
		},
		{
			"buffer":0,
			"byteLength":4672,
			"byteOffset":14016,
			"target":34962
		},
		{
			"buffer":0,
			"byteLength":2844,
			"byteOffset":18688,
			"target":34963
		},
		{
			"buffer":0,
			"byteLength":12528,
			"byteOffset":21532,
			"target":34962
		},
		{
			"buffer":0,
			"byteLength":12528,
			"byteOffset":34060,
			"target":34962
		},
		{
			"buffer":0,
			"byteLength":8352,
			"byteOffset":46588,
			"target":34962
		},
		{
			"buffer":0,
			"byteLength":5760,
			"byteOffset":54940,
			"target":34963
		},
		{
			"buffer":0,
			"byteLength":1056,
			"byteOffset":60700,
			"target":34962
		},
		{
			"buffer":0,
			"byteLength":1056,
			"byteOffset":61756,
			"target":34962
		},
		{
			"buffer":0,
			"byteLength":704,
			"byteOffset":62812,
			"target":34962
		},
		{
			"buffer":0,
			"byteLength":480,
			"byteOffset":63516,
			"target":34963
		},
		{
			"buffer":0,
			"byteLength":12096,
			"byteOffset":63996,
			"target":34962
		},
		{
			"buffer":0,
			"byteLength":12096,
			"byteOffset":76092,
			"target":34962
		},
		{
			"buffer":0,
			"byteLength":8064,
			"byteOffset":88188,
			"target":34962
		},
		{
			"buffer":0,
			"byteLength":5376,
			"byteOffset":96252,
			"target":34963
		},
		{
			"buffer":0,
			"byteLength":7668,
			"byteOffset":101628,
			"target":34962
		},
		{
			"buffer":0,
			"byteLength":7668,
			"byteOffset":109296,
			"target":34962
		},
		{
			"buffer":0,
			"byteLength":5112,
			"byteOffset":116964,
			"target":34962
		},
		{
			"buffer":0,
			"byteLength":4416,
			"byteOffset":122076,
			"target":34963
		},
		{
			"buffer":0,
			"byteLength":42804,
			"byteOffset":126492,
			"target":34962
		},
		{
			"buffer":0,
			"byteLength":42804,
			"byteOffset":169296,
			"target":34962
		},
		{
			"buffer":0,
			"byteLength":28536,
			"byteOffset":212100,
			"target":34962
		},
		{
			"buffer":0,
			"byteLength":16944,
			"byteOffset":240636,
			"target":34963
		},
		{
			"buffer":0,
			"byteLength":4344,
			"byteOffset":257580,
			"target":34962
		},
		{
			"buffer":0,
			"byteLength":4344,
			"byteOffset":261924,
			"target":34962
		},
		{
			"buffer":0,
			"byteLength":2896,
			"byteOffset":266268,
			"target":34962
		},
		{
			"buffer":0,
			"byteLength":1992,
			"byteOffset":269164,
			"target":34963
		},
		{
			"buffer":0,
			"byteLength":576,
			"byteOffset":271156,
			"target":34962
		},
		{
			"buffer":0,
			"byteLength":576,
			"byteOffset":271732,
			"target":34962
		},
		{
			"buffer":0,
			"byteLength":384,
			"byteOffset":272308,
			"target":34962
		},
		{
			"buffer":0,
			"byteLength":264,
			"byteOffset":272692,
			"target":34963
		},
		{
			"buffer":0,
			"byteLength":99360,
			"byteOffset":272956,
			"target":34962
		},
		{
			"buffer":0,
			"byteLength":99360,
			"byteOffset":372316,
			"target":34962
		},
		{
			"buffer":0,
			"byteLength":66240,
			"byteOffset":471676,
			"target":34962
		},
		{
			"buffer":0,
			"byteLength":44640,
			"byteOffset":537916,
			"target":34963
		},
		{
			"buffer":0,
			"byteLength":14976,
			"byteOffset":582556,
			"target":34962
		},
		{
			"buffer":0,
			"byteLength":14976,
			"byteOffset":597532,
			"target":34962
		},
		{
			"buffer":0,
			"byteLength":9984,
			"byteOffset":612508,
			"target":34962
		},
		{
			"buffer":0,
			"byteLength":5952,
			"byteOffset":622492,
			"target":34963
		},
		{
			"buffer":0,
			"byteLength":38736,
			"byteOffset":628444,
			"target":34962
		},
		{
			"buffer":0,
			"byteLength":38736,
			"byteOffset":667180,
			"target":34962
		},
		{
			"buffer":0,
			"byteLength":25824,
			"byteOffset":705916,
			"target":34962
		},
		{
			"buffer":0,
			"byteLength":22536,
			"byteOffset":731740,
			"target":34963
		},
		{
			"buffer":0,
			"byteLength":15444,
			"byteOffset":754276,
			"target":34962
		},
		{
			"buffer":0,
			"byteLength":15444,
			"byteOffset":769720,
			"target":34962
		},
		{
			"buffer":0,
			"byteLength":10296,
			"byteOffset":785164,
			"target":34962
		},
		{
			"buffer":0,
			"byteLength":6600,
			"byteOffset":795460,
			"target":34963
		},
		{
			"buffer":0,
			"byteLength":5184,
			"byteOffset":802060,
			"target":34962
		},
		{
			"buffer":0,
			"byteLength":5184,
			"byteOffset":807244,
			"target":34962
		},
		{
			"buffer":0,
			"byteLength":3456,
			"byteOffset":812428,
			"target":34962
		},
		{
			"buffer":0,
			"byteLength":2280,
			"byteOffset":815884,
			"target":34963
		},
		{
			"buffer":0,
			"byteLength":7296,
			"byteOffset":818164,
			"target":34962
		},
		{
			"buffer":0,
			"byteLength":7296,
			"byteOffset":825460,
			"target":34962
		},
		{
			"buffer":0,
			"byteLength":4864,
			"byteOffset":832756,
			"target":34962
		},
		{
			"buffer":0,
			"byteLength":2280,
			"byteOffset":837620,
			"target":34963
		},
		{
			"buffer":0,
			"byteLength":50268,
			"byteOffset":839900,
			"target":34962
		},
		{
			"buffer":0,
			"byteLength":50268,
			"byteOffset":890168,
			"target":34962
		},
		{
			"buffer":0,
			"byteLength":33512,
			"byteOffset":940436,
			"target":34962
		},
		{
			"buffer":0,
			"byteLength":36048,
			"byteOffset":973948,
			"target":34963
		},
		{
			"buffer":0,
			"byteLength":768,
			"byteOffset":1009996,
			"target":34962
		},
		{
			"buffer":0,
			"byteLength":768,
			"byteOffset":1010764,
			"target":34962
		},
		{
			"buffer":0,
			"byteLength":512,
			"byteOffset":1011532,
			"target":34962
		},
		{
			"buffer":0,
			"byteLength":240,
			"byteOffset":1012044,
			"target":34963
		},
		{
			"buffer":0,
			"byteLength":10584,
			"byteOffset":1012284,
			"target":34962
		},
		{
			"buffer":0,
			"byteLength":10584,
			"byteOffset":1022868,
			"target":34962
		},
		{
			"buffer":0,
			"byteLength":7056,
			"byteOffset":1033452,
			"target":34962
		},
		{
			"buffer":0,
			"byteLength":6912,
			"byteOffset":1040508,
			"target":34963
		},
		{
			"buffer":0,
			"byteLength":4488,
			"byteOffset":1047420,
			"target":34962
		},
		{
			"buffer":0,
			"byteLength":4488,
			"byteOffset":1051908,
			"target":34962
		},
		{
			"buffer":0,
			"byteLength":2992,
			"byteOffset":1056396,
			"target":34962
		},
		{
			"buffer":0,
			"byteLength":2256,
			"byteOffset":1059388,
			"target":34963
		},
		{
			"buffer":0,
			"byteLength":18120,
			"byteOffset":1061644,
			"target":34962
		},
		{
			"buffer":0,
			"byteLength":18120,
			"byteOffset":1079764,
			"target":34962
		},
		{
			"buffer":0,
			"byteLength":12080,
			"byteOffset":1097884,
			"target":34962
		},
		{
			"buffer":0,
			"byteLength":7836,
			"byteOffset":1109964,
			"target":34963
		},
		{
			"buffer":0,
			"byteLength":11424,
			"byteOffset":1117800,
			"target":34962
		},
		{
			"buffer":0,
			"byteLength":11424,
			"byteOffset":1129224,
			"target":34962
		},
		{
			"buffer":0,
			"byteLength":7616,
			"byteOffset":1140648,
			"target":34962
		},
		{
			"buffer":0,
			"byteLength":5376,
			"byteOffset":1148264,
			"target":34963
		},
		{
			"buffer":0,
			"byteLength":12576,
			"byteOffset":1153640,
			"target":34962
		},
		{
			"buffer":0,
			"byteLength":12576,
			"byteOffset":1166216,
			"target":34962
		},
		{
			"buffer":0,
			"byteLength":8384,
			"byteOffset":1178792,
			"target":34962
		},
		{
			"buffer":0,
			"byteLength":6072,
			"byteOffset":1187176,
			"target":34963
		},
		{
			"buffer":0,
			"byteLength":4416,
			"byteOffset":1193248,
			"target":34962
		},
		{
			"buffer":0,
			"byteLength":4416,
			"byteOffset":1197664,
			"target":34962
		},
		{
			"buffer":0,
			"byteLength":2944,
			"byteOffset":1202080,
			"target":34962
		},
		{
			"buffer":0,
			"byteLength":2304,
			"byteOffset":1205024,
			"target":34963
		},
		{
			"buffer":0,
			"byteLength":1536,
			"byteOffset":1207328,
			"target":34962
		},
		{
			"buffer":0,
			"byteLength":1536,
			"byteOffset":1208864,
			"target":34962
		},
		{
			"buffer":0,
			"byteLength":1024,
			"byteOffset":1210400,
			"target":34962
		},
		{
			"buffer":0,
			"byteLength":720,
			"byteOffset":1211424,
			"target":34963
		},
		{
			"buffer":0,
			"byteLength":6768,
			"byteOffset":1212144,
			"target":34962
		},
		{
			"buffer":0,
			"byteLength":6768,
			"byteOffset":1218912,
			"target":34962
		},
		{
			"buffer":0,
			"byteLength":4512,
			"byteOffset":1225680,
			"target":34962
		},
		{
			"buffer":0,
			"byteLength":4488,
			"byteOffset":1230192,
			"target":34963
		}
	],
	"samplers":[
		{
			"magFilter":9729,
			"minFilter":9987
		}
	],
	"buffers":[
		{
			"byteLength":1234680,
			"uri":"ariane_64-core.bin"
		}
	]
}
