{
	"asset":{
		"generator":"Khronos glTF Blender I/O v4.4.56",
		"version":"2.0"
	},
	"scene":0,
	"scenes":[
		{
			"name":"Scene",
			"nodes":[
				1
			]
		}
	],
	"nodes":[
		{
			"mesh":0,
			"name":"Object_59",
			"translation":[
				-0.028900638222694397,
				-15.349063873291016,
				-0.21015681326389313
			]
		},
		{
			"children":[
				0
			],
			"name":"Fairing_7",
			"rotation":[
				0,
				-0.3363211154937744,
				0,
				0.9417473673820496
			],
			"scale":[
				0.04389013722538948,
				0.043890126049518585,
				0.04389013722538948
			],
			"translation":[
				0,
				0.608864963054657,
				0
			]
		}
	],
	"materials":[
		{
			"doubleSided":true,
			"name":"Material.095",
			"pbrMetallicRoughness":{
				"metallicFactor":0,
				"metallicRoughnessTexture":{
					"index":0
				}
			}
		}
	],
	"meshes":[
		{
			"name":"Object_50.003",
			"primitives":[
				{
					"attributes":{
						"POSITION":0,
						"NORMAL":1,
						"TEXCOORD_0":2
					},
					"indices":3,
					"material":0
				}
			]
		}
	],
	"textures":[
		{
			"sampler":0,
			"source":0
		}
	],
	"images":[
		{
			"mimeType":"image/png",
			"name":"Material_111_metallicRoughness",
			"uri":"textures/Material_111_metallicRoughness.png"
		}
	],
	"accessors":[
		{
			"bufferView":0,
			"componentType":5126,
			"count":917,
			"max":[
				1,
				8.912408828735352,
				1
			],
			"min":[
				-1,
				1.476583480834961,
				-1.1924880638503055e-08
			],
			"type":"VEC3"
		},
		{
			"bufferView":1,
			"componentType":5126,
			"count":917,
			"type":"VEC3"
		},
		{
			"bufferView":2,
			"componentType":5126,
			"count":917,
			"type":"VEC2"
		},
		{
			"bufferView":3,
			"componentType":5123,
			"count":4701,
			"type":"SCALAR"
		}
	],
	"bufferViews":[
		{
			"buffer":0,
			"byteLength":11004,
			"byteOffset":0,
			"target":34962
		},
		{
			"buffer":0,
			"byteLength":11004,
			"byteOffset":11004,
			"target":34962
		},
		{
			"buffer":0,
			"byteLength":7336,
			"byteOffset":22008,
			"target":34962
		},
		{
			"buffer":0,
			"byteLength":9402,
			"byteOffset":29344,
			"target":34963
		}
	],
	"samplers":[
		{
			"magFilter":9729,
			"minFilter":9987
		}
	],
	"buffers":[
		{
			"byteLength":38748,
			"uri":"ariane_64-fairing2.bin"
		}
	]
}
