{
	"asset":{
		"generator":"Khronos glTF Blender I/O v4.4.56",
		"version":"2.0"
	},
	"scene":0,
	"scenes":[
		{
			"name":"Scene",
			"nodes":[
				55
			]
		}
	],
	"nodes":[
		{
			"mesh":0,
			"name":"Object_79"
		},
		{
			"children":[
				0
			],
			"name":"Fairing.001_11",
			"rotation":[
				0,
				-0.3363211154937744,
				0,
				0.9417474865913391
			],
			"scale":[
				0.5558246970176697,
				0.5558245778083801,
				0.5558246970176697
			],
			"translation":[
				0,
				7.710666179656982,
				0
			]
		},
		{
			"mesh":1,
			"name":"Object_59"
		},
		{
			"children":[
				2
			],
			"name":"Fairing_7",
			"rotation":[
				0,
				-0.3363211154937744,
				0,
				0.9417474865913391
			],
			"scale":[
				0.5558246970176697,
				0.5558245778083801,
				0.5558246970176697
			],
			"translation":[
				0,
				7.710666179656982,
				0
			]
		},
		{
			"mesh":2,
			"name":"Object_16"
		},
		{
			"mesh":3,
			"name":"Object_17"
		},
		{
			"mesh":4,
			"name":"Object_18"
		},
		{
			"mesh":5,
			"name":"Object_19"
		},
		{
			"mesh":6,
			"name":"Object_20"
		},
		{
			"mesh":7,
			"name":"Object_21"
		},
		{
			"mesh":8,
			"name":"Object_22"
		},
		{
			"mesh":9,
			"name":"Object_23"
		},
		{
			"mesh":10,
			"name":"Object_24"
		},
		{
			"mesh":11,
			"name":"Object_25"
		},
		{
			"mesh":12,
			"name":"Object_26"
		},
		{
			"mesh":13,
			"name":"Object_27"
		},
		{
			"mesh":14,
			"name":"Object_28"
		},
		{
			"children":[
				4,
				5,
				6,
				7,
				8,
				9,
				10,
				11,
				12,
				13,
				14,
				15,
				16
			],
			"name":"Engine Nozzle.001_2",
			"rotation":[
				0,
				-0.2907021939754486,
				0,
				0.9568135738372803
			],
			"scale":[
				0.28560250997543335,
				0.28560250997543335,
				0.28560250997543335
			],
			"translation":[
				-0.054472390562295914,
				-5.124429702758789,
				-0.060392025858163834
			]
		},
		{
			"mesh":15,
			"name":"Object_10"
		},
		{
			"mesh":16,
			"name":"Object_11"
		},
		{
			"mesh":17,
			"name":"Object_12"
		},
		{
			"mesh":18,
			"name":"Object_13"
		},
		{
			"mesh":19,
			"name":"Object_14"
		},
		{
			"mesh":20,
			"name":"Object_4"
		},
		{
			"mesh":21,
			"name":"Object_5"
		},
		{
			"mesh":22,
			"name":"Object_6"
		},
		{
			"mesh":23,
			"name":"Object_7"
		},
		{
			"mesh":24,
			"name":"Object_8"
		},
		{
			"mesh":25,
			"name":"Object_9"
		},
		{
			"children":[
				17,
				18,
				19,
				20,
				21,
				22,
				23,
				24,
				25,
				26,
				27,
				28
			],
			"name":"First Stage_3",
			"scale":[
				0.5558245778083801,
				0.5558245778083801,
				0.5558245778083801
			],
			"translation":[
				0.030182771384716034,
				3.804583787918091,
				0.03364386409521103
			]
		},
		{
			"mesh":26,
			"name":"Object_52"
		},
		{
			"mesh":27,
			"name":"Object_53"
		},
		{
			"mesh":28,
			"name":"Object_54"
		},
		{
			"mesh":29,
			"name":"Object_55"
		},
		{
			"mesh":30,
			"name":"Object_56"
		},
		{
			"mesh":31,
			"name":"Object_57"
		},
		{
			"children":[
				30,
				31,
				32,
				33,
				34,
				35
			],
			"name":"Engine Nozzle.002_5",
			"scale":[
				0.42478153109550476,
				0.42478156089782715,
				0.42478156089782715
			],
			"translation":[
				8.591046207584441e-05,
				-1.6341705322265625,
				0.0014202659949660301
			]
		},
		{
			"mesh":32,
			"name":"Object_36"
		},
		{
			"mesh":33,
			"name":"Object_37"
		},
		{
			"mesh":34,
			"name":"Object_38"
		},
		{
			"mesh":35,
			"name":"Object_39"
		},
		{
			"mesh":36,
			"name":"Object_40"
		},
		{
			"mesh":37,
			"name":"Object_41"
		},
		{
			"mesh":38,
			"name":"Object_42"
		},
		{
			"mesh":39,
			"name":"Object_43"
		},
		{
			"mesh":40,
			"name":"Object_44"
		},
		{
			"mesh":41,
			"name":"Object_45"
		},
		{
			"mesh":42,
			"name":"Object_46"
		},
		{
			"mesh":43,
			"name":"Object_47"
		},
		{
			"mesh":44,
			"name":"Object_48"
		},
		{
			"mesh":45,
			"name":"Object_49"
		},
		{
			"mesh":46,
			"name":"Object_50"
		},
		{
			"children":[
				36,
				37,
				38,
				39,
				40,
				41,
				42,
				43,
				44,
				45,
				46,
				47,
				48,
				49,
				50,
				51
			],
			"name":"Second Stage_6",
			"scale":[
				0.5558245778083801,
				0.5558245778083801,
				0.5558245778083801
			],
			"translation":[
				-2.5675537472125143e-05,
				7.926596641540527,
				0
			]
		},
		{
			"children":[
				1,
				3,
				29,
				52
			],
			"name":"GLTF_SceneRootNode",
			"rotation":[
				0.70710688829422,
				0,
				0,
				0.7071066498756409
			]
		},
		{
			"children":[
				53
			],
			"name":"root"
		},
		{
			"children":[
				54
			],
			"name":"Sketchfab_model",
			"rotation":[
				-0.70710688829422,
				0,
				0,
				0.7071066498756409
			],
			"scale":[
				0.0789639949798584,
				0.0789639949798584,
				0.0789639949798584
			]
		}
	],
	"materials":[
		{
			"doubleSided":true,
			"name":"Material.095",
			"pbrMetallicRoughness":{
				"metallicFactor":0,
				"metallicRoughnessTexture":{
					"index":0
				}
			}
		},
		{
			"doubleSided":true,
			"name":"Material.100",
			"pbrMetallicRoughness":{
				"baseColorFactor":[
					0.4700680077075958,
					0.4700680077075958,
					0.4700680077075958,
					1
				],
				"metallicFactor":0.889706015586853,
				"metallicRoughnessTexture":{
					"index":1
				}
			}
		},
		{
			"doubleSided":true,
			"name":"Material.101",
			"pbrMetallicRoughness":{
				"baseColorFactor":[
					0.031063400208950043,
					0.031063400208950043,
					0.031063400208950043,
					1
				],
				"metallicFactor":0.3014709949493408,
				"metallicRoughnessTexture":{
					"index":2
				}
			}
		},
		{
			"doubleSided":true,
			"name":"Material.102",
			"pbrMetallicRoughness":{
				"baseColorFactor":[
					0,
					0,
					0,
					1
				],
				"metallicFactor":0,
				"roughnessFactor":0.5
			}
		},
		{
			"doubleSided":true,
			"name":"Material.103",
			"pbrMetallicRoughness":{
				"baseColorFactor":[
					0.0891055017709732,
					0.0891055017709732,
					0.0891055017709732,
					1
				],
				"metallicFactor":0.3014709949493408,
				"metallicRoughnessTexture":{
					"index":3
				}
			}
		},
		{
			"doubleSided":true,
			"name":"Material.104",
			"pbrMetallicRoughness":{
				"baseColorFactor":[
					0.1023939996957779,
					0.1023939996957779,
					0.1023939996957779,
					1
				],
				"metallicFactor":0.3014709949493408,
				"metallicRoughnessTexture":{
					"index":4
				}
			}
		},
		{
			"doubleSided":true,
			"name":"Material.105",
			"pbrMetallicRoughness":{
				"baseColorFactor":[
					0.02892420068383217,
					0.02892420068383217,
					0.02892420068383217,
					1
				],
				"metallicFactor":0.3014709949493408,
				"metallicRoughnessTexture":{
					"index":5
				}
			}
		},
		{
			"doubleSided":true,
			"name":"Material.106",
			"pbrMetallicRoughness":{
				"baseColorFactor":[
					0.279231995344162,
					0.14875100553035736,
					0.09997919946908951,
					1
				],
				"metallicFactor":0.3014709949493408,
				"metallicRoughnessTexture":{
					"index":6
				}
			}
		},
		{
			"doubleSided":true,
			"name":"Material.107",
			"pbrMetallicRoughness":{
				"baseColorFactor":[
					0.5955020189285278,
					0.31124699115753174,
					0.20609000325202942,
					1
				],
				"metallicFactor":0.3014709949493408,
				"metallicRoughnessTexture":{
					"index":7
				}
			}
		},
		{
			"doubleSided":true,
			"name":"Material.108",
			"pbrMetallicRoughness":{
				"baseColorFactor":[
					0.5216670036315918,
					0.5216670036315918,
					0.5216670036315918,
					1
				],
				"metallicFactor":0.3014709949493408,
				"metallicRoughnessTexture":{
					"index":8
				}
			}
		},
		{
			"doubleSided":true,
			"name":"Material.109",
			"pbrMetallicRoughness":{
				"baseColorFactor":[
					0.5543779730796814,
					0.5543779730796814,
					0.5543779730796814,
					1
				],
				"metallicFactor":0.7787430286407471,
				"metallicRoughnessTexture":{
					"index":9
				}
			}
		},
		{
			"doubleSided":true,
			"name":"Material.110",
			"pbrMetallicRoughness":{
				"baseColorFactor":[
					0.23301400244235992,
					0.23301400244235992,
					0.23301400244235992,
					1
				],
				"metallicFactor":0.615106999874115,
				"metallicRoughnessTexture":{
					"index":10
				}
			}
		},
		{
			"doubleSided":true,
			"name":"Material.112",
			"pbrMetallicRoughness":{
				"baseColorFactor":[
					0.04445530101656914,
					0.04445530101656914,
					0.04445530101656914,
					1
				],
				"metallicFactor":0,
				"metallicRoughnessTexture":{
					"index":11
				}
			}
		},
		{
			"doubleSided":true,
			"name":"Material.113",
			"pbrMetallicRoughness":{
				"baseColorFactor":[
					0.3947409987449646,
					0.23851600289344788,
					0,
					1
				],
				"metallicFactor":0,
				"metallicRoughnessTexture":{
					"index":12
				}
			}
		},
		{
			"doubleSided":true,
			"name":"Material.114",
			"pbrMetallicRoughness":{
				"baseColorFactor":[
					0.150285005569458,
					0.150285005569458,
					0.150285005569458,
					1
				],
				"metallicFactor":0.32727301120758057,
				"metallicRoughnessTexture":{
					"index":13
				}
			}
		},
		{
			"doubleSided":true,
			"name":"Material.115",
			"pbrMetallicRoughness":{
				"baseColorFactor":[
					0.3965350091457367,
					0.3965350091457367,
					0.3965350091457367,
					1
				],
				"metallicFactor":0.6748350262641907,
				"metallicRoughnessTexture":{
					"index":14
				}
			}
		},
		{
			"doubleSided":true,
			"name":"Material.116",
			"pbrMetallicRoughness":{
				"baseColorFactor":[
					0.15743300318717957,
					0.15743300318717957,
					0.15743300318717957,
					1
				],
				"metallicFactor":0.9372990131378174,
				"metallicRoughnessTexture":{
					"index":15
				}
			}
		},
		{
			"doubleSided":true,
			"name":"Material.117",
			"pbrMetallicRoughness":{
				"baseColorFactor":[
					0.04954909905791283,
					0.04954909905791283,
					0.04954909905791283,
					1
				],
				"metallicFactor":0,
				"metallicRoughnessTexture":{
					"index":16
				}
			}
		},
		{
			"doubleSided":true,
			"name":"Material.098",
			"pbrMetallicRoughness":{
				"baseColorFactor":[
					0.33465299010276794,
					0.33465299010276794,
					0.33465299010276794,
					1
				],
				"metallicFactor":0.7628459930419922,
				"metallicRoughnessTexture":{
					"index":17
				},
				"roughnessFactor":0.5043824911117554
			}
		},
		{
			"doubleSided":true,
			"name":"Material.118",
			"pbrMetallicRoughness":{
				"baseColorFactor":[
					0.09773260354995728,
					0.09773260354995728,
					0.09773260354995728,
					1
				],
				"metallicFactor":0.42272698879241943,
				"metallicRoughnessTexture":{
					"index":18
				},
				"roughnessFactor":0.6872401833534241
			}
		},
		{
			"doubleSided":true,
			"name":"Material.119",
			"pbrMetallicRoughness":{
				"baseColorFactor":[
					0.4897710084915161,
					0.4897710084915161,
					0.4897710084915161,
					1
				],
				"metallicFactor":0,
				"metallicRoughnessTexture":{
					"index":19
				}
			}
		},
		{
			"doubleSided":true,
			"name":"Material.120",
			"pbrMetallicRoughness":{
				"baseColorFactor":[
					0.021665599197149277,
					0.021665599197149277,
					0.021665599197149277,
					1
				],
				"metallicFactor":0,
				"metallicRoughnessTexture":{
					"index":20
				}
			}
		},
		{
			"doubleSided":true,
			"name":"Material.121",
			"pbrMetallicRoughness":{
				"baseColorFactor":[
					0.05496849864721298,
					0.05496849864721298,
					0.05496849864721298,
					1
				],
				"metallicFactor":0.3014709949493408,
				"metallicRoughnessTexture":{
					"index":21
				}
			}
		},
		{
			"doubleSided":true,
			"name":"Material.122",
			"pbrMetallicRoughness":{
				"baseColorFactor":[
					0,
					0,
					0,
					1
				],
				"metallicFactor":0,
				"roughnessFactor":0.5
			}
		},
		{
			"doubleSided":true,
			"name":"Material.123",
			"pbrMetallicRoughness":{
				"baseColorFactor":[
					0.09787970036268234,
					0.09787970036268234,
					0.09787970036268234,
					1
				],
				"metallicFactor":0.2545450031757355,
				"metallicRoughnessTexture":{
					"index":22
				}
			}
		},
		{
			"doubleSided":true,
			"name":"Material.124",
			"pbrMetallicRoughness":{
				"baseColorFactor":[
					0.2330150008201599,
					0.0540447011590004,
					0,
					1
				],
				"metallicFactor":0.48181799054145813,
				"metallicRoughnessTexture":{
					"index":23
				}
			}
		},
		{
			"doubleSided":true,
			"name":"Material.126",
			"pbrMetallicRoughness":{
				"baseColorTexture":{
					"index":24
				},
				"metallicFactor":0,
				"metallicRoughnessTexture":{
					"index":25
				}
			}
		},
		{
			"doubleSided":true,
			"name":"Base_Material.003",
			"pbrMetallicRoughness":{
				"baseColorFactor":[
					0.08001130074262619,
					0.08001130074262619,
					0.08001130074262619,
					1
				],
				"metallicFactor":0.7136359810829163,
				"metallicRoughnessTexture":{
					"index":26
				}
			}
		},
		{
			"doubleSided":true,
			"name":"Material.127",
			"pbrMetallicRoughness":{
				"baseColorFactor":[
					0.039361000061035156,
					0.039361000061035156,
					0.039361000061035156,
					1
				],
				"metallicFactor":0.6332889795303345
			}
		},
		{
			"doubleSided":true,
			"name":"Material.128",
			"pbrMetallicRoughness":{
				"baseColorFactor":[
					0.24210099875926971,
					0.24210099875926971,
					0.24210099875926971,
					1
				],
				"metallicFactor":0.6818180084228516,
				"metallicRoughnessTexture":{
					"index":27
				}
			}
		}
	],
	"meshes":[
		{
			"name":"Object_66.003",
			"primitives":[
				{
					"attributes":{
						"POSITION":0,
						"NORMAL":1,
						"TEXCOORD_0":2
					},
					"indices":3,
					"material":0
				}
			]
		},
		{
			"name":"Object_50.003",
			"primitives":[
				{
					"attributes":{
						"POSITION":4,
						"NORMAL":5,
						"TEXCOORD_0":6
					},
					"indices":7,
					"material":0
				}
			]
		},
		{
			"name":"Object_11.003",
			"primitives":[
				{
					"attributes":{
						"POSITION":8,
						"NORMAL":9,
						"TEXCOORD_0":10
					},
					"indices":11,
					"material":1
				}
			]
		},
		{
			"name":"Object_12.003",
			"primitives":[
				{
					"attributes":{
						"POSITION":12,
						"NORMAL":13,
						"TEXCOORD_0":14
					},
					"indices":15,
					"material":2
				}
			]
		},
		{
			"name":"Object_13.003",
			"primitives":[
				{
					"attributes":{
						"POSITION":16,
						"NORMAL":17,
						"TEXCOORD_0":18
					},
					"indices":19,
					"material":3
				}
			]
		},
		{
			"name":"Object_14.003",
			"primitives":[
				{
					"attributes":{
						"POSITION":20,
						"NORMAL":21,
						"TEXCOORD_0":22
					},
					"indices":23,
					"material":4
				}
			]
		},
		{
			"name":"Object_15.003",
			"primitives":[
				{
					"attributes":{
						"POSITION":24,
						"NORMAL":25,
						"TEXCOORD_0":26
					},
					"indices":27,
					"material":5
				}
			]
		},
		{
			"name":"Object_16.003",
			"primitives":[
				{
					"attributes":{
						"POSITION":28,
						"NORMAL":29,
						"TEXCOORD_0":30
					},
					"indices":31,
					"material":6
				}
			]
		},
		{
			"name":"Object_17.003",
			"primitives":[
				{
					"attributes":{
						"POSITION":32,
						"NORMAL":33,
						"TEXCOORD_0":34
					},
					"indices":35,
					"material":7
				}
			]
		},
		{
			"name":"Object_18.003",
			"primitives":[
				{
					"attributes":{
						"POSITION":36,
						"NORMAL":37,
						"TEXCOORD_0":38
					},
					"indices":39,
					"material":8
				}
			]
		},
		{
			"name":"Object_19.003",
			"primitives":[
				{
					"attributes":{
						"POSITION":40,
						"NORMAL":41,
						"TEXCOORD_0":42
					},
					"indices":43,
					"material":9
				}
			]
		},
		{
			"name":"Object_20.003",
			"primitives":[
				{
					"attributes":{
						"POSITION":44,
						"NORMAL":45,
						"TEXCOORD_0":46
					},
					"indices":47,
					"material":10
				}
			]
		},
		{
			"name":"Object_21.003",
			"primitives":[
				{
					"attributes":{
						"POSITION":48,
						"NORMAL":49,
						"TEXCOORD_0":50
					},
					"indices":51,
					"material":11
				}
			]
		},
		{
			"name":"Object_22.003",
			"primitives":[
				{
					"attributes":{
						"POSITION":52,
						"NORMAL":53,
						"TEXCOORD_0":54
					},
					"indices":55,
					"material":12
				}
			]
		},
		{
			"name":"Object_23.003",
			"primitives":[
				{
					"attributes":{
						"POSITION":56,
						"NORMAL":57,
						"TEXCOORD_0":58
					},
					"indices":59,
					"material":13
				}
			]
		},
		{
			"name":"Object_6.003",
			"primitives":[
				{
					"attributes":{
						"POSITION":60,
						"NORMAL":61,
						"TEXCOORD_0":62
					},
					"indices":63,
					"material":14
				}
			]
		},
		{
			"name":"Object_7.003",
			"primitives":[
				{
					"attributes":{
						"POSITION":64,
						"NORMAL":65,
						"TEXCOORD_0":66
					},
					"indices":67,
					"material":15
				}
			]
		},
		{
			"name":"Object_8.003",
			"primitives":[
				{
					"attributes":{
						"POSITION":68,
						"NORMAL":69,
						"TEXCOORD_0":70
					},
					"indices":71,
					"material":1
				}
			]
		},
		{
			"name":"Object_9.003",
			"primitives":[
				{
					"attributes":{
						"POSITION":72,
						"NORMAL":73,
						"TEXCOORD_0":74
					},
					"indices":75,
					"material":16
				}
			]
		},
		{
			"name":"Object_10.003",
			"primitives":[
				{
					"attributes":{
						"POSITION":76,
						"NORMAL":77,
						"TEXCOORD_0":78
					},
					"indices":79,
					"material":17
				}
			]
		},
		{
			"name":"Object_0.003",
			"primitives":[
				{
					"attributes":{
						"POSITION":80,
						"NORMAL":81,
						"TEXCOORD_0":82
					},
					"indices":83,
					"material":0
				}
			]
		},
		{
			"name":"Object_1.003",
			"primitives":[
				{
					"attributes":{
						"POSITION":84,
						"NORMAL":85,
						"TEXCOORD_0":86
					},
					"indices":87,
					"material":18
				}
			]
		},
		{
			"name":"Object_2.003",
			"primitives":[
				{
					"attributes":{
						"POSITION":88,
						"NORMAL":89,
						"TEXCOORD_0":90
					},
					"indices":91,
					"material":19
				}
			]
		},
		{
			"name":"Object_3.003",
			"primitives":[
				{
					"attributes":{
						"POSITION":92,
						"NORMAL":93,
						"TEXCOORD_0":94
					},
					"indices":95,
					"material":20
				}
			]
		},
		{
			"name":"Object_4.003",
			"primitives":[
				{
					"attributes":{
						"POSITION":96,
						"NORMAL":97,
						"TEXCOORD_0":98
					},
					"indices":99,
					"material":3
				}
			]
		},
		{
			"name":"Object_5.003",
			"primitives":[
				{
					"attributes":{
						"POSITION":100,
						"NORMAL":101,
						"TEXCOORD_0":102
					},
					"indices":103,
					"material":21
				}
			]
		},
		{
			"name":"Object_44.003",
			"primitives":[
				{
					"attributes":{
						"POSITION":104,
						"NORMAL":105,
						"TEXCOORD_0":106
					},
					"indices":107,
					"material":1
				}
			]
		},
		{
			"name":"Object_45.003",
			"primitives":[
				{
					"attributes":{
						"POSITION":108,
						"NORMAL":109,
						"TEXCOORD_0":110
					},
					"indices":111,
					"material":22
				}
			]
		},
		{
			"name":"Object_46.003",
			"primitives":[
				{
					"attributes":{
						"POSITION":112,
						"NORMAL":113,
						"TEXCOORD_0":114
					},
					"indices":115,
					"material":23
				}
			]
		},
		{
			"name":"Object_47.003",
			"primitives":[
				{
					"attributes":{
						"POSITION":116,
						"NORMAL":117,
						"TEXCOORD_0":118
					},
					"indices":119,
					"material":11
				}
			]
		},
		{
			"name":"Object_48.003",
			"primitives":[
				{
					"attributes":{
						"POSITION":120,
						"NORMAL":121,
						"TEXCOORD_0":122
					},
					"indices":123,
					"material":5
				}
			]
		},
		{
			"name":"Object_49.003",
			"primitives":[
				{
					"attributes":{
						"POSITION":124,
						"NORMAL":125,
						"TEXCOORD_0":126
					},
					"indices":127,
					"material":6
				}
			]
		},
		{
			"name":"Object_29.003",
			"primitives":[
				{
					"attributes":{
						"POSITION":128,
						"NORMAL":129,
						"TEXCOORD_0":130
					},
					"indices":131,
					"material":0
				}
			]
		},
		{
			"name":"Object_30.003",
			"primitives":[
				{
					"attributes":{
						"POSITION":132,
						"NORMAL":133,
						"TEXCOORD_0":134
					},
					"indices":135,
					"material":18
				}
			]
		},
		{
			"name":"Object_31.003",
			"primitives":[
				{
					"attributes":{
						"POSITION":136,
						"NORMAL":137,
						"TEXCOORD_0":138
					},
					"indices":139,
					"material":15
				}
			]
		},
		{
			"name":"Object_32.003",
			"primitives":[
				{
					"attributes":{
						"POSITION":140,
						"NORMAL":141,
						"TEXCOORD_0":142
					},
					"indices":143,
					"material":24
				}
			]
		},
		{
			"name":"Object_33.003",
			"primitives":[
				{
					"attributes":{
						"POSITION":144,
						"NORMAL":145,
						"TEXCOORD_0":146
					},
					"indices":147,
					"material":25
				}
			]
		},
		{
			"name":"Object_34.003",
			"primitives":[
				{
					"attributes":{
						"POSITION":148,
						"NORMAL":149,
						"TEXCOORD_0":150
					},
					"indices":151,
					"material":26
				}
			]
		},
		{
			"name":"Object_35.003",
			"primitives":[
				{
					"attributes":{
						"POSITION":152,
						"NORMAL":153,
						"TEXCOORD_0":154
					},
					"indices":155,
					"material":27
				}
			]
		},
		{
			"name":"Object_36.003",
			"primitives":[
				{
					"attributes":{
						"POSITION":156,
						"NORMAL":157,
						"TEXCOORD_0":158
					},
					"indices":159,
					"material":28
				}
			]
		},
		{
			"name":"Object_37.003",
			"primitives":[
				{
					"attributes":{
						"POSITION":160,
						"NORMAL":161,
						"TEXCOORD_0":162
					},
					"indices":163,
					"material":29
				}
			]
		},
		{
			"name":"Object_38.003",
			"primitives":[
				{
					"attributes":{
						"POSITION":164,
						"NORMAL":165,
						"TEXCOORD_0":166
					},
					"indices":167,
					"material":14
				}
			]
		},
		{
			"name":"Object_39.003",
			"primitives":[
				{
					"attributes":{
						"POSITION":168,
						"NORMAL":169,
						"TEXCOORD_0":170
					},
					"indices":171,
					"material":11
				}
			]
		},
		{
			"name":"Object_40.003",
			"primitives":[
				{
					"attributes":{
						"POSITION":172,
						"NORMAL":173,
						"TEXCOORD_0":174
					},
					"indices":175,
					"material":19
				}
			]
		},
		{
			"name":"Object_41.003",
			"primitives":[
				{
					"attributes":{
						"POSITION":176,
						"NORMAL":177,
						"TEXCOORD_0":178
					},
					"indices":179,
					"material":3
				}
			]
		},
		{
			"name":"Object_42.003",
			"primitives":[
				{
					"attributes":{
						"POSITION":180,
						"NORMAL":181,
						"TEXCOORD_0":182
					},
					"indices":183,
					"material":16
				}
			]
		},
		{
			"name":"Object_43.003",
			"primitives":[
				{
					"attributes":{
						"POSITION":184,
						"NORMAL":185,
						"TEXCOORD_0":186
					},
					"indices":187,
					"material":17
				}
			]
		}
	],
	"textures":[
		{
			"sampler":0,
			"source":0
		},
		{
			"sampler":0,
			"source":0
		},
		{
			"sampler":0,
			"source":0
		},
		{
			"sampler":0,
			"source":0
		},
		{
			"sampler":0,
			"source":0
		},
		{
			"sampler":0,
			"source":0
		},
		{
			"sampler":0,
			"source":0
		},
		{
			"sampler":0,
			"source":0
		},
		{
			"sampler":0,
			"source":0
		},
		{
			"sampler":0,
			"source":0
		},
		{
			"sampler":0,
			"source":0
		},
		{
			"sampler":0,
			"source":0
		},
		{
			"sampler":0,
			"source":0
		},
		{
			"sampler":0,
			"source":0
		},
		{
			"sampler":0,
			"source":0
		},
		{
			"sampler":0,
			"source":0
		},
		{
			"sampler":0,
			"source":0
		},
		{
			"sampler":0,
			"source":0
		},
		{
			"sampler":0,
			"source":0
		},
		{
			"sampler":0,
			"source":0
		},
		{
			"sampler":0,
			"source":0
		},
		{
			"sampler":0,
			"source":0
		},
		{
			"sampler":0,
			"source":0
		},
		{
			"sampler":0,
			"source":0
		},
		{
			"sampler":0,
			"source":1
		},
		{
			"sampler":0,
			"source":0
		},
		{
			"sampler":0,
			"source":0
		},
		{
			"sampler":0,
			"source":0
		}
	],
	"images":[
		{
			"mimeType":"image/png",
			"name":"Material_111_metallicRoughness",
			"uri":"textures/Material_111_metallicRoughness.png"
		},
		{
			"mimeType":"image/png",
			"name":"Material_067_baseColor",
			"uri":"textures/Material_067_baseColor.png"
		}
	],
	"accessors":[
		{
			"bufferView":0,
			"componentType":5126,
			"count":898,
			"max":[
				1,
				8.912408828735352,
				4.371138828673793e-08
			],
			"min":[
				-1,
				1.476583480834961,
				-1
			],
			"type":"VEC3"
		},
		{
			"bufferView":1,
			"componentType":5126,
			"count":898,
			"type":"VEC3"
		},
		{
			"bufferView":2,
			"componentType":5126,
			"count":898,
			"type":"VEC2"
		},
		{
			"bufferView":3,
			"componentType":5123,
			"count":4701,
			"type":"SCALAR"
		},
		{
			"bufferView":4,
			"componentType":5126,
			"count":917,
			"max":[
				1,
				8.912408828735352,
				1
			],
			"min":[
				-1,
				1.476583480834961,
				-1.1924880638503055e-08
			],
			"type":"VEC3"
		},
		{
			"bufferView":5,
			"componentType":5126,
			"count":917,
			"type":"VEC3"
		},
		{
			"bufferView":6,
			"componentType":5126,
			"count":917,
			"type":"VEC2"
		},
		{
			"bufferView":7,
			"componentType":5123,
			"count":4701,
			"type":"SCALAR"
		},
		{
			"bufferView":8,
			"componentType":5126,
			"count":584,
			"max":[
				0.891722559928894,
				0.12765836715698242,
				0.6184232831001282
			],
			"min":[
				-0.6270776987075806,
				-1.9639286994934082,
				-0.6341626048088074
			],
			"type":"VEC3"
		},
		{
			"bufferView":9,
			"componentType":5126,
			"count":584,
			"type":"VEC3"
		},
		{
			"bufferView":10,
			"componentType":5126,
			"count":584,
			"type":"VEC2"
		},
		{
			"bufferView":11,
			"componentType":5123,
			"count":1422,
			"type":"SCALAR"
		},
		{
			"bufferView":12,
			"componentType":5126,
			"count":1044,
			"max":[
				1.3909960985183716,
				-3.1127357482910156,
				1.390995979309082
			],
			"min":[
				-1.3909958600997925,
				-6.021739959716797,
				-1.390995979309082
			],
			"type":"VEC3"
		},
		{
			"bufferView":13,
			"componentType":5126,
			"count":1044,
			"type":"VEC3"
		},
		{
			"bufferView":14,
			"componentType":5126,
			"count":1044,
			"type":"VEC2"
		},
		{
			"bufferView":15,
			"componentType":5123,
			"count":2880,
			"type":"SCALAR"
		},
		{
			"bufferView":16,
			"componentType":5126,
			"count":88,
			"max":[
				1.0657211542129517,
				-1.9639286994934082,
				1.6658607721328735
			],
			"min":[
				-1.0657212734222412,
				-5.663390159606934,
				-1.6816003322601318
			],
			"type":"VEC3"
		},
		{
			"bufferView":17,
			"componentType":5126,
			"count":88,
			"type":"VEC3"
		},
		{
			"bufferView":18,
			"componentType":5126,
			"count":88,
			"type":"VEC2"
		},
		{
			"bufferView":19,
			"componentType":5123,
			"count":240,
			"type":"SCALAR"
		},
		{
			"bufferView":20,
			"componentType":5126,
			"count":1008,
			"max":[
				1.3762269020080566,
				-3.0675852298736572,
				1.376226782798767
			],
			"min":[
				-1.3762266635894775,
				-5.890726089477539,
				-1.376226782798767
			],
			"type":"VEC3"
		},
		{
			"bufferView":21,
			"componentType":5126,
			"count":1008,
			"type":"VEC3"
		},
		{
			"bufferView":22,
			"componentType":5126,
			"count":1008,
			"type":"VEC2"
		},
		{
			"bufferView":23,
			"componentType":5123,
			"count":2688,
			"type":"SCALAR"
		},
		{
			"bufferView":24,
			"componentType":5126,
			"count":639,
			"max":[
				0.9720367789268494,
				-0.9432761669158936,
				0.7693568468093872
			],
			"min":[
				-0.7693568468093872,
				-3.0675852298736572,
				-0.9405653476715088
			],
			"type":"VEC3"
		},
		{
			"bufferView":25,
			"componentType":5126,
			"count":639,
			"type":"VEC3"
		},
		{
			"bufferView":26,
			"componentType":5126,
			"count":639,
			"type":"VEC2"
		},
		{
			"bufferView":27,
			"componentType":5123,
			"count":2208,
			"type":"SCALAR"
		},
		{
			"bufferView":28,
			"componentType":5126,
			"count":3567,
			"max":[
				0.7073000073432922,
				-0.5240530967712402,
				0.6184232831001282
			],
			"min":[
				-0.6270776987075806,
				-1.943058967590332,
				-0.8957907557487488
			],
			"type":"VEC3"
		},
		{
			"bufferView":29,
			"componentType":5126,
			"count":3567,
			"type":"VEC3"
		},
		{
			"bufferView":30,
			"componentType":5126,
			"count":3567,
			"type":"VEC2"
		},
		{
			"bufferView":31,
			"componentType":5123,
			"count":8472,
			"type":"SCALAR"
		},
		{
			"bufferView":32,
			"componentType":5126,
			"count":362,
			"max":[
				0.32077136635780334,
				-0.162353515625,
				1.0514591932296753
			],
			"min":[
				-0.3061368763446808,
				-1.5225238800048828,
				-0.9405653476715088
			],
			"type":"VEC3"
		},
		{
			"bufferView":33,
			"componentType":5126,
			"count":362,
			"type":"VEC3"
		},
		{
			"bufferView":34,
			"componentType":5126,
			"count":362,
			"type":"VEC2"
		},
		{
			"bufferView":35,
			"componentType":5123,
			"count":996,
			"type":"SCALAR"
		},
		{
			"bufferView":36,
			"componentType":5126,
			"count":48,
			"max":[
				0.22024667263031006,
				-0.20148420333862305,
				1.0269070863723755
			],
			"min":[
				-0.2215941846370697,
				-0.9198956489562988,
				0.5761487483978271
			],
			"type":"VEC3"
		},
		{
			"bufferView":37,
			"componentType":5126,
			"count":48,
			"type":"VEC3"
		},
		{
			"bufferView":38,
			"componentType":5126,
			"count":48,
			"type":"VEC2"
		},
		{
			"bufferView":39,
			"componentType":5123,
			"count":132,
			"type":"SCALAR"
		},
		{
			"bufferView":40,
			"componentType":5126,
			"count":8280,
			"max":[
				0.23866218328475952,
				-0.20824718475341797,
				0.9883385896682739
			],
			"min":[
				-0.23861075937747955,
				-0.9007530212402344,
				0.6305848956108093
			],
			"type":"VEC3"
		},
		{
			"bufferView":41,
			"componentType":5126,
			"count":8280,
			"type":"VEC3"
		},
		{
			"bufferView":42,
			"componentType":5126,
			"count":8280,
			"type":"VEC2"
		},
		{
			"bufferView":43,
			"componentType":5123,
			"count":22320,
			"type":"SCALAR"
		},
		{
			"bufferView":44,
			"componentType":5126,
			"count":1248,
			"max":[
				0.8262573480606079,
				-0.2252492904663086,
				0.9559513330459595
			],
			"min":[
				-0.20326939225196838,
				-1.698411464691162,
				-0.16215373575687408
			],
			"type":"VEC3"
		},
		{
			"bufferView":45,
			"componentType":5126,
			"count":1248,
			"type":"VEC3"
		},
		{
			"bufferView":46,
			"componentType":5126,
			"count":1248,
			"type":"VEC2"
		},
		{
			"bufferView":47,
			"componentType":5123,
			"count":2976,
			"type":"SCALAR"
		},
		{
			"bufferView":48,
			"componentType":5126,
			"count":3228,
			"max":[
				0.953589916229248,
				-0.9307038187980652,
				1.7089449167251587
			],
			"min":[
				-0.8578161597251892,
				-5.946080684661865,
				-1.724684715270996
			],
			"type":"VEC3"
		},
		{
			"bufferView":49,
			"componentType":5126,
			"count":3228,
			"type":"VEC3"
		},
		{
			"bufferView":50,
			"componentType":5126,
			"count":3228,
			"type":"VEC2"
		},
		{
			"bufferView":51,
			"componentType":5123,
			"count":11268,
			"type":"SCALAR"
		},
		{
			"bufferView":52,
			"componentType":5126,
			"count":1287,
			"max":[
				0.9307000637054443,
				-0.2040843963623047,
				0.729210615158081
			],
			"min":[
				-0.637414813041687,
				-2.210789442062378,
				-0.6139194369316101
			],
			"type":"VEC3"
		},
		{
			"bufferView":53,
			"componentType":5126,
			"count":1287,
			"type":"VEC3"
		},
		{
			"bufferView":54,
			"componentType":5126,
			"count":1287,
			"type":"VEC2"
		},
		{
			"bufferView":55,
			"componentType":5123,
			"count":3300,
			"type":"SCALAR"
		},
		{
			"bufferView":56,
			"componentType":5126,
			"count":432,
			"max":[
				0.5803772211074829,
				-0.9065046310424805,
				0.8085947036743164
			],
			"min":[
				-0.3831241726875305,
				-1.4789953231811523,
				0.16698050498962402
			],
			"type":"VEC3"
		},
		{
			"bufferView":57,
			"componentType":5126,
			"count":432,
			"type":"VEC3"
		},
		{
			"bufferView":58,
			"componentType":5126,
			"count":432,
			"type":"VEC2"
		},
		{
			"bufferView":59,
			"componentType":5123,
			"count":1140,
			"type":"SCALAR"
		},
		{
			"bufferView":60,
			"componentType":5126,
			"count":608,
			"max":[
				0.9887096881866455,
				3.3371896743774414,
				1.0605297088623047
			],
			"min":[
				-0.09272352606058121,
				-4.310235500335693,
				-0.2608093321323395
			],
			"type":"VEC3"
		},
		{
			"bufferView":61,
			"componentType":5126,
			"count":608,
			"type":"VEC3"
		},
		{
			"bufferView":62,
			"componentType":5126,
			"count":608,
			"type":"VEC2"
		},
		{
			"bufferView":63,
			"componentType":5123,
			"count":1140,
			"type":"SCALAR"
		},
		{
			"bufferView":64,
			"componentType":5126,
			"count":4189,
			"max":[
				0.9456973075866699,
				4.132630348205566,
				0.9394703507423401
			],
			"min":[
				-1.05430269241333,
				-5.131734848022461,
				-1.0605297088623047
			],
			"type":"VEC3"
		},
		{
			"bufferView":65,
			"componentType":5126,
			"count":4189,
			"type":"VEC3"
		},
		{
			"bufferView":66,
			"componentType":5126,
			"count":4189,
			"type":"VEC2"
		},
		{
			"bufferView":67,
			"componentType":5123,
			"count":18024,
			"type":"SCALAR"
		},
		{
			"bufferView":68,
			"componentType":5126,
			"count":64,
			"max":[
				0.704401433467865,
				-5.014561176300049,
				0.6981745362281799
			],
			"min":[
				-0.8130068182945251,
				-5.143174171447754,
				-0.8192338347434998
			],
			"type":"VEC3"
		},
		{
			"bufferView":69,
			"componentType":5126,
			"count":64,
			"type":"VEC3"
		},
		{
			"bufferView":70,
			"componentType":5126,
			"count":64,
			"type":"VEC2"
		},
		{
			"bufferView":71,
			"componentType":5123,
			"count":120,
			"type":"SCALAR"
		},
		{
			"bufferView":72,
			"componentType":5126,
			"count":882,
			"max":[
				0.6909505128860474,
				3.9736340045928955,
				0.6847235560417175
			],
			"min":[
				-0.7995558977127075,
				3.866183042526245,
				-0.8057828545570374
			],
			"type":"VEC3"
		},
		{
			"bufferView":73,
			"componentType":5126,
			"count":882,
			"type":"VEC3"
		},
		{
			"bufferView":74,
			"componentType":5126,
			"count":882,
			"type":"VEC2"
		},
		{
			"bufferView":75,
			"componentType":5123,
			"count":3456,
			"type":"SCALAR"
		},
		{
			"bufferView":76,
			"componentType":5126,
			"count":374,
			"max":[
				0.8999602794647217,
				4.18745756149292,
				0.1309838742017746
			],
			"min":[
				-0.06414932012557983,
				-4.862170219421387,
				-0.24477264285087585
			],
			"type":"VEC3"
		},
		{
			"bufferView":77,
			"componentType":5126,
			"count":374,
			"type":"VEC3"
		},
		{
			"bufferView":78,
			"componentType":5126,
			"count":374,
			"type":"VEC2"
		},
		{
			"bufferView":79,
			"componentType":5123,
			"count":1128,
			"type":"SCALAR"
		},
		{
			"bufferView":80,
			"componentType":5126,
			"count":1510,
			"max":[
				1.021535038948059,
				6.1055006980896,
				1.0596411228179932
			],
			"min":[
				-1.05430269241333,
				-6.093444347381592,
				-1.0605297088623047
			],
			"type":"VEC3"
		},
		{
			"bufferView":81,
			"componentType":5126,
			"count":1510,
			"type":"VEC3"
		},
		{
			"bufferView":82,
			"componentType":5126,
			"count":1510,
			"type":"VEC2"
		},
		{
			"bufferView":83,
			"componentType":5123,
			"count":3918,
			"type":"SCALAR"
		},
		{
			"bufferView":84,
			"componentType":5126,
			"count":952,
			"max":[
				0.9456973075866699,
				6.183595180511475,
				0.9394703507423401
			],
			"min":[
				-1.05430269241333,
				-4.194399833679199,
				-1.0605297088623047
			],
			"type":"VEC3"
		},
		{
			"bufferView":85,
			"componentType":5126,
			"count":952,
			"type":"VEC3"
		},
		{
			"bufferView":86,
			"componentType":5126,
			"count":952,
			"type":"VEC2"
		},
		{
			"bufferView":87,
			"componentType":5123,
			"count":2688,
			"type":"SCALAR"
		},
		{
			"bufferView":88,
			"componentType":5126,
			"count":1048,
			"max":[
				1.05430269241333,
				-4.965587615966797,
				0.4923607110977173
			],
			"min":[
				-0.6071930527687073,
				-6.183595180511475,
				-0.6134200096130371
			],
			"type":"VEC3"
		},
		{
			"bufferView":89,
			"componentType":5126,
			"count":1048,
			"type":"VEC3"
		},
		{
			"bufferView":90,
			"componentType":5126,
			"count":1048,
			"type":"VEC2"
		},
		{
			"bufferView":91,
			"componentType":5123,
			"count":3036,
			"type":"SCALAR"
		},
		{
			"bufferView":92,
			"componentType":5126,
			"count":368,
			"max":[
				0.9456973075866699,
				3.5305542945861816,
				0.9394703507423401
			],
			"min":[
				-1.05430269241333,
				-4.055526256561279,
				-1.0605297088623047
			],
			"type":"VEC3"
		},
		{
			"bufferView":93,
			"componentType":5126,
			"count":368,
			"type":"VEC3"
		},
		{
			"bufferView":94,
			"componentType":5126,
			"count":368,
			"type":"VEC2"
		},
		{
			"bufferView":95,
			"componentType":5123,
			"count":1152,
			"type":"SCALAR"
		},
		{
			"bufferView":96,
			"componentType":5126,
			"count":128,
			"max":[
				1.0342085361480713,
				-4.975523471832275,
				0.13608022034168243
			],
			"min":[
				0.9926084280014038,
				-5.225481033325195,
				-0.25713953375816345
			],
			"type":"VEC3"
		},
		{
			"bufferView":97,
			"componentType":5126,
			"count":128,
			"type":"VEC3"
		},
		{
			"bufferView":98,
			"componentType":5126,
			"count":128,
			"type":"VEC2"
		},
		{
			"bufferView":99,
			"componentType":5123,
			"count":360,
			"type":"SCALAR"
		},
		{
			"bufferView":100,
			"componentType":5126,
			"count":564,
			"max":[
				0.9833000898361206,
				4.0096354484558105,
				1.0589773654937744
			],
			"min":[
				-0.08063933253288269,
				0.09461002051830292,
				-0.25148364901542664
			],
			"type":"VEC3"
		},
		{
			"bufferView":101,
			"componentType":5126,
			"count":564,
			"type":"VEC3"
		},
		{
			"bufferView":102,
			"componentType":5126,
			"count":564,
			"type":"VEC2"
		},
		{
			"bufferView":103,
			"componentType":5123,
			"count":2244,
			"type":"SCALAR"
		},
		{
			"bufferView":104,
			"componentType":5126,
			"count":1460,
			"max":[
				0.2818531394004822,
				0.05926108360290527,
				0.43488216400146484
			],
			"min":[
				-0.2818531394004822,
				-1.2082349061965942,
				-0.4114195704460144
			],
			"type":"VEC3"
		},
		{
			"bufferView":105,
			"componentType":5126,
			"count":1460,
			"type":"VEC3"
		},
		{
			"bufferView":106,
			"componentType":5126,
			"count":1460,
			"type":"VEC2"
		},
		{
			"bufferView":107,
			"componentType":5123,
			"count":4800,
			"type":"SCALAR"
		},
		{
			"bufferView":108,
			"componentType":5126,
			"count":324,
			"max":[
				0.8955487608909607,
				-1.2082349061965942,
				0.8955487608909607
			],
			"min":[
				-0.8955487608909607,
				-3.648143768310547,
				-0.8955487608909607
			],
			"type":"VEC3"
		},
		{
			"bufferView":109,
			"componentType":5126,
			"count":324,
			"type":"VEC3"
		},
		{
			"bufferView":110,
			"componentType":5126,
			"count":324,
			"type":"VEC2"
		},
		{
			"bufferView":111,
			"componentType":5123,
			"count":1344,
			"type":"SCALAR"
		},
		{
			"bufferView":112,
			"componentType":5126,
			"count":32,
			"max":[
				0.3569837510585785,
				-1.4127326011657715,
				0.3569837510585785
			],
			"min":[
				-0.3569837510585785,
				-1.4127326011657715,
				-0.3569837510585785
			],
			"type":"VEC3"
		},
		{
			"bufferView":113,
			"componentType":5126,
			"count":32,
			"type":"VEC3"
		},
		{
			"bufferView":114,
			"componentType":5126,
			"count":32,
			"type":"VEC2"
		},
		{
			"bufferView":115,
			"componentType":5123,
			"count":90,
			"type":"SCALAR"
		},
		{
			"bufferView":116,
			"componentType":5126,
			"count":3414,
			"max":[
				0.30920684337615967,
				-0.06189298629760742,
				0.30595681071281433
			],
			"min":[
				-0.30939382314682007,
				-1.2305126190185547,
				-0.44793856143951416
			],
			"type":"VEC3"
		},
		{
			"bufferView":117,
			"componentType":5126,
			"count":3414,
			"type":"VEC3"
		},
		{
			"bufferView":118,
			"componentType":5126,
			"count":3414,
			"type":"VEC2"
		},
		{
			"bufferView":119,
			"componentType":5123,
			"count":14364,
			"type":"SCALAR"
		},
		{
			"bufferView":120,
			"componentType":5126,
			"count":2556,
			"max":[
				0.22841623425483704,
				-0.08072495460510254,
				0.2285212129354477
			],
			"min":[
				-0.22843700647354126,
				-0.6086623668670654,
				-0.3976600766181946
			],
			"type":"VEC3"
		},
		{
			"bufferView":121,
			"componentType":5126,
			"count":2556,
			"type":"VEC3"
		},
		{
			"bufferView":122,
			"componentType":5126,
			"count":2556,
			"type":"VEC2"
		},
		{
			"bufferView":123,
			"componentType":5123,
			"count":8592,
			"type":"SCALAR"
		},
		{
			"bufferView":124,
			"componentType":5126,
			"count":24,
			"max":[
				0.06020065024495125,
				-0.31338024139404297,
				0.4549487233161926
			],
			"min":[
				-0.06038765236735344,
				-0.38175296783447266,
				0.09095650911331177
			],
			"type":"VEC3"
		},
		{
			"bufferView":125,
			"componentType":5126,
			"count":24,
			"type":"VEC3"
		},
		{
			"bufferView":126,
			"componentType":5126,
			"count":24,
			"type":"VEC2"
		},
		{
			"bufferView":127,
			"componentType":5123,
			"count":36,
			"type":"SCALAR"
		},
		{
			"bufferView":128,
			"componentType":5126,
			"count":1415,
			"max":[
				1.0000462532043457,
				1.0434731245040894,
				1.0540717840194702
			],
			"min":[
				-0.9999538064002991,
				-1.232437252998352,
				-1.0540717840194702
			],
			"type":"VEC3"
		},
		{
			"bufferView":129,
			"componentType":5126,
			"count":1415,
			"type":"VEC3"
		},
		{
			"bufferView":130,
			"componentType":5126,
			"count":1415,
			"type":"VEC2"
		},
		{
			"bufferView":131,
			"componentType":5123,
			"count":3984,
			"type":"SCALAR"
		},
		{
			"bufferView":132,
			"componentType":5126,
			"count":4884,
			"max":[
				1.0120337009429932,
				1.0880993604660034,
				1.0120519399642944
			],
			"min":[
				-1.0120337009429932,
				0.12394320964813232,
				-1.0120738744735718
			],
			"type":"VEC3"
		},
		{
			"bufferView":133,
			"componentType":5126,
			"count":4884,
			"type":"VEC3"
		},
		{
			"bufferView":134,
			"componentType":5126,
			"count":4884,
			"type":"VEC2"
		},
		{
			"bufferView":135,
			"componentType":5123,
			"count":8400,
			"type":"SCALAR"
		},
		{
			"bufferView":136,
			"componentType":5126,
			"count":2916,
			"max":[
				1.0000462532043457,
				1.3364707231521606,
				1
			],
			"min":[
				-0.9999538064002991,
				-1.6425741910934448,
				-1
			],
			"type":"VEC3"
		},
		{
			"bufferView":137,
			"componentType":5126,
			"count":2916,
			"type":"VEC3"
		},
		{
			"bufferView":138,
			"componentType":5126,
			"count":2916,
			"type":"VEC2"
		},
		{
			"bufferView":139,
			"componentType":5123,
			"count":12648,
			"type":"SCALAR"
		},
		{
			"bufferView":140,
			"componentType":5126,
			"count":352,
			"max":[
				1.0000462532043457,
				1.6346102952957153,
				1
			],
			"min":[
				-0.9999538064002991,
				0.8295495510101318,
				-1
			],
			"type":"VEC3"
		},
		{
			"bufferView":141,
			"componentType":5126,
			"count":352,
			"type":"VEC3"
		},
		{
			"bufferView":142,
			"componentType":5126,
			"count":352,
			"type":"VEC2"
		},
		{
			"bufferView":143,
			"componentType":5123,
			"count":954,
			"type":"SCALAR"
		},
		{
			"bufferView":144,
			"componentType":5126,
			"count":2803,
			"max":[
				0.47435978055000305,
				1.69845449924469,
				0.4743135869503021
			],
			"min":[
				-0.4742673933506012,
				1.3537827730178833,
				-0.4743135869503021
			],
			"type":"VEC3"
		},
		{
			"bufferView":145,
			"componentType":5126,
			"count":2803,
			"type":"VEC3"
		},
		{
			"bufferView":146,
			"componentType":5126,
			"count":2803,
			"type":"VEC2"
		},
		{
			"bufferView":147,
			"componentType":5123,
			"count":5106,
			"type":"SCALAR"
		},
		{
			"bufferView":148,
			"componentType":5126,
			"count":27,
			"max":[
				1.0000462532043457,
				0.12394320964813232,
				0.3826833963394165
			],
			"min":[
				0.9239256978034973,
				-1.086577296257019,
				-0.3826834261417389
			],
			"type":"VEC3"
		},
		{
			"bufferView":149,
			"componentType":5126,
			"count":27,
			"type":"VEC3"
		},
		{
			"bufferView":150,
			"componentType":5126,
			"count":27,
			"type":"VEC2"
		},
		{
			"bufferView":151,
			"componentType":5123,
			"count":96,
			"type":"SCALAR"
		},
		{
			"bufferView":152,
			"componentType":5126,
			"count":32,
			"max":[
				0.17873677611351013,
				1.6778621673583984,
				0.17789320647716522
			],
			"min":[
				-0.17877055704593658,
				1.6778621673583984,
				-0.1796141415834427
			],
			"type":"VEC3"
		},
		{
			"bufferView":153,
			"componentType":5126,
			"count":32,
			"type":"VEC3"
		},
		{
			"bufferView":154,
			"componentType":5126,
			"count":32,
			"type":"VEC2"
		},
		{
			"bufferView":155,
			"componentType":5123,
			"count":90,
			"type":"SCALAR"
		},
		{
			"bufferView":156,
			"componentType":5126,
			"count":64,
			"max":[
				0.1809091866016388,
				1.686743140220642,
				0.1800655871629715
			],
			"min":[
				-0.18094295263290405,
				1.6655247211456299,
				-0.18178655207157135
			],
			"type":"VEC3"
		},
		{
			"bufferView":157,
			"componentType":5126,
			"count":64,
			"type":"VEC3"
		},
		{
			"bufferView":158,
			"componentType":5126,
			"count":64,
			"type":"VEC2"
		},
		{
			"bufferView":159,
			"componentType":5123,
			"count":96,
			"type":"SCALAR"
		},
		{
			"bufferView":160,
			"componentType":5126,
			"count":559,
			"max":[
				0.1657075583934784,
				-1.358720302581787,
				-0.45519712567329407
			],
			"min":[
				-0.165615051984787,
				-1.6900432109832764,
				-0.7865196466445923
			],
			"type":"VEC3"
		},
		{
			"bufferView":161,
			"componentType":5126,
			"count":559,
			"type":"VEC3"
		},
		{
			"bufferView":162,
			"componentType":5126,
			"count":559,
			"type":"VEC2"
		},
		{
			"bufferView":163,
			"componentType":5123,
			"count":2880,
			"type":"SCALAR"
		},
		{
			"bufferView":164,
			"componentType":5126,
			"count":618,
			"max":[
				0.11147948354482651,
				-1.1394609212875366,
				-0.28629833459854126
			],
			"min":[
				-0.11118479818105698,
				-1.642581820487976,
				-0.7427080869674683
			],
			"type":"VEC3"
		},
		{
			"bufferView":165,
			"componentType":5126,
			"count":618,
			"type":"VEC3"
		},
		{
			"bufferView":166,
			"componentType":5126,
			"count":618,
			"type":"VEC2"
		},
		{
			"bufferView":167,
			"componentType":5123,
			"count":1488,
			"type":"SCALAR"
		},
		{
			"bufferView":168,
			"componentType":5126,
			"count":174,
			"max":[
				0.4568803310394287,
				-1.173687219619751,
				0.7323101758956909
			],
			"min":[
				-0.45678791403770447,
				-1.4781800508499146,
				0.2534888684749603
			],
			"type":"VEC3"
		},
		{
			"bufferView":169,
			"componentType":5126,
			"count":174,
			"type":"VEC3"
		},
		{
			"bufferView":170,
			"componentType":5126,
			"count":174,
			"type":"VEC2"
		},
		{
			"bufferView":171,
			"componentType":5123,
			"count":468,
			"type":"SCALAR"
		},
		{
			"bufferView":172,
			"componentType":5126,
			"count":1012,
			"max":[
				1.0044817924499512,
				-0.28468406200408936,
				0.615378737449646
			],
			"min":[
				0.764537513256073,
				-1.1788309812545776,
				-0.6062571406364441
			],
			"type":"VEC3"
		},
		{
			"bufferView":173,
			"componentType":5126,
			"count":1012,
			"type":"VEC3"
		},
		{
			"bufferView":174,
			"componentType":5126,
			"count":1012,
			"type":"VEC2"
		},
		{
			"bufferView":175,
			"componentType":5123,
			"count":2664,
			"type":"SCALAR"
		},
		{
			"bufferView":176,
			"componentType":5126,
			"count":268,
			"max":[
				0.988682746887207,
				-0.29461991786956787,
				1.0351519584655762
			],
			"min":[
				-0.029514331370592117,
				-1.1692684888839722,
				-1.0351519584655762
			],
			"type":"VEC3"
		},
		{
			"bufferView":177,
			"componentType":5126,
			"count":268,
			"type":"VEC3"
		},
		{
			"bufferView":178,
			"componentType":5126,
			"count":268,
			"type":"VEC2"
		},
		{
			"bufferView":179,
			"componentType":5123,
			"count":720,
			"type":"SCALAR"
		},
		{
			"bufferView":180,
			"componentType":5126,
			"count":1764,
			"max":[
				0.7215794920921326,
				1.247397541999817,
				0.7215332984924316
			],
			"min":[
				-0.7214871048927307,
				-1.4074313640594482,
				-0.7215332984924316
			],
			"type":"VEC3"
		},
		{
			"bufferView":181,
			"componentType":5126,
			"count":1764,
			"type":"VEC3"
		},
		{
			"bufferView":182,
			"componentType":5126,
			"count":1764,
			"type":"VEC2"
		},
		{
			"bufferView":183,
			"componentType":5123,
			"count":6912,
			"type":"SCALAR"
		},
		{
			"bufferView":184,
			"componentType":5126,
			"count":331,
			"max":[
				0.8692096471786499,
				1.5859031677246094,
				0.46953341364860535
			],
			"min":[
				-0.012255847454071045,
				-1.69845449924469,
				-0.4571203291416168
			],
			"type":"VEC3"
		},
		{
			"bufferView":185,
			"componentType":5126,
			"count":331,
			"type":"VEC3"
		},
		{
			"bufferView":186,
			"componentType":5126,
			"count":331,
			"type":"VEC2"
		},
		{
			"bufferView":187,
			"componentType":5123,
			"count":984,
			"type":"SCALAR"
		}
	],
	"bufferViews":[
		{
			"buffer":0,
			"byteLength":10776,
			"byteOffset":0,
			"target":34962
		},
		{
			"buffer":0,
			"byteLength":10776,
			"byteOffset":10776,
			"target":34962
		},
		{
			"buffer":0,
			"byteLength":7184,
			"byteOffset":21552,
			"target":34962
		},
		{
			"buffer":0,
			"byteLength":9402,
			"byteOffset":28736,
			"target":34963
		},
		{
			"buffer":0,
			"byteLength":11004,
			"byteOffset":38140,
			"target":34962
		},
		{
			"buffer":0,
			"byteLength":11004,
			"byteOffset":49144,
			"target":34962
		},
		{
			"buffer":0,
			"byteLength":7336,
			"byteOffset":60148,
			"target":34962
		},
		{
			"buffer":0,
			"byteLength":9402,
			"byteOffset":67484,
			"target":34963
		},
		{
			"buffer":0,
			"byteLength":7008,
			"byteOffset":76888,
			"target":34962
		},
		{
			"buffer":0,
			"byteLength":7008,
			"byteOffset":83896,
			"target":34962
		},
		{
			"buffer":0,
			"byteLength":4672,
			"byteOffset":90904,
			"target":34962
		},
		{
			"buffer":0,
			"byteLength":2844,
			"byteOffset":95576,
			"target":34963
		},
		{
			"buffer":0,
			"byteLength":12528,
			"byteOffset":98420,
			"target":34962
		},
		{
			"buffer":0,
			"byteLength":12528,
			"byteOffset":110948,
			"target":34962
		},
		{
			"buffer":0,
			"byteLength":8352,
			"byteOffset":123476,
			"target":34962
		},
		{
			"buffer":0,
			"byteLength":5760,
			"byteOffset":131828,
			"target":34963
		},
		{
			"buffer":0,
			"byteLength":1056,
			"byteOffset":137588,
			"target":34962
		},
		{
			"buffer":0,
			"byteLength":1056,
			"byteOffset":138644,
			"target":34962
		},
		{
			"buffer":0,
			"byteLength":704,
			"byteOffset":139700,
			"target":34962
		},
		{
			"buffer":0,
			"byteLength":480,
			"byteOffset":140404,
			"target":34963
		},
		{
			"buffer":0,
			"byteLength":12096,
			"byteOffset":140884,
			"target":34962
		},
		{
			"buffer":0,
			"byteLength":12096,
			"byteOffset":152980,
			"target":34962
		},
		{
			"buffer":0,
			"byteLength":8064,
			"byteOffset":165076,
			"target":34962
		},
		{
			"buffer":0,
			"byteLength":5376,
			"byteOffset":173140,
			"target":34963
		},
		{
			"buffer":0,
			"byteLength":7668,
			"byteOffset":178516,
			"target":34962
		},
		{
			"buffer":0,
			"byteLength":7668,
			"byteOffset":186184,
			"target":34962
		},
		{
			"buffer":0,
			"byteLength":5112,
			"byteOffset":193852,
			"target":34962
		},
		{
			"buffer":0,
			"byteLength":4416,
			"byteOffset":198964,
			"target":34963
		},
		{
			"buffer":0,
			"byteLength":42804,
			"byteOffset":203380,
			"target":34962
		},
		{
			"buffer":0,
			"byteLength":42804,
			"byteOffset":246184,
			"target":34962
		},
		{
			"buffer":0,
			"byteLength":28536,
			"byteOffset":288988,
			"target":34962
		},
		{
			"buffer":0,
			"byteLength":16944,
			"byteOffset":317524,
			"target":34963
		},
		{
			"buffer":0,
			"byteLength":4344,
			"byteOffset":334468,
			"target":34962
		},
		{
			"buffer":0,
			"byteLength":4344,
			"byteOffset":338812,
			"target":34962
		},
		{
			"buffer":0,
			"byteLength":2896,
			"byteOffset":343156,
			"target":34962
		},
		{
			"buffer":0,
			"byteLength":1992,
			"byteOffset":346052,
			"target":34963
		},
		{
			"buffer":0,
			"byteLength":576,
			"byteOffset":348044,
			"target":34962
		},
		{
			"buffer":0,
			"byteLength":576,
			"byteOffset":348620,
			"target":34962
		},
		{
			"buffer":0,
			"byteLength":384,
			"byteOffset":349196,
			"target":34962
		},
		{
			"buffer":0,
			"byteLength":264,
			"byteOffset":349580,
			"target":34963
		},
		{
			"buffer":0,
			"byteLength":99360,
			"byteOffset":349844,
			"target":34962
		},
		{
			"buffer":0,
			"byteLength":99360,
			"byteOffset":449204,
			"target":34962
		},
		{
			"buffer":0,
			"byteLength":66240,
			"byteOffset":548564,
			"target":34962
		},
		{
			"buffer":0,
			"byteLength":44640,
			"byteOffset":614804,
			"target":34963
		},
		{
			"buffer":0,
			"byteLength":14976,
			"byteOffset":659444,
			"target":34962
		},
		{
			"buffer":0,
			"byteLength":14976,
			"byteOffset":674420,
			"target":34962
		},
		{
			"buffer":0,
			"byteLength":9984,
			"byteOffset":689396,
			"target":34962
		},
		{
			"buffer":0,
			"byteLength":5952,
			"byteOffset":699380,
			"target":34963
		},
		{
			"buffer":0,
			"byteLength":38736,
			"byteOffset":705332,
			"target":34962
		},
		{
			"buffer":0,
			"byteLength":38736,
			"byteOffset":744068,
			"target":34962
		},
		{
			"buffer":0,
			"byteLength":25824,
			"byteOffset":782804,
			"target":34962
		},
		{
			"buffer":0,
			"byteLength":22536,
			"byteOffset":808628,
			"target":34963
		},
		{
			"buffer":0,
			"byteLength":15444,
			"byteOffset":831164,
			"target":34962
		},
		{
			"buffer":0,
			"byteLength":15444,
			"byteOffset":846608,
			"target":34962
		},
		{
			"buffer":0,
			"byteLength":10296,
			"byteOffset":862052,
			"target":34962
		},
		{
			"buffer":0,
			"byteLength":6600,
			"byteOffset":872348,
			"target":34963
		},
		{
			"buffer":0,
			"byteLength":5184,
			"byteOffset":878948,
			"target":34962
		},
		{
			"buffer":0,
			"byteLength":5184,
			"byteOffset":884132,
			"target":34962
		},
		{
			"buffer":0,
			"byteLength":3456,
			"byteOffset":889316,
			"target":34962
		},
		{
			"buffer":0,
			"byteLength":2280,
			"byteOffset":892772,
			"target":34963
		},
		{
			"buffer":0,
			"byteLength":7296,
			"byteOffset":895052,
			"target":34962
		},
		{
			"buffer":0,
			"byteLength":7296,
			"byteOffset":902348,
			"target":34962
		},
		{
			"buffer":0,
			"byteLength":4864,
			"byteOffset":909644,
			"target":34962
		},
		{
			"buffer":0,
			"byteLength":2280,
			"byteOffset":914508,
			"target":34963
		},
		{
			"buffer":0,
			"byteLength":50268,
			"byteOffset":916788,
			"target":34962
		},
		{
			"buffer":0,
			"byteLength":50268,
			"byteOffset":967056,
			"target":34962
		},
		{
			"buffer":0,
			"byteLength":33512,
			"byteOffset":1017324,
			"target":34962
		},
		{
			"buffer":0,
			"byteLength":36048,
			"byteOffset":1050836,
			"target":34963
		},
		{
			"buffer":0,
			"byteLength":768,
			"byteOffset":1086884,
			"target":34962
		},
		{
			"buffer":0,
			"byteLength":768,
			"byteOffset":1087652,
			"target":34962
		},
		{
			"buffer":0,
			"byteLength":512,
			"byteOffset":1088420,
			"target":34962
		},
		{
			"buffer":0,
			"byteLength":240,
			"byteOffset":1088932,
			"target":34963
		},
		{
			"buffer":0,
			"byteLength":10584,
			"byteOffset":1089172,
			"target":34962
		},
		{
			"buffer":0,
			"byteLength":10584,
			"byteOffset":1099756,
			"target":34962
		},
		{
			"buffer":0,
			"byteLength":7056,
			"byteOffset":1110340,
			"target":34962
		},
		{
			"buffer":0,
			"byteLength":6912,
			"byteOffset":1117396,
			"target":34963
		},
		{
			"buffer":0,
			"byteLength":4488,
			"byteOffset":1124308,
			"target":34962
		},
		{
			"buffer":0,
			"byteLength":4488,
			"byteOffset":1128796,
			"target":34962
		},
		{
			"buffer":0,
			"byteLength":2992,
			"byteOffset":1133284,
			"target":34962
		},
		{
			"buffer":0,
			"byteLength":2256,
			"byteOffset":1136276,
			"target":34963
		},
		{
			"buffer":0,
			"byteLength":18120,
			"byteOffset":1138532,
			"target":34962
		},
		{
			"buffer":0,
			"byteLength":18120,
			"byteOffset":1156652,
			"target":34962
		},
		{
			"buffer":0,
			"byteLength":12080,
			"byteOffset":1174772,
			"target":34962
		},
		{
			"buffer":0,
			"byteLength":7836,
			"byteOffset":1186852,
			"target":34963
		},
		{
			"buffer":0,
			"byteLength":11424,
			"byteOffset":1194688,
			"target":34962
		},
		{
			"buffer":0,
			"byteLength":11424,
			"byteOffset":1206112,
			"target":34962
		},
		{
			"buffer":0,
			"byteLength":7616,
			"byteOffset":1217536,
			"target":34962
		},
		{
			"buffer":0,
			"byteLength":5376,
			"byteOffset":1225152,
			"target":34963
		},
		{
			"buffer":0,
			"byteLength":12576,
			"byteOffset":1230528,
			"target":34962
		},
		{
			"buffer":0,
			"byteLength":12576,
			"byteOffset":1243104,
			"target":34962
		},
		{
			"buffer":0,
			"byteLength":8384,
			"byteOffset":1255680,
			"target":34962
		},
		{
			"buffer":0,
			"byteLength":6072,
			"byteOffset":1264064,
			"target":34963
		},
		{
			"buffer":0,
			"byteLength":4416,
			"byteOffset":1270136,
			"target":34962
		},
		{
			"buffer":0,
			"byteLength":4416,
			"byteOffset":1274552,
			"target":34962
		},
		{
			"buffer":0,
			"byteLength":2944,
			"byteOffset":1278968,
			"target":34962
		},
		{
			"buffer":0,
			"byteLength":2304,
			"byteOffset":1281912,
			"target":34963
		},
		{
			"buffer":0,
			"byteLength":1536,
			"byteOffset":1284216,
			"target":34962
		},
		{
			"buffer":0,
			"byteLength":1536,
			"byteOffset":1285752,
			"target":34962
		},
		{
			"buffer":0,
			"byteLength":1024,
			"byteOffset":1287288,
			"target":34962
		},
		{
			"buffer":0,
			"byteLength":720,
			"byteOffset":1288312,
			"target":34963
		},
		{
			"buffer":0,
			"byteLength":6768,
			"byteOffset":1289032,
			"target":34962
		},
		{
			"buffer":0,
			"byteLength":6768,
			"byteOffset":1295800,
			"target":34962
		},
		{
			"buffer":0,
			"byteLength":4512,
			"byteOffset":1302568,
			"target":34962
		},
		{
			"buffer":0,
			"byteLength":4488,
			"byteOffset":1307080,
			"target":34963
		},
		{
			"buffer":0,
			"byteLength":17520,
			"byteOffset":1311568,
			"target":34962
		},
		{
			"buffer":0,
			"byteLength":17520,
			"byteOffset":1329088,
			"target":34962
		},
		{
			"buffer":0,
			"byteLength":11680,
			"byteOffset":1346608,
			"target":34962
		},
		{
			"buffer":0,
			"byteLength":9600,
			"byteOffset":1358288,
			"target":34963
		},
		{
			"buffer":0,
			"byteLength":3888,
			"byteOffset":1367888,
			"target":34962
		},
		{
			"buffer":0,
			"byteLength":3888,
			"byteOffset":1371776,
			"target":34962
		},
		{
			"buffer":0,
			"byteLength":2592,
			"byteOffset":1375664,
			"target":34962
		},
		{
			"buffer":0,
			"byteLength":2688,
			"byteOffset":1378256,
			"target":34963
		},
		{
			"buffer":0,
			"byteLength":384,
			"byteOffset":1380944,
			"target":34962
		},
		{
			"buffer":0,
			"byteLength":384,
			"byteOffset":1381328,
			"target":34962
		},
		{
			"buffer":0,
			"byteLength":256,
			"byteOffset":1381712,
			"target":34962
		},
		{
			"buffer":0,
			"byteLength":180,
			"byteOffset":1381968,
			"target":34963
		},
		{
			"buffer":0,
			"byteLength":40968,
			"byteOffset":1382148,
			"target":34962
		},
		{
			"buffer":0,
			"byteLength":40968,
			"byteOffset":1423116,
			"target":34962
		},
		{
			"buffer":0,
			"byteLength":27312,
			"byteOffset":1464084,
			"target":34962
		},
		{
			"buffer":0,
			"byteLength":28728,
			"byteOffset":1491396,
			"target":34963
		},
		{
			"buffer":0,
			"byteLength":30672,
			"byteOffset":1520124,
			"target":34962
		},
		{
			"buffer":0,
			"byteLength":30672,
			"byteOffset":1550796,
			"target":34962
		},
		{
			"buffer":0,
			"byteLength":20448,
			"byteOffset":1581468,
			"target":34962
		},
		{
			"buffer":0,
			"byteLength":17184,
			"byteOffset":1601916,
			"target":34963
		},
		{
			"buffer":0,
			"byteLength":288,
			"byteOffset":1619100,
			"target":34962
		},
		{
			"buffer":0,
			"byteLength":288,
			"byteOffset":1619388,
			"target":34962
		},
		{
			"buffer":0,
			"byteLength":192,
			"byteOffset":1619676,
			"target":34962
		},
		{
			"buffer":0,
			"byteLength":72,
			"byteOffset":1619868,
			"target":34963
		},
		{
			"buffer":0,
			"byteLength":16980,
			"byteOffset":1619940,
			"target":34962
		},
		{
			"buffer":0,
			"byteLength":16980,
			"byteOffset":1636920,
			"target":34962
		},
		{
			"buffer":0,
			"byteLength":11320,
			"byteOffset":1653900,
			"target":34962
		},
		{
			"buffer":0,
			"byteLength":7968,
			"byteOffset":1665220,
			"target":34963
		},
		{
			"buffer":0,
			"byteLength":58608,
			"byteOffset":1673188,
			"target":34962
		},
		{
			"buffer":0,
			"byteLength":58608,
			"byteOffset":1731796,
			"target":34962
		},
		{
			"buffer":0,
			"byteLength":39072,
			"byteOffset":1790404,
			"target":34962
		},
		{
			"buffer":0,
			"byteLength":16800,
			"byteOffset":1829476,
			"target":34963
		},
		{
			"buffer":0,
			"byteLength":34992,
			"byteOffset":1846276,
			"target":34962
		},
		{
			"buffer":0,
			"byteLength":34992,
			"byteOffset":1881268,
			"target":34962
		},
		{
			"buffer":0,
			"byteLength":23328,
			"byteOffset":1916260,
			"target":34962
		},
		{
			"buffer":0,
			"byteLength":25296,
			"byteOffset":1939588,
			"target":34963
		},
		{
			"buffer":0,
			"byteLength":4224,
			"byteOffset":1964884,
			"target":34962
		},
		{
			"buffer":0,
			"byteLength":4224,
			"byteOffset":1969108,
			"target":34962
		},
		{
			"buffer":0,
			"byteLength":2816,
			"byteOffset":1973332,
			"target":34962
		},
		{
			"buffer":0,
			"byteLength":1908,
			"byteOffset":1976148,
			"target":34963
		},
		{
			"buffer":0,
			"byteLength":33636,
			"byteOffset":1978056,
			"target":34962
		},
		{
			"buffer":0,
			"byteLength":33636,
			"byteOffset":2011692,
			"target":34962
		},
		{
			"buffer":0,
			"byteLength":22424,
			"byteOffset":2045328,
			"target":34962
		},
		{
			"buffer":0,
			"byteLength":10212,
			"byteOffset":2067752,
			"target":34963
		},
		{
			"buffer":0,
			"byteLength":324,
			"byteOffset":2077964,
			"target":34962
		},
		{
			"buffer":0,
			"byteLength":324,
			"byteOffset":2078288,
			"target":34962
		},
		{
			"buffer":0,
			"byteLength":216,
			"byteOffset":2078612,
			"target":34962
		},
		{
			"buffer":0,
			"byteLength":192,
			"byteOffset":2078828,
			"target":34963
		},
		{
			"buffer":0,
			"byteLength":384,
			"byteOffset":2079020,
			"target":34962
		},
		{
			"buffer":0,
			"byteLength":384,
			"byteOffset":2079404,
			"target":34962
		},
		{
			"buffer":0,
			"byteLength":256,
			"byteOffset":2079788,
			"target":34962
		},
		{
			"buffer":0,
			"byteLength":180,
			"byteOffset":2080044,
			"target":34963
		},
		{
			"buffer":0,
			"byteLength":768,
			"byteOffset":2080224,
			"target":34962
		},
		{
			"buffer":0,
			"byteLength":768,
			"byteOffset":2080992,
			"target":34962
		},
		{
			"buffer":0,
			"byteLength":512,
			"byteOffset":2081760,
			"target":34962
		},
		{
			"buffer":0,
			"byteLength":192,
			"byteOffset":2082272,
			"target":34963
		},
		{
			"buffer":0,
			"byteLength":6708,
			"byteOffset":2082464,
			"target":34962
		},
		{
			"buffer":0,
			"byteLength":6708,
			"byteOffset":2089172,
			"target":34962
		},
		{
			"buffer":0,
			"byteLength":4472,
			"byteOffset":2095880,
			"target":34962
		},
		{
			"buffer":0,
			"byteLength":5760,
			"byteOffset":2100352,
			"target":34963
		},
		{
			"buffer":0,
			"byteLength":7416,
			"byteOffset":2106112,
			"target":34962
		},
		{
			"buffer":0,
			"byteLength":7416,
			"byteOffset":2113528,
			"target":34962
		},
		{
			"buffer":0,
			"byteLength":4944,
			"byteOffset":2120944,
			"target":34962
		},
		{
			"buffer":0,
			"byteLength":2976,
			"byteOffset":2125888,
			"target":34963
		},
		{
			"buffer":0,
			"byteLength":2088,
			"byteOffset":2128864,
			"target":34962
		},
		{
			"buffer":0,
			"byteLength":2088,
			"byteOffset":2130952,
			"target":34962
		},
		{
			"buffer":0,
			"byteLength":1392,
			"byteOffset":2133040,
			"target":34962
		},
		{
			"buffer":0,
			"byteLength":936,
			"byteOffset":2134432,
			"target":34963
		},
		{
			"buffer":0,
			"byteLength":12144,
			"byteOffset":2135368,
			"target":34962
		},
		{
			"buffer":0,
			"byteLength":12144,
			"byteOffset":2147512,
			"target":34962
		},
		{
			"buffer":0,
			"byteLength":8096,
			"byteOffset":2159656,
			"target":34962
		},
		{
			"buffer":0,
			"byteLength":5328,
			"byteOffset":2167752,
			"target":34963
		},
		{
			"buffer":0,
			"byteLength":3216,
			"byteOffset":2173080,
			"target":34962
		},
		{
			"buffer":0,
			"byteLength":3216,
			"byteOffset":2176296,
			"target":34962
		},
		{
			"buffer":0,
			"byteLength":2144,
			"byteOffset":2179512,
			"target":34962
		},
		{
			"buffer":0,
			"byteLength":1440,
			"byteOffset":2181656,
			"target":34963
		},
		{
			"buffer":0,
			"byteLength":21168,
			"byteOffset":2183096,
			"target":34962
		},
		{
			"buffer":0,
			"byteLength":21168,
			"byteOffset":2204264,
			"target":34962
		},
		{
			"buffer":0,
			"byteLength":14112,
			"byteOffset":2225432,
			"target":34962
		},
		{
			"buffer":0,
			"byteLength":13824,
			"byteOffset":2239544,
			"target":34963
		},
		{
			"buffer":0,
			"byteLength":3972,
			"byteOffset":2253368,
			"target":34962
		},
		{
			"buffer":0,
			"byteLength":3972,
			"byteOffset":2257340,
			"target":34962
		},
		{
			"buffer":0,
			"byteLength":2648,
			"byteOffset":2261312,
			"target":34962
		},
		{
			"buffer":0,
			"byteLength":1968,
			"byteOffset":2263960,
			"target":34963
		}
	],
	"samplers":[
		{
			"magFilter":9729,
			"minFilter":9987
		}
	],
	"buffers":[
		{
			"byteLength":2265928,
			"uri":"ariane_64-after_boosters.bin"
		}
	]
}
