{
	"asset":{
		"generator":"Khronos glTF Blender I/O v4.4.56",
		"version":"2.0"
	},
	"scene":0,
	"scenes":[
		{
			"name":"Scene",
			"nodes":[
				5
			]
		}
	],
	"nodes":[
		{
			"mesh":0,
			"name":"mesh_2.005",
			"translation":[
				6.86084313201718e-05,
				0.1835329532623291,
				-2.1263582706451416
			]
		},
		{
			"mesh":1,
			"name":"mesh_2.006",
			"translation":[
				6.86084313201718e-05,
				0.1835329532623291,
				-2.1263582706451416
			]
		},
		{
			"mesh":2,
			"name":"mesh_2.007",
			"translation":[
				6.86084313201718e-05,
				0.1835329532623291,
				-2.1263582706451416
			]
		},
		{
			"mesh":3,
			"name":"mesh_2.008",
			"translation":[
				6.86084313201718e-05,
				0.1835329532623291,
				-2.1263582706451416
			]
		},
		{
			"mesh":4,
			"name":"mesh_2.009",
			"translation":[
				6.86084313201718e-05,
				0.1835329532623291,
				-2.1263582706451416
			]
		},
		{
			"children":[
				0,
				1,
				2,
				3,
				4
			],
			"name":"Booster.002_8",
			"rotation":[
				0.382785439491272,
				0,
				0.9238373041152954,
				4.305529033749337e-15
			],
			"scale":[
				0.02766386605799198,
				0.02766386605799198,
				0.027663862332701683
			],
			"translation":[
				0.0529119111597538,
				0.09855429828166962,
				0.05288853496313095
			]
		}
	],
	"materials":[
		{
			"doubleSided":true,
			"name":"Material.095",
			"pbrMetallicRoughness":{
				"metallicFactor":0,
				"metallicRoughnessTexture":{
					"index":0
				}
			}
		},
		{
			"doubleSided":true,
			"name":"Material.096",
			"pbrMetallicRoughness":{
				"baseColorFactor":[
					0,
					0,
					0,
					1
				],
				"metallicFactor":0,
				"roughnessFactor":0.5
			}
		},
		{
			"doubleSided":true,
			"name":"Material.097",
			"pbrMetallicRoughness":{
				"baseColorFactor":[
					0.03133999928832054,
					0.03133999928832054,
					0.03133999928832054,
					1
				],
				"metallicFactor":0.43636399507522583,
				"metallicRoughnessTexture":{
					"index":1
				}
			}
		},
		{
			"doubleSided":true,
			"name":"Material.098",
			"pbrMetallicRoughness":{
				"baseColorFactor":[
					0.33465299010276794,
					0.33465299010276794,
					0.33465299010276794,
					1
				],
				"metallicFactor":0.7628459930419922,
				"metallicRoughnessTexture":{
					"index":2
				},
				"roughnessFactor":0.5043824911117554
			}
		},
		{
			"doubleSided":true,
			"name":"Material.099",
			"pbrMetallicRoughness":{
				"baseColorFactor":[
					0,
					0.0021871801000088453,
					0.42922499775886536,
					1
				],
				"metallicFactor":0,
				"metallicRoughnessTexture":{
					"index":3
				}
			}
		}
	],
	"meshes":[
		{
			"name":"mesh_2.065",
			"primitives":[
				{
					"attributes":{
						"POSITION":0,
						"NORMAL":1,
						"TEXCOORD_0":2
					},
					"indices":3,
					"material":0
				}
			]
		},
		{
			"name":"mesh_2.066",
			"primitives":[
				{
					"attributes":{
						"POSITION":4,
						"NORMAL":5,
						"TEXCOORD_0":6
					},
					"indices":7,
					"material":1
				}
			]
		},
		{
			"name":"mesh_2.067",
			"primitives":[
				{
					"attributes":{
						"POSITION":8,
						"NORMAL":9,
						"TEXCOORD_0":10
					},
					"indices":11,
					"material":2
				}
			]
		},
		{
			"name":"mesh_2.068",
			"primitives":[
				{
					"attributes":{
						"POSITION":12,
						"NORMAL":13,
						"TEXCOORD_0":14
					},
					"indices":15,
					"material":3
				}
			]
		},
		{
			"name":"mesh_2.069",
			"primitives":[
				{
					"attributes":{
						"POSITION":16,
						"NORMAL":17,
						"TEXCOORD_0":18
					},
					"indices":19,
					"material":4
				}
			]
		}
	],
	"textures":[
		{
			"sampler":0,
			"source":0
		},
		{
			"sampler":0,
			"source":0
		},
		{
			"sampler":0,
			"source":0
		},
		{
			"sampler":0,
			"source":0
		}
	],
	"images":[
		{
			"mimeType":"image/png",
			"name":"Material_111_metallicRoughness",
			"uri":"textures/Material_111_metallicRoughness.png"
		}
	],
	"accessors":[
		{
			"bufferView":0,
			"componentType":5126,
			"count":10439,
			"max":[
				1.0769643783569336,
				3.1405303478240967,
				1.0115467309951782
			],
			"min":[
				-1.0774011611938477,
				-9.719409942626953,
				-1.5764472484588623
			],
			"type":"VEC3"
		},
		{
			"bufferView":1,
			"componentType":5126,
			"count":10439,
			"type":"VEC3"
		},
		{
			"bufferView":2,
			"componentType":5126,
			"count":10439,
			"type":"VEC2"
		},
		{
			"bufferView":3,
			"componentType":5123,
			"count":49314,
			"type":"SCALAR"
		},
		{
			"bufferView":4,
			"componentType":5126,
			"count":149,
			"max":[
				0.8501772880554199,
				3.167009115219116,
				0.6300691962242126
			],
			"min":[
				-0.8501773476600647,
				-4.8189473152160645,
				-0.7988883852958679
			],
			"type":"VEC3"
		},
		{
			"bufferView":5,
			"componentType":5126,
			"count":149,
			"type":"VEC3"
		},
		{
			"bufferView":6,
			"componentType":5126,
			"count":149,
			"type":"VEC2"
		},
		{
			"bufferView":7,
			"componentType":5123,
			"count":366,
			"type":"SCALAR"
		},
		{
			"bufferView":8,
			"componentType":5126,
			"count":546,
			"max":[
				0.6805012226104736,
				3.37903094291687,
				0.6805011630058289
			],
			"min":[
				-0.6805011630058289,
				3.1405303478240967,
				-0.6805011630058289
			],
			"type":"VEC3"
		},
		{
			"bufferView":9,
			"componentType":5126,
			"count":546,
			"type":"VEC3"
		},
		{
			"bufferView":10,
			"componentType":5126,
			"count":546,
			"type":"VEC2"
		},
		{
			"bufferView":11,
			"componentType":5123,
			"count":1536,
			"type":"SCALAR"
		},
		{
			"bufferView":12,
			"componentType":5126,
			"count":544,
			"max":[
				0.9203045964241028,
				3.002156972885132,
				0.920304536819458
			],
			"min":[
				-0.920304536819458,
				2.830894947052002,
				-0.920304536819458
			],
			"type":"VEC3"
		},
		{
			"bufferView":13,
			"componentType":5126,
			"count":544,
			"type":"VEC3"
		},
		{
			"bufferView":14,
			"componentType":5126,
			"count":544,
			"type":"VEC2"
		},
		{
			"bufferView":15,
			"componentType":5123,
			"count":1536,
			"type":"SCALAR"
		},
		{
			"bufferView":16,
			"componentType":5126,
			"count":425,
			"max":[
				0.20177152752876282,
				2.7174291610717773,
				1.031230092048645
			],
			"min":[
				-0.20177161693572998,
				-9.66614818572998,
				-0.5233396291732788
			],
			"type":"VEC3"
		},
		{
			"bufferView":17,
			"componentType":5126,
			"count":425,
			"type":"VEC3"
		},
		{
			"bufferView":18,
			"componentType":5126,
			"count":425,
			"type":"VEC2"
		},
		{
			"bufferView":19,
			"componentType":5123,
			"count":1704,
			"type":"SCALAR"
		}
	],
	"bufferViews":[
		{
			"buffer":0,
			"byteLength":125268,
			"byteOffset":0,
			"target":34962
		},
		{
			"buffer":0,
			"byteLength":125268,
			"byteOffset":125268,
			"target":34962
		},
		{
			"buffer":0,
			"byteLength":83512,
			"byteOffset":250536,
			"target":34962
		},
		{
			"buffer":0,
			"byteLength":98628,
			"byteOffset":334048,
			"target":34963
		},
		{
			"buffer":0,
			"byteLength":1788,
			"byteOffset":432676,
			"target":34962
		},
		{
			"buffer":0,
			"byteLength":1788,
			"byteOffset":434464,
			"target":34962
		},
		{
			"buffer":0,
			"byteLength":1192,
			"byteOffset":436252,
			"target":34962
		},
		{
			"buffer":0,
			"byteLength":732,
			"byteOffset":437444,
			"target":34963
		},
		{
			"buffer":0,
			"byteLength":6552,
			"byteOffset":438176,
			"target":34962
		},
		{
			"buffer":0,
			"byteLength":6552,
			"byteOffset":444728,
			"target":34962
		},
		{
			"buffer":0,
			"byteLength":4368,
			"byteOffset":451280,
			"target":34962
		},
		{
			"buffer":0,
			"byteLength":3072,
			"byteOffset":455648,
			"target":34963
		},
		{
			"buffer":0,
			"byteLength":6528,
			"byteOffset":458720,
			"target":34962
		},
		{
			"buffer":0,
			"byteLength":6528,
			"byteOffset":465248,
			"target":34962
		},
		{
			"buffer":0,
			"byteLength":4352,
			"byteOffset":471776,
			"target":34962
		},
		{
			"buffer":0,
			"byteLength":3072,
			"byteOffset":476128,
			"target":34963
		},
		{
			"buffer":0,
			"byteLength":5100,
			"byteOffset":479200,
			"target":34962
		},
		{
			"buffer":0,
			"byteLength":5100,
			"byteOffset":484300,
			"target":34962
		},
		{
			"buffer":0,
			"byteLength":3400,
			"byteOffset":489400,
			"target":34962
		},
		{
			"buffer":0,
			"byteLength":3408,
			"byteOffset":492800,
			"target":34963
		}
	],
	"samplers":[
		{
			"magFilter":9729,
			"minFilter":9987
		}
	],
	"buffers":[
		{
			"byteLength":496208,
			"uri":"ariane_64-booster2.bin"
		}
	]
}
