{
	"asset":{
		"generator":"Khronos glTF Blender I/O v4.4.56",
		"version":"2.0"
	},
	"scene":0,
	"scenes":[
		{
			"name":"Scene",
			"nodes":[
				0,
				1,
				8,
				9,
				10,
				11,
				12,
				13,
				14,
				15,
				16,
				17,
				18,
				19,
				20,
				21,
				22,
				23
			]
		}
	],
	"nodes":[
		{
			"mesh":0,
			"name":"Object_79",
			"rotation":[
				0,
				-0.3363211154937744,
				0,
				0.9417473673820496
			],
			"scale":[
				0.04389013722538948,
				0.043890126049518585,
				0.04389013722538948
			],
			"translation":[
				2.0265579223632812e-06,
				0.12268811464309692,
				0
			]
		},
		{
			"mesh":1,
			"name":"Object_59",
			"rotation":[
				0,
				-0.3363211154937744,
				0,
				0.9417473673820496
			],
			"scale":[
				0.04389013722538948,
				0.043890126049518585,
				0.04389013722538948
			],
			"translation":[
				2.0265579223632812e-06,
				0.12268811464309692,
				0
			]
		},
		{
			"mesh":2,
			"name":"Object_52",
			"translation":[
				0.00010869923426071182,
				-26.077251434326172,
				0
			]
		},
		{
			"mesh":3,
			"name":"Object_53",
			"translation":[
				0.00010869923426071182,
				-26.077251434326172,
				0
			]
		},
		{
			"mesh":4,
			"name":"Object_54",
			"translation":[
				0.00010869923426071182,
				-26.077251434326172,
				0
			]
		},
		{
			"mesh":5,
			"name":"Object_55",
			"translation":[
				0.00010869923426071182,
				-26.077251434326172,
				0
			]
		},
		{
			"mesh":6,
			"name":"Object_56",
			"translation":[
				0.00010869923426071182,
				-26.077251434326172,
				0
			]
		},
		{
			"mesh":7,
			"name":"Object_57",
			"translation":[
				0.00010869923426071182,
				-26.077251434326172,
				0
			]
		},
		{
			"children":[
				2,
				3,
				4,
				5,
				6,
				7
			],
			"name":"Engine Nozzle.002_5",
			"scale":[
				0.018643716350197792,
				0.018643716350197792,
				0.018643716350197792
			],
			"translation":[
				0,
				0.5541918277740479,
				6.233565363800153e-05
			]
		},
		{
			"mesh":8,
			"name":"Object_36",
			"scale":[
				0.043890129774808884,
				0.043890126049518585,
				0.043890126049518585
			],
			"translation":[
				0,
				0.13973885774612427,
				0
			]
		},
		{
			"mesh":9,
			"name":"Object_37",
			"scale":[
				0.043890129774808884,
				0.043890126049518585,
				0.043890126049518585
			],
			"translation":[
				0,
				0.13973885774612427,
				0
			]
		},
		{
			"mesh":10,
			"name":"Object_38",
			"scale":[
				0.043890129774808884,
				0.043890126049518585,
				0.043890126049518585
			],
			"translation":[
				0,
				0.13973885774612427,
				0
			]
		},
		{
			"mesh":11,
			"name":"Object_39",
			"scale":[
				0.043890129774808884,
				0.043890126049518585,
				0.043890126049518585
			],
			"translation":[
				0,
				0.13973885774612427,
				0
			]
		},
		{
			"mesh":12,
			"name":"Object_40",
			"scale":[
				0.043890129774808884,
				0.043890126049518585,
				0.043890126049518585
			],
			"translation":[
				0,
				0.13973885774612427,
				0
			]
		},
		{
			"mesh":13,
			"name":"Object_41",
			"scale":[
				0.043890129774808884,
				0.043890126049518585,
				0.043890126049518585
			],
			"translation":[
				0,
				0.13973885774612427,
				0
			]
		},
		{
			"mesh":14,
			"name":"Object_42",
			"scale":[
				0.043890129774808884,
				0.043890126049518585,
				0.043890126049518585
			],
			"translation":[
				0,
				0.13973885774612427,
				0
			]
		},
		{
			"mesh":15,
			"name":"Object_43",
			"scale":[
				0.043890129774808884,
				0.043890126049518585,
				0.043890126049518585
			],
			"translation":[
				0,
				0.13973885774612427,
				0
			]
		},
		{
			"mesh":16,
			"name":"Object_44",
			"scale":[
				0.043890129774808884,
				0.043890126049518585,
				0.043890126049518585
			],
			"translation":[
				0,
				0.13973885774612427,
				0
			]
		},
		{
			"mesh":17,
			"name":"Object_45",
			"scale":[
				0.043890129774808884,
				0.043890126049518585,
				0.043890126049518585
			],
			"translation":[
				0,
				0.13973885774612427,
				0
			]
		},
		{
			"mesh":18,
			"name":"Object_46",
			"scale":[
				0.043890129774808884,
				0.043890126049518585,
				0.043890126049518585
			],
			"translation":[
				0,
				0.13973885774612427,
				0
			]
		},
		{
			"mesh":19,
			"name":"Object_47",
			"scale":[
				0.043890129774808884,
				0.043890126049518585,
				0.043890126049518585
			],
			"translation":[
				0,
				0.13973885774612427,
				0
			]
		},
		{
			"mesh":20,
			"name":"Object_48",
			"scale":[
				0.043890129774808884,
				0.043890126049518585,
				0.043890126049518585
			],
			"translation":[
				0,
				0.13973885774612427,
				0
			]
		},
		{
			"mesh":21,
			"name":"Object_49",
			"scale":[
				0.043890129774808884,
				0.043890126049518585,
				0.043890126049518585
			],
			"translation":[
				0,
				0.13973885774612427,
				0
			]
		},
		{
			"mesh":22,
			"name":"Object_50",
			"scale":[
				0.043890129774808884,
				0.043890126049518585,
				0.043890126049518585
			],
			"translation":[
				0,
				0.13973885774612427,
				0
			]
		}
	],
	"materials":[
		{
			"doubleSided":true,
			"name":"Material.095",
			"pbrMetallicRoughness":{
				"metallicFactor":0,
				"metallicRoughnessTexture":{
					"index":0
				}
			}
		},
		{
			"doubleSided":true,
			"name":"Material.100",
			"pbrMetallicRoughness":{
				"baseColorFactor":[
					0.4700680077075958,
					0.4700680077075958,
					0.4700680077075958,
					1
				],
				"metallicFactor":0.889706015586853,
				"metallicRoughnessTexture":{
					"index":1
				}
			}
		},
		{
			"doubleSided":true,
			"name":"Material.121",
			"pbrMetallicRoughness":{
				"baseColorFactor":[
					0.05496849864721298,
					0.05496849864721298,
					0.05496849864721298,
					1
				],
				"metallicFactor":0.3014709949493408,
				"metallicRoughnessTexture":{
					"index":2
				}
			}
		},
		{
			"doubleSided":true,
			"name":"Material.122",
			"pbrMetallicRoughness":{
				"baseColorFactor":[
					0,
					0,
					0,
					1
				],
				"metallicFactor":0,
				"roughnessFactor":0.5
			}
		},
		{
			"doubleSided":true,
			"name":"Material.110",
			"pbrMetallicRoughness":{
				"baseColorFactor":[
					0.23301400244235992,
					0.23301400244235992,
					0.23301400244235992,
					1
				],
				"metallicFactor":0.615106999874115,
				"metallicRoughnessTexture":{
					"index":3
				}
			}
		},
		{
			"doubleSided":true,
			"name":"Material.104",
			"pbrMetallicRoughness":{
				"baseColorFactor":[
					0.1023939996957779,
					0.1023939996957779,
					0.1023939996957779,
					1
				],
				"metallicFactor":0.3014709949493408,
				"metallicRoughnessTexture":{
					"index":4
				}
			}
		},
		{
			"doubleSided":true,
			"name":"Material.105",
			"pbrMetallicRoughness":{
				"baseColorFactor":[
					0.02892420068383217,
					0.02892420068383217,
					0.02892420068383217,
					1
				],
				"metallicFactor":0.3014709949493408,
				"metallicRoughnessTexture":{
					"index":5
				}
			}
		},
		{
			"doubleSided":true,
			"name":"Material.098",
			"pbrMetallicRoughness":{
				"baseColorFactor":[
					0.33465299010276794,
					0.33465299010276794,
					0.33465299010276794,
					1
				],
				"metallicFactor":0.7628459930419922,
				"metallicRoughnessTexture":{
					"index":6
				},
				"roughnessFactor":0.5043824911117554
			}
		},
		{
			"doubleSided":true,
			"name":"Material.115",
			"pbrMetallicRoughness":{
				"baseColorFactor":[
					0.3965350091457367,
					0.3965350091457367,
					0.3965350091457367,
					1
				],
				"metallicFactor":0.6748350262641907,
				"metallicRoughnessTexture":{
					"index":7
				}
			}
		},
		{
			"doubleSided":true,
			"name":"Material.123",
			"pbrMetallicRoughness":{
				"baseColorFactor":[
					0.09787970036268234,
					0.09787970036268234,
					0.09787970036268234,
					1
				],
				"metallicFactor":0.2545450031757355,
				"metallicRoughnessTexture":{
					"index":8
				}
			}
		},
		{
			"doubleSided":true,
			"name":"Material.124",
			"pbrMetallicRoughness":{
				"baseColorFactor":[
					0.2330150008201599,
					0.0540447011590004,
					0,
					1
				],
				"metallicFactor":0.48181799054145813,
				"metallicRoughnessTexture":{
					"index":9
				}
			}
		},
		{
			"doubleSided":true,
			"name":"Material.126",
			"pbrMetallicRoughness":{
				"baseColorTexture":{
					"index":10
				},
				"metallicFactor":0,
				"metallicRoughnessTexture":{
					"index":11
				}
			}
		},
		{
			"doubleSided":true,
			"name":"Base_Material.003",
			"pbrMetallicRoughness":{
				"baseColorFactor":[
					0.08001130074262619,
					0.08001130074262619,
					0.08001130074262619,
					1
				],
				"metallicFactor":0.7136359810829163,
				"metallicRoughnessTexture":{
					"index":12
				}
			}
		},
		{
			"doubleSided":true,
			"name":"Material.127",
			"pbrMetallicRoughness":{
				"baseColorFactor":[
					0.039361000061035156,
					0.039361000061035156,
					0.039361000061035156,
					1
				],
				"metallicFactor":0.6332889795303345
			}
		},
		{
			"doubleSided":true,
			"name":"Material.128",
			"pbrMetallicRoughness":{
				"baseColorFactor":[
					0.24210099875926971,
					0.24210099875926971,
					0.24210099875926971,
					1
				],
				"metallicFactor":0.6818180084228516,
				"metallicRoughnessTexture":{
					"index":13
				}
			}
		},
		{
			"doubleSided":true,
			"name":"Material.114",
			"pbrMetallicRoughness":{
				"baseColorFactor":[
					0.150285005569458,
					0.150285005569458,
					0.150285005569458,
					1
				],
				"metallicFactor":0.32727301120758057,
				"metallicRoughnessTexture":{
					"index":14
				}
			}
		},
		{
			"doubleSided":true,
			"name":"Material.118",
			"pbrMetallicRoughness":{
				"baseColorFactor":[
					0.09773260354995728,
					0.09773260354995728,
					0.09773260354995728,
					1
				],
				"metallicFactor":0.42272698879241943,
				"metallicRoughnessTexture":{
					"index":15
				},
				"roughnessFactor":0.6872401833534241
			}
		},
		{
			"doubleSided":true,
			"name":"Material.102",
			"pbrMetallicRoughness":{
				"baseColorFactor":[
					0,
					0,
					0,
					1
				],
				"metallicFactor":0,
				"roughnessFactor":0.5
			}
		},
		{
			"doubleSided":true,
			"name":"Material.116",
			"pbrMetallicRoughness":{
				"baseColorFactor":[
					0.15743300318717957,
					0.15743300318717957,
					0.15743300318717957,
					1
				],
				"metallicFactor":0.9372990131378174,
				"metallicRoughnessTexture":{
					"index":16
				}
			}
		},
		{
			"doubleSided":true,
			"name":"Material.117",
			"pbrMetallicRoughness":{
				"baseColorFactor":[
					0.04954909905791283,
					0.04954909905791283,
					0.04954909905791283,
					1
				],
				"metallicFactor":0,
				"metallicRoughnessTexture":{
					"index":17
				}
			}
		}
	],
	"meshes":[
		{
			"name":"Object_66.003",
			"primitives":[
				{
					"attributes":{
						"POSITION":0,
						"NORMAL":1,
						"TEXCOORD_0":2
					},
					"indices":3,
					"material":0
				}
			]
		},
		{
			"name":"Object_50.003",
			"primitives":[
				{
					"attributes":{
						"POSITION":4,
						"NORMAL":5,
						"TEXCOORD_0":6
					},
					"indices":7,
					"material":0
				}
			]
		},
		{
			"name":"Object_44.003",
			"primitives":[
				{
					"attributes":{
						"POSITION":8,
						"NORMAL":9,
						"TEXCOORD_0":10
					},
					"indices":11,
					"material":1
				}
			]
		},
		{
			"name":"Object_45.003",
			"primitives":[
				{
					"attributes":{
						"POSITION":12,
						"NORMAL":13,
						"TEXCOORD_0":14
					},
					"indices":15,
					"material":2
				}
			]
		},
		{
			"name":"Object_46.003",
			"primitives":[
				{
					"attributes":{
						"POSITION":16,
						"NORMAL":17,
						"TEXCOORD_0":18
					},
					"indices":19,
					"material":3
				}
			]
		},
		{
			"name":"Object_47.003",
			"primitives":[
				{
					"attributes":{
						"POSITION":20,
						"NORMAL":21,
						"TEXCOORD_0":22
					},
					"indices":23,
					"material":4
				}
			]
		},
		{
			"name":"Object_48.003",
			"primitives":[
				{
					"attributes":{
						"POSITION":24,
						"NORMAL":25,
						"TEXCOORD_0":26
					},
					"indices":27,
					"material":5
				}
			]
		},
		{
			"name":"Object_49.003",
			"primitives":[
				{
					"attributes":{
						"POSITION":28,
						"NORMAL":29,
						"TEXCOORD_0":30
					},
					"indices":31,
					"material":6
				}
			]
		},
		{
			"name":"Object_29.003",
			"primitives":[
				{
					"attributes":{
						"POSITION":32,
						"NORMAL":33,
						"TEXCOORD_0":34
					},
					"indices":35,
					"material":0
				}
			]
		},
		{
			"name":"Object_30.003",
			"primitives":[
				{
					"attributes":{
						"POSITION":36,
						"NORMAL":37,
						"TEXCOORD_0":38
					},
					"indices":39,
					"material":7
				}
			]
		},
		{
			"name":"Object_31.003",
			"primitives":[
				{
					"attributes":{
						"POSITION":40,
						"NORMAL":41,
						"TEXCOORD_0":42
					},
					"indices":43,
					"material":8
				}
			]
		},
		{
			"name":"Object_32.003",
			"primitives":[
				{
					"attributes":{
						"POSITION":44,
						"NORMAL":45,
						"TEXCOORD_0":46
					},
					"indices":47,
					"material":9
				}
			]
		},
		{
			"name":"Object_33.003",
			"primitives":[
				{
					"attributes":{
						"POSITION":48,
						"NORMAL":49,
						"TEXCOORD_0":50
					},
					"indices":51,
					"material":10
				}
			]
		},
		{
			"name":"Object_34.003",
			"primitives":[
				{
					"attributes":{
						"POSITION":52,
						"NORMAL":53,
						"TEXCOORD_0":54
					},
					"indices":55,
					"material":11
				}
			]
		},
		{
			"name":"Object_35.003",
			"primitives":[
				{
					"attributes":{
						"POSITION":56,
						"NORMAL":57,
						"TEXCOORD_0":58
					},
					"indices":59,
					"material":12
				}
			]
		},
		{
			"name":"Object_36.003",
			"primitives":[
				{
					"attributes":{
						"POSITION":60,
						"NORMAL":61,
						"TEXCOORD_0":62
					},
					"indices":63,
					"material":13
				}
			]
		},
		{
			"name":"Object_37.003",
			"primitives":[
				{
					"attributes":{
						"POSITION":64,
						"NORMAL":65,
						"TEXCOORD_0":66
					},
					"indices":67,
					"material":14
				}
			]
		},
		{
			"name":"Object_38.003",
			"primitives":[
				{
					"attributes":{
						"POSITION":68,
						"NORMAL":69,
						"TEXCOORD_0":70
					},
					"indices":71,
					"material":15
				}
			]
		},
		{
			"name":"Object_39.003",
			"primitives":[
				{
					"attributes":{
						"POSITION":72,
						"NORMAL":73,
						"TEXCOORD_0":74
					},
					"indices":75,
					"material":4
				}
			]
		},
		{
			"name":"Object_40.003",
			"primitives":[
				{
					"attributes":{
						"POSITION":76,
						"NORMAL":77,
						"TEXCOORD_0":78
					},
					"indices":79,
					"material":16
				}
			]
		},
		{
			"name":"Object_41.003",
			"primitives":[
				{
					"attributes":{
						"POSITION":80,
						"NORMAL":81,
						"TEXCOORD_0":82
					},
					"indices":83,
					"material":17
				}
			]
		},
		{
			"name":"Object_42.003",
			"primitives":[
				{
					"attributes":{
						"POSITION":84,
						"NORMAL":85,
						"TEXCOORD_0":86
					},
					"indices":87,
					"material":18
				}
			]
		},
		{
			"name":"Object_43.003",
			"primitives":[
				{
					"attributes":{
						"POSITION":88,
						"NORMAL":89,
						"TEXCOORD_0":90
					},
					"indices":91,
					"material":19
				}
			]
		}
	],
	"textures":[
		{
			"sampler":0,
			"source":0
		},
		{
			"sampler":0,
			"source":0
		},
		{
			"sampler":0,
			"source":0
		},
		{
			"sampler":0,
			"source":0
		},
		{
			"sampler":0,
			"source":0
		},
		{
			"sampler":0,
			"source":0
		},
		{
			"sampler":0,
			"source":0
		},
		{
			"sampler":0,
			"source":0
		},
		{
			"sampler":0,
			"source":0
		},
		{
			"sampler":0,
			"source":0
		},
		{
			"sampler":0,
			"source":1
		},
		{
			"sampler":0,
			"source":0
		},
		{
			"sampler":0,
			"source":0
		},
		{
			"sampler":0,
			"source":0
		},
		{
			"sampler":0,
			"source":0
		},
		{
			"sampler":0,
			"source":0
		},
		{
			"sampler":0,
			"source":0
		},
		{
			"sampler":0,
			"source":0
		}
	],
	"images":[
		{
			"mimeType":"image/png",
			"name":"Material_111_metallicRoughness",
			"uri":"textures/Material_111_metallicRoughness.png"
		},
		{
			"mimeType":"image/png",
			"name":"Material_067_baseColor",
			"uri":"textures/Material_067_baseColor.png"
		}
	],
	"accessors":[
		{
			"bufferView":0,
			"componentType":5126,
			"count":898,
			"max":[
				1,
				8.912408828735352,
				4.371138828673793e-08
			],
			"min":[
				-1,
				1.476583480834961,
				-1
			],
			"type":"VEC3"
		},
		{
			"bufferView":1,
			"componentType":5126,
			"count":898,
			"type":"VEC3"
		},
		{
			"bufferView":2,
			"componentType":5126,
			"count":898,
			"type":"VEC2"
		},
		{
			"bufferView":3,
			"componentType":5123,
			"count":4701,
			"type":"SCALAR"
		},
		{
			"bufferView":4,
			"componentType":5126,
			"count":917,
			"max":[
				1,
				8.912408828735352,
				1
			],
			"min":[
				-1,
				1.476583480834961,
				-1.1924880638503055e-08
			],
			"type":"VEC3"
		},
		{
			"bufferView":5,
			"componentType":5126,
			"count":917,
			"type":"VEC3"
		},
		{
			"bufferView":6,
			"componentType":5126,
			"count":917,
			"type":"VEC2"
		},
		{
			"bufferView":7,
			"componentType":5123,
			"count":4701,
			"type":"SCALAR"
		},
		{
			"bufferView":8,
			"componentType":5126,
			"count":1460,
			"max":[
				0.2818531394004822,
				0.05926108360290527,
				0.43488216400146484
			],
			"min":[
				-0.2818531394004822,
				-1.2082349061965942,
				-0.4114195704460144
			],
			"type":"VEC3"
		},
		{
			"bufferView":9,
			"componentType":5126,
			"count":1460,
			"type":"VEC3"
		},
		{
			"bufferView":10,
			"componentType":5126,
			"count":1460,
			"type":"VEC2"
		},
		{
			"bufferView":11,
			"componentType":5123,
			"count":4800,
			"type":"SCALAR"
		},
		{
			"bufferView":12,
			"componentType":5126,
			"count":324,
			"max":[
				0.8955487608909607,
				-1.2082349061965942,
				0.8955487608909607
			],
			"min":[
				-0.8955487608909607,
				-3.648143768310547,
				-0.8955487608909607
			],
			"type":"VEC3"
		},
		{
			"bufferView":13,
			"componentType":5126,
			"count":324,
			"type":"VEC3"
		},
		{
			"bufferView":14,
			"componentType":5126,
			"count":324,
			"type":"VEC2"
		},
		{
			"bufferView":15,
			"componentType":5123,
			"count":1344,
			"type":"SCALAR"
		},
		{
			"bufferView":16,
			"componentType":5126,
			"count":32,
			"max":[
				0.3569837510585785,
				-1.4127326011657715,
				0.3569837510585785
			],
			"min":[
				-0.3569837510585785,
				-1.4127326011657715,
				-0.3569837510585785
			],
			"type":"VEC3"
		},
		{
			"bufferView":17,
			"componentType":5126,
			"count":32,
			"type":"VEC3"
		},
		{
			"bufferView":18,
			"componentType":5126,
			"count":32,
			"type":"VEC2"
		},
		{
			"bufferView":19,
			"componentType":5123,
			"count":90,
			"type":"SCALAR"
		},
		{
			"bufferView":20,
			"componentType":5126,
			"count":3414,
			"max":[
				0.30920684337615967,
				-0.06189298629760742,
				0.30595681071281433
			],
			"min":[
				-0.30939382314682007,
				-1.2305126190185547,
				-0.44793856143951416
			],
			"type":"VEC3"
		},
		{
			"bufferView":21,
			"componentType":5126,
			"count":3414,
			"type":"VEC3"
		},
		{
			"bufferView":22,
			"componentType":5126,
			"count":3414,
			"type":"VEC2"
		},
		{
			"bufferView":23,
			"componentType":5123,
			"count":14364,
			"type":"SCALAR"
		},
		{
			"bufferView":24,
			"componentType":5126,
			"count":2556,
			"max":[
				0.22841623425483704,
				-0.08072495460510254,
				0.2285212129354477
			],
			"min":[
				-0.22843700647354126,
				-0.6086623668670654,
				-0.3976600766181946
			],
			"type":"VEC3"
		},
		{
			"bufferView":25,
			"componentType":5126,
			"count":2556,
			"type":"VEC3"
		},
		{
			"bufferView":26,
			"componentType":5126,
			"count":2556,
			"type":"VEC2"
		},
		{
			"bufferView":27,
			"componentType":5123,
			"count":8592,
			"type":"SCALAR"
		},
		{
			"bufferView":28,
			"componentType":5126,
			"count":24,
			"max":[
				0.06020065024495125,
				-0.31338024139404297,
				0.4549487233161926
			],
			"min":[
				-0.06038765236735344,
				-0.38175296783447266,
				0.09095650911331177
			],
			"type":"VEC3"
		},
		{
			"bufferView":29,
			"componentType":5126,
			"count":24,
			"type":"VEC3"
		},
		{
			"bufferView":30,
			"componentType":5126,
			"count":24,
			"type":"VEC2"
		},
		{
			"bufferView":31,
			"componentType":5123,
			"count":36,
			"type":"SCALAR"
		},
		{
			"bufferView":32,
			"componentType":5126,
			"count":1415,
			"max":[
				1.0000462532043457,
				1.0434731245040894,
				1.0540717840194702
			],
			"min":[
				-0.9999538064002991,
				-1.232437252998352,
				-1.0540717840194702
			],
			"type":"VEC3"
		},
		{
			"bufferView":33,
			"componentType":5126,
			"count":1415,
			"type":"VEC3"
		},
		{
			"bufferView":34,
			"componentType":5126,
			"count":1415,
			"type":"VEC2"
		},
		{
			"bufferView":35,
			"componentType":5123,
			"count":3984,
			"type":"SCALAR"
		},
		{
			"bufferView":36,
			"componentType":5126,
			"count":4884,
			"max":[
				1.0120337009429932,
				1.0880993604660034,
				1.0120519399642944
			],
			"min":[
				-1.0120337009429932,
				0.12394320964813232,
				-1.0120738744735718
			],
			"type":"VEC3"
		},
		{
			"bufferView":37,
			"componentType":5126,
			"count":4884,
			"type":"VEC3"
		},
		{
			"bufferView":38,
			"componentType":5126,
			"count":4884,
			"type":"VEC2"
		},
		{
			"bufferView":39,
			"componentType":5123,
			"count":8400,
			"type":"SCALAR"
		},
		{
			"bufferView":40,
			"componentType":5126,
			"count":2916,
			"max":[
				1.0000462532043457,
				1.3364707231521606,
				1
			],
			"min":[
				-0.9999538064002991,
				-1.6425741910934448,
				-1
			],
			"type":"VEC3"
		},
		{
			"bufferView":41,
			"componentType":5126,
			"count":2916,
			"type":"VEC3"
		},
		{
			"bufferView":42,
			"componentType":5126,
			"count":2916,
			"type":"VEC2"
		},
		{
			"bufferView":43,
			"componentType":5123,
			"count":12648,
			"type":"SCALAR"
		},
		{
			"bufferView":44,
			"componentType":5126,
			"count":352,
			"max":[
				1.0000462532043457,
				1.6346102952957153,
				1
			],
			"min":[
				-0.9999538064002991,
				0.8295495510101318,
				-1
			],
			"type":"VEC3"
		},
		{
			"bufferView":45,
			"componentType":5126,
			"count":352,
			"type":"VEC3"
		},
		{
			"bufferView":46,
			"componentType":5126,
			"count":352,
			"type":"VEC2"
		},
		{
			"bufferView":47,
			"componentType":5123,
			"count":954,
			"type":"SCALAR"
		},
		{
			"bufferView":48,
			"componentType":5126,
			"count":2803,
			"max":[
				0.47435978055000305,
				1.69845449924469,
				0.4743135869503021
			],
			"min":[
				-0.4742673933506012,
				1.3537827730178833,
				-0.4743135869503021
			],
			"type":"VEC3"
		},
		{
			"bufferView":49,
			"componentType":5126,
			"count":2803,
			"type":"VEC3"
		},
		{
			"bufferView":50,
			"componentType":5126,
			"count":2803,
			"type":"VEC2"
		},
		{
			"bufferView":51,
			"componentType":5123,
			"count":5106,
			"type":"SCALAR"
		},
		{
			"bufferView":52,
			"componentType":5126,
			"count":27,
			"max":[
				1.0000462532043457,
				0.12394320964813232,
				0.3826833963394165
			],
			"min":[
				0.9239256978034973,
				-1.086577296257019,
				-0.3826834261417389
			],
			"type":"VEC3"
		},
		{
			"bufferView":53,
			"componentType":5126,
			"count":27,
			"type":"VEC3"
		},
		{
			"bufferView":54,
			"componentType":5126,
			"count":27,
			"type":"VEC2"
		},
		{
			"bufferView":55,
			"componentType":5123,
			"count":96,
			"type":"SCALAR"
		},
		{
			"bufferView":56,
			"componentType":5126,
			"count":32,
			"max":[
				0.17873677611351013,
				1.6778621673583984,
				0.17789320647716522
			],
			"min":[
				-0.17877055704593658,
				1.6778621673583984,
				-0.1796141415834427
			],
			"type":"VEC3"
		},
		{
			"bufferView":57,
			"componentType":5126,
			"count":32,
			"type":"VEC3"
		},
		{
			"bufferView":58,
			"componentType":5126,
			"count":32,
			"type":"VEC2"
		},
		{
			"bufferView":59,
			"componentType":5123,
			"count":90,
			"type":"SCALAR"
		},
		{
			"bufferView":60,
			"componentType":5126,
			"count":64,
			"max":[
				0.1809091866016388,
				1.686743140220642,
				0.1800655871629715
			],
			"min":[
				-0.18094295263290405,
				1.6655247211456299,
				-0.18178655207157135
			],
			"type":"VEC3"
		},
		{
			"bufferView":61,
			"componentType":5126,
			"count":64,
			"type":"VEC3"
		},
		{
			"bufferView":62,
			"componentType":5126,
			"count":64,
			"type":"VEC2"
		},
		{
			"bufferView":63,
			"componentType":5123,
			"count":96,
			"type":"SCALAR"
		},
		{
			"bufferView":64,
			"componentType":5126,
			"count":559,
			"max":[
				0.1657075583934784,
				-1.358720302581787,
				-0.45519712567329407
			],
			"min":[
				-0.165615051984787,
				-1.6900432109832764,
				-0.7865196466445923
			],
			"type":"VEC3"
		},
		{
			"bufferView":65,
			"componentType":5126,
			"count":559,
			"type":"VEC3"
		},
		{
			"bufferView":66,
			"componentType":5126,
			"count":559,
			"type":"VEC2"
		},
		{
			"bufferView":67,
			"componentType":5123,
			"count":2880,
			"type":"SCALAR"
		},
		{
			"bufferView":68,
			"componentType":5126,
			"count":618,
			"max":[
				0.11147948354482651,
				-1.1394609212875366,
				-0.28629833459854126
			],
			"min":[
				-0.11118479818105698,
				-1.642581820487976,
				-0.7427080869674683
			],
			"type":"VEC3"
		},
		{
			"bufferView":69,
			"componentType":5126,
			"count":618,
			"type":"VEC3"
		},
		{
			"bufferView":70,
			"componentType":5126,
			"count":618,
			"type":"VEC2"
		},
		{
			"bufferView":71,
			"componentType":5123,
			"count":1488,
			"type":"SCALAR"
		},
		{
			"bufferView":72,
			"componentType":5126,
			"count":174,
			"max":[
				0.4568803310394287,
				-1.173687219619751,
				0.7323101758956909
			],
			"min":[
				-0.45678791403770447,
				-1.4781800508499146,
				0.2534888684749603
			],
			"type":"VEC3"
		},
		{
			"bufferView":73,
			"componentType":5126,
			"count":174,
			"type":"VEC3"
		},
		{
			"bufferView":74,
			"componentType":5126,
			"count":174,
			"type":"VEC2"
		},
		{
			"bufferView":75,
			"componentType":5123,
			"count":468,
			"type":"SCALAR"
		},
		{
			"bufferView":76,
			"componentType":5126,
			"count":1012,
			"max":[
				1.0044817924499512,
				-0.28468406200408936,
				0.615378737449646
			],
			"min":[
				0.764537513256073,
				-1.1788309812545776,
				-0.6062571406364441
			],
			"type":"VEC3"
		},
		{
			"bufferView":77,
			"componentType":5126,
			"count":1012,
			"type":"VEC3"
		},
		{
			"bufferView":78,
			"componentType":5126,
			"count":1012,
			"type":"VEC2"
		},
		{
			"bufferView":79,
			"componentType":5123,
			"count":2664,
			"type":"SCALAR"
		},
		{
			"bufferView":80,
			"componentType":5126,
			"count":268,
			"max":[
				0.988682746887207,
				-0.29461991786956787,
				1.0351519584655762
			],
			"min":[
				-0.029514331370592117,
				-1.1692684888839722,
				-1.0351519584655762
			],
			"type":"VEC3"
		},
		{
			"bufferView":81,
			"componentType":5126,
			"count":268,
			"type":"VEC3"
		},
		{
			"bufferView":82,
			"componentType":5126,
			"count":268,
			"type":"VEC2"
		},
		{
			"bufferView":83,
			"componentType":5123,
			"count":720,
			"type":"SCALAR"
		},
		{
			"bufferView":84,
			"componentType":5126,
			"count":1764,
			"max":[
				0.7215794920921326,
				1.247397541999817,
				0.7215332984924316
			],
			"min":[
				-0.7214871048927307,
				-1.4074313640594482,
				-0.7215332984924316
			],
			"type":"VEC3"
		},
		{
			"bufferView":85,
			"componentType":5126,
			"count":1764,
			"type":"VEC3"
		},
		{
			"bufferView":86,
			"componentType":5126,
			"count":1764,
			"type":"VEC2"
		},
		{
			"bufferView":87,
			"componentType":5123,
			"count":6912,
			"type":"SCALAR"
		},
		{
			"bufferView":88,
			"componentType":5126,
			"count":331,
			"max":[
				0.8692096471786499,
				1.5859031677246094,
				0.46953341364860535
			],
			"min":[
				-0.012255847454071045,
				-1.69845449924469,
				-0.4571203291416168
			],
			"type":"VEC3"
		},
		{
			"bufferView":89,
			"componentType":5126,
			"count":331,
			"type":"VEC3"
		},
		{
			"bufferView":90,
			"componentType":5126,
			"count":331,
			"type":"VEC2"
		},
		{
			"bufferView":91,
			"componentType":5123,
			"count":984,
			"type":"SCALAR"
		}
	],
	"bufferViews":[
		{
			"buffer":0,
			"byteLength":10776,
			"byteOffset":0,
			"target":34962
		},
		{
			"buffer":0,
			"byteLength":10776,
			"byteOffset":10776,
			"target":34962
		},
		{
			"buffer":0,
			"byteLength":7184,
			"byteOffset":21552,
			"target":34962
		},
		{
			"buffer":0,
			"byteLength":9402,
			"byteOffset":28736,
			"target":34963
		},
		{
			"buffer":0,
			"byteLength":11004,
			"byteOffset":38140,
			"target":34962
		},
		{
			"buffer":0,
			"byteLength":11004,
			"byteOffset":49144,
			"target":34962
		},
		{
			"buffer":0,
			"byteLength":7336,
			"byteOffset":60148,
			"target":34962
		},
		{
			"buffer":0,
			"byteLength":9402,
			"byteOffset":67484,
			"target":34963
		},
		{
			"buffer":0,
			"byteLength":17520,
			"byteOffset":76888,
			"target":34962
		},
		{
			"buffer":0,
			"byteLength":17520,
			"byteOffset":94408,
			"target":34962
		},
		{
			"buffer":0,
			"byteLength":11680,
			"byteOffset":111928,
			"target":34962
		},
		{
			"buffer":0,
			"byteLength":9600,
			"byteOffset":123608,
			"target":34963
		},
		{
			"buffer":0,
			"byteLength":3888,
			"byteOffset":133208,
			"target":34962
		},
		{
			"buffer":0,
			"byteLength":3888,
			"byteOffset":137096,
			"target":34962
		},
		{
			"buffer":0,
			"byteLength":2592,
			"byteOffset":140984,
			"target":34962
		},
		{
			"buffer":0,
			"byteLength":2688,
			"byteOffset":143576,
			"target":34963
		},
		{
			"buffer":0,
			"byteLength":384,
			"byteOffset":146264,
			"target":34962
		},
		{
			"buffer":0,
			"byteLength":384,
			"byteOffset":146648,
			"target":34962
		},
		{
			"buffer":0,
			"byteLength":256,
			"byteOffset":147032,
			"target":34962
		},
		{
			"buffer":0,
			"byteLength":180,
			"byteOffset":147288,
			"target":34963
		},
		{
			"buffer":0,
			"byteLength":40968,
			"byteOffset":147468,
			"target":34962
		},
		{
			"buffer":0,
			"byteLength":40968,
			"byteOffset":188436,
			"target":34962
		},
		{
			"buffer":0,
			"byteLength":27312,
			"byteOffset":229404,
			"target":34962
		},
		{
			"buffer":0,
			"byteLength":28728,
			"byteOffset":256716,
			"target":34963
		},
		{
			"buffer":0,
			"byteLength":30672,
			"byteOffset":285444,
			"target":34962
		},
		{
			"buffer":0,
			"byteLength":30672,
			"byteOffset":316116,
			"target":34962
		},
		{
			"buffer":0,
			"byteLength":20448,
			"byteOffset":346788,
			"target":34962
		},
		{
			"buffer":0,
			"byteLength":17184,
			"byteOffset":367236,
			"target":34963
		},
		{
			"buffer":0,
			"byteLength":288,
			"byteOffset":384420,
			"target":34962
		},
		{
			"buffer":0,
			"byteLength":288,
			"byteOffset":384708,
			"target":34962
		},
		{
			"buffer":0,
			"byteLength":192,
			"byteOffset":384996,
			"target":34962
		},
		{
			"buffer":0,
			"byteLength":72,
			"byteOffset":385188,
			"target":34963
		},
		{
			"buffer":0,
			"byteLength":16980,
			"byteOffset":385260,
			"target":34962
		},
		{
			"buffer":0,
			"byteLength":16980,
			"byteOffset":402240,
			"target":34962
		},
		{
			"buffer":0,
			"byteLength":11320,
			"byteOffset":419220,
			"target":34962
		},
		{
			"buffer":0,
			"byteLength":7968,
			"byteOffset":430540,
			"target":34963
		},
		{
			"buffer":0,
			"byteLength":58608,
			"byteOffset":438508,
			"target":34962
		},
		{
			"buffer":0,
			"byteLength":58608,
			"byteOffset":497116,
			"target":34962
		},
		{
			"buffer":0,
			"byteLength":39072,
			"byteOffset":555724,
			"target":34962
		},
		{
			"buffer":0,
			"byteLength":16800,
			"byteOffset":594796,
			"target":34963
		},
		{
			"buffer":0,
			"byteLength":34992,
			"byteOffset":611596,
			"target":34962
		},
		{
			"buffer":0,
			"byteLength":34992,
			"byteOffset":646588,
			"target":34962
		},
		{
			"buffer":0,
			"byteLength":23328,
			"byteOffset":681580,
			"target":34962
		},
		{
			"buffer":0,
			"byteLength":25296,
			"byteOffset":704908,
			"target":34963
		},
		{
			"buffer":0,
			"byteLength":4224,
			"byteOffset":730204,
			"target":34962
		},
		{
			"buffer":0,
			"byteLength":4224,
			"byteOffset":734428,
			"target":34962
		},
		{
			"buffer":0,
			"byteLength":2816,
			"byteOffset":738652,
			"target":34962
		},
		{
			"buffer":0,
			"byteLength":1908,
			"byteOffset":741468,
			"target":34963
		},
		{
			"buffer":0,
			"byteLength":33636,
			"byteOffset":743376,
			"target":34962
		},
		{
			"buffer":0,
			"byteLength":33636,
			"byteOffset":777012,
			"target":34962
		},
		{
			"buffer":0,
			"byteLength":22424,
			"byteOffset":810648,
			"target":34962
		},
		{
			"buffer":0,
			"byteLength":10212,
			"byteOffset":833072,
			"target":34963
		},
		{
			"buffer":0,
			"byteLength":324,
			"byteOffset":843284,
			"target":34962
		},
		{
			"buffer":0,
			"byteLength":324,
			"byteOffset":843608,
			"target":34962
		},
		{
			"buffer":0,
			"byteLength":216,
			"byteOffset":843932,
			"target":34962
		},
		{
			"buffer":0,
			"byteLength":192,
			"byteOffset":844148,
			"target":34963
		},
		{
			"buffer":0,
			"byteLength":384,
			"byteOffset":844340,
			"target":34962
		},
		{
			"buffer":0,
			"byteLength":384,
			"byteOffset":844724,
			"target":34962
		},
		{
			"buffer":0,
			"byteLength":256,
			"byteOffset":845108,
			"target":34962
		},
		{
			"buffer":0,
			"byteLength":180,
			"byteOffset":845364,
			"target":34963
		},
		{
			"buffer":0,
			"byteLength":768,
			"byteOffset":845544,
			"target":34962
		},
		{
			"buffer":0,
			"byteLength":768,
			"byteOffset":846312,
			"target":34962
		},
		{
			"buffer":0,
			"byteLength":512,
			"byteOffset":847080,
			"target":34962
		},
		{
			"buffer":0,
			"byteLength":192,
			"byteOffset":847592,
			"target":34963
		},
		{
			"buffer":0,
			"byteLength":6708,
			"byteOffset":847784,
			"target":34962
		},
		{
			"buffer":0,
			"byteLength":6708,
			"byteOffset":854492,
			"target":34962
		},
		{
			"buffer":0,
			"byteLength":4472,
			"byteOffset":861200,
			"target":34962
		},
		{
			"buffer":0,
			"byteLength":5760,
			"byteOffset":865672,
			"target":34963
		},
		{
			"buffer":0,
			"byteLength":7416,
			"byteOffset":871432,
			"target":34962
		},
		{
			"buffer":0,
			"byteLength":7416,
			"byteOffset":878848,
			"target":34962
		},
		{
			"buffer":0,
			"byteLength":4944,
			"byteOffset":886264,
			"target":34962
		},
		{
			"buffer":0,
			"byteLength":2976,
			"byteOffset":891208,
			"target":34963
		},
		{
			"buffer":0,
			"byteLength":2088,
			"byteOffset":894184,
			"target":34962
		},
		{
			"buffer":0,
			"byteLength":2088,
			"byteOffset":896272,
			"target":34962
		},
		{
			"buffer":0,
			"byteLength":1392,
			"byteOffset":898360,
			"target":34962
		},
		{
			"buffer":0,
			"byteLength":936,
			"byteOffset":899752,
			"target":34963
		},
		{
			"buffer":0,
			"byteLength":12144,
			"byteOffset":900688,
			"target":34962
		},
		{
			"buffer":0,
			"byteLength":12144,
			"byteOffset":912832,
			"target":34962
		},
		{
			"buffer":0,
			"byteLength":8096,
			"byteOffset":924976,
			"target":34962
		},
		{
			"buffer":0,
			"byteLength":5328,
			"byteOffset":933072,
			"target":34963
		},
		{
			"buffer":0,
			"byteLength":3216,
			"byteOffset":938400,
			"target":34962
		},
		{
			"buffer":0,
			"byteLength":3216,
			"byteOffset":941616,
			"target":34962
		},
		{
			"buffer":0,
			"byteLength":2144,
			"byteOffset":944832,
			"target":34962
		},
		{
			"buffer":0,
			"byteLength":1440,
			"byteOffset":946976,
			"target":34963
		},
		{
			"buffer":0,
			"byteLength":21168,
			"byteOffset":948416,
			"target":34962
		},
		{
			"buffer":0,
			"byteLength":21168,
			"byteOffset":969584,
			"target":34962
		},
		{
			"buffer":0,
			"byteLength":14112,
			"byteOffset":990752,
			"target":34962
		},
		{
			"buffer":0,
			"byteLength":13824,
			"byteOffset":1004864,
			"target":34963
		},
		{
			"buffer":0,
			"byteLength":3972,
			"byteOffset":1018688,
			"target":34962
		},
		{
			"buffer":0,
			"byteLength":3972,
			"byteOffset":1022660,
			"target":34962
		},
		{
			"buffer":0,
			"byteLength":2648,
			"byteOffset":1026632,
			"target":34962
		},
		{
			"buffer":0,
			"byteLength":1968,
			"byteOffset":1029280,
			"target":34963
		}
	],
	"samplers":[
		{
			"magFilter":9729,
			"minFilter":9987
		}
	],
	"buffers":[
		{
			"byteLength":1031248,
			"uri":"ariane_64-after_s1.bin"
		}
	]
}
