{
	"asset":{
		"generator":"Khronos glTF Blender I/O v4.4.56",
		"version":"2.0"
	},
	"scene":0,
	"scenes":[
		{
			"name":"Scene",
			"nodes":[
				0
			]
		}
	],
	"nodes":[
		{
			"mesh":0,
			"name":"Sphere_Material_0",
			"rotation":[
				-0.70710688829422,
				0,
				0,
				0.7071066498756409
			],
			"scale":[
				0.003889297368004918,
				0.003889296669512987,
				0.0038892962038517
			]
		}
	],
	"materials":[
		{
			"doubleSided":true,
			"name":"Material.002",
			"pbrMetallicRoughness":{
				"baseColorTexture":{
					"index":0
				},
				"metallicFactor":0
			}
		}
	],
	"meshes":[
		{
			"name":"Sphere_Material_0.001",
			"primitives":[
				{
					"attributes":{
						"POSITION":0,
						"NORMAL":1,
						"TEXCOORD_0":2
					},
					"indices":3,
					"material":0
				}
			]
		}
	],
	"textures":[
		{
			"sampler":0,
			"source":0
		}
	],
	"images":[
		{
			"mimeType":"image/jpeg",
			"name":"material_baseColor.001",
			"uri":"textures/material_baseColor.jpg"
		}
	],
	"accessors":[
		{
			"bufferView":0,
			"componentType":5126,
			"count":8458,
			"max":[
				128.55795288085938,
				128.55796813964844,
				128.55796813964844
			],
			"min":[
				-128.5579071044922,
				-128.55792236328125,
				-128.55796813964844
			],
			"type":"VEC3"
		},
		{
			"bufferView":1,
			"componentType":5126,
			"count":8458,
			"type":"VEC3"
		},
		{
			"bufferView":2,
			"componentType":5126,
			"count":8458,
			"type":"VEC2"
		},
		{
			"bufferView":3,
			"componentType":5123,
			"count":47958,
			"type":"SCALAR"
		}
	],
	"bufferViews":[
		{
			"buffer":0,
			"byteLength":101496,
			"byteOffset":0,
			"target":34962
		},
		{
			"buffer":0,
			"byteLength":101496,
			"byteOffset":101496,
			"target":34962
		},
		{
			"buffer":0,
			"byteLength":67664,
			"byteOffset":202992,
			"target":34962
		},
		{
			"buffer":0,
			"byteLength":95916,
			"byteOffset":270656,
			"target":34963
		}
	],
	"samplers":[
		{
			"magFilter":9729,
			"minFilter":9987
		}
	],
	"buffers":[
		{
			"byteLength":366572,
			"uri":"jupiter.bin"
		}
	]
}
