{
	"asset":{
		"generator":"Khronos glTF Blender I/O v4.4.56",
		"version":"2.0"
	},
	"scene":0,
	"scenes":[
		{
			"name":"Scene",
			"nodes":[
				1
			]
		}
	],
	"nodes":[
		{
			"mesh":0,
			"name":"Layer_0"
		},
		{
			"children":[
				0
			],
			"name":"Pivot-Layer_0",
			"scale":[
				7.4626898765563965,
				7.4626898765563965,
				7.4626898765563965
			]
		}
	],
	"materials":[
		{
			"name":"Goes2-main-black-diskk",
			"pbrMetallicRoughness":{
				"baseColorFactor":[
					0.05766384303569794,
					0.05511558800935745,
					0.05882352963089943,
					1
				],
				"metallicFactor":0,
				"roughnessFactor":0.7675725817680359
			}
		},
		{
			"doubleSided":true,
			"name":"Goes2-main-black-Foil",
			"pbrMetallicRoughness":{
				"baseColorFactor":[
					0.09773403406143188,
					0.09773403406143188,
					0.09773403406143188,
					1
				],
				"metallicFactor":0,
				"roughnessFactor":0.7754783034324646
			}
		},
		{
			"doubleSided":true,
			"name":"Goes2-main-black-fl",
			"pbrMetallicRoughness":{
				"baseColorFactor":[
					0.05766384303569794,
					0.05511558800935745,
					0.05882352963089943,
					1
				],
				"metallicFactor":0
			}
		},
		{
			"doubleSided":true,
			"name":"Goes2-main-black-sm",
			"pbrMetallicRoughness":{
				"baseColorFactor":[
					0.09773403406143188,
					0.09773403406143188,
					0.09773403406143188,
					1
				],
				"metallicFactor":0,
				"roughnessFactor":0.9051316976547241
			}
		},
		{
			"name":"Goes2-main-bronze-fl",
			"pbrMetallicRoughness":{
				"baseColorFactor":[
					0.7104142904281616,
					0.5936522483825684,
					0.38577860593795776,
					1
				],
				"metallicFactor":0,
				"roughnessFactor":0.6837722659111023
			}
		},
		{
			"name":"Goes2-main-bronze-sm",
			"pbrMetallicRoughness":{
				"baseColorFactor":[
					0.7104142904281616,
					0.5936522483825684,
					0.38577860593795776,
					1
				],
				"metallicFactor":0,
				"roughnessFactor":0.6837722659111023
			}
		},
		{
			"name":"Goes2-main-brown-fl",
			"pbrMetallicRoughness":{
				"baseColorFactor":[
					0.6882352828979492,
					0.6882352828979492,
					0.6882352828979492,
					1
				],
				"metallicFactor":0,
				"roughnessFactor":0.8102633953094482
			}
		},
		{
			"name":"Goes2-main-brown-sm",
			"pbrMetallicRoughness":{
				"baseColorFactor":[
					0.6882352828979492,
					0.6882352828979492,
					0.6882352828979492,
					1
				],
				"metallicFactor":0,
				"roughnessFactor":0.8102633953094482
			}
		},
		{
			"name":"Goes2-main-gold-fl",
			"pbrMetallicRoughness":{
				"baseColorFactor":[
					0.5490196347236633,
					0.383459210395813,
					0.11035934090614319,
					1
				],
				"metallicFactor":0,
				"roughnessFactor":0.6837722659111023
			}
		},
		{
			"name":"Goes2-main-gold-sm",
			"pbrMetallicRoughness":{
				"baseColorFactor":[
					0.5490196347236633,
					0.383459210395813,
					0.11035934090614319,
					1
				],
				"metallicFactor":0,
				"roughnessFactor":0.6837722659111023
			}
		},
		{
			"name":"Goes2-main-grey-fl",
			"pbrMetallicRoughness":{
				"baseColorFactor":[
					0.3522697687149048,
					0.3365987539291382,
					0.3454032242298126,
					1
				],
				"metallicFactor":0,
				"roughnessFactor":0.8102633953094482
			}
		},
		{
			"name":"Goes2-main-grey-sm",
			"pbrMetallicRoughness":{
				"baseColorFactor":[
					0.3522697687149048,
					0.3365987539291382,
					0.3454032242298126,
					1
				],
				"metallicFactor":0,
				"roughnessFactor":0.8102633953094482
			}
		},
		{
			"name":"Goes2-main-MagBoom-sm",
			"pbrMetallicRoughness":{
				"baseColorFactor":[
					0.1266956627368927,
					0.1266956627368927,
					0.1266956627368927,
					1
				],
				"metallicFactor":0,
				"roughnessFactor":0.8102633953094482
			}
		},
		{
			"name":"Goes2-main-silver-fl",
			"pbrMetallicRoughness":{
				"baseColorFactor":[
					0.21176472306251526,
					0.20437170565128326,
					0.20991532504558563,
					1
				],
				"metallicFactor":0,
				"roughnessFactor":0.6205267310142517
			}
		},
		{
			"name":"Goes2-main-silver-sm",
			"pbrMetallicRoughness":{
				"baseColorFactor":[
					0.21176472306251526,
					0.20437170565128326,
					0.20991532504558563,
					1
				],
				"metallicFactor":0,
				"roughnessFactor":0.6205267310142517
			}
		},
		{
			"name":"Goes2-main-white-fl",
			"pbrMetallicRoughness":{
				"baseColorFactor":[
					0.8914015293121338,
					0.877683699131012,
					0.8667887449264526,
					1
				],
				"metallicFactor":0,
				"roughnessFactor":0.8102633953094482
			}
		},
		{
			"name":"Goes2-main-white-sm",
			"pbrMetallicRoughness":{
				"baseColorFactor":[
					0.8914015293121338,
					0.877683699131012,
					0.8667887449264526,
					1
				],
				"metallicFactor":0,
				"roughnessFactor":0.8102633953094482
			}
		},
		{
			"name":"Goes2-solarpanel-faces",
			"pbrMetallicRoughness":{
				"baseColorFactor":[
					0.4428626000881195,
					0.4579232335090637,
					0.6877851486206055,
					1
				],
				"metallicFactor":0,
				"roughnessFactor":0.8102633953094482
			}
		},
		{
			"name":"Parasol-Solar1",
			"pbrMetallicRoughness":{
				"baseColorFactor":[
					0.33830776810646057,
					0.38974595069885254,
					0.46605631709098816,
					1
				],
				"metallicFactor":0,
				"roughnessFactor":0.8102633953094482
			}
		},
		{
			"name":"Parasol-Solar2",
			"pbrMetallicRoughness":{
				"baseColorFactor":[
					0.3571747839450836,
					0.35679712891578674,
					0.4454718828201294,
					1
				],
				"metallicFactor":0,
				"roughnessFactor":0.6315946578979492
			}
		},
		{
			"name":"Parasol-Solar3",
			"pbrMetallicRoughness":{
				"baseColorFactor":[
					0.45715951919555664,
					0.4468238353729248,
					0.4909456670284271,
					1
				],
				"metallicFactor":0,
				"roughnessFactor":0.6900968551635742
			}
		},
		{
			"name":"Parasol-Solar4",
			"pbrMetallicRoughness":{
				"baseColorFactor":[
					0.3431451916694641,
					0.3737691342830658,
					0.39809858798980713,
					1
				],
				"metallicFactor":0,
				"roughnessFactor":0.8671843409538269
			}
		},
		{
			"name":"Parasol-Solar5",
			"pbrMetallicRoughness":{
				"baseColorFactor":[
					0.30996108055114746,
					0.3236972689628601,
					0.42127105593681335,
					1
				],
				"metallicFactor":0,
				"roughnessFactor":0.7106516361236572
			}
		},
		{
			"name":"SEA-Silver-sm",
			"pbrMetallicRoughness":{
				"baseColorFactor":[
					0.7843137383460999,
					0.7843137383460999,
					0.7843137383460999,
					1
				],
				"metallicFactor":0
			}
		}
	],
	"meshes":[
		{
			"name":"Mesh_0",
			"primitives":[
				{
					"attributes":{
						"POSITION":0,
						"NORMAL":1
					},
					"indices":2,
					"material":0
				},
				{
					"attributes":{
						"POSITION":3,
						"NORMAL":4
					},
					"indices":5,
					"material":1
				},
				{
					"attributes":{
						"POSITION":6,
						"NORMAL":7
					},
					"indices":8,
					"material":2
				},
				{
					"attributes":{
						"POSITION":9,
						"NORMAL":10
					},
					"indices":11,
					"material":3
				},
				{
					"attributes":{
						"POSITION":12,
						"NORMAL":13
					},
					"indices":14,
					"material":4
				},
				{
					"attributes":{
						"POSITION":15,
						"NORMAL":16
					},
					"indices":17,
					"material":5
				},
				{
					"attributes":{
						"POSITION":18,
						"NORMAL":19
					},
					"indices":20,
					"material":6
				},
				{
					"attributes":{
						"POSITION":21,
						"NORMAL":22
					},
					"indices":23,
					"material":7
				},
				{
					"attributes":{
						"POSITION":24,
						"NORMAL":25
					},
					"indices":26,
					"material":8
				},
				{
					"attributes":{
						"POSITION":27,
						"NORMAL":28
					},
					"indices":29,
					"material":9
				},
				{
					"attributes":{
						"POSITION":30,
						"NORMAL":31
					},
					"indices":32,
					"material":10
				},
				{
					"attributes":{
						"POSITION":33,
						"NORMAL":34
					},
					"indices":35,
					"material":11
				},
				{
					"attributes":{
						"POSITION":36,
						"NORMAL":37
					},
					"indices":38,
					"material":12
				},
				{
					"attributes":{
						"POSITION":39,
						"NORMAL":40
					},
					"indices":41,
					"material":13
				},
				{
					"attributes":{
						"POSITION":42,
						"NORMAL":43
					},
					"indices":44,
					"material":14
				},
				{
					"attributes":{
						"POSITION":45,
						"NORMAL":46
					},
					"indices":47,
					"material":15
				},
				{
					"attributes":{
						"POSITION":48,
						"NORMAL":49
					},
					"indices":50,
					"material":16
				},
				{
					"attributes":{
						"POSITION":51,
						"NORMAL":52
					},
					"indices":53,
					"material":17
				},
				{
					"attributes":{
						"POSITION":54,
						"NORMAL":55
					},
					"indices":56,
					"material":18
				},
				{
					"attributes":{
						"POSITION":57,
						"NORMAL":58
					},
					"indices":59,
					"material":19
				},
				{
					"attributes":{
						"POSITION":60,
						"NORMAL":61
					},
					"indices":62,
					"material":20
				},
				{
					"attributes":{
						"POSITION":63,
						"NORMAL":64
					},
					"indices":65,
					"material":21
				},
				{
					"attributes":{
						"POSITION":66,
						"NORMAL":67
					},
					"indices":68,
					"material":22
				},
				{
					"attributes":{
						"POSITION":69,
						"NORMAL":70
					},
					"indices":71,
					"material":23
				}
			]
		}
	],
	"accessors":[
		{
			"bufferView":0,
			"componentType":5126,
			"count":564,
			"max":[
				0.007920000702142715,
				0.007920000702142715,
				-0.010049751028418541
			],
			"min":[
				-0.007920000702142715,
				-0.007920000702142715,
				-0.010130000300705433
			],
			"type":"VEC3"
		},
		{
			"bufferView":1,
			"componentType":5126,
			"count":564,
			"type":"VEC3"
		},
		{
			"bufferView":2,
			"componentType":5123,
			"count":564,
			"type":"SCALAR"
		},
		{
			"bufferView":3,
			"componentType":5126,
			"count":2454,
			"max":[
				0.020000431686639786,
				0.020190000534057617,
				-0.009199355728924274
			],
			"min":[
				-0.019999999552965164,
				-0.020190000534057617,
				-0.013000000268220901
			],
			"type":"VEC3"
		},
		{
			"bufferView":4,
			"componentType":5126,
			"count":2454,
			"type":"VEC3"
		},
		{
			"bufferView":5,
			"componentType":5123,
			"count":2454,
			"type":"SCALAR"
		},
		{
			"bufferView":6,
			"componentType":5126,
			"count":5502,
			"max":[
				0.020500000566244125,
				0.024500001221895218,
				0.01999860629439354
			],
			"min":[
				-0.03725999593734741,
				-0.02478443831205368,
				-0.01670999825000763
			],
			"type":"VEC3"
		},
		{
			"bufferView":7,
			"componentType":5126,
			"count":5502,
			"type":"VEC3"
		},
		{
			"bufferView":8,
			"componentType":5123,
			"count":5502,
			"type":"SCALAR"
		},
		{
			"bufferView":9,
			"componentType":5126,
			"count":2928,
			"max":[
				0.019882623106241226,
				0.020099999383091927,
				0.017873937264084816
			],
			"min":[
				-0.017899997532367706,
				-0.025666555389761925,
				-0.003599999938160181
			],
			"type":"VEC3"
		},
		{
			"bufferView":10,
			"componentType":5126,
			"count":2928,
			"type":"VEC3"
		},
		{
			"bufferView":11,
			"componentType":5123,
			"count":2928,
			"type":"SCALAR"
		},
		{
			"bufferView":12,
			"componentType":5126,
			"count":1848,
			"max":[
				0.02084999904036522,
				0.023600000888109207,
				0.01999981701374054
			],
			"min":[
				-0.04015999659895897,
				-0.02070048823952675,
				-0.002984599908813834
			],
			"type":"VEC3"
		},
		{
			"bufferView":13,
			"componentType":5126,
			"count":1848,
			"type":"VEC3"
		},
		{
			"bufferView":14,
			"componentType":5123,
			"count":1848,
			"type":"SCALAR"
		},
		{
			"bufferView":15,
			"componentType":5126,
			"count":5916,
			"max":[
				0.020840002223849297,
				0.019899999722838402,
				0.019955672323703766
			],
			"min":[
				-0.02184000052511692,
				-0.020701101049780846,
				-0.003599999938160181
			],
			"type":"VEC3"
		},
		{
			"bufferView":16,
			"componentType":5126,
			"count":5916,
			"type":"VEC3"
		},
		{
			"bufferView":17,
			"componentType":5123,
			"count":5916,
			"type":"SCALAR"
		},
		{
			"bufferView":18,
			"componentType":5126,
			"count":2316,
			"max":[
				0.020599640905857086,
				0.023600000888109207,
				0.01999945566058159
			],
			"min":[
				-0.02070000022649765,
				-0.025199998170137405,
				0.006500000134110451
			],
			"type":"VEC3"
		},
		{
			"bufferView":19,
			"componentType":5126,
			"count":2316,
			"type":"VEC3"
		},
		{
			"bufferView":20,
			"componentType":5123,
			"count":2316,
			"type":"SCALAR"
		},
		{
			"bufferView":21,
			"componentType":5126,
			"count":960,
			"max":[
				0.006689675152301788,
				0.0024999999441206455,
				0.020618315786123276
			],
			"min":[
				-0.01850000023841858,
				-0.020288022235035896,
				0.009999999776482582
			],
			"type":"VEC3"
		},
		{
			"bufferView":22,
			"componentType":5126,
			"count":960,
			"type":"VEC3"
		},
		{
			"bufferView":23,
			"componentType":5123,
			"count":960,
			"type":"SCALAR"
		},
		{
			"bufferView":24,
			"componentType":5126,
			"count":720,
			"max":[
				0.006498515605926514,
				0.02449999935925007,
				0.019998595118522644
			],
			"min":[
				-0.040359996259212494,
				-0.02449999935925007,
				0.009999999776482582
			],
			"type":"VEC3"
		},
		{
			"bufferView":25,
			"componentType":5126,
			"count":720,
			"type":"VEC3"
		},
		{
			"bufferView":26,
			"componentType":5123,
			"count":720,
			"type":"SCALAR"
		},
		{
			"bufferView":27,
			"componentType":5126,
			"count":1107,
			"max":[
				0.036937031894922256,
				0.08526700735092163,
				0.019649997353553772
			],
			"min":[
				-0.0013000000035390258,
				0.0030738934874534607,
				-0.08434025943279266
			],
			"type":"VEC3"
		},
		{
			"bufferView":28,
			"componentType":5126,
			"count":1107,
			"type":"VEC3"
		},
		{
			"bufferView":29,
			"componentType":5123,
			"count":1107,
			"type":"SCALAR"
		},
		{
			"bufferView":30,
			"componentType":5126,
			"count":1551,
			"max":[
				0.01965000480413437,
				0.017000000923871994,
				0.021753083914518356
			],
			"min":[
				-0.0972599908709526,
				-0.02000044658780098,
				0.009999999776482582
			],
			"type":"VEC3"
		},
		{
			"bufferView":31,
			"componentType":5126,
			"count":1551,
			"type":"VEC3"
		},
		{
			"bufferView":32,
			"componentType":5123,
			"count":1551,
			"type":"SCALAR"
		},
		{
			"bufferView":33,
			"componentType":5126,
			"count":6006,
			"max":[
				0.019971344619989395,
				0.0022600002121180296,
				0.018091725185513496
			],
			"min":[
				-0.037519995123147964,
				-0.026048773899674416,
				-0.0142000000923872
			],
			"type":"VEC3"
		},
		{
			"bufferView":34,
			"componentType":5126,
			"count":6006,
			"type":"VEC3"
		},
		{
			"bufferView":35,
			"componentType":5123,
			"count":6006,
			"type":"SCALAR"
		},
		{
			"bufferView":36,
			"componentType":5126,
			"count":4626,
			"max":[
				0.037180665880441666,
				0.08530522137880325,
				-0.008055649697780609
			],
			"min":[
				0.015030019916594028,
				0.021506331861019135,
				-0.08430991321802139
			],
			"type":"VEC3"
		},
		{
			"bufferView":37,
			"componentType":5126,
			"count":4626,
			"type":"VEC3"
		},
		{
			"bufferView":38,
			"componentType":5123,
			"count":4626,
			"type":"SCALAR"
		},
		{
			"bufferView":39,
			"componentType":5126,
			"count":13401,
			"max":[
				0.02084999531507492,
				0.024821927770972252,
				0.022702479735016823
			],
			"min":[
				-0.0972599908709526,
				-0.025498999282717705,
				-0.028058214113116264
			],
			"type":"VEC3"
		},
		{
			"bufferView":40,
			"componentType":5126,
			"count":13401,
			"type":"VEC3"
		},
		{
			"bufferView":41,
			"componentType":5123,
			"count":13401,
			"type":"SCALAR"
		},
		{
			"bufferView":42,
			"componentType":5126,
			"count":54204,
			"max":[
				0.03717955946922302,
				0.08531363308429718,
				0.03762345016002655
			],
			"min":[
				-0.09693999588489532,
				-0.023386813700199127,
				-0.08430638909339905
			],
			"type":"VEC3"
		},
		{
			"bufferView":43,
			"componentType":5126,
			"count":54204,
			"type":"VEC3"
		},
		{
			"bufferView":44,
			"componentType":5123,
			"count":54204,
			"type":"SCALAR"
		},
		{
			"bufferView":45,
			"componentType":5126,
			"count":78,
			"max":[
				0.006092978175729513,
				0.0008785599493421614,
				0.019700000062584877
			],
			"min":[
				-0.0034182542003691196,
				-0.00695835193619132,
				0.019700000062584877
			],
			"type":"VEC3"
		},
		{
			"bufferView":46,
			"componentType":5126,
			"count":78,
			"type":"VEC3"
		},
		{
			"bufferView":47,
			"componentType":5123,
			"count":78,
			"type":"SCALAR"
		},
		{
			"bufferView":48,
			"componentType":5126,
			"count":7554,
			"max":[
				-0.005750000476837158,
				-0.01230541430413723,
				0.01970001682639122
			],
			"min":[
				-0.019973671063780785,
				-0.025594905018806458,
				0.01640000008046627
			],
			"type":"VEC3"
		},
		{
			"bufferView":49,
			"componentType":5126,
			"count":7554,
			"type":"VEC3"
		},
		{
			"bufferView":50,
			"componentType":5123,
			"count":7554,
			"type":"SCALAR"
		},
		{
			"bufferView":51,
			"componentType":5126,
			"count":18,
			"max":[
				-0.037859998643398285,
				0.017000000923871994,
				0.01185199897736311
			],
			"min":[
				-0.0972599908709526,
				-0.016998272389173508,
				0.01185199897736311
			],
			"type":"VEC3"
		},
		{
			"bufferView":52,
			"componentType":5126,
			"count":18,
			"type":"VEC3"
		},
		{
			"bufferView":53,
			"componentType":5123,
			"count":18,
			"type":"SCALAR"
		},
		{
			"bufferView":54,
			"componentType":5126,
			"count":5286,
			"max":[
				-0.03802734985947609,
				0.016907380893826485,
				0.011870034970343113
			],
			"min":[
				-0.09714654833078384,
				-0.01688326708972454,
				0.011870034970343113
			],
			"type":"VEC3"
		},
		{
			"bufferView":55,
			"componentType":5126,
			"count":5286,
			"type":"VEC3"
		},
		{
			"bufferView":56,
			"componentType":5123,
			"count":5286,
			"type":"SCALAR"
		},
		{
			"bufferView":57,
			"componentType":5126,
			"count":1386,
			"max":[
				-0.03802734985947609,
				0.016907380893826485,
				0.011870034970343113
			],
			"min":[
				-0.09714654833078384,
				-0.01688326708972454,
				0.011870034970343113
			],
			"type":"VEC3"
		},
		{
			"bufferView":58,
			"componentType":5126,
			"count":1386,
			"type":"VEC3"
		},
		{
			"bufferView":59,
			"componentType":5123,
			"count":1386,
			"type":"SCALAR"
		},
		{
			"bufferView":60,
			"componentType":5126,
			"count":1176,
			"max":[
				-0.03802734985947609,
				0.01689239777624607,
				0.011870034970343113
			],
			"min":[
				-0.09714654833078384,
				-0.016883814707398415,
				0.011870034970343113
			],
			"type":"VEC3"
		},
		{
			"bufferView":61,
			"componentType":5126,
			"count":1176,
			"type":"VEC3"
		},
		{
			"bufferView":62,
			"componentType":5123,
			"count":1176,
			"type":"SCALAR"
		},
		{
			"bufferView":63,
			"componentType":5126,
			"count":1464,
			"max":[
				-0.03802734985947609,
				0.016894321888685226,
				0.011870034970343113
			],
			"min":[
				-0.09714654833078384,
				-0.01688189059495926,
				0.011870034970343113
			],
			"type":"VEC3"
		},
		{
			"bufferView":64,
			"componentType":5126,
			"count":1464,
			"type":"VEC3"
		},
		{
			"bufferView":65,
			"componentType":5123,
			"count":1464,
			"type":"SCALAR"
		},
		{
			"bufferView":66,
			"componentType":5126,
			"count":1734,
			"max":[
				-0.03809632360935211,
				0.016894321888685226,
				0.011870034970343113
			],
			"min":[
				-0.09714654833078384,
				-0.01688213273882866,
				0.011870034970343113
			],
			"type":"VEC3"
		},
		{
			"bufferView":67,
			"componentType":5126,
			"count":1734,
			"type":"VEC3"
		},
		{
			"bufferView":68,
			"componentType":5123,
			"count":1734,
			"type":"SCALAR"
		},
		{
			"bufferView":69,
			"componentType":5126,
			"count":6,
			"max":[
				0.019999999552965164,
				0.019999999552965164,
				0.010098882019519806
			],
			"min":[
				0.019999999552965164,
				-0.019999999552965164,
				-0.009999999776482582
			],
			"type":"VEC3"
		},
		{
			"bufferView":70,
			"componentType":5126,
			"count":6,
			"type":"VEC3"
		},
		{
			"bufferView":71,
			"componentType":5123,
			"count":6,
			"type":"SCALAR"
		}
	],
	"bufferViews":[
		{
			"buffer":0,
			"byteLength":6768,
			"byteOffset":0,
			"target":34962
		},
		{
			"buffer":0,
			"byteLength":6768,
			"byteOffset":6768,
			"target":34962
		},
		{
			"buffer":0,
			"byteLength":1128,
			"byteOffset":13536,
			"target":34963
		},
		{
			"buffer":0,
			"byteLength":29448,
			"byteOffset":14664,
			"target":34962
		},
		{
			"buffer":0,
			"byteLength":29448,
			"byteOffset":44112,
			"target":34962
		},
		{
			"buffer":0,
			"byteLength":4908,
			"byteOffset":73560,
			"target":34963
		},
		{
			"buffer":0,
			"byteLength":66024,
			"byteOffset":78468,
			"target":34962
		},
		{
			"buffer":0,
			"byteLength":66024,
			"byteOffset":144492,
			"target":34962
		},
		{
			"buffer":0,
			"byteLength":11004,
			"byteOffset":210516,
			"target":34963
		},
		{
			"buffer":0,
			"byteLength":35136,
			"byteOffset":221520,
			"target":34962
		},
		{
			"buffer":0,
			"byteLength":35136,
			"byteOffset":256656,
			"target":34962
		},
		{
			"buffer":0,
			"byteLength":5856,
			"byteOffset":291792,
			"target":34963
		},
		{
			"buffer":0,
			"byteLength":22176,
			"byteOffset":297648,
			"target":34962
		},
		{
			"buffer":0,
			"byteLength":22176,
			"byteOffset":319824,
			"target":34962
		},
		{
			"buffer":0,
			"byteLength":3696,
			"byteOffset":342000,
			"target":34963
		},
		{
			"buffer":0,
			"byteLength":70992,
			"byteOffset":345696,
			"target":34962
		},
		{
			"buffer":0,
			"byteLength":70992,
			"byteOffset":416688,
			"target":34962
		},
		{
			"buffer":0,
			"byteLength":11832,
			"byteOffset":487680,
			"target":34963
		},
		{
			"buffer":0,
			"byteLength":27792,
			"byteOffset":499512,
			"target":34962
		},
		{
			"buffer":0,
			"byteLength":27792,
			"byteOffset":527304,
			"target":34962
		},
		{
			"buffer":0,
			"byteLength":4632,
			"byteOffset":555096,
			"target":34963
		},
		{
			"buffer":0,
			"byteLength":11520,
			"byteOffset":559728,
			"target":34962
		},
		{
			"buffer":0,
			"byteLength":11520,
			"byteOffset":571248,
			"target":34962
		},
		{
			"buffer":0,
			"byteLength":1920,
			"byteOffset":582768,
			"target":34963
		},
		{
			"buffer":0,
			"byteLength":8640,
			"byteOffset":584688,
			"target":34962
		},
		{
			"buffer":0,
			"byteLength":8640,
			"byteOffset":593328,
			"target":34962
		},
		{
			"buffer":0,
			"byteLength":1440,
			"byteOffset":601968,
			"target":34963
		},
		{
			"buffer":0,
			"byteLength":13284,
			"byteOffset":603408,
			"target":34962
		},
		{
			"buffer":0,
			"byteLength":13284,
			"byteOffset":616692,
			"target":34962
		},
		{
			"buffer":0,
			"byteLength":2214,
			"byteOffset":629976,
			"target":34963
		},
		{
			"buffer":0,
			"byteLength":18612,
			"byteOffset":632192,
			"target":34962
		},
		{
			"buffer":0,
			"byteLength":18612,
			"byteOffset":650804,
			"target":34962
		},
		{
			"buffer":0,
			"byteLength":3102,
			"byteOffset":669416,
			"target":34963
		},
		{
			"buffer":0,
			"byteLength":72072,
			"byteOffset":672520,
			"target":34962
		},
		{
			"buffer":0,
			"byteLength":72072,
			"byteOffset":744592,
			"target":34962
		},
		{
			"buffer":0,
			"byteLength":12012,
			"byteOffset":816664,
			"target":34963
		},
		{
			"buffer":0,
			"byteLength":55512,
			"byteOffset":828676,
			"target":34962
		},
		{
			"buffer":0,
			"byteLength":55512,
			"byteOffset":884188,
			"target":34962
		},
		{
			"buffer":0,
			"byteLength":9252,
			"byteOffset":939700,
			"target":34963
		},
		{
			"buffer":0,
			"byteLength":160812,
			"byteOffset":948952,
			"target":34962
		},
		{
			"buffer":0,
			"byteLength":160812,
			"byteOffset":1109764,
			"target":34962
		},
		{
			"buffer":0,
			"byteLength":26802,
			"byteOffset":1270576,
			"target":34963
		},
		{
			"buffer":0,
			"byteLength":650448,
			"byteOffset":1297380,
			"target":34962
		},
		{
			"buffer":0,
			"byteLength":650448,
			"byteOffset":1947828,
			"target":34962
		},
		{
			"buffer":0,
			"byteLength":108408,
			"byteOffset":2598276,
			"target":34963
		},
		{
			"buffer":0,
			"byteLength":936,
			"byteOffset":2706684,
			"target":34962
		},
		{
			"buffer":0,
			"byteLength":936,
			"byteOffset":2707620,
			"target":34962
		},
		{
			"buffer":0,
			"byteLength":156,
			"byteOffset":2708556,
			"target":34963
		},
		{
			"buffer":0,
			"byteLength":90648,
			"byteOffset":2708712,
			"target":34962
		},
		{
			"buffer":0,
			"byteLength":90648,
			"byteOffset":2799360,
			"target":34962
		},
		{
			"buffer":0,
			"byteLength":15108,
			"byteOffset":2890008,
			"target":34963
		},
		{
			"buffer":0,
			"byteLength":216,
			"byteOffset":2905116,
			"target":34962
		},
		{
			"buffer":0,
			"byteLength":216,
			"byteOffset":2905332,
			"target":34962
		},
		{
			"buffer":0,
			"byteLength":36,
			"byteOffset":2905548,
			"target":34963
		},
		{
			"buffer":0,
			"byteLength":63432,
			"byteOffset":2905584,
			"target":34962
		},
		{
			"buffer":0,
			"byteLength":63432,
			"byteOffset":2969016,
			"target":34962
		},
		{
			"buffer":0,
			"byteLength":10572,
			"byteOffset":3032448,
			"target":34963
		},
		{
			"buffer":0,
			"byteLength":16632,
			"byteOffset":3043020,
			"target":34962
		},
		{
			"buffer":0,
			"byteLength":16632,
			"byteOffset":3059652,
			"target":34962
		},
		{
			"buffer":0,
			"byteLength":2772,
			"byteOffset":3076284,
			"target":34963
		},
		{
			"buffer":0,
			"byteLength":14112,
			"byteOffset":3079056,
			"target":34962
		},
		{
			"buffer":0,
			"byteLength":14112,
			"byteOffset":3093168,
			"target":34962
		},
		{
			"buffer":0,
			"byteLength":2352,
			"byteOffset":3107280,
			"target":34963
		},
		{
			"buffer":0,
			"byteLength":17568,
			"byteOffset":3109632,
			"target":34962
		},
		{
			"buffer":0,
			"byteLength":17568,
			"byteOffset":3127200,
			"target":34962
		},
		{
			"buffer":0,
			"byteLength":2928,
			"byteOffset":3144768,
			"target":34963
		},
		{
			"buffer":0,
			"byteLength":20808,
			"byteOffset":3147696,
			"target":34962
		},
		{
			"buffer":0,
			"byteLength":20808,
			"byteOffset":3168504,
			"target":34962
		},
		{
			"buffer":0,
			"byteLength":3468,
			"byteOffset":3189312,
			"target":34963
		},
		{
			"buffer":0,
			"byteLength":72,
			"byteOffset":3192780,
			"target":34962
		},
		{
			"buffer":0,
			"byteLength":72,
			"byteOffset":3192852,
			"target":34962
		},
		{
			"buffer":0,
			"byteLength":12,
			"byteOffset":3192924,
			"target":34963
		}
	],
	"buffers":[
		{
			"byteLength":3192936,
			"uri":"goes.bin"
		}
	]
}
