{
	"asset":{
		"generator":"Khronos glTF Blender I/O v4.4.56",
		"version":"2.0"
	},
	"scene":0,
	"scenes":[
		{
			"name":"Scene",
			"nodes":[
				1
			]
		}
	],
	"nodes":[
		{
			"mesh":0,
			"name":"Layer_0",
			"scale":[
				1.0864426258194726e-05,
				1.0864426258194726e-05,
				1.0864426258194726e-05
			]
		},
		{
			"children":[
				0
			],
			"name":"Pivot-Layer_0"
		}
	],
	"materials":[
		{
			"name":"Default.001",
			"pbrMetallicRoughness":{
				"baseColorFactor":[
					0.12882384657859802,
					0.12882792949676514,
					0.12882572412490845,
					1
				],
				"metallicFactor":0
			}
		},
		{
			"name":"LDCM-black-fl",
			"pbrMetallicRoughness":{
				"baseColorFactor":[
					0.16470588743686676,
					0.16470588743686676,
					0.16470588743686676,
					1
				],
				"metallicFactor":0
			}
		},
		{
			"doubleSided":true,
			"name":"LDCM-black-sm",
			"pbrMetallicRoughness":{
				"baseColorFactor":[
					0.16470588743686676,
					0.16470588743686676,
					0.16470588743686676,
					1
				],
				"metallicFactor":0
			}
		},
		{
			"name":"LDCM-bronze-fl",
			"pbrMetallicRoughness":{
				"baseColorFactor":[
					0.6651560068130493,
					0.583031952381134,
					0.40328067541122437,
					1
				],
				"metallicFactor":0,
				"roughnessFactor":0.8102633953094482
			}
		},
		{
			"doubleSided":true,
			"name":"LDCM-bronze-sm",
			"pbrMetallicRoughness":{
				"baseColorFactor":[
					0.6651560068130493,
					0.583031952381134,
					0.40328067541122437,
					1
				],
				"metallicFactor":0,
				"roughnessFactor":0.8102633953094482
			}
		},
		{
			"name":"LDCM-darkbronze-fl",
			"pbrMetallicRoughness":{
				"baseColorFactor":[
					0.48416876792907715,
					0.42438390851020813,
					0.29353779554367065,
					1
				],
				"metallicFactor":0,
				"roughnessFactor":0.8102633953094482
			}
		},
		{
			"name":"LDCM-darkbronze-sm",
			"pbrMetallicRoughness":{
				"baseColorFactor":[
					0.48416876792907715,
					0.42438390851020813,
					0.29353779554367065,
					1
				],
				"metallicFactor":0,
				"roughnessFactor":0.8102633953094482
			}
		},
		{
			"name":"LDCM-gold-cyl",
			"pbrMetallicRoughness":{
				"baseColorFactor":[
					0.7843137383460999,
					0.5490196347236633,
					0.1568627506494522,
					1
				],
				"metallicFactor":0,
				"roughnessFactor":0.8102633953094482
			}
		},
		{
			"name":"LDCM-gold-fl",
			"pbrMetallicRoughness":{
				"baseColorFactor":[
					0.7843137383460999,
					0.5490196347236633,
					0.1568627506494522,
					1
				],
				"metallicFactor":0,
				"roughnessFactor":0.8102633953094482
			}
		},
		{
			"name":"LDCM-gold-sm",
			"pbrMetallicRoughness":{
				"baseColorFactor":[
					0.7843137383460999,
					0.5490196347236633,
					0.1568627506494522,
					1
				],
				"metallicFactor":0,
				"roughnessFactor":0.8102633953094482
			}
		},
		{
			"name":"LDCM-grey-fl",
			"pbrMetallicRoughness":{
				"baseColorFactor":[
					0.49773404002189636,
					0.49773404002189636,
					0.49773404002189636,
					1
				],
				"metallicFactor":0,
				"roughnessFactor":0.8102633953094482
			}
		},
		{
			"name":"LDCM-grey-sm",
			"pbrMetallicRoughness":{
				"baseColorFactor":[
					0.49773404002189636,
					0.49773404002189636,
					0.49773404002189636,
					1
				],
				"metallicFactor":0,
				"roughnessFactor":0.8102633953094482
			}
		},
		{
			"name":"LDCM-mainpanels-fl",
			"pbrMetallicRoughness":{
				"baseColorFactor":[
					0.7843137383460999,
					0.5490196347236633,
					0.1568627506494522,
					1
				],
				"metallicFactor":0,
				"roughnessFactor":0.8102633953094482
			}
		},
		{
			"name":"LDCM-mainpanels-sm",
			"pbrMetallicRoughness":{
				"baseColorFactor":[
					0.7843137383460999,
					0.5490196347236633,
					0.1568627506494522,
					1
				],
				"metallicFactor":0,
				"roughnessFactor":0.8102633953094482
			}
		},
		{
			"name":"LDCM-mainsections",
			"pbrMetallicRoughness":{
				"baseColorFactor":[
					0.6651560068130493,
					0.583031952381134,
					0.40328067541122437,
					1
				],
				"metallicFactor":0,
				"roughnessFactor":0.8102633953094482
			}
		},
		{
			"name":"LDCM-silver-fl",
			"pbrMetallicRoughness":{
				"baseColorFactor":[
					0.6380102038383484,
					0.6380102038383484,
					0.6380102038383484,
					1
				],
				"metallicFactor":0,
				"roughnessFactor":0.8102633953094482
			}
		},
		{
			"name":"LDCM-silver-sm",
			"pbrMetallicRoughness":{
				"baseColorFactor":[
					0.6380102038383484,
					0.6380102038383484,
					0.6380102038383484,
					1
				],
				"metallicFactor":0,
				"roughnessFactor":0.8102633953094482
			}
		},
		{
			"name":"LDCM-solarpanel-back",
			"pbrMetallicRoughness":{
				"baseColorFactor":[
					0.16470588743686676,
					0.16470588743686676,
					0.16470588743686676,
					1
				],
				"metallicFactor":0
			}
		},
		{
			"name":"LDCM-solarpanel-face",
			"pbrMetallicRoughness":{
				"baseColorFactor":[
					0.1754482388496399,
					0.16934461891651154,
					0.27602043747901917,
					1
				],
				"metallicFactor":0,
				"roughnessFactor":0.8102633953094482
			}
		},
		{
			"name":"LDCM-solarpanel-red",
			"pbrMetallicRoughness":{
				"baseColorFactor":[
					0.3981841802597046,
					0.21069657802581787,
					0.20131227374076843,
					1
				],
				"metallicFactor":0
			}
		},
		{
			"doubleSided":true,
			"name":"LDCM-thruster-in",
			"pbrMetallicRoughness":{
				"baseColorFactor":[
					0.16470588743686676,
					0.16470588743686676,
					0.16470588743686676,
					1
				],
				"metallicFactor":0
			}
		},
		{
			"doubleSided":true,
			"name":"LDCM-thruster-out",
			"pbrMetallicRoughness":{
				"baseColorFactor":[
					0.09882353991270065,
					0.09882353991270065,
					0.09882353991270065,
					1
				],
				"metallicFactor":0
			}
		},
		{
			"name":"LDCM-white-fl",
			"pbrMetallicRoughness":{
				"baseColorFactor":[
					0.46237683296203613,
					0.46237683296203613,
					0.46237683296203613,
					1
				],
				"metallicFactor":0,
				"roughnessFactor":0.8102633953094482
			}
		},
		{
			"name":"LDCM-white-sm",
			"pbrMetallicRoughness":{
				"baseColorFactor":[
					0.13395963609218597,
					0.13395963609218597,
					0.13395963609218597,
					1
				],
				"metallicFactor":0,
				"roughnessFactor":0.8845768570899963
			}
		},
		{
			"name":"LRO-solarpanel-1.001",
			"pbrMetallicRoughness":{
				"baseColorFactor":[
					0.19280697405338287,
					0.20414426922798157,
					0.31113457679748535,
					1
				],
				"metallicFactor":0,
				"roughnessFactor":0.8102633953094482
			}
		},
		{
			"name":"LRO-solarpanel-2.001",
			"pbrMetallicRoughness":{
				"baseColorFactor":[
					0.1684727966785431,
					0.178392693400383,
					0.2718801200389862,
					1
				],
				"metallicFactor":0,
				"roughnessFactor":0.8102633953094482
			}
		},
		{
			"name":"LRO-solarpanel-3.001",
			"pbrMetallicRoughness":{
				"baseColorFactor":[
					0.15929457545280457,
					0.1816176027059555,
					0.26635971665382385,
					1
				],
				"metallicFactor":0,
				"roughnessFactor":0.8102633953094482
			}
		},
		{
			"name":"LRO-solarpanel-4.001",
			"pbrMetallicRoughness":{
				"baseColorFactor":[
					0.19445030391216278,
					0.20590218901634216,
					0.31379643082618713,
					1
				],
				"metallicFactor":0,
				"roughnessFactor":0.8102633953094482
			}
		},
		{
			"name":"LRO-solarpanel-5.001",
			"pbrMetallicRoughness":{
				"baseColorFactor":[
					0.17565758526325226,
					0.18598704040050507,
					0.28346043825149536,
					1
				],
				"metallicFactor":0,
				"roughnessFactor":0.8102633953094482
			}
		},
		{
			"name":"LRO-solarpanel-6.001",
			"pbrMetallicRoughness":{
				"baseColorFactor":[
					0.17209568619728088,
					0.16885648667812347,
					0.24841199815273285,
					1
				],
				"metallicFactor":0,
				"roughnessFactor":0.8102633953094482
			}
		},
		{
			"name":"LRO-solarpanel-7.001",
			"pbrMetallicRoughness":{
				"baseColorFactor":[
					0.19346913695335388,
					0.2048676311969757,
					0.31221485137939453,
					1
				],
				"metallicFactor":0,
				"roughnessFactor":0.8102633953094482
			}
		},
		{
			"name":"LRO-solarpanel-bronze.001",
			"pbrMetallicRoughness":{
				"baseColorFactor":[
					0.7692378163337708,
					0.6973068118095398,
					0.3788204789161682,
					1
				],
				"metallicFactor":0,
				"roughnessFactor":0.8102633953094482
			}
		},
		{
			"name":"LRO-solarpanel-gold.001",
			"pbrMetallicRoughness":{
				"baseColorFactor":[
					0.7692378163337708,
					0.5978332161903381,
					0.26340124011039734,
					1
				],
				"metallicFactor":0,
				"roughnessFactor":0.8102633953094482
			}
		}
	],
	"meshes":[
		{
			"name":"Mesh_0.002",
			"primitives":[
				{
					"attributes":{
						"POSITION":0,
						"NORMAL":1,
						"TEXCOORD_0":2
					},
					"indices":3,
					"material":0
				},
				{
					"attributes":{
						"POSITION":4,
						"NORMAL":5,
						"TEXCOORD_0":6
					},
					"indices":7,
					"material":1
				},
				{
					"attributes":{
						"POSITION":8,
						"NORMAL":9,
						"TEXCOORD_0":10
					},
					"indices":11,
					"material":2
				},
				{
					"attributes":{
						"POSITION":12,
						"NORMAL":13,
						"TEXCOORD_0":14
					},
					"indices":15,
					"material":3
				},
				{
					"attributes":{
						"POSITION":16,
						"NORMAL":17,
						"TEXCOORD_0":18
					},
					"indices":19,
					"material":4
				},
				{
					"attributes":{
						"POSITION":20,
						"NORMAL":21,
						"TEXCOORD_0":22
					},
					"indices":23,
					"material":5
				},
				{
					"attributes":{
						"POSITION":24,
						"NORMAL":25,
						"TEXCOORD_0":26
					},
					"indices":27,
					"material":6
				},
				{
					"attributes":{
						"POSITION":28,
						"NORMAL":29,
						"TEXCOORD_0":30
					},
					"indices":31,
					"material":7
				},
				{
					"attributes":{
						"POSITION":32,
						"NORMAL":33,
						"TEXCOORD_0":34
					},
					"indices":35,
					"material":8
				},
				{
					"attributes":{
						"POSITION":36,
						"NORMAL":37,
						"TEXCOORD_0":38
					},
					"indices":39,
					"material":9
				},
				{
					"attributes":{
						"POSITION":40,
						"NORMAL":41,
						"TEXCOORD_0":42
					},
					"indices":43,
					"material":10
				},
				{
					"attributes":{
						"POSITION":44,
						"NORMAL":45,
						"TEXCOORD_0":46
					},
					"indices":47,
					"material":11
				},
				{
					"attributes":{
						"POSITION":48,
						"NORMAL":49,
						"TEXCOORD_0":50
					},
					"indices":51,
					"material":12
				},
				{
					"attributes":{
						"POSITION":52,
						"NORMAL":53,
						"TEXCOORD_0":54
					},
					"indices":55,
					"material":13
				},
				{
					"attributes":{
						"POSITION":56,
						"NORMAL":57,
						"TEXCOORD_0":58
					},
					"indices":59,
					"material":14
				},
				{
					"attributes":{
						"POSITION":60,
						"NORMAL":61,
						"TEXCOORD_0":62
					},
					"indices":63,
					"material":15
				},
				{
					"attributes":{
						"POSITION":64,
						"NORMAL":65,
						"TEXCOORD_0":66
					},
					"indices":67,
					"material":16
				},
				{
					"attributes":{
						"POSITION":68,
						"NORMAL":69,
						"TEXCOORD_0":70
					},
					"indices":71,
					"material":17
				},
				{
					"attributes":{
						"POSITION":72,
						"NORMAL":73,
						"TEXCOORD_0":74
					},
					"indices":75,
					"material":18
				},
				{
					"attributes":{
						"POSITION":76,
						"NORMAL":77,
						"TEXCOORD_0":78
					},
					"indices":79,
					"material":19
				},
				{
					"attributes":{
						"POSITION":80,
						"NORMAL":81,
						"TEXCOORD_0":82
					},
					"indices":83,
					"material":20
				},
				{
					"attributes":{
						"POSITION":84,
						"NORMAL":85,
						"TEXCOORD_0":86
					},
					"indices":87,
					"material":21
				},
				{
					"attributes":{
						"POSITION":88,
						"NORMAL":89,
						"TEXCOORD_0":90
					},
					"indices":91,
					"material":22
				},
				{
					"attributes":{
						"POSITION":92,
						"NORMAL":93,
						"TEXCOORD_0":94
					},
					"indices":95,
					"material":23
				},
				{
					"attributes":{
						"POSITION":96,
						"NORMAL":97,
						"TEXCOORD_0":98
					},
					"indices":99,
					"material":24
				},
				{
					"attributes":{
						"POSITION":100,
						"NORMAL":101,
						"TEXCOORD_0":102
					},
					"indices":103,
					"material":25
				},
				{
					"attributes":{
						"POSITION":104,
						"NORMAL":105,
						"TEXCOORD_0":106
					},
					"indices":107,
					"material":26
				},
				{
					"attributes":{
						"POSITION":108,
						"NORMAL":109,
						"TEXCOORD_0":110
					},
					"indices":111,
					"material":27
				},
				{
					"attributes":{
						"POSITION":112,
						"NORMAL":113,
						"TEXCOORD_0":114
					},
					"indices":115,
					"material":28
				},
				{
					"attributes":{
						"POSITION":116,
						"NORMAL":117,
						"TEXCOORD_0":118
					},
					"indices":119,
					"material":29
				},
				{
					"attributes":{
						"POSITION":120,
						"NORMAL":121,
						"TEXCOORD_0":122
					},
					"indices":123,
					"material":30
				},
				{
					"attributes":{
						"POSITION":124,
						"NORMAL":125,
						"TEXCOORD_0":126
					},
					"indices":127,
					"material":31
				},
				{
					"attributes":{
						"POSITION":128,
						"NORMAL":129,
						"TEXCOORD_0":130
					},
					"indices":131,
					"material":32
				}
			]
		}
	],
	"accessors":[
		{
			"bufferView":0,
			"componentType":5126,
			"count":19896,
			"max":[
				-0.04667520523071289,
				8800,
				0.26806640625
			],
			"min":[
				-0.04667520523071289,
				0,
				-3800.0126953125
			],
			"type":"VEC3"
		},
		{
			"bufferView":1,
			"componentType":5126,
			"count":19896,
			"type":"VEC3"
		},
		{
			"bufferView":2,
			"componentType":5126,
			"count":19896,
			"type":"VEC2"
		},
		{
			"bufferView":3,
			"componentType":5123,
			"count":19896,
			"type":"SCALAR"
		},
		{
			"bufferView":4,
			"componentType":5126,
			"count":2322,
			"max":[
				41862.0625,
				24816.02734375,
				24543.4453125
			],
			"min":[
				-45625,
				-23362.46875,
				-21739.3125
			],
			"type":"VEC3"
		},
		{
			"bufferView":5,
			"componentType":5126,
			"count":2322,
			"type":"VEC3"
		},
		{
			"bufferView":6,
			"componentType":5126,
			"count":2322,
			"type":"VEC2"
		},
		{
			"bufferView":7,
			"componentType":5123,
			"count":2322,
			"type":"SCALAR"
		},
		{
			"bufferView":8,
			"componentType":5126,
			"count":35964,
			"max":[
				45225,
				46601.08984375,
				23216.953125
			],
			"min":[
				-44955,
				-21032.53515625,
				-32367.3515625
			],
			"type":"VEC3"
		},
		{
			"bufferView":9,
			"componentType":5126,
			"count":35964,
			"type":"VEC3"
		},
		{
			"bufferView":10,
			"componentType":5126,
			"count":35964,
			"type":"VEC2"
		},
		{
			"bufferView":11,
			"componentType":5123,
			"count":35964,
			"type":"SCALAR"
		},
		{
			"bufferView":12,
			"componentType":5126,
			"count":3198,
			"max":[
				42147,
				22748.70703125,
				23593.0078125
			],
			"min":[
				-39575,
				-18698.40625,
				-17579.75390625
			],
			"type":"VEC3"
		},
		{
			"bufferView":13,
			"componentType":5126,
			"count":3198,
			"type":"VEC3"
		},
		{
			"bufferView":14,
			"componentType":5126,
			"count":3198,
			"type":"VEC2"
		},
		{
			"bufferView":15,
			"componentType":5123,
			"count":3198,
			"type":"SCALAR"
		},
		{
			"bufferView":16,
			"componentType":5126,
			"count":35232,
			"max":[
				44027.1875,
				22860.0390625,
				24751.40625
			],
			"min":[
				-45975,
				-128030.8671875,
				-111025.53125
			],
			"type":"VEC3"
		},
		{
			"bufferView":17,
			"componentType":5126,
			"count":35232,
			"type":"VEC3"
		},
		{
			"bufferView":18,
			"componentType":5126,
			"count":35232,
			"type":"VEC2"
		},
		{
			"bufferView":19,
			"componentType":5123,
			"count":35232,
			"type":"SCALAR"
		},
		{
			"bufferView":20,
			"componentType":5126,
			"count":2064,
			"max":[
				38475,
				22601.08984375,
				20194.7109375
			],
			"min":[
				12575,
				7000.69921875,
				4520.017578125
			],
			"type":"VEC3"
		},
		{
			"bufferView":21,
			"componentType":5126,
			"count":2064,
			"type":"VEC3"
		},
		{
			"bufferView":22,
			"componentType":5126,
			"count":2064,
			"type":"VEC2"
		},
		{
			"bufferView":23,
			"componentType":5123,
			"count":2064,
			"type":"SCALAR"
		},
		{
			"bufferView":24,
			"componentType":5126,
			"count":17472,
			"max":[
				29350.853515625,
				18051.08984375,
				18267.3515625
			],
			"min":[
				9925,
				-17148.61328125,
				-29482.6484375
			],
			"type":"VEC3"
		},
		{
			"bufferView":25,
			"componentType":5126,
			"count":17472,
			"type":"VEC3"
		},
		{
			"bufferView":26,
			"componentType":5126,
			"count":17472,
			"type":"VEC2"
		},
		{
			"bufferView":27,
			"componentType":5123,
			"count":17472,
			"type":"SCALAR"
		},
		{
			"bufferView":28,
			"componentType":5126,
			"count":1224,
			"max":[
				4475,
				18530.0390625,
				18758.0234375
			],
			"min":[
				-40275,
				-20003.08984375,
				-18078.84765625
			],
			"type":"VEC3"
		},
		{
			"bufferView":29,
			"componentType":5126,
			"count":1224,
			"type":"VEC3"
		},
		{
			"bufferView":30,
			"componentType":5126,
			"count":1224,
			"type":"VEC2"
		},
		{
			"bufferView":31,
			"componentType":5123,
			"count":1224,
			"type":"SCALAR"
		},
		{
			"bufferView":32,
			"componentType":5126,
			"count":132,
			"max":[
				43375,
				16863.58984375,
				22765.154296875
			],
			"min":[
				-31575,
				-15448.677734375,
				-20499.337890625
			],
			"type":"VEC3"
		},
		{
			"bufferView":33,
			"componentType":5126,
			"count":132,
			"type":"VEC3"
		},
		{
			"bufferView":34,
			"componentType":5126,
			"count":132,
			"type":"VEC2"
		},
		{
			"bufferView":35,
			"componentType":5123,
			"count":132,
			"type":"SCALAR"
		},
		{
			"bufferView":36,
			"componentType":5126,
			"count":27996,
			"max":[
				9183.53515625,
				22989.76171875,
				23688.64453125
			],
			"min":[
				-37833.23828125,
				-18382.015625,
				-19069.26953125
			],
			"type":"VEC3"
		},
		{
			"bufferView":37,
			"componentType":5126,
			"count":27996,
			"type":"VEC3"
		},
		{
			"bufferView":38,
			"componentType":5126,
			"count":27996,
			"type":"VEC2"
		},
		{
			"bufferView":39,
			"componentType":5123,
			"count":27996,
			"type":"SCALAR"
		},
		{
			"bufferView":40,
			"componentType":5126,
			"count":17688,
			"max":[
				45978.515625,
				25201.08984375,
				24751.3125
			],
			"min":[
				-38325,
				-180204.109375,
				-160919.53125
			],
			"type":"VEC3"
		},
		{
			"bufferView":41,
			"componentType":5126,
			"count":17688,
			"type":"VEC3"
		},
		{
			"bufferView":42,
			"componentType":5126,
			"count":17688,
			"type":"VEC2"
		},
		{
			"bufferView":43,
			"componentType":5123,
			"count":17688,
			"type":"SCALAR"
		},
		{
			"bufferView":44,
			"componentType":5126,
			"count":3564,
			"max":[
				29350,
				17965.51171875,
				17717.12890625
			],
			"min":[
				-37845.078125,
				-25243.921875,
				-24380.79296875
			],
			"type":"VEC3"
		},
		{
			"bufferView":45,
			"componentType":5126,
			"count":3564,
			"type":"VEC3"
		},
		{
			"bufferView":46,
			"componentType":5126,
			"count":3564,
			"type":"VEC2"
		},
		{
			"bufferView":47,
			"componentType":5123,
			"count":3564,
			"type":"SCALAR"
		},
		{
			"bufferView":48,
			"componentType":5126,
			"count":468,
			"max":[
				4269,
				18819.3125,
				19089.748046875
			],
			"min":[
				-39219,
				-20291.48828125,
				-18409.794921875
			],
			"type":"VEC3"
		},
		{
			"bufferView":49,
			"componentType":5126,
			"count":468,
			"type":"VEC3"
		},
		{
			"bufferView":50,
			"componentType":5126,
			"count":468,
			"type":"VEC2"
		},
		{
			"bufferView":51,
			"componentType":5123,
			"count":468,
			"type":"SCALAR"
		},
		{
			"bufferView":52,
			"componentType":5126,
			"count":3972,
			"max":[
				4375,
				18819.3125,
				19091.169921875
			],
			"min":[
				-39325,
				-20292.76171875,
				-18409.794921875
			],
			"type":"VEC3"
		},
		{
			"bufferView":53,
			"componentType":5126,
			"count":3972,
			"type":"VEC3"
		},
		{
			"bufferView":54,
			"componentType":5126,
			"count":3972,
			"type":"VEC2"
		},
		{
			"bufferView":55,
			"componentType":5123,
			"count":3972,
			"type":"SCALAR"
		},
		{
			"bufferView":56,
			"componentType":5126,
			"count":48,
			"max":[
				4475,
				18530.0390625,
				18758.36328125
			],
			"min":[
				-39525,
				-20001.85546875,
				-18078.84765625
			],
			"type":"VEC3"
		},
		{
			"bufferView":57,
			"componentType":5126,
			"count":48,
			"type":"VEC3"
		},
		{
			"bufferView":58,
			"componentType":5126,
			"count":48,
			"type":"VEC2"
		},
		{
			"bufferView":59,
			"componentType":5123,
			"count":48,
			"type":"SCALAR"
		},
		{
			"bufferView":60,
			"componentType":5126,
			"count":8556,
			"max":[
				29800,
				22748.70703125,
				24541.46875
			],
			"min":[
				-45975,
				-25307.33984375,
				-24957.6484375
			],
			"type":"VEC3"
		},
		{
			"bufferView":61,
			"componentType":5126,
			"count":8556,
			"type":"VEC3"
		},
		{
			"bufferView":62,
			"componentType":5126,
			"count":8556,
			"type":"VEC2"
		},
		{
			"bufferView":63,
			"componentType":5123,
			"count":8556,
			"type":"SCALAR"
		},
		{
			"bufferView":64,
			"componentType":5126,
			"count":18024,
			"max":[
				23425,
				22628.548828125,
				19323.322265625
			],
			"min":[
				-42237.140625,
				-20545.021484375,
				-26655.806640625
			],
			"type":"VEC3"
		},
		{
			"bufferView":65,
			"componentType":5126,
			"count":18024,
			"type":"VEC3"
		},
		{
			"bufferView":66,
			"componentType":5126,
			"count":18024,
			"type":"VEC2"
		},
		{
			"bufferView":67,
			"componentType":5123,
			"count":18024,
			"type":"SCALAR"
		},
		{
			"bufferView":68,
			"componentType":5126,
			"count":300,
			"max":[
				-33350.12109375,
				-9649.05859375,
				-3397.359375
			],
			"min":[
				-34002.31640625,
				-179250.40625,
				-160141.1875
			],
			"type":"VEC3"
		},
		{
			"bufferView":69,
			"componentType":5126,
			"count":300,
			"type":"VEC3"
		},
		{
			"bufferView":70,
			"componentType":5126,
			"count":300,
			"type":"VEC2"
		},
		{
			"bufferView":71,
			"componentType":5123,
			"count":300,
			"type":"SCALAR"
		},
		{
			"bufferView":72,
			"componentType":5126,
			"count":24,
			"max":[
				-34000,
				-9649.05859375,
				-3397.359375
			],
			"min":[
				-34000,
				-179250.40625,
				-160141.1875
			],
			"type":"VEC3"
		},
		{
			"bufferView":73,
			"componentType":5126,
			"count":24,
			"type":"VEC3"
		},
		{
			"bufferView":74,
			"componentType":5126,
			"count":24,
			"type":"VEC2"
		},
		{
			"bufferView":75,
			"componentType":5123,
			"count":24,
			"type":"SCALAR"
		},
		{
			"bufferView":76,
			"componentType":5126,
			"count":2574,
			"max":[
				-33150.09375,
				-10554.28125,
				-4122.796875
			],
			"min":[
				-33650,
				-174353.328125,
				-154654.359375
			],
			"type":"VEC3"
		},
		{
			"bufferView":77,
			"componentType":5126,
			"count":2574,
			"type":"VEC3"
		},
		{
			"bufferView":78,
			"componentType":5126,
			"count":2574,
			"type":"VEC2"
		},
		{
			"bufferView":79,
			"componentType":5123,
			"count":2574,
			"type":"SCALAR"
		},
		{
			"bufferView":80,
			"componentType":5126,
			"count":21894,
			"max":[
				-39550.953125,
				17413.46875,
				18404.2578125
			],
			"min":[
				-45575,
				-18870.3359375,
				-17740.01953125
			],
			"type":"VEC3"
		},
		{
			"bufferView":81,
			"componentType":5126,
			"count":21894,
			"type":"VEC3"
		},
		{
			"bufferView":82,
			"componentType":5126,
			"count":21894,
			"type":"VEC2"
		},
		{
			"bufferView":83,
			"componentType":5123,
			"count":21894,
			"type":"SCALAR"
		},
		{
			"bufferView":84,
			"componentType":5126,
			"count":8346,
			"max":[
				-39474.6796875,
				17413.46875,
				18404.2578125
			],
			"min":[
				-45450,
				-18870.3359375,
				-17740.01953125
			],
			"type":"VEC3"
		},
		{
			"bufferView":85,
			"componentType":5126,
			"count":8346,
			"type":"VEC3"
		},
		{
			"bufferView":86,
			"componentType":5126,
			"count":8346,
			"type":"VEC2"
		},
		{
			"bufferView":87,
			"componentType":5123,
			"count":8346,
			"type":"SCALAR"
		},
		{
			"bufferView":88,
			"componentType":5126,
			"count":378,
			"max":[
				45975,
				25201.08984375,
				24544.044921875
			],
			"min":[
				-38175,
				-25803.578125,
				-26655.806640625
			],
			"type":"VEC3"
		},
		{
			"bufferView":89,
			"componentType":5126,
			"count":378,
			"type":"VEC3"
		},
		{
			"bufferView":90,
			"componentType":5126,
			"count":378,
			"type":"VEC2"
		},
		{
			"bufferView":91,
			"componentType":5123,
			"count":378,
			"type":"SCALAR"
		},
		{
			"bufferView":92,
			"componentType":5126,
			"count":10272,
			"max":[
				710.40625,
				16447.6015625,
				24767.349609375
			],
			"min":[
				-37968.26953125,
				-25400.125,
				-24538.033203125
			],
			"type":"VEC3"
		},
		{
			"bufferView":93,
			"componentType":5126,
			"count":10272,
			"type":"VEC3"
		},
		{
			"bufferView":94,
			"componentType":5126,
			"count":10272,
			"type":"VEC2"
		},
		{
			"bufferView":95,
			"componentType":5123,
			"count":10272,
			"type":"SCALAR"
		},
		{
			"bufferView":96,
			"componentType":5126,
			"count":1683,
			"max":[
				-34042.54296875,
				-12639.75390625,
				-7760.6875
			],
			"min":[
				-34042.54296875,
				-175576,
				-157857.375
			],
			"type":"VEC3"
		},
		{
			"bufferView":97,
			"componentType":5126,
			"count":1683,
			"type":"VEC3"
		},
		{
			"bufferView":98,
			"componentType":5126,
			"count":1683,
			"type":"VEC2"
		},
		{
			"bufferView":99,
			"componentType":5123,
			"count":1683,
			"type":"SCALAR"
		},
		{
			"bufferView":100,
			"componentType":5126,
			"count":1152,
			"max":[
				-34042.54296875,
				-11032.78125,
				-10732.359375
			],
			"min":[
				-34042.54296875,
				-178515.515625,
				-151931.859375
			],
			"type":"VEC3"
		},
		{
			"bufferView":101,
			"componentType":5126,
			"count":1152,
			"type":"VEC3"
		},
		{
			"bufferView":102,
			"componentType":5126,
			"count":1152,
			"type":"VEC2"
		},
		{
			"bufferView":103,
			"componentType":5123,
			"count":1152,
			"type":"SCALAR"
		},
		{
			"bufferView":104,
			"componentType":5126,
			"count":1455,
			"max":[
				-34042.54296875,
				-12412.32421875,
				-4690.40625
			],
			"min":[
				-34042.54296875,
				-176961.953125,
				-154254.5
			],
			"type":"VEC3"
		},
		{
			"bufferView":105,
			"componentType":5126,
			"count":1455,
			"type":"VEC3"
		},
		{
			"bufferView":106,
			"componentType":5126,
			"count":1455,
			"type":"VEC2"
		},
		{
			"bufferView":107,
			"componentType":5123,
			"count":1455,
			"type":"SCALAR"
		},
		{
			"bufferView":108,
			"componentType":5126,
			"count":1212,
			"max":[
				-34042.54296875,
				-14428.171875,
				-4674.328125
			],
			"min":[
				-34042.54296875,
				-176727.09375,
				-152024.28125
			],
			"type":"VEC3"
		},
		{
			"bufferView":109,
			"componentType":5126,
			"count":1212,
			"type":"VEC3"
		},
		{
			"bufferView":110,
			"componentType":5126,
			"count":1212,
			"type":"VEC2"
		},
		{
			"bufferView":111,
			"componentType":5123,
			"count":1212,
			"type":"SCALAR"
		},
		{
			"bufferView":112,
			"componentType":5126,
			"count":1206,
			"max":[
				-34042.54296875,
				-20692.1328125,
				-9677.109375
			],
			"min":[
				-34042.54296875,
				-177052.21875,
				-159423.1875
			],
			"type":"VEC3"
		},
		{
			"bufferView":113,
			"componentType":5126,
			"count":1206,
			"type":"VEC3"
		},
		{
			"bufferView":114,
			"componentType":5126,
			"count":1206,
			"type":"VEC2"
		},
		{
			"bufferView":115,
			"componentType":5123,
			"count":1206,
			"type":"SCALAR"
		},
		{
			"bufferView":116,
			"componentType":5126,
			"count":1701,
			"max":[
				-34042.54296875,
				-11019.921875,
				-7861.671875
			],
			"min":[
				-34042.54296875,
				-174022.4375,
				-151920.359375
			],
			"type":"VEC3"
		},
		{
			"bufferView":117,
			"componentType":5126,
			"count":1701,
			"type":"VEC3"
		},
		{
			"bufferView":118,
			"componentType":5126,
			"count":1701,
			"type":"VEC2"
		},
		{
			"bufferView":119,
			"componentType":5123,
			"count":1701,
			"type":"SCALAR"
		},
		{
			"bufferView":120,
			"componentType":5126,
			"count":1611,
			"max":[
				-34042.54296875,
				-15820.576171875,
				-8072.03125
			],
			"min":[
				-34042.54296875,
				-174009.578125,
				-154770.765625
			],
			"type":"VEC3"
		},
		{
			"bufferView":121,
			"componentType":5126,
			"count":1611,
			"type":"VEC3"
		},
		{
			"bufferView":122,
			"componentType":5126,
			"count":1611,
			"type":"VEC2"
		},
		{
			"bufferView":123,
			"componentType":5123,
			"count":1611,
			"type":"SCALAR"
		},
		{
			"bufferView":124,
			"componentType":5126,
			"count":1548,
			"max":[
				-33683.703125,
				-40598.3203125,
				-32031.8359375
			],
			"min":[
				-34522.44140625,
				-136689.421875,
				-121413.046875
			],
			"type":"VEC3"
		},
		{
			"bufferView":125,
			"componentType":5126,
			"count":1548,
			"type":"VEC3"
		},
		{
			"bufferView":126,
			"componentType":5126,
			"count":1548,
			"type":"VEC2"
		},
		{
			"bufferView":127,
			"componentType":5123,
			"count":1548,
			"type":"SCALAR"
		},
		{
			"bufferView":128,
			"componentType":5126,
			"count":2916,
			"max":[
				-33683.125,
				-39883.05078125,
				-31160.890625
			],
			"min":[
				-34522.44140625,
				-137404.671875,
				-122283.4609375
			],
			"type":"VEC3"
		},
		{
			"bufferView":129,
			"componentType":5126,
			"count":2916,
			"type":"VEC3"
		},
		{
			"bufferView":130,
			"componentType":5126,
			"count":2916,
			"type":"VEC2"
		},
		{
			"bufferView":131,
			"componentType":5123,
			"count":2916,
			"type":"SCALAR"
		}
	],
	"bufferViews":[
		{
			"buffer":0,
			"byteLength":238752,
			"byteOffset":0,
			"target":34962
		},
		{
			"buffer":0,
			"byteLength":238752,
			"byteOffset":238752,
			"target":34962
		},
		{
			"buffer":0,
			"byteLength":159168,
			"byteOffset":477504,
			"target":34962
		},
		{
			"buffer":0,
			"byteLength":39792,
			"byteOffset":636672,
			"target":34963
		},
		{
			"buffer":0,
			"byteLength":27864,
			"byteOffset":676464,
			"target":34962
		},
		{
			"buffer":0,
			"byteLength":27864,
			"byteOffset":704328,
			"target":34962
		},
		{
			"buffer":0,
			"byteLength":18576,
			"byteOffset":732192,
			"target":34962
		},
		{
			"buffer":0,
			"byteLength":4644,
			"byteOffset":750768,
			"target":34963
		},
		{
			"buffer":0,
			"byteLength":431568,
			"byteOffset":755412,
			"target":34962
		},
		{
			"buffer":0,
			"byteLength":431568,
			"byteOffset":1186980,
			"target":34962
		},
		{
			"buffer":0,
			"byteLength":287712,
			"byteOffset":1618548,
			"target":34962
		},
		{
			"buffer":0,
			"byteLength":71928,
			"byteOffset":1906260,
			"target":34963
		},
		{
			"buffer":0,
			"byteLength":38376,
			"byteOffset":1978188,
			"target":34962
		},
		{
			"buffer":0,
			"byteLength":38376,
			"byteOffset":2016564,
			"target":34962
		},
		{
			"buffer":0,
			"byteLength":25584,
			"byteOffset":2054940,
			"target":34962
		},
		{
			"buffer":0,
			"byteLength":6396,
			"byteOffset":2080524,
			"target":34963
		},
		{
			"buffer":0,
			"byteLength":422784,
			"byteOffset":2086920,
			"target":34962
		},
		{
			"buffer":0,
			"byteLength":422784,
			"byteOffset":2509704,
			"target":34962
		},
		{
			"buffer":0,
			"byteLength":281856,
			"byteOffset":2932488,
			"target":34962
		},
		{
			"buffer":0,
			"byteLength":70464,
			"byteOffset":3214344,
			"target":34963
		},
		{
			"buffer":0,
			"byteLength":24768,
			"byteOffset":3284808,
			"target":34962
		},
		{
			"buffer":0,
			"byteLength":24768,
			"byteOffset":3309576,
			"target":34962
		},
		{
			"buffer":0,
			"byteLength":16512,
			"byteOffset":3334344,
			"target":34962
		},
		{
			"buffer":0,
			"byteLength":4128,
			"byteOffset":3350856,
			"target":34963
		},
		{
			"buffer":0,
			"byteLength":209664,
			"byteOffset":3354984,
			"target":34962
		},
		{
			"buffer":0,
			"byteLength":209664,
			"byteOffset":3564648,
			"target":34962
		},
		{
			"buffer":0,
			"byteLength":139776,
			"byteOffset":3774312,
			"target":34962
		},
		{
			"buffer":0,
			"byteLength":34944,
			"byteOffset":3914088,
			"target":34963
		},
		{
			"buffer":0,
			"byteLength":14688,
			"byteOffset":3949032,
			"target":34962
		},
		{
			"buffer":0,
			"byteLength":14688,
			"byteOffset":3963720,
			"target":34962
		},
		{
			"buffer":0,
			"byteLength":9792,
			"byteOffset":3978408,
			"target":34962
		},
		{
			"buffer":0,
			"byteLength":2448,
			"byteOffset":3988200,
			"target":34963
		},
		{
			"buffer":0,
			"byteLength":1584,
			"byteOffset":3990648,
			"target":34962
		},
		{
			"buffer":0,
			"byteLength":1584,
			"byteOffset":3992232,
			"target":34962
		},
		{
			"buffer":0,
			"byteLength":1056,
			"byteOffset":3993816,
			"target":34962
		},
		{
			"buffer":0,
			"byteLength":264,
			"byteOffset":3994872,
			"target":34963
		},
		{
			"buffer":0,
			"byteLength":335952,
			"byteOffset":3995136,
			"target":34962
		},
		{
			"buffer":0,
			"byteLength":335952,
			"byteOffset":4331088,
			"target":34962
		},
		{
			"buffer":0,
			"byteLength":223968,
			"byteOffset":4667040,
			"target":34962
		},
		{
			"buffer":0,
			"byteLength":55992,
			"byteOffset":4891008,
			"target":34963
		},
		{
			"buffer":0,
			"byteLength":212256,
			"byteOffset":4947000,
			"target":34962
		},
		{
			"buffer":0,
			"byteLength":212256,
			"byteOffset":5159256,
			"target":34962
		},
		{
			"buffer":0,
			"byteLength":141504,
			"byteOffset":5371512,
			"target":34962
		},
		{
			"buffer":0,
			"byteLength":35376,
			"byteOffset":5513016,
			"target":34963
		},
		{
			"buffer":0,
			"byteLength":42768,
			"byteOffset":5548392,
			"target":34962
		},
		{
			"buffer":0,
			"byteLength":42768,
			"byteOffset":5591160,
			"target":34962
		},
		{
			"buffer":0,
			"byteLength":28512,
			"byteOffset":5633928,
			"target":34962
		},
		{
			"buffer":0,
			"byteLength":7128,
			"byteOffset":5662440,
			"target":34963
		},
		{
			"buffer":0,
			"byteLength":5616,
			"byteOffset":5669568,
			"target":34962
		},
		{
			"buffer":0,
			"byteLength":5616,
			"byteOffset":5675184,
			"target":34962
		},
		{
			"buffer":0,
			"byteLength":3744,
			"byteOffset":5680800,
			"target":34962
		},
		{
			"buffer":0,
			"byteLength":936,
			"byteOffset":5684544,
			"target":34963
		},
		{
			"buffer":0,
			"byteLength":47664,
			"byteOffset":5685480,
			"target":34962
		},
		{
			"buffer":0,
			"byteLength":47664,
			"byteOffset":5733144,
			"target":34962
		},
		{
			"buffer":0,
			"byteLength":31776,
			"byteOffset":5780808,
			"target":34962
		},
		{
			"buffer":0,
			"byteLength":7944,
			"byteOffset":5812584,
			"target":34963
		},
		{
			"buffer":0,
			"byteLength":576,
			"byteOffset":5820528,
			"target":34962
		},
		{
			"buffer":0,
			"byteLength":576,
			"byteOffset":5821104,
			"target":34962
		},
		{
			"buffer":0,
			"byteLength":384,
			"byteOffset":5821680,
			"target":34962
		},
		{
			"buffer":0,
			"byteLength":96,
			"byteOffset":5822064,
			"target":34963
		},
		{
			"buffer":0,
			"byteLength":102672,
			"byteOffset":5822160,
			"target":34962
		},
		{
			"buffer":0,
			"byteLength":102672,
			"byteOffset":5924832,
			"target":34962
		},
		{
			"buffer":0,
			"byteLength":68448,
			"byteOffset":6027504,
			"target":34962
		},
		{
			"buffer":0,
			"byteLength":17112,
			"byteOffset":6095952,
			"target":34963
		},
		{
			"buffer":0,
			"byteLength":216288,
			"byteOffset":6113064,
			"target":34962
		},
		{
			"buffer":0,
			"byteLength":216288,
			"byteOffset":6329352,
			"target":34962
		},
		{
			"buffer":0,
			"byteLength":144192,
			"byteOffset":6545640,
			"target":34962
		},
		{
			"buffer":0,
			"byteLength":36048,
			"byteOffset":6689832,
			"target":34963
		},
		{
			"buffer":0,
			"byteLength":3600,
			"byteOffset":6725880,
			"target":34962
		},
		{
			"buffer":0,
			"byteLength":3600,
			"byteOffset":6729480,
			"target":34962
		},
		{
			"buffer":0,
			"byteLength":2400,
			"byteOffset":6733080,
			"target":34962
		},
		{
			"buffer":0,
			"byteLength":600,
			"byteOffset":6735480,
			"target":34963
		},
		{
			"buffer":0,
			"byteLength":288,
			"byteOffset":6736080,
			"target":34962
		},
		{
			"buffer":0,
			"byteLength":288,
			"byteOffset":6736368,
			"target":34962
		},
		{
			"buffer":0,
			"byteLength":192,
			"byteOffset":6736656,
			"target":34962
		},
		{
			"buffer":0,
			"byteLength":48,
			"byteOffset":6736848,
			"target":34963
		},
		{
			"buffer":0,
			"byteLength":30888,
			"byteOffset":6736896,
			"target":34962
		},
		{
			"buffer":0,
			"byteLength":30888,
			"byteOffset":6767784,
			"target":34962
		},
		{
			"buffer":0,
			"byteLength":20592,
			"byteOffset":6798672,
			"target":34962
		},
		{
			"buffer":0,
			"byteLength":5148,
			"byteOffset":6819264,
			"target":34963
		},
		{
			"buffer":0,
			"byteLength":262728,
			"byteOffset":6824412,
			"target":34962
		},
		{
			"buffer":0,
			"byteLength":262728,
			"byteOffset":7087140,
			"target":34962
		},
		{
			"buffer":0,
			"byteLength":175152,
			"byteOffset":7349868,
			"target":34962
		},
		{
			"buffer":0,
			"byteLength":43788,
			"byteOffset":7525020,
			"target":34963
		},
		{
			"buffer":0,
			"byteLength":100152,
			"byteOffset":7568808,
			"target":34962
		},
		{
			"buffer":0,
			"byteLength":100152,
			"byteOffset":7668960,
			"target":34962
		},
		{
			"buffer":0,
			"byteLength":66768,
			"byteOffset":7769112,
			"target":34962
		},
		{
			"buffer":0,
			"byteLength":16692,
			"byteOffset":7835880,
			"target":34963
		},
		{
			"buffer":0,
			"byteLength":4536,
			"byteOffset":7852572,
			"target":34962
		},
		{
			"buffer":0,
			"byteLength":4536,
			"byteOffset":7857108,
			"target":34962
		},
		{
			"buffer":0,
			"byteLength":3024,
			"byteOffset":7861644,
			"target":34962
		},
		{
			"buffer":0,
			"byteLength":756,
			"byteOffset":7864668,
			"target":34963
		},
		{
			"buffer":0,
			"byteLength":123264,
			"byteOffset":7865424,
			"target":34962
		},
		{
			"buffer":0,
			"byteLength":123264,
			"byteOffset":7988688,
			"target":34962
		},
		{
			"buffer":0,
			"byteLength":82176,
			"byteOffset":8111952,
			"target":34962
		},
		{
			"buffer":0,
			"byteLength":20544,
			"byteOffset":8194128,
			"target":34963
		},
		{
			"buffer":0,
			"byteLength":20196,
			"byteOffset":8214672,
			"target":34962
		},
		{
			"buffer":0,
			"byteLength":20196,
			"byteOffset":8234868,
			"target":34962
		},
		{
			"buffer":0,
			"byteLength":13464,
			"byteOffset":8255064,
			"target":34962
		},
		{
			"buffer":0,
			"byteLength":3366,
			"byteOffset":8268528,
			"target":34963
		},
		{
			"buffer":0,
			"byteLength":13824,
			"byteOffset":8271896,
			"target":34962
		},
		{
			"buffer":0,
			"byteLength":13824,
			"byteOffset":8285720,
			"target":34962
		},
		{
			"buffer":0,
			"byteLength":9216,
			"byteOffset":8299544,
			"target":34962
		},
		{
			"buffer":0,
			"byteLength":2304,
			"byteOffset":8308760,
			"target":34963
		},
		{
			"buffer":0,
			"byteLength":17460,
			"byteOffset":8311064,
			"target":34962
		},
		{
			"buffer":0,
			"byteLength":17460,
			"byteOffset":8328524,
			"target":34962
		},
		{
			"buffer":0,
			"byteLength":11640,
			"byteOffset":8345984,
			"target":34962
		},
		{
			"buffer":0,
			"byteLength":2910,
			"byteOffset":8357624,
			"target":34963
		},
		{
			"buffer":0,
			"byteLength":14544,
			"byteOffset":8360536,
			"target":34962
		},
		{
			"buffer":0,
			"byteLength":14544,
			"byteOffset":8375080,
			"target":34962
		},
		{
			"buffer":0,
			"byteLength":9696,
			"byteOffset":8389624,
			"target":34962
		},
		{
			"buffer":0,
			"byteLength":2424,
			"byteOffset":8399320,
			"target":34963
		},
		{
			"buffer":0,
			"byteLength":14472,
			"byteOffset":8401744,
			"target":34962
		},
		{
			"buffer":0,
			"byteLength":14472,
			"byteOffset":8416216,
			"target":34962
		},
		{
			"buffer":0,
			"byteLength":9648,
			"byteOffset":8430688,
			"target":34962
		},
		{
			"buffer":0,
			"byteLength":2412,
			"byteOffset":8440336,
			"target":34963
		},
		{
			"buffer":0,
			"byteLength":20412,
			"byteOffset":8442748,
			"target":34962
		},
		{
			"buffer":0,
			"byteLength":20412,
			"byteOffset":8463160,
			"target":34962
		},
		{
			"buffer":0,
			"byteLength":13608,
			"byteOffset":8483572,
			"target":34962
		},
		{
			"buffer":0,
			"byteLength":3402,
			"byteOffset":8497180,
			"target":34963
		},
		{
			"buffer":0,
			"byteLength":19332,
			"byteOffset":8500584,
			"target":34962
		},
		{
			"buffer":0,
			"byteLength":19332,
			"byteOffset":8519916,
			"target":34962
		},
		{
			"buffer":0,
			"byteLength":12888,
			"byteOffset":8539248,
			"target":34962
		},
		{
			"buffer":0,
			"byteLength":3222,
			"byteOffset":8552136,
			"target":34963
		},
		{
			"buffer":0,
			"byteLength":18576,
			"byteOffset":8555360,
			"target":34962
		},
		{
			"buffer":0,
			"byteLength":18576,
			"byteOffset":8573936,
			"target":34962
		},
		{
			"buffer":0,
			"byteLength":12384,
			"byteOffset":8592512,
			"target":34962
		},
		{
			"buffer":0,
			"byteLength":3096,
			"byteOffset":8604896,
			"target":34963
		},
		{
			"buffer":0,
			"byteLength":34992,
			"byteOffset":8607992,
			"target":34962
		},
		{
			"buffer":0,
			"byteLength":34992,
			"byteOffset":8642984,
			"target":34962
		},
		{
			"buffer":0,
			"byteLength":23328,
			"byteOffset":8677976,
			"target":34962
		},
		{
			"buffer":0,
			"byteLength":5832,
			"byteOffset":8701304,
			"target":34963
		}
	],
	"buffers":[
		{
			"byteLength":8707136,
			"uri":"landsat8.bin"
		}
	]
}
