{
	"asset":{
		"generator":"Khronos glTF Blender I/O v4.4.56",
		"version":"2.0"
	},
	"scene":0,
	"scenes":[
		{
			"name":"Scene",
			"nodes":[
				0
			]
		}
	],
	"nodes":[
		{
			"mesh":0,
			"name":"Planeta_Planeta_0",
			"rotation":[
				-0.7065616846084595,
				0.02776052989065647,
				0.027760548517107964,
				0.7065616250038147
			],
			"scale":[
				0.05000000074505806,
				0.05000000074505806,
				0.05000000074505806
			]
		}
	],
	"materials":[
		{
			"name":"Planeta",
			"pbrMetallicRoughness":{
				"baseColorFactor":[
					0.715129554271698,
					0.715129554271698,
					0.715129554271698,
					1
				],
				"baseColorTexture":{
					"index":0
				},
				"metallicFactor":0,
				"metallicRoughnessTexture":{
					"index":1
				},
				"roughnessFactor":0.8736661672592163
			}
		}
	],
	"meshes":[
		{
			"name":"Planeta_Planeta_0",
			"primitives":[
				{
					"attributes":{
						"POSITION":0,
						"NORMAL":1,
						"TEXCOORD_0":2
					},
					"indices":3,
					"material":0
				}
			]
		}
	],
	"textures":[
		{
			"sampler":0,
			"source":0
		},
		{
			"sampler":0,
			"source":1
		}
	],
	"images":[
		{
			"mimeType":"image/jpeg",
			"name":"Planeta_baseColor",
			"uri":"textures/Planeta_baseColor.jpg"
		},
		{
			"mimeType":"image/png",
			"name":"Planeta_metallicRoughness",
			"uri":"textures/Planeta_metallicRoughness.png"
		}
	],
	"accessors":[
		{
			"bufferView":0,
			"componentType":5126,
			"count":2143,
			"max":[
				10,
				10,
				10
			],
			"min":[
				-10,
				-10,
				-10
			],
			"type":"VEC3"
		},
		{
			"bufferView":1,
			"componentType":5126,
			"count":2143,
			"type":"VEC3"
		},
		{
			"bufferView":2,
			"componentType":5126,
			"count":2143,
			"type":"VEC2"
		},
		{
			"bufferView":3,
			"componentType":5123,
			"count":11904,
			"type":"SCALAR"
		}
	],
	"bufferViews":[
		{
			"buffer":0,
			"byteLength":25716,
			"byteOffset":0,
			"target":34962
		},
		{
			"buffer":0,
			"byteLength":25716,
			"byteOffset":25716,
			"target":34962
		},
		{
			"buffer":0,
			"byteLength":17144,
			"byteOffset":51432,
			"target":34962
		},
		{
			"buffer":0,
			"byteLength":23808,
			"byteOffset":68576,
			"target":34963
		}
	],
	"samplers":[
		{
			"magFilter":9729,
			"minFilter":9987
		}
	],
	"buffers":[
		{
			"byteLength":92384,
			"uri":"neptune.bin"
		}
	]
}
