{
	"asset":{
		"generator":"Khronos glTF Blender I/O v4.4.56",
		"version":"2.0"
	},
	"extensionsUsed":[
		"KHR_materials_specular",
		"KHR_materials_ior"
	],
	"scene":0,
	"scenes":[
		{
			"name":"Scene",
			"nodes":[
				0
			]
		}
	],
	"nodes":[
		{
			"mesh":0,
			"name":"Sphere_Material.002_0",
			"rotation":[
				-0.70710688829422,
				0,
				0,
				0.7071066498756409
			],
			"scale":[
				0.5000004768371582,
				0.5000007152557373,
				0.5
			]
		}
	],
	"materials":[
		{
			"doubleSided":true,
			"extensions":{
				"KHR_materials_specular":{
					"specularColorFactor":[
						0.0,
						0.0,
						0.0
					]
				},
				"KHR_materials_ior":{
					"ior":1000
				}
			},
			"name":"Material.007",
			"pbrMetallicRoughness":{
				"baseColorTexture":{
					"index":0
				},
				"metallicFactor":0,
				"roughnessFactor":0
			}
		}
	],
	"meshes":[
		{
			"name":"Sphere_Material.002_0.001",
			"primitives":[
				{
					"attributes":{
						"POSITION":0,
						"NORMAL":1,
						"TEXCOORD_0":2
					},
					"indices":3,
					"material":0
				}
			]
		}
	],
	"textures":[
		{
			"sampler":0,
			"source":0
		}
	],
	"images":[
		{
			"mimeType":"image/jpeg",
			"name":"Material_002_diffuse.001",
			"uri":"textures/Material_002_diffuse.jpg"
		}
	],
	"accessors":[
		{
			"bufferView":0,
			"componentType":5126,
			"count":3223,
			"max":[
				0.999999463558197,
				0.9999982118606567,
				1
			],
			"min":[
				-0.9999986290931702,
				-0.999998927116394,
				-1
			],
			"type":"VEC3"
		},
		{
			"bufferView":1,
			"componentType":5126,
			"count":3223,
			"type":"VEC3"
		},
		{
			"bufferView":2,
			"componentType":5126,
			"count":3223,
			"type":"VEC2"
		},
		{
			"bufferView":3,
			"componentType":5123,
			"count":17664,
			"type":"SCALAR"
		}
	],
	"bufferViews":[
		{
			"buffer":0,
			"byteLength":38676,
			"byteOffset":0,
			"target":34962
		},
		{
			"buffer":0,
			"byteLength":38676,
			"byteOffset":38676,
			"target":34962
		},
		{
			"buffer":0,
			"byteLength":25784,
			"byteOffset":77352,
			"target":34962
		},
		{
			"buffer":0,
			"byteLength":35328,
			"byteOffset":103136,
			"target":34963
		}
	],
	"samplers":[
		{
			"magFilter":9729,
			"minFilter":9987
		}
	],
	"buffers":[
		{
			"byteLength":138464,
			"uri":"venus.bin"
		}
	]
}
