{
	"asset":{
		"generator":"Khronos glTF Blender I/O v4.4.56",
		"version":"2.0"
	},
	"scene":0,
	"scenes":[
		{
			"name":"Scene",
			"nodes":[
				2
			]
		}
	],
	"nodes":[
		{
			"mesh":0,
			"name":"Object_2",
			"scale":[
				0.003367003286257386,
				0.003367003286257386,
				0.003367003286257386
			],
			"translation":[
				0.0008484847494401038,
				0.002760942792519927,
				0
			]
		},
		{
			"children":[
				0
			],
			"name":"SpaceX Falcon Heavy.obj.cleaner.materialmerger.gles"
		},
		{
			"children":[
				1
			],
			"name":"Sketchfab_model",
			"rotation":[
				-0.70710688829422,
				0,
				0,
				0.7071066498756409
			]
		}
	],
	"materials":[
		{
			"doubleSided":true,
			"name":"falcon_heavy_texture_bf32b81e-0ee7-4847-b2fd-4bccbc96dcaf",
			"pbrMetallicRoughness":{
				"baseColorTexture":{
					"index":0
				},
				"metallicFactor":0
			}
		}
	],
	"meshes":[
		{
			"name":"Object_0",
			"primitives":[
				{
					"attributes":{
						"POSITION":0,
						"NORMAL":1,
						"TEXCOORD_0":2
					},
					"indices":3,
					"material":0
				}
			]
		}
	],
	"textures":[
		{
			"sampler":0,
			"source":0
		}
	],
	"images":[
		{
			"mimeType":"image/jpeg",
			"name":"falcon_heavy_texture_bf32b81e-0ee7-4847-b2fd-4bccbc96dcaf_baseColor",
			"uri":"textures/falcon_heavy_texture_bf32b81e-0ee7-4847-b2fd-4bccbc96dcaf_baseColor.jpg"
		}
	],
	"accessors":[
		{
			"bufferView":0,
			"componentType":5126,
			"count":23120,
			"max":[
				26.243999481201172,
				10.776000022888184,
				294.69598388671875
			],
			"min":[
				-26.249000549316406,
				-10.791999816894531,
				-2.1300048828125
			],
			"type":"VEC3"
		},
		{
			"bufferView":1,
			"componentType":5126,
			"count":23120,
			"type":"VEC3"
		},
		{
			"bufferView":2,
			"componentType":5126,
			"count":23120,
			"type":"VEC2"
		},
		{
			"bufferView":3,
			"componentType":5123,
			"count":76704,
			"type":"SCALAR"
		}
	],
	"bufferViews":[
		{
			"buffer":0,
			"byteLength":277440,
			"byteOffset":0,
			"target":34962
		},
		{
			"buffer":0,
			"byteLength":277440,
			"byteOffset":277440,
			"target":34962
		},
		{
			"buffer":0,
			"byteLength":184960,
			"byteOffset":554880,
			"target":34962
		},
		{
			"buffer":0,
			"byteLength":153408,
			"byteOffset":739840,
			"target":34963
		}
	],
	"samplers":[
		{
			"magFilter":9729,
			"minFilter":9987
		}
	],
	"buffers":[
		{
			"byteLength":893248,
			"uri":"heavy_falcon.bin"
		}
	]
}
