{
	"asset":{
		"generator":"Khronos glTF Blender I/O v4.4.56",
		"version":"2.0"
	},
	"scene":0,
	"scenes":[
		{
			"name":"Scene",
			"nodes":[
				10,
				13,
				16,
				19,
				22,
				24,
				27,
				30,
				33,
				36,
				37,
				38,
				39,
				40,
				41,
				42,
				43,
				44,
				45,
				46,
				47,
				48,
				49,
				50,
				51,
				52,
				53,
				54
			]
		}
	],
	"nodes":[
		{
			"mesh":0,
			"name":"Object_114",
			"translation":[
				-7.2147674560546875,
				-0.026728153228759766,
				-0.15889768302440643
			]
		},
		{
			"mesh":1,
			"name":"Object_115",
			"translation":[
				-7.2147674560546875,
				-0.026728153228759766,
				-0.15889768302440643
			]
		},
		{
			"mesh":2,
			"name":"Object_116",
			"translation":[
				-7.2147674560546875,
				-0.026728153228759766,
				-0.15889768302440643
			]
		},
		{
			"mesh":3,
			"name":"Object_117",
			"translation":[
				-7.2147674560546875,
				-0.026728153228759766,
				-0.15889768302440643
			]
		},
		{
			"mesh":4,
			"name":"Object_118",
			"translation":[
				-7.2147674560546875,
				-0.026728153228759766,
				-0.15889768302440643
			]
		},
		{
			"mesh":5,
			"name":"Object_119",
			"translation":[
				-7.2147674560546875,
				-0.026728153228759766,
				-0.15889768302440643
			]
		},
		{
			"mesh":6,
			"name":"Object_120",
			"translation":[
				-7.2147674560546875,
				-0.026728153228759766,
				-0.15889768302440643
			]
		},
		{
			"mesh":7,
			"name":"Object_121",
			"translation":[
				-7.2147674560546875,
				-0.026728153228759766,
				-0.15889768302440643
			]
		},
		{
			"mesh":8,
			"name":"Object_122",
			"translation":[
				-7.2147674560546875,
				-0.026728153228759766,
				-0.15889768302440643
			]
		},
		{
			"mesh":9,
			"name":"Object_123",
			"translation":[
				-7.2147674560546875,
				-0.026728153228759766,
				-0.15889768302440643
			]
		},
		{
			"children":[
				0,
				1,
				2,
				3,
				4,
				5,
				6,
				7,
				8,
				9
			],
			"name":"Engine Nozzle.001_21",
			"rotation":[
				0.7098677158355713,
				0,
				0.7043350338935852,
				0
			],
			"scale":[
				0.008057031780481339,
				0.008057031780481339,
				0.00805702991783619
			],
			"translation":[
				0.001660127192735672,
				0.023890405893325806,
				0.05743832141160965
			]
		},
		{
			"mesh":10,
			"name":"Object_125",
			"translation":[
				-24.536544799804688,
				12.480125427246094,
				-0.13290074467658997
			]
		},
		{
			"mesh":11,
			"name":"Object_126",
			"translation":[
				-24.536544799804688,
				12.480125427246094,
				-0.13290074467658997
			]
		},
		{
			"children":[
				11,
				12
			],
			"name":"GridFin.003_22",
			"rotation":[
				0.27342358231544495,
				-0.6520941853523254,
				0.6522635221481323,
				0.2730658948421478
			],
			"scale":[
				0.0016388064250349998,
				0.0033651539124548435,
				0.0016388065414503217
			],
			"translation":[
				-0.017976760864257812,
				0.6014479398727417,
				0.07872319221496582
			]
		},
		{
			"mesh":12,
			"name":"Object_128",
			"translation":[
				-24.54084587097168,
				-12.478067398071289,
				0.15125338733196259
			]
		},
		{
			"mesh":13,
			"name":"Object_129",
			"translation":[
				-24.54084587097168,
				-12.478067398071289,
				0.15125338733196259
			]
		},
		{
			"children":[
				14,
				15
			],
			"name":"GridFin.005_23",
			"rotation":[
				-0.2733660638332367,
				-0.6523425579071045,
				-0.6519681215286255,
				0.273235946893692
			],
			"scale":[
				0.0016388064250349998,
				0.0033651532139629126,
				0.0016388065414503217
			],
			"translation":[
				0.021560555323958397,
				0.6014479398727417,
				0.03853240981698036
			]
		},
		{
			"mesh":14,
			"name":"Object_131",
			"translation":[
				-25.696748733520508,
				-11.91354751586914,
				-0.11159110814332962
			]
		},
		{
			"mesh":15,
			"name":"Object_132",
			"translation":[
				-25.696748733520508,
				-11.91354751586914,
				-0.11159110814332962
			]
		},
		{
			"children":[
				17,
				18
			],
			"name":"GridFin.006_24",
			"rotation":[
				0.6541777849197388,
				-0.26894429326057434,
				0.2688116431236267,
				0.6538047790527344
			],
			"scale":[
				0.001638806308619678,
				0.0033651536796242,
				0.0016388065414503217
			],
			"translation":[
				0.021830962970852852,
				0.6014479398727417,
				0.07845811545848846
			]
		},
		{
			"mesh":16,
			"name":"Object_134",
			"translation":[
				-25.69244384765625,
				11.915705680847168,
				0.13081902265548706
			]
		},
		{
			"mesh":17,
			"name":"Object_135",
			"translation":[
				-25.69244384765625,
				11.915705680847168,
				0.13081902265548706
			]
		},
		{
			"children":[
				20,
				21
			],
			"name":"GridFin.007_25",
			"rotation":[
				-0.6539285778999329,
				-0.2690000832080841,
				-0.26864323019981384,
				0.6541003584861755
			],
			"scale":[
				0.001638806308619678,
				0.0033651532139629126,
				0.001638806308619678
			],
			"translation":[
				-0.018247105181217194,
				0.6014479398727417,
				0.03880653530359268
			]
		},
		{
			"mesh":18,
			"name":"mesh_15",
			"translation":[
				7.850964546203613,
				-5.811182975769043,
				-9.716920852661133
			]
		},
		{
			"children":[
				23
			],
			"name":"Hydraulics.001_26",
			"rotation":[
				0.1121240109205246,
				0.3719579875469208,
				0.26594504714012146,
				0.8822407126426697
			],
			"scale":[
				0.004303543362766504,
				0.0038111370522528887,
				0.004303543362766504
			],
			"translation":[
				0.01766696386039257,
				0.12552067637443542,
				0.04062589630484581
			]
		},
		{
			"mesh":19,
			"name":"Object_139",
			"translation":[
				-17.088748931884766,
				-16.491092681884766,
				-0.1084865927696228
			]
		},
		{
			"mesh":20,
			"name":"Object_140",
			"translation":[
				-17.088748931884766,
				-16.491092681884766,
				-0.1084865927696228
			]
		},
		{
			"children":[
				25,
				26
			],
			"name":"Landing Legs.004_27",
			"rotation":[
				0.6548090577125549,
				-0.26610681414604187,
				0.26721155643463135,
				0.6549887657165527
			],
			"scale":[
				0.0024483222514390945,
				0.0024483236484229565,
				0.002448323415592313
			],
			"translation":[
				-0.01387001946568489,
				0.021562665700912476,
				0.04227049648761749
			]
		},
		{
			"mesh":21,
			"name":"Object_142",
			"translation":[
				-17.067062377929688,
				16.513755798339844,
				0.06348398327827454
			]
		},
		{
			"mesh":22,
			"name":"Object_143",
			"translation":[
				-17.067062377929688,
				16.513755798339844,
				0.06348398327827454
			]
		},
		{
			"children":[
				28,
				29
			],
			"name":"Landing Legs.005_28",
			"rotation":[
				-0.6548147797584534,
				-0.26591408252716064,
				-0.2665347456932068,
				0.6553370356559753
			],
			"scale":[
				0.0024483222514390945,
				0.0024483238812536,
				0.002448323415592313
			],
			"translation":[
				0.017232075333595276,
				0.021562665700912476,
				0.07259201258420944
			]
		},
		{
			"mesh":23,
			"name":"Object_145",
			"translation":[
				16.48911476135254,
				-17.090906143188477,
				-0.05646485090255737
			]
		},
		{
			"mesh":24,
			"name":"Object_146",
			"translation":[
				16.48911476135254,
				-17.090906143188477,
				-0.05646485090255737
			]
		},
		{
			"children":[
				31,
				32
			],
			"name":"Landing Legs.006_29",
			"rotation":[
				0.6519836187362671,
				0.27494168281555176,
				-0.27403348684310913,
				0.6513294577598572
			],
			"scale":[
				0.002448322484269738,
				0.0024483238812536,
				0.002448323415592313
			],
			"translation":[
				-0.013492870144546032,
				0.021562665700912476,
				0.07298044115304947
			]
		},
		{
			"mesh":25,
			"name":"Object_148",
			"translation":[
				16.511396408081055,
				17.06899642944336,
				0.12690337002277374
			]
		},
		{
			"mesh":26,
			"name":"Object_149",
			"translation":[
				16.511396408081055,
				17.06899642944336,
				0.12690337002277374
			]
		},
		{
			"children":[
				34,
				35
			],
			"name":"Landing Legs.007_30",
			"rotation":[
				-0.6517329812049866,
				0.2758563756942749,
				0.2739839553833008,
				0.6512144207954407
			],
			"scale":[
				0.0024483222514390945,
				0.0024483238812536,
				0.0024483236484229565
			],
			"translation":[
				0.016832388937473297,
				0.021562665700912476,
				0.041881997138261795
			]
		},
		{
			"mesh":27,
			"name":"Object_100",
			"rotation":[
				0.7098677158355713,
				0,
				0.7043350338935852,
				0
			],
			"scale":[
				0.02660127356648445,
				0.026601269841194153,
				0.026601264253258705
			],
			"translation":[
				-9.607255924493074e-05,
				0.34436342120170593,
				-0.0006940476596355438
			]
		},
		{
			"mesh":28,
			"name":"Object_101",
			"rotation":[
				0.7098677158355713,
				0,
				0.7043350338935852,
				0
			],
			"scale":[
				0.02660127356648445,
				0.026601269841194153,
				0.026601264253258705
			],
			"translation":[
				-9.607255924493074e-05,
				0.34436342120170593,
				-0.0006940476596355438
			]
		},
		{
			"mesh":29,
			"name":"Object_102",
			"rotation":[
				0.7098677158355713,
				0,
				0.7043350338935852,
				0
			],
			"scale":[
				0.02660127356648445,
				0.026601269841194153,
				0.026601264253258705
			],
			"translation":[
				-9.607255924493074e-05,
				0.34436342120170593,
				-0.0006940476596355438
			]
		},
		{
			"mesh":30,
			"name":"Object_103",
			"rotation":[
				0.7098677158355713,
				0,
				0.7043350338935852,
				0
			],
			"scale":[
				0.02660127356648445,
				0.026601269841194153,
				0.026601264253258705
			],
			"translation":[
				-9.607255924493074e-05,
				0.34436342120170593,
				-0.0006940476596355438
			]
		},
		{
			"mesh":31,
			"name":"Object_104",
			"rotation":[
				0.7098677158355713,
				0,
				0.7043350338935852,
				0
			],
			"scale":[
				0.02660127356648445,
				0.026601269841194153,
				0.026601264253258705
			],
			"translation":[
				-9.607255924493074e-05,
				0.34436342120170593,
				-0.0006940476596355438
			]
		},
		{
			"mesh":32,
			"name":"Object_105",
			"rotation":[
				0.7098677158355713,
				0,
				0.7043350338935852,
				0
			],
			"scale":[
				0.02660127356648445,
				0.026601269841194153,
				0.026601264253258705
			],
			"translation":[
				-9.607255924493074e-05,
				0.34436342120170593,
				-0.0006940476596355438
			]
		},
		{
			"mesh":33,
			"name":"Object_106",
			"rotation":[
				0.7098677158355713,
				0,
				0.7043350338935852,
				0
			],
			"scale":[
				0.02660127356648445,
				0.026601269841194153,
				0.026601264253258705
			],
			"translation":[
				-9.607255924493074e-05,
				0.34436342120170593,
				-0.0006940476596355438
			]
		},
		{
			"mesh":34,
			"name":"Object_107",
			"rotation":[
				0.7098677158355713,
				0,
				0.7043350338935852,
				0
			],
			"scale":[
				0.02660127356648445,
				0.026601269841194153,
				0.026601264253258705
			],
			"translation":[
				-9.607255924493074e-05,
				0.34436342120170593,
				-0.0006940476596355438
			]
		},
		{
			"mesh":35,
			"name":"Object_108",
			"rotation":[
				0.7098677158355713,
				0,
				0.7043350338935852,
				0
			],
			"scale":[
				0.02660127356648445,
				0.026601269841194153,
				0.026601264253258705
			],
			"translation":[
				-9.607255924493074e-05,
				0.34436342120170593,
				-0.0006940476596355438
			]
		},
		{
			"mesh":36,
			"name":"Object_109",
			"rotation":[
				0.7098677158355713,
				0,
				0.7043350338935852,
				0
			],
			"scale":[
				0.02660127356648445,
				0.026601269841194153,
				0.026601264253258705
			],
			"translation":[
				-9.607255924493074e-05,
				0.34436342120170593,
				-0.0006940476596355438
			]
		},
		{
			"mesh":37,
			"name":"Object_110",
			"rotation":[
				0.7098677158355713,
				0,
				0.7043350338935852,
				0
			],
			"scale":[
				0.02660127356648445,
				0.026601269841194153,
				0.026601264253258705
			],
			"translation":[
				-9.607255924493074e-05,
				0.34436342120170593,
				-0.0006940476596355438
			]
		},
		{
			"mesh":38,
			"name":"Object_111",
			"rotation":[
				0.7098677158355713,
				0,
				0.7043350338935852,
				0
			],
			"scale":[
				0.02660127356648445,
				0.026601269841194153,
				0.026601264253258705
			],
			"translation":[
				-9.607255924493074e-05,
				0.34436342120170593,
				-0.0006940476596355438
			]
		},
		{
			"mesh":39,
			"name":"Object_112",
			"rotation":[
				0.7098677158355713,
				0,
				0.7043350338935852,
				0
			],
			"scale":[
				0.02660127356648445,
				0.026601269841194153,
				0.026601264253258705
			],
			"translation":[
				-9.607255924493074e-05,
				0.34436342120170593,
				-0.0006940476596355438
			]
		},
		{
			"mesh":40,
			"name":"Object_95",
			"rotation":[
				0.7098677158355713,
				0,
				0.7043350338935852,
				0
			],
			"scale":[
				0.02660127356648445,
				0.026601269841194153,
				0.026601264253258705
			],
			"translation":[
				-9.607255924493074e-05,
				0.34436342120170593,
				-0.0006940476596355438
			]
		},
		{
			"mesh":41,
			"name":"Object_96",
			"rotation":[
				0.7098677158355713,
				0,
				0.7043350338935852,
				0
			],
			"scale":[
				0.02660127356648445,
				0.026601269841194153,
				0.026601264253258705
			],
			"translation":[
				-9.607255924493074e-05,
				0.34436342120170593,
				-0.0006940476596355438
			]
		},
		{
			"mesh":42,
			"name":"Object_97",
			"rotation":[
				0.7098677158355713,
				0,
				0.7043350338935852,
				0
			],
			"scale":[
				0.02660127356648445,
				0.026601269841194153,
				0.026601264253258705
			],
			"translation":[
				-9.607255924493074e-05,
				0.34436342120170593,
				-0.0006940476596355438
			]
		},
		{
			"mesh":43,
			"name":"Object_98",
			"rotation":[
				0.7098677158355713,
				0,
				0.7043350338935852,
				0
			],
			"scale":[
				0.02660127356648445,
				0.026601269841194153,
				0.026601264253258705
			],
			"translation":[
				-9.607255924493074e-05,
				0.34436342120170593,
				-0.0006940476596355438
			]
		},
		{
			"mesh":44,
			"name":"Object_99",
			"rotation":[
				0.7098677158355713,
				0,
				0.7043350338935852,
				0
			],
			"scale":[
				0.02660127356648445,
				0.026601269841194153,
				0.026601264253258705
			],
			"translation":[
				-9.607255924493074e-05,
				0.34436342120170593,
				-0.0006940476596355438
			]
		}
	],
	"materials":[
		{
			"doubleSided":true,
			"name":"Material.212",
			"pbrMetallicRoughness":{
				"baseColorFactor":[
					0.5925769805908203,
					0.5925769805908203,
					0.5925769805908203,
					1
				],
				"metallicFactor":0.8455880284309387,
				"metallicRoughnessTexture":{
					"index":0
				}
			}
		},
		{
			"doubleSided":true,
			"name":"Material.213",
			"pbrMetallicRoughness":{
				"baseColorFactor":[
					0.3588399887084961,
					0.3588399887084961,
					0.3588399887084961,
					1
				],
				"metallicRoughnessTexture":{
					"index":1
				}
			}
		},
		{
			"doubleSided":true,
			"name":"Material.214",
			"pbrMetallicRoughness":{
				"baseColorFactor":[
					0,
					0,
					0,
					1
				],
				"metallicFactor":0,
				"roughnessFactor":0.5
			}
		},
		{
			"doubleSided":true,
			"name":"Material.215",
			"pbrMetallicRoughness":{
				"baseColorFactor":[
					0.1282390058040619,
					0.1282390058040619,
					0.1282390058040619,
					1
				],
				"metallicFactor":0.2045450061559677,
				"metallicRoughnessTexture":{
					"index":2
				}
			}
		},
		{
			"doubleSided":true,
			"name":"Material.216",
			"pbrMetallicRoughness":{
				"baseColorFactor":[
					0.34238401055336,
					0.34238401055336,
					0.34238401055336,
					1
				],
				"metallicFactor":0.889706015586853,
				"metallicRoughnessTexture":{
					"index":3
				}
			}
		},
		{
			"doubleSided":true,
			"name":"Material.217",
			"pbrMetallicRoughness":{
				"baseColorFactor":[
					0.04954909905791283,
					0.04954909905791283,
					0.04954909905791283,
					1
				],
				"metallicFactor":0,
				"metallicRoughnessTexture":{
					"index":4
				}
			}
		},
		{
			"doubleSided":true,
			"name":"Material.218",
			"pbrMetallicRoughness":{
				"baseColorFactor":[
					0.31760498881340027,
					0.31760498881340027,
					0.31760498881340027,
					1
				],
				"metallicFactor":0.3499999940395355,
				"metallicRoughnessTexture":{
					"index":5
				}
			}
		},
		{
			"doubleSided":true,
			"name":"Material.219",
			"pbrMetallicRoughness":{
				"baseColorFactor":[
					0,
					0,
					0,
					1
				],
				"metallicFactor":0,
				"metallicRoughnessTexture":{
					"index":6
				}
			}
		},
		{
			"doubleSided":true,
			"name":"Material.220",
			"pbrMetallicRoughness":{
				"baseColorFactor":[
					0.43255001306533813,
					0.41111499071121216,
					0.15915100276470184,
					1
				],
				"metallicFactor":0.3499999940395355,
				"metallicRoughnessTexture":{
					"index":7
				}
			}
		},
		{
			"doubleSided":true,
			"name":"Material.221",
			"pbrMetallicRoughness":{
				"baseColorFactor":[
					0.036582101136446,
					0.036582101136446,
					0.036582101136446,
					1
				],
				"metallicFactor":0.5735290050506592,
				"metallicRoughnessTexture":{
					"index":8
				}
			}
		},
		{
			"doubleSided":true,
			"name":"Material.225",
			"pbrMetallicRoughness":{
				"baseColorFactor":[
					0.2882939875125885,
					0.2882939875125885,
					0.2882939875125885,
					1
				],
				"metallicFactor":0.8909090161323547
			}
		},
		{
			"doubleSided":true,
			"name":"Material.205",
			"pbrMetallicRoughness":{
				"baseColorFactor":[
					0.004241450224071741,
					0.004241450224071741,
					0.004241450224071741,
					1
				],
				"metallicFactor":0.46363601088523865,
				"metallicRoughnessTexture":{
					"index":9
				}
			}
		},
		{
			"doubleSided":true,
			"name":"Material.223",
			"pbrMetallicRoughness":{
				"baseColorFactor":[
					0.1901780068874359,
					0.1901780068874359,
					0.1901780068874359,
					1
				],
				"metallicFactor":0.8909090161323547,
				"metallicRoughnessTexture":{
					"index":10
				}
			}
		},
		{
			"doubleSided":true,
			"name":"Material.222",
			"pbrMetallicRoughness":{
				"baseColorFactor":[
					0.36525198817253113,
					0.36525198817253113,
					0.36525198817253113,
					1
				],
				"metallicFactor":0.550000011920929,
				"metallicRoughnessTexture":{
					"index":11
				}
			}
		},
		{
			"doubleSided":true,
			"name":"Material.224",
			"pbrMetallicRoughness":{
				"baseColorFactor":[
					0.04954909905791283,
					0.04954909905791283,
					0.04954909905791283,
					1
				],
				"metallicFactor":0
			}
		},
		{
			"doubleSided":true,
			"name":"Material.207",
			"pbrMetallicRoughness":{
				"metallicFactor":0,
				"metallicRoughnessTexture":{
					"index":12
				}
			}
		},
		{
			"doubleSided":true,
			"name":"Material.209",
			"pbrMetallicRoughness":{
				"baseColorTexture":{
					"index":13
				},
				"metallicFactor":0.16818200051784515,
				"metallicRoughnessTexture":{
					"index":14
				}
			}
		},
		{
			"doubleSided":true,
			"name":"Material.210",
			"pbrMetallicRoughness":{
				"baseColorFactor":[
					0.35255399346351624,
					0.35255399346351624,
					0.35255399346351624,
					1
				],
				"metallicFactor":0.3499999940395355,
				"metallicRoughnessTexture":{
					"index":15
				}
			}
		},
		{
			"doubleSided":true,
			"name":"Material.211",
			"pbrMetallicRoughness":{
				"baseColorFactor":[
					0.0871398001909256,
					0.0871398001909256,
					0.0871398001909256,
					1
				],
				"metallicFactor":0.3499999940395355,
				"metallicRoughnessTexture":{
					"index":16
				}
			}
		}
	],
	"meshes":[
		{
			"name":"Object_90.006",
			"primitives":[
				{
					"attributes":{
						"POSITION":0,
						"NORMAL":1,
						"TEXCOORD_0":2
					},
					"indices":3,
					"material":0
				}
			]
		},
		{
			"name":"Object_91.006",
			"primitives":[
				{
					"attributes":{
						"POSITION":4,
						"NORMAL":5,
						"TEXCOORD_0":6
					},
					"indices":7,
					"material":1
				}
			]
		},
		{
			"name":"Object_92.006",
			"primitives":[
				{
					"attributes":{
						"POSITION":8,
						"NORMAL":9,
						"TEXCOORD_0":10
					},
					"indices":11,
					"material":2
				}
			]
		},
		{
			"name":"Object_93.006",
			"primitives":[
				{
					"attributes":{
						"POSITION":12,
						"NORMAL":13,
						"TEXCOORD_0":14
					},
					"indices":15,
					"material":3
				}
			]
		},
		{
			"name":"Object_94.006",
			"primitives":[
				{
					"attributes":{
						"POSITION":16,
						"NORMAL":17,
						"TEXCOORD_0":18
					},
					"indices":19,
					"material":4
				}
			]
		},
		{
			"name":"Object_95.006",
			"primitives":[
				{
					"attributes":{
						"POSITION":20,
						"NORMAL":21,
						"TEXCOORD_0":22
					},
					"indices":23,
					"material":5
				}
			]
		},
		{
			"name":"Object_96.006",
			"primitives":[
				{
					"attributes":{
						"POSITION":24,
						"NORMAL":25,
						"TEXCOORD_0":26
					},
					"indices":27,
					"material":6
				}
			]
		},
		{
			"name":"Object_97.006",
			"primitives":[
				{
					"attributes":{
						"POSITION":28,
						"NORMAL":29,
						"TEXCOORD_0":30
					},
					"indices":31,
					"material":7
				}
			]
		},
		{
			"name":"Object_98.006",
			"primitives":[
				{
					"attributes":{
						"POSITION":32,
						"NORMAL":33,
						"TEXCOORD_0":34
					},
					"indices":35,
					"material":8
				}
			]
		},
		{
			"name":"Object_99.006",
			"primitives":[
				{
					"attributes":{
						"POSITION":36,
						"NORMAL":37,
						"TEXCOORD_0":38
					},
					"indices":39,
					"material":9
				}
			]
		},
		{
			"name":"Object_100.006",
			"primitives":[
				{
					"attributes":{
						"POSITION":40,
						"NORMAL":41,
						"TEXCOORD_0":42
					},
					"indices":43,
					"material":10
				}
			]
		},
		{
			"name":"Object_101.006",
			"primitives":[
				{
					"attributes":{
						"POSITION":44,
						"NORMAL":45,
						"TEXCOORD_0":46
					},
					"indices":47,
					"material":11
				}
			]
		},
		{
			"name":"Object_102.006",
			"primitives":[
				{
					"attributes":{
						"POSITION":48,
						"NORMAL":49,
						"TEXCOORD_0":50
					},
					"indices":51,
					"material":10
				}
			]
		},
		{
			"name":"Object_103.006",
			"primitives":[
				{
					"attributes":{
						"POSITION":52,
						"NORMAL":53,
						"TEXCOORD_0":54
					},
					"indices":55,
					"material":11
				}
			]
		},
		{
			"name":"Object_104.006",
			"primitives":[
				{
					"attributes":{
						"POSITION":56,
						"NORMAL":57,
						"TEXCOORD_0":58
					},
					"indices":43,
					"material":10
				}
			]
		},
		{
			"name":"Object_105.006",
			"primitives":[
				{
					"attributes":{
						"POSITION":59,
						"NORMAL":60,
						"TEXCOORD_0":61
					},
					"indices":47,
					"material":11
				}
			]
		},
		{
			"name":"Object_106.006",
			"primitives":[
				{
					"attributes":{
						"POSITION":62,
						"NORMAL":63,
						"TEXCOORD_0":64
					},
					"indices":51,
					"material":10
				}
			]
		},
		{
			"name":"Object_107.006",
			"primitives":[
				{
					"attributes":{
						"POSITION":65,
						"NORMAL":66,
						"TEXCOORD_0":67
					},
					"indices":55,
					"material":11
				}
			]
		},
		{
			"name":"mesh_15.006",
			"primitives":[
				{
					"attributes":{
						"POSITION":68,
						"NORMAL":69,
						"TEXCOORD_0":70
					},
					"indices":71,
					"material":11
				}
			]
		},
		{
			"name":"Object_109.006",
			"primitives":[
				{
					"attributes":{
						"POSITION":72,
						"NORMAL":73,
						"TEXCOORD_0":74
					},
					"indices":75,
					"material":12
				}
			]
		},
		{
			"name":"Object_110.006",
			"primitives":[
				{
					"attributes":{
						"POSITION":76,
						"NORMAL":77,
						"TEXCOORD_0":78
					},
					"indices":79,
					"material":11
				}
			]
		},
		{
			"name":"Object_111.006",
			"primitives":[
				{
					"attributes":{
						"POSITION":80,
						"NORMAL":81,
						"TEXCOORD_0":82
					},
					"indices":83,
					"material":12
				}
			]
		},
		{
			"name":"Object_112.006",
			"primitives":[
				{
					"attributes":{
						"POSITION":84,
						"NORMAL":85,
						"TEXCOORD_0":86
					},
					"indices":87,
					"material":11
				}
			]
		},
		{
			"name":"Object_113.006",
			"primitives":[
				{
					"attributes":{
						"POSITION":88,
						"NORMAL":89,
						"TEXCOORD_0":90
					},
					"indices":75,
					"material":12
				}
			]
		},
		{
			"name":"Object_114.006",
			"primitives":[
				{
					"attributes":{
						"POSITION":91,
						"NORMAL":92,
						"TEXCOORD_0":93
					},
					"indices":79,
					"material":11
				}
			]
		},
		{
			"name":"Object_115.006",
			"primitives":[
				{
					"attributes":{
						"POSITION":94,
						"NORMAL":95,
						"TEXCOORD_0":96
					},
					"indices":83,
					"material":12
				}
			]
		},
		{
			"name":"Object_116.006",
			"primitives":[
				{
					"attributes":{
						"POSITION":97,
						"NORMAL":98,
						"TEXCOORD_0":99
					},
					"indices":87,
					"material":11
				}
			]
		},
		{
			"name":"Object_77.006",
			"primitives":[
				{
					"attributes":{
						"POSITION":100,
						"NORMAL":101,
						"TEXCOORD_0":102
					},
					"indices":103,
					"material":0
				}
			]
		},
		{
			"name":"Object_78.006",
			"primitives":[
				{
					"attributes":{
						"POSITION":104,
						"NORMAL":105,
						"TEXCOORD_0":106
					},
					"indices":107,
					"material":1
				}
			]
		},
		{
			"name":"Object_79.006",
			"primitives":[
				{
					"attributes":{
						"POSITION":108,
						"NORMAL":109,
						"TEXCOORD_0":110
					},
					"indices":111,
					"material":2
				}
			]
		},
		{
			"name":"Object_80.006",
			"primitives":[
				{
					"attributes":{
						"POSITION":112,
						"NORMAL":113,
						"TEXCOORD_0":114
					},
					"indices":115,
					"material":3
				}
			]
		},
		{
			"name":"Object_81.006",
			"primitives":[
				{
					"attributes":{
						"POSITION":116,
						"NORMAL":117,
						"TEXCOORD_0":118
					},
					"indices":119,
					"material":4
				}
			]
		},
		{
			"name":"Object_82.006",
			"primitives":[
				{
					"attributes":{
						"POSITION":120,
						"NORMAL":121,
						"TEXCOORD_0":122
					},
					"indices":123,
					"material":5
				}
			]
		},
		{
			"name":"Object_83.006",
			"primitives":[
				{
					"attributes":{
						"POSITION":124,
						"NORMAL":125,
						"TEXCOORD_0":126
					},
					"indices":127,
					"material":6
				}
			]
		},
		{
			"name":"Object_84.006",
			"primitives":[
				{
					"attributes":{
						"POSITION":128,
						"NORMAL":129,
						"TEXCOORD_0":130
					},
					"indices":131,
					"material":7
				}
			]
		},
		{
			"name":"Object_85.006",
			"primitives":[
				{
					"attributes":{
						"POSITION":132,
						"NORMAL":133,
						"TEXCOORD_0":134
					},
					"indices":135,
					"material":8
				}
			]
		},
		{
			"name":"Object_86.006",
			"primitives":[
				{
					"attributes":{
						"POSITION":136,
						"NORMAL":137,
						"TEXCOORD_0":138
					},
					"indices":139,
					"material":9
				}
			]
		},
		{
			"name":"Object_87.006",
			"primitives":[
				{
					"attributes":{
						"POSITION":140,
						"NORMAL":141,
						"TEXCOORD_0":142
					},
					"indices":143,
					"material":13
				}
			]
		},
		{
			"name":"Object_88.006",
			"primitives":[
				{
					"attributes":{
						"POSITION":144,
						"NORMAL":145,
						"TEXCOORD_0":146
					},
					"indices":147,
					"material":12
				}
			]
		},
		{
			"name":"Object_89.006",
			"primitives":[
				{
					"attributes":{
						"POSITION":148,
						"NORMAL":149,
						"TEXCOORD_0":150
					},
					"indices":151,
					"material":14
				}
			]
		},
		{
			"name":"Object_72.006",
			"primitives":[
				{
					"attributes":{
						"POSITION":152,
						"NORMAL":153,
						"TEXCOORD_0":154
					},
					"indices":155,
					"material":15
				}
			]
		},
		{
			"name":"Object_73.006",
			"primitives":[
				{
					"attributes":{
						"POSITION":156,
						"NORMAL":157,
						"TEXCOORD_0":158
					},
					"indices":159,
					"material":11
				}
			]
		},
		{
			"name":"Object_74.006",
			"primitives":[
				{
					"attributes":{
						"POSITION":160,
						"NORMAL":161,
						"TEXCOORD_0":162
					},
					"indices":163,
					"material":16
				}
			]
		},
		{
			"name":"Object_75.006",
			"primitives":[
				{
					"attributes":{
						"POSITION":164,
						"NORMAL":165,
						"TEXCOORD_0":166
					},
					"indices":167,
					"material":17
				}
			]
		},
		{
			"name":"Object_76.006",
			"primitives":[
				{
					"attributes":{
						"POSITION":168,
						"NORMAL":169,
						"TEXCOORD_0":170
					},
					"indices":171,
					"material":18
				}
			]
		}
	],
	"textures":[
		{
			"sampler":0,
			"source":0
		},
		{
			"sampler":0,
			"source":0
		},
		{
			"sampler":0,
			"source":0
		},
		{
			"sampler":0,
			"source":0
		},
		{
			"sampler":0,
			"source":0
		},
		{
			"sampler":0,
			"source":0
		},
		{
			"sampler":0,
			"source":0
		},
		{
			"sampler":0,
			"source":0
		},
		{
			"sampler":0,
			"source":0
		},
		{
			"sampler":0,
			"source":0
		},
		{
			"sampler":0,
			"source":0
		},
		{
			"sampler":0,
			"source":0
		},
		{
			"sampler":0,
			"source":0
		},
		{
			"sampler":0,
			"source":1
		},
		{
			"sampler":0,
			"source":0
		},
		{
			"sampler":0,
			"source":0
		},
		{
			"sampler":0,
			"source":0
		}
	],
	"images":[
		{
			"mimeType":"image/png",
			"name":"Material.022_metallicRoughness",
			"uri":"textures/Material_022_metallicRoughness.png"
		},
		{
			"mimeType":"image/png",
			"name":"Material.056_baseColor",
			"uri":"textures/Material_056_baseColor.png"
		}
	],
	"accessors":[
		{
			"bufferView":0,
			"componentType":5126,
			"count":1470,
			"max":[
				0.6595748662948608,
				1.7669779062271118,
				0.779727578163147
			],
			"min":[
				-0.5078167915344238,
				-0.18228363990783691,
				-0.5078170299530029
			],
			"type":"VEC3"
		},
		{
			"bufferView":1,
			"componentType":5126,
			"count":1470,
			"type":"VEC3"
		},
		{
			"bufferView":2,
			"componentType":5126,
			"count":1470,
			"type":"VEC2"
		},
		{
			"bufferView":3,
			"componentType":5123,
			"count":4794,
			"type":"SCALAR"
		},
		{
			"bufferView":4,
			"componentType":5126,
			"count":132,
			"max":[
				0.8004335761070251,
				2.9918899536132812,
				0.8004334568977356
			],
			"min":[
				-0.800433337688446,
				1.706855297088623,
				-0.8004334568977356
			],
			"type":"VEC3"
		},
		{
			"bufferView":5,
			"componentType":5126,
			"count":132,
			"type":"VEC3"
		},
		{
			"bufferView":6,
			"componentType":5126,
			"count":132,
			"type":"VEC2"
		},
		{
			"bufferView":7,
			"componentType":5123,
			"count":576,
			"type":"SCALAR"
		},
		{
			"bufferView":8,
			"componentType":5126,
			"count":64,
			"max":[
				0.31476345658302307,
				1.4484319686889648,
				0.7324100732803345
			],
			"min":[
				-0.31476324796676636,
				1.383736491203308,
				-0.3147633373737335
			],
			"type":"VEC3"
		},
		{
			"bufferView":9,
			"componentType":5126,
			"count":64,
			"type":"VEC3"
		},
		{
			"bufferView":10,
			"componentType":5126,
			"count":64,
			"type":"VEC2"
		},
		{
			"bufferView":11,
			"componentType":5123,
			"count":180,
			"type":"SCALAR"
		},
		{
			"bufferView":12,
			"componentType":5126,
			"count":4143,
			"max":[
				0.6787737607955933,
				1.4188162088394165,
				0.7714216113090515
			],
			"min":[
				-0.44913777709007263,
				-0.059172630310058594,
				-0.9696383476257324
			],
			"type":"VEC3"
		},
		{
			"bufferView":13,
			"componentType":5126,
			"count":4143,
			"type":"VEC3"
		},
		{
			"bufferView":14,
			"componentType":5126,
			"count":4143,
			"type":"VEC2"
		},
		{
			"bufferView":15,
			"componentType":5123,
			"count":12780,
			"type":"SCALAR"
		},
		{
			"bufferView":16,
			"componentType":5126,
			"count":48,
			"max":[
				0.4111768901348114,
				0.12304461002349854,
				0.9314208030700684
			],
			"min":[
				-0.39902564883232117,
				-0.09310007095336914,
				-1.003035068511963
			],
			"type":"VEC3"
		},
		{
			"bufferView":17,
			"componentType":5126,
			"count":48,
			"type":"VEC3"
		},
		{
			"bufferView":18,
			"componentType":5126,
			"count":48,
			"type":"VEC2"
		},
		{
			"bufferView":19,
			"componentType":5123,
			"count":72,
			"type":"SCALAR"
		},
		{
			"bufferView":20,
			"componentType":5126,
			"count":44,
			"max":[
				0.06710334122180939,
				0.9999398589134216,
				-0.2196829915046692
			],
			"min":[
				-0.015573021955788136,
				-0.07702159881591797,
				-0.970359206199646
			],
			"type":"VEC3"
		},
		{
			"bufferView":21,
			"componentType":5126,
			"count":44,
			"type":"VEC3"
		},
		{
			"bufferView":22,
			"componentType":5126,
			"count":44,
			"type":"VEC2"
		},
		{
			"bufferView":23,
			"componentType":5123,
			"count":84,
			"type":"SCALAR"
		},
		{
			"bufferView":24,
			"componentType":5126,
			"count":146,
			"max":[
				0.040089696645736694,
				0.310992956161499,
				0.5100525617599487
			],
			"min":[
				-0.5091731548309326,
				0.08859610557556152,
				-0.5582960844039917
			],
			"type":"VEC3"
		},
		{
			"bufferView":25,
			"componentType":5126,
			"count":146,
			"type":"VEC3"
		},
		{
			"bufferView":26,
			"componentType":5126,
			"count":146,
			"type":"VEC2"
		},
		{
			"bufferView":27,
			"componentType":5123,
			"count":360,
			"type":"SCALAR"
		},
		{
			"bufferView":28,
			"componentType":5126,
			"count":364,
			"max":[
				-0.14891187846660614,
				0.31971848011016846,
				0.8568484783172607
			],
			"min":[
				-0.5379973649978638,
				0.06813812255859375,
				-0.32659751176834106
			],
			"type":"VEC3"
		},
		{
			"bufferView":29,
			"componentType":5126,
			"count":364,
			"type":"VEC3"
		},
		{
			"bufferView":30,
			"componentType":5126,
			"count":364,
			"type":"VEC2"
		},
		{
			"bufferView":31,
			"componentType":5123,
			"count":972,
			"type":"SCALAR"
		},
		{
			"bufferView":32,
			"componentType":5126,
			"count":56,
			"max":[
				-0.14891187846660614,
				0.21481072902679443,
				0.7944063544273376
			],
			"min":[
				-0.2759847939014435,
				0.0877377986907959,
				0.5678200125694275
			],
			"type":"VEC3"
		},
		{
			"bufferView":33,
			"componentType":5126,
			"count":56,
			"type":"VEC3"
		},
		{
			"bufferView":34,
			"componentType":5126,
			"count":56,
			"type":"VEC2"
		},
		{
			"bufferView":35,
			"componentType":5123,
			"count":120,
			"type":"SCALAR"
		},
		{
			"bufferView":36,
			"componentType":5126,
			"count":164,
			"max":[
				0.9734428524971008,
				1.8749961853027344,
				0.9758958220481873
			],
			"min":[
				-0.9759466052055359,
				0.8656821846961975,
				-0.9734936356544495
			],
			"type":"VEC3"
		},
		{
			"bufferView":37,
			"componentType":5126,
			"count":164,
			"type":"VEC3"
		},
		{
			"bufferView":38,
			"componentType":5126,
			"count":164,
			"type":"VEC2"
		},
		{
			"bufferView":39,
			"componentType":5123,
			"count":474,
			"type":"SCALAR"
		},
		{
			"bufferView":40,
			"componentType":5126,
			"count":280,
			"max":[
				1,
				1.343886137008667,
				1
			],
			"min":[
				-1,
				-1.343886137008667,
				-1
			],
			"type":"VEC3"
		},
		{
			"bufferView":41,
			"componentType":5126,
			"count":280,
			"type":"VEC3"
		},
		{
			"bufferView":42,
			"componentType":5126,
			"count":280,
			"type":"VEC2"
		},
		{
			"bufferView":43,
			"componentType":5123,
			"count":756,
			"type":"SCALAR"
		},
		{
			"bufferView":44,
			"componentType":5126,
			"count":648,
			"max":[
				0.8559744954109192,
				3.212157964706421,
				16.450210571289062
			],
			"min":[
				-0.8559744954109192,
				-3.2467973232269287,
				-0.3851865530014038
			],
			"type":"VEC3"
		},
		{
			"bufferView":45,
			"componentType":5126,
			"count":648,
			"type":"VEC3"
		},
		{
			"bufferView":46,
			"componentType":5126,
			"count":648,
			"type":"VEC2"
		},
		{
			"bufferView":47,
			"componentType":5123,
			"count":972,
			"type":"SCALAR"
		},
		{
			"bufferView":48,
			"componentType":5126,
			"count":280,
			"max":[
				1,
				1.343886137008667,
				1
			],
			"min":[
				-1,
				-1.343886137008667,
				-1
			],
			"type":"VEC3"
		},
		{
			"bufferView":49,
			"componentType":5126,
			"count":280,
			"type":"VEC3"
		},
		{
			"bufferView":50,
			"componentType":5126,
			"count":280,
			"type":"VEC2"
		},
		{
			"bufferView":51,
			"componentType":5123,
			"count":756,
			"type":"SCALAR"
		},
		{
			"bufferView":52,
			"componentType":5126,
			"count":648,
			"max":[
				0.8559744954109192,
				3.2467973232269287,
				0.3851865530014038
			],
			"min":[
				-0.8559744954109192,
				-3.212157964706421,
				-16.450210571289062
			],
			"type":"VEC3"
		},
		{
			"bufferView":53,
			"componentType":5126,
			"count":648,
			"type":"VEC3"
		},
		{
			"bufferView":54,
			"componentType":5126,
			"count":648,
			"type":"VEC2"
		},
		{
			"bufferView":55,
			"componentType":5123,
			"count":972,
			"type":"SCALAR"
		},
		{
			"bufferView":56,
			"componentType":5126,
			"count":280,
			"max":[
				1,
				1.343886137008667,
				1
			],
			"min":[
				-1,
				-1.343886137008667,
				-1
			],
			"type":"VEC3"
		},
		{
			"bufferView":57,
			"componentType":5126,
			"count":280,
			"type":"VEC3"
		},
		{
			"bufferView":58,
			"componentType":5126,
			"count":280,
			"type":"VEC2"
		},
		{
			"bufferView":59,
			"componentType":5126,
			"count":648,
			"max":[
				0.8559744954109192,
				3.212157964706421,
				16.450210571289062
			],
			"min":[
				-0.8559744954109192,
				-3.2467973232269287,
				-0.3851865530014038
			],
			"type":"VEC3"
		},
		{
			"bufferView":60,
			"componentType":5126,
			"count":648,
			"type":"VEC3"
		},
		{
			"bufferView":61,
			"componentType":5126,
			"count":648,
			"type":"VEC2"
		},
		{
			"bufferView":62,
			"componentType":5126,
			"count":280,
			"max":[
				1,
				1.343886137008667,
				1
			],
			"min":[
				-1,
				-1.343886137008667,
				-1
			],
			"type":"VEC3"
		},
		{
			"bufferView":63,
			"componentType":5126,
			"count":280,
			"type":"VEC3"
		},
		{
			"bufferView":64,
			"componentType":5126,
			"count":280,
			"type":"VEC2"
		},
		{
			"bufferView":65,
			"componentType":5126,
			"count":648,
			"max":[
				0.8559744954109192,
				3.2467973232269287,
				0.3851865530014038
			],
			"min":[
				-0.8559744954109192,
				-3.212157964706421,
				-16.450210571289062
			],
			"type":"VEC3"
		},
		{
			"bufferView":66,
			"componentType":5126,
			"count":648,
			"type":"VEC3"
		},
		{
			"bufferView":67,
			"componentType":5126,
			"count":648,
			"type":"VEC2"
		},
		{
			"bufferView":68,
			"componentType":5126,
			"count":520,
			"max":[
				1.0001084804534912,
				8.259292602539062,
				6.679475784301758
			],
			"min":[
				-10.136409759521484,
				-0.7677516341209412,
				-6.683230876922607
			],
			"type":"VEC3"
		},
		{
			"bufferView":69,
			"componentType":5126,
			"count":520,
			"type":"VEC3"
		},
		{
			"bufferView":70,
			"componentType":5126,
			"count":520,
			"type":"VEC2"
		},
		{
			"bufferView":71,
			"componentType":5123,
			"count":1488,
			"type":"SCALAR"
		},
		{
			"bufferView":72,
			"componentType":5126,
			"count":308,
			"max":[
				1.0010449886322021,
				6.037891387939453,
				1.0037813186645508
			],
			"min":[
				-1.482635736465454,
				-6.102628231048584,
				-1.0038456916809082
			],
			"type":"VEC3"
		},
		{
			"bufferView":73,
			"componentType":5126,
			"count":308,
			"type":"VEC3"
		},
		{
			"bufferView":74,
			"componentType":5126,
			"count":308,
			"type":"VEC2"
		},
		{
			"bufferView":75,
			"componentType":5123,
			"count":888,
			"type":"SCALAR"
		},
		{
			"bufferView":76,
			"componentType":5126,
			"count":134,
			"max":[
				-0.3548694849014282,
				5.94549560546875,
				-0.09780427068471909
			],
			"min":[
				-4.33591890335083,
				-5.939951419830322,
				-62.450889587402344
			],
			"type":"VEC3"
		},
		{
			"bufferView":77,
			"componentType":5126,
			"count":134,
			"type":"VEC3"
		},
		{
			"bufferView":78,
			"componentType":5126,
			"count":134,
			"type":"VEC2"
		},
		{
			"bufferView":79,
			"componentType":5123,
			"count":420,
			"type":"SCALAR"
		},
		{
			"bufferView":80,
			"componentType":5126,
			"count":308,
			"max":[
				1.482635736465454,
				6.102628231048584,
				1.0038456916809082
			],
			"min":[
				-1.0010449886322021,
				-6.037891387939453,
				-1.0037813186645508
			],
			"type":"VEC3"
		},
		{
			"bufferView":81,
			"componentType":5126,
			"count":308,
			"type":"VEC3"
		},
		{
			"bufferView":82,
			"componentType":5126,
			"count":308,
			"type":"VEC2"
		},
		{
			"bufferView":83,
			"componentType":5123,
			"count":888,
			"type":"SCALAR"
		},
		{
			"bufferView":84,
			"componentType":5126,
			"count":134,
			"max":[
				4.33591890335083,
				5.939951419830322,
				62.450889587402344
			],
			"min":[
				0.3548694849014282,
				-5.94549560546875,
				0.09780427068471909
			],
			"type":"VEC3"
		},
		{
			"bufferView":85,
			"componentType":5126,
			"count":134,
			"type":"VEC3"
		},
		{
			"bufferView":86,
			"componentType":5126,
			"count":134,
			"type":"VEC2"
		},
		{
			"bufferView":87,
			"componentType":5123,
			"count":420,
			"type":"SCALAR"
		},
		{
			"bufferView":88,
			"componentType":5126,
			"count":308,
			"max":[
				1.0010449886322021,
				6.037891387939453,
				1.0037813186645508
			],
			"min":[
				-1.482635736465454,
				-6.102628231048584,
				-1.0038456916809082
			],
			"type":"VEC3"
		},
		{
			"bufferView":89,
			"componentType":5126,
			"count":308,
			"type":"VEC3"
		},
		{
			"bufferView":90,
			"componentType":5126,
			"count":308,
			"type":"VEC2"
		},
		{
			"bufferView":91,
			"componentType":5126,
			"count":134,
			"max":[
				-0.3548694849014282,
				5.94549560546875,
				-0.09780427068471909
			],
			"min":[
				-4.33591890335083,
				-5.939951419830322,
				-62.450889587402344
			],
			"type":"VEC3"
		},
		{
			"bufferView":92,
			"componentType":5126,
			"count":134,
			"type":"VEC3"
		},
		{
			"bufferView":93,
			"componentType":5126,
			"count":134,
			"type":"VEC2"
		},
		{
			"bufferView":94,
			"componentType":5126,
			"count":308,
			"max":[
				1.482635736465454,
				6.102628231048584,
				1.0038456916809082
			],
			"min":[
				-1.0010449886322021,
				-6.037891387939453,
				-1.0037813186645508
			],
			"type":"VEC3"
		},
		{
			"bufferView":95,
			"componentType":5126,
			"count":308,
			"type":"VEC3"
		},
		{
			"bufferView":96,
			"componentType":5126,
			"count":308,
			"type":"VEC2"
		},
		{
			"bufferView":97,
			"componentType":5126,
			"count":134,
			"max":[
				4.33591890335083,
				5.939951419830322,
				62.450889587402344
			],
			"min":[
				0.3548694849014282,
				-5.94549560546875,
				0.09780427068471909
			],
			"type":"VEC3"
		},
		{
			"bufferView":98,
			"componentType":5126,
			"count":134,
			"type":"VEC3"
		},
		{
			"bufferView":99,
			"componentType":5126,
			"count":134,
			"type":"VEC2"
		},
		{
			"bufferView":100,
			"componentType":5126,
			"count":13739,
			"max":[
				0.80435711145401,
				12.520524024963379,
				0.8105788230895996
			],
			"min":[
				-0.8040072321891785,
				11.534637451171875,
				-0.7995672225952148
			],
			"type":"VEC3"
		},
		{
			"bufferView":101,
			"componentType":5126,
			"count":13739,
			"type":"VEC3"
		},
		{
			"bufferView":102,
			"componentType":5126,
			"count":13739,
			"type":"VEC2"
		},
		{
			"bufferView":103,
			"componentType":5123,
			"count":41328,
			"type":"SCALAR"
		},
		{
			"bufferView":104,
			"componentType":5126,
			"count":1056,
			"max":[
				0.8929852247238159,
				12.89152717590332,
				0.8992066383361816
			],
			"min":[
				-0.8926353454589844,
				12.502313613891602,
				-0.8881950378417969
			],
			"type":"VEC3"
		},
		{
			"bufferView":105,
			"componentType":5126,
			"count":1056,
			"type":"VEC3"
		},
		{
			"bufferView":106,
			"componentType":5126,
			"count":1056,
			"type":"VEC2"
		},
		{
			"bufferView":107,
			"componentType":5123,
			"count":4608,
			"type":"SCALAR"
		},
		{
			"bufferView":108,
			"componentType":5126,
			"count":521,
			"max":[
				0.7458847761154175,
				12.424042701721191,
				0.7521067261695862
			],
			"min":[
				-0.7455348968505859,
				12.404447555541992,
				-0.7410951256752014
			],
			"type":"VEC3"
		},
		{
			"bufferView":109,
			"componentType":5126,
			"count":521,
			"type":"VEC3"
		},
		{
			"bufferView":110,
			"componentType":5126,
			"count":521,
			"type":"VEC2"
		},
		{
			"bufferView":111,
			"componentType":5123,
			"count":1440,
			"type":"SCALAR"
		},
		{
			"bufferView":112,
			"componentType":5126,
			"count":33288,
			"max":[
				0.7865843176841736,
				12.415072441101074,
				0.7927696108818054
			],
			"min":[
				-0.786234438419342,
				11.967416763305664,
				-0.7817580103874207
			],
			"type":"VEC3"
		},
		{
			"bufferView":113,
			"componentType":5126,
			"count":33288,
			"type":"VEC3"
		},
		{
			"bufferView":114,
			"componentType":5126,
			"count":33288,
			"type":"VEC2"
		},
		{
			"bufferView":115,
			"componentType":5123,
			"count":102240,
			"type":"SCALAR"
		},
		{
			"bufferView":116,
			"componentType":5126,
			"count":384,
			"max":[
				0.7714062929153442,
				12.02260684967041,
				0.7779801487922668
			],
			"min":[
				-0.7710564136505127,
				11.957140922546387,
				-0.7669685482978821
			],
			"type":"VEC3"
		},
		{
			"bufferView":117,
			"componentType":5126,
			"count":384,
			"type":"VEC3"
		},
		{
			"bufferView":118,
			"componentType":5126,
			"count":384,
			"type":"VEC2"
		},
		{
			"bufferView":119,
			"componentType":5123,
			"count":576,
			"type":"SCALAR"
		},
		{
			"bufferView":120,
			"componentType":5126,
			"count":352,
			"max":[
				0.6552655696868896,
				12.288202285766602,
				0.6612988114356995
			],
			"min":[
				-0.6549156904220581,
				11.962010383605957,
				-0.6502872109413147
			],
			"type":"VEC3"
		},
		{
			"bufferView":121,
			"componentType":5126,
			"count":352,
			"type":"VEC3"
		},
		{
			"bufferView":122,
			"componentType":5126,
			"count":352,
			"type":"VEC2"
		},
		{
			"bufferView":123,
			"componentType":5123,
			"count":672,
			"type":"SCALAR"
		},
		{
			"bufferView":124,
			"componentType":5126,
			"count":1164,
			"max":[
				0.804767906665802,
				12.079533576965332,
				0.8113150596618652
			],
			"min":[
				-0.8044180274009705,
				12.012173652648926,
				-0.8003034591674805
			],
			"type":"VEC3"
		},
		{
			"bufferView":125,
			"componentType":5126,
			"count":1164,
			"type":"VEC3"
		},
		{
			"bufferView":126,
			"componentType":5126,
			"count":1164,
			"type":"VEC2"
		},
		{
			"bufferView":127,
			"componentType":5123,
			"count":2880,
			"type":"SCALAR"
		},
		{
			"bufferView":128,
			"componentType":5126,
			"count":3537,
			"max":[
				1.06302011013031,
				12.082176208496094,
				1.0736136436462402
			],
			"min":[
				-1.06302011013031,
				-9.482515335083008,
				-1.0736135244369507
			],
			"type":"VEC3"
		},
		{
			"bufferView":129,
			"componentType":5126,
			"count":3537,
			"type":"VEC3"
		},
		{
			"bufferView":130,
			"componentType":5126,
			"count":3537,
			"type":"VEC2"
		},
		{
			"bufferView":131,
			"componentType":5123,
			"count":8856,
			"type":"SCALAR"
		},
		{
			"bufferView":132,
			"componentType":5126,
			"count":460,
			"max":[
				0.7341395020484924,
				12.05040168762207,
				0.7410454154014587
			],
			"min":[
				-0.7337896227836609,
				12.011913299560547,
				-0.730033814907074
			],
			"type":"VEC3"
		},
		{
			"bufferView":133,
			"componentType":5126,
			"count":460,
			"type":"VEC3"
		},
		{
			"bufferView":134,
			"componentType":5126,
			"count":460,
			"type":"VEC2"
		},
		{
			"bufferView":135,
			"componentType":5123,
			"count":960,
			"type":"SCALAR"
		},
		{
			"bufferView":136,
			"componentType":5126,
			"count":32,
			"max":[
				0.29526907205581665,
				12.224722862243652,
				0.29987406730651855
			],
			"min":[
				-0.29756954312324524,
				12.224722862243652,
				-0.29296422004699707
			],
			"type":"VEC3"
		},
		{
			"bufferView":137,
			"componentType":5126,
			"count":32,
			"type":"VEC3"
		},
		{
			"bufferView":138,
			"componentType":5126,
			"count":32,
			"type":"VEC2"
		},
		{
			"bufferView":139,
			"componentType":5123,
			"count":90,
			"type":"SCALAR"
		},
		{
			"bufferView":140,
			"componentType":5126,
			"count":348,
			"max":[
				0.15056326985359192,
				12.085535049438477,
				1.000148892402649
			],
			"min":[
				-0.15175065398216248,
				12.041688919067383,
				-0.9987331032752991
			],
			"type":"VEC3"
		},
		{
			"bufferView":141,
			"componentType":5126,
			"count":348,
			"type":"VEC3"
		},
		{
			"bufferView":142,
			"componentType":5126,
			"count":348,
			"type":"VEC2"
		},
		{
			"bufferView":143,
			"componentType":5123,
			"count":720,
			"type":"SCALAR"
		},
		{
			"bufferView":144,
			"componentType":5126,
			"count":1213,
			"max":[
				0.9104906320571899,
				-8.76994514465332,
				0.8685150146484375
			],
			"min":[
				-0.8198962211608887,
				-10.085625648498535,
				-0.8573647141456604
			],
			"type":"VEC3"
		},
		{
			"bufferView":145,
			"componentType":5126,
			"count":1213,
			"type":"VEC3"
		},
		{
			"bufferView":146,
			"componentType":5126,
			"count":1213,
			"type":"VEC2"
		},
		{
			"bufferView":147,
			"componentType":5123,
			"count":2628,
			"type":"SCALAR"
		},
		{
			"bufferView":148,
			"componentType":5126,
			"count":230,
			"max":[
				0.9343820810317993,
				-8.782632827758789,
				0.08327379077672958
			],
			"min":[
				-0.9696457386016846,
				-9.448006629943848,
				-0.08854131400585175
			],
			"type":"VEC3"
		},
		{
			"bufferView":149,
			"componentType":5126,
			"count":230,
			"type":"VEC3"
		},
		{
			"bufferView":150,
			"componentType":5126,
			"count":230,
			"type":"VEC2"
		},
		{
			"bufferView":151,
			"componentType":5123,
			"count":636,
			"type":"SCALAR"
		},
		{
			"bufferView":152,
			"componentType":5126,
			"count":2387,
			"max":[
				1.067201018333435,
				10.464733123779297,
				1.0006800889968872
			],
			"min":[
				-1.067201018333435,
				-11.607903480529785,
				-0.9993199110031128
			],
			"type":"VEC3"
		},
		{
			"bufferView":153,
			"componentType":5126,
			"count":2387,
			"type":"VEC3"
		},
		{
			"bufferView":154,
			"componentType":5126,
			"count":2387,
			"type":"VEC2"
		},
		{
			"bufferView":155,
			"componentType":5123,
			"count":8424,
			"type":"SCALAR"
		},
		{
			"bufferView":156,
			"componentType":5126,
			"count":2258,
			"max":[
				1.0001749992370605,
				12.41743278503418,
				1.0775398015975952
			],
			"min":[
				-0.9998250603675842,
				-9.964590072631836,
				-1.0775398015975952
			],
			"type":"VEC3"
		},
		{
			"bufferView":157,
			"componentType":5126,
			"count":2258,
			"type":"VEC3"
		},
		{
			"bufferView":158,
			"componentType":5126,
			"count":2258,
			"type":"VEC2"
		},
		{
			"bufferView":159,
			"componentType":5123,
			"count":7194,
			"type":"SCALAR"
		},
		{
			"bufferView":160,
			"componentType":5126,
			"count":54,
			"max":[
				1.0001749992370605,
				3.0678696632385254,
				0.4698069095611572
			],
			"min":[
				0.8778494000434875,
				-1.4006361961364746,
				-0.46844691038131714
			],
			"type":"VEC3"
		},
		{
			"bufferView":161,
			"componentType":5126,
			"count":54,
			"type":"VEC3"
		},
		{
			"bufferView":162,
			"componentType":5126,
			"count":54,
			"type":"VEC2"
		},
		{
			"bufferView":163,
			"componentType":5123,
			"count":180,
			"type":"SCALAR"
		},
		{
			"bufferView":164,
			"componentType":5126,
			"count":10627,
			"max":[
				1.00017511844635,
				12.027765274047852,
				1.000680923461914
			],
			"min":[
				-0.9998250603675842,
				-9.387870788574219,
				-0.9993199110031128
			],
			"type":"VEC3"
		},
		{
			"bufferView":165,
			"componentType":5126,
			"count":10627,
			"type":"VEC3"
		},
		{
			"bufferView":166,
			"componentType":5126,
			"count":10627,
			"type":"VEC2"
		},
		{
			"bufferView":167,
			"componentType":5123,
			"count":30318,
			"type":"SCALAR"
		},
		{
			"bufferView":168,
			"componentType":5126,
			"count":882,
			"max":[
				0.8581342697143555,
				-8.95505142211914,
				0.8634651899337769
			],
			"min":[
				-0.8577843904495239,
				-9.293529510498047,
				-0.8524534702301025
			],
			"type":"VEC3"
		},
		{
			"bufferView":169,
			"componentType":5126,
			"count":882,
			"type":"VEC3"
		},
		{
			"bufferView":170,
			"componentType":5126,
			"count":882,
			"type":"VEC2"
		},
		{
			"bufferView":171,
			"componentType":5123,
			"count":3456,
			"type":"SCALAR"
		}
	],
	"bufferViews":[
		{
			"buffer":0,
			"byteLength":17640,
			"byteOffset":0,
			"target":34962
		},
		{
			"buffer":0,
			"byteLength":17640,
			"byteOffset":17640,
			"target":34962
		},
		{
			"buffer":0,
			"byteLength":11760,
			"byteOffset":35280,
			"target":34962
		},
		{
			"buffer":0,
			"byteLength":9588,
			"byteOffset":47040,
			"target":34963
		},
		{
			"buffer":0,
			"byteLength":1584,
			"byteOffset":56628,
			"target":34962
		},
		{
			"buffer":0,
			"byteLength":1584,
			"byteOffset":58212,
			"target":34962
		},
		{
			"buffer":0,
			"byteLength":1056,
			"byteOffset":59796,
			"target":34962
		},
		{
			"buffer":0,
			"byteLength":1152,
			"byteOffset":60852,
			"target":34963
		},
		{
			"buffer":0,
			"byteLength":768,
			"byteOffset":62004,
			"target":34962
		},
		{
			"buffer":0,
			"byteLength":768,
			"byteOffset":62772,
			"target":34962
		},
		{
			"buffer":0,
			"byteLength":512,
			"byteOffset":63540,
			"target":34962
		},
		{
			"buffer":0,
			"byteLength":360,
			"byteOffset":64052,
			"target":34963
		},
		{
			"buffer":0,
			"byteLength":49716,
			"byteOffset":64412,
			"target":34962
		},
		{
			"buffer":0,
			"byteLength":49716,
			"byteOffset":114128,
			"target":34962
		},
		{
			"buffer":0,
			"byteLength":33144,
			"byteOffset":163844,
			"target":34962
		},
		{
			"buffer":0,
			"byteLength":25560,
			"byteOffset":196988,
			"target":34963
		},
		{
			"buffer":0,
			"byteLength":576,
			"byteOffset":222548,
			"target":34962
		},
		{
			"buffer":0,
			"byteLength":576,
			"byteOffset":223124,
			"target":34962
		},
		{
			"buffer":0,
			"byteLength":384,
			"byteOffset":223700,
			"target":34962
		},
		{
			"buffer":0,
			"byteLength":144,
			"byteOffset":224084,
			"target":34963
		},
		{
			"buffer":0,
			"byteLength":528,
			"byteOffset":224228,
			"target":34962
		},
		{
			"buffer":0,
			"byteLength":528,
			"byteOffset":224756,
			"target":34962
		},
		{
			"buffer":0,
			"byteLength":352,
			"byteOffset":225284,
			"target":34962
		},
		{
			"buffer":0,
			"byteLength":168,
			"byteOffset":225636,
			"target":34963
		},
		{
			"buffer":0,
			"byteLength":1752,
			"byteOffset":225804,
			"target":34962
		},
		{
			"buffer":0,
			"byteLength":1752,
			"byteOffset":227556,
			"target":34962
		},
		{
			"buffer":0,
			"byteLength":1168,
			"byteOffset":229308,
			"target":34962
		},
		{
			"buffer":0,
			"byteLength":720,
			"byteOffset":230476,
			"target":34963
		},
		{
			"buffer":0,
			"byteLength":4368,
			"byteOffset":231196,
			"target":34962
		},
		{
			"buffer":0,
			"byteLength":4368,
			"byteOffset":235564,
			"target":34962
		},
		{
			"buffer":0,
			"byteLength":2912,
			"byteOffset":239932,
			"target":34962
		},
		{
			"buffer":0,
			"byteLength":1944,
			"byteOffset":242844,
			"target":34963
		},
		{
			"buffer":0,
			"byteLength":672,
			"byteOffset":244788,
			"target":34962
		},
		{
			"buffer":0,
			"byteLength":672,
			"byteOffset":245460,
			"target":34962
		},
		{
			"buffer":0,
			"byteLength":448,
			"byteOffset":246132,
			"target":34962
		},
		{
			"buffer":0,
			"byteLength":240,
			"byteOffset":246580,
			"target":34963
		},
		{
			"buffer":0,
			"byteLength":1968,
			"byteOffset":246820,
			"target":34962
		},
		{
			"buffer":0,
			"byteLength":1968,
			"byteOffset":248788,
			"target":34962
		},
		{
			"buffer":0,
			"byteLength":1312,
			"byteOffset":250756,
			"target":34962
		},
		{
			"buffer":0,
			"byteLength":948,
			"byteOffset":252068,
			"target":34963
		},
		{
			"buffer":0,
			"byteLength":3360,
			"byteOffset":253016,
			"target":34962
		},
		{
			"buffer":0,
			"byteLength":3360,
			"byteOffset":256376,
			"target":34962
		},
		{
			"buffer":0,
			"byteLength":2240,
			"byteOffset":259736,
			"target":34962
		},
		{
			"buffer":0,
			"byteLength":1512,
			"byteOffset":261976,
			"target":34963
		},
		{
			"buffer":0,
			"byteLength":7776,
			"byteOffset":263488,
			"target":34962
		},
		{
			"buffer":0,
			"byteLength":7776,
			"byteOffset":271264,
			"target":34962
		},
		{
			"buffer":0,
			"byteLength":5184,
			"byteOffset":279040,
			"target":34962
		},
		{
			"buffer":0,
			"byteLength":1944,
			"byteOffset":284224,
			"target":34963
		},
		{
			"buffer":0,
			"byteLength":3360,
			"byteOffset":286168,
			"target":34962
		},
		{
			"buffer":0,
			"byteLength":3360,
			"byteOffset":289528,
			"target":34962
		},
		{
			"buffer":0,
			"byteLength":2240,
			"byteOffset":292888,
			"target":34962
		},
		{
			"buffer":0,
			"byteLength":1512,
			"byteOffset":295128,
			"target":34963
		},
		{
			"buffer":0,
			"byteLength":7776,
			"byteOffset":296640,
			"target":34962
		},
		{
			"buffer":0,
			"byteLength":7776,
			"byteOffset":304416,
			"target":34962
		},
		{
			"buffer":0,
			"byteLength":5184,
			"byteOffset":312192,
			"target":34962
		},
		{
			"buffer":0,
			"byteLength":1944,
			"byteOffset":317376,
			"target":34963
		},
		{
			"buffer":0,
			"byteLength":3360,
			"byteOffset":319320,
			"target":34962
		},
		{
			"buffer":0,
			"byteLength":3360,
			"byteOffset":322680,
			"target":34962
		},
		{
			"buffer":0,
			"byteLength":2240,
			"byteOffset":326040,
			"target":34962
		},
		{
			"buffer":0,
			"byteLength":7776,
			"byteOffset":328280,
			"target":34962
		},
		{
			"buffer":0,
			"byteLength":7776,
			"byteOffset":336056,
			"target":34962
		},
		{
			"buffer":0,
			"byteLength":5184,
			"byteOffset":343832,
			"target":34962
		},
		{
			"buffer":0,
			"byteLength":3360,
			"byteOffset":349016,
			"target":34962
		},
		{
			"buffer":0,
			"byteLength":3360,
			"byteOffset":352376,
			"target":34962
		},
		{
			"buffer":0,
			"byteLength":2240,
			"byteOffset":355736,
			"target":34962
		},
		{
			"buffer":0,
			"byteLength":7776,
			"byteOffset":357976,
			"target":34962
		},
		{
			"buffer":0,
			"byteLength":7776,
			"byteOffset":365752,
			"target":34962
		},
		{
			"buffer":0,
			"byteLength":5184,
			"byteOffset":373528,
			"target":34962
		},
		{
			"buffer":0,
			"byteLength":6240,
			"byteOffset":378712,
			"target":34962
		},
		{
			"buffer":0,
			"byteLength":6240,
			"byteOffset":384952,
			"target":34962
		},
		{
			"buffer":0,
			"byteLength":4160,
			"byteOffset":391192,
			"target":34962
		},
		{
			"buffer":0,
			"byteLength":2976,
			"byteOffset":395352,
			"target":34963
		},
		{
			"buffer":0,
			"byteLength":3696,
			"byteOffset":398328,
			"target":34962
		},
		{
			"buffer":0,
			"byteLength":3696,
			"byteOffset":402024,
			"target":34962
		},
		{
			"buffer":0,
			"byteLength":2464,
			"byteOffset":405720,
			"target":34962
		},
		{
			"buffer":0,
			"byteLength":1776,
			"byteOffset":408184,
			"target":34963
		},
		{
			"buffer":0,
			"byteLength":1608,
			"byteOffset":409960,
			"target":34962
		},
		{
			"buffer":0,
			"byteLength":1608,
			"byteOffset":411568,
			"target":34962
		},
		{
			"buffer":0,
			"byteLength":1072,
			"byteOffset":413176,
			"target":34962
		},
		{
			"buffer":0,
			"byteLength":840,
			"byteOffset":414248,
			"target":34963
		},
		{
			"buffer":0,
			"byteLength":3696,
			"byteOffset":415088,
			"target":34962
		},
		{
			"buffer":0,
			"byteLength":3696,
			"byteOffset":418784,
			"target":34962
		},
		{
			"buffer":0,
			"byteLength":2464,
			"byteOffset":422480,
			"target":34962
		},
		{
			"buffer":0,
			"byteLength":1776,
			"byteOffset":424944,
			"target":34963
		},
		{
			"buffer":0,
			"byteLength":1608,
			"byteOffset":426720,
			"target":34962
		},
		{
			"buffer":0,
			"byteLength":1608,
			"byteOffset":428328,
			"target":34962
		},
		{
			"buffer":0,
			"byteLength":1072,
			"byteOffset":429936,
			"target":34962
		},
		{
			"buffer":0,
			"byteLength":840,
			"byteOffset":431008,
			"target":34963
		},
		{
			"buffer":0,
			"byteLength":3696,
			"byteOffset":431848,
			"target":34962
		},
		{
			"buffer":0,
			"byteLength":3696,
			"byteOffset":435544,
			"target":34962
		},
		{
			"buffer":0,
			"byteLength":2464,
			"byteOffset":439240,
			"target":34962
		},
		{
			"buffer":0,
			"byteLength":1608,
			"byteOffset":441704,
			"target":34962
		},
		{
			"buffer":0,
			"byteLength":1608,
			"byteOffset":443312,
			"target":34962
		},
		{
			"buffer":0,
			"byteLength":1072,
			"byteOffset":444920,
			"target":34962
		},
		{
			"buffer":0,
			"byteLength":3696,
			"byteOffset":445992,
			"target":34962
		},
		{
			"buffer":0,
			"byteLength":3696,
			"byteOffset":449688,
			"target":34962
		},
		{
			"buffer":0,
			"byteLength":2464,
			"byteOffset":453384,
			"target":34962
		},
		{
			"buffer":0,
			"byteLength":1608,
			"byteOffset":455848,
			"target":34962
		},
		{
			"buffer":0,
			"byteLength":1608,
			"byteOffset":457456,
			"target":34962
		},
		{
			"buffer":0,
			"byteLength":1072,
			"byteOffset":459064,
			"target":34962
		},
		{
			"buffer":0,
			"byteLength":164868,
			"byteOffset":460136,
			"target":34962
		},
		{
			"buffer":0,
			"byteLength":164868,
			"byteOffset":625004,
			"target":34962
		},
		{
			"buffer":0,
			"byteLength":109912,
			"byteOffset":789872,
			"target":34962
		},
		{
			"buffer":0,
			"byteLength":82656,
			"byteOffset":899784,
			"target":34963
		},
		{
			"buffer":0,
			"byteLength":12672,
			"byteOffset":982440,
			"target":34962
		},
		{
			"buffer":0,
			"byteLength":12672,
			"byteOffset":995112,
			"target":34962
		},
		{
			"buffer":0,
			"byteLength":8448,
			"byteOffset":1007784,
			"target":34962
		},
		{
			"buffer":0,
			"byteLength":9216,
			"byteOffset":1016232,
			"target":34963
		},
		{
			"buffer":0,
			"byteLength":6252,
			"byteOffset":1025448,
			"target":34962
		},
		{
			"buffer":0,
			"byteLength":6252,
			"byteOffset":1031700,
			"target":34962
		},
		{
			"buffer":0,
			"byteLength":4168,
			"byteOffset":1037952,
			"target":34962
		},
		{
			"buffer":0,
			"byteLength":2880,
			"byteOffset":1042120,
			"target":34963
		},
		{
			"buffer":0,
			"byteLength":399456,
			"byteOffset":1045000,
			"target":34962
		},
		{
			"buffer":0,
			"byteLength":399456,
			"byteOffset":1444456,
			"target":34962
		},
		{
			"buffer":0,
			"byteLength":266304,
			"byteOffset":1843912,
			"target":34962
		},
		{
			"buffer":0,
			"byteLength":204480,
			"byteOffset":2110216,
			"target":34963
		},
		{
			"buffer":0,
			"byteLength":4608,
			"byteOffset":2314696,
			"target":34962
		},
		{
			"buffer":0,
			"byteLength":4608,
			"byteOffset":2319304,
			"target":34962
		},
		{
			"buffer":0,
			"byteLength":3072,
			"byteOffset":2323912,
			"target":34962
		},
		{
			"buffer":0,
			"byteLength":1152,
			"byteOffset":2326984,
			"target":34963
		},
		{
			"buffer":0,
			"byteLength":4224,
			"byteOffset":2328136,
			"target":34962
		},
		{
			"buffer":0,
			"byteLength":4224,
			"byteOffset":2332360,
			"target":34962
		},
		{
			"buffer":0,
			"byteLength":2816,
			"byteOffset":2336584,
			"target":34962
		},
		{
			"buffer":0,
			"byteLength":1344,
			"byteOffset":2339400,
			"target":34963
		},
		{
			"buffer":0,
			"byteLength":13968,
			"byteOffset":2340744,
			"target":34962
		},
		{
			"buffer":0,
			"byteLength":13968,
			"byteOffset":2354712,
			"target":34962
		},
		{
			"buffer":0,
			"byteLength":9312,
			"byteOffset":2368680,
			"target":34962
		},
		{
			"buffer":0,
			"byteLength":5760,
			"byteOffset":2377992,
			"target":34963
		},
		{
			"buffer":0,
			"byteLength":42444,
			"byteOffset":2383752,
			"target":34962
		},
		{
			"buffer":0,
			"byteLength":42444,
			"byteOffset":2426196,
			"target":34962
		},
		{
			"buffer":0,
			"byteLength":28296,
			"byteOffset":2468640,
			"target":34962
		},
		{
			"buffer":0,
			"byteLength":17712,
			"byteOffset":2496936,
			"target":34963
		},
		{
			"buffer":0,
			"byteLength":5520,
			"byteOffset":2514648,
			"target":34962
		},
		{
			"buffer":0,
			"byteLength":5520,
			"byteOffset":2520168,
			"target":34962
		},
		{
			"buffer":0,
			"byteLength":3680,
			"byteOffset":2525688,
			"target":34962
		},
		{
			"buffer":0,
			"byteLength":1920,
			"byteOffset":2529368,
			"target":34963
		},
		{
			"buffer":0,
			"byteLength":384,
			"byteOffset":2531288,
			"target":34962
		},
		{
			"buffer":0,
			"byteLength":384,
			"byteOffset":2531672,
			"target":34962
		},
		{
			"buffer":0,
			"byteLength":256,
			"byteOffset":2532056,
			"target":34962
		},
		{
			"buffer":0,
			"byteLength":180,
			"byteOffset":2532312,
			"target":34963
		},
		{
			"buffer":0,
			"byteLength":4176,
			"byteOffset":2532492,
			"target":34962
		},
		{
			"buffer":0,
			"byteLength":4176,
			"byteOffset":2536668,
			"target":34962
		},
		{
			"buffer":0,
			"byteLength":2784,
			"byteOffset":2540844,
			"target":34962
		},
		{
			"buffer":0,
			"byteLength":1440,
			"byteOffset":2543628,
			"target":34963
		},
		{
			"buffer":0,
			"byteLength":14556,
			"byteOffset":2545068,
			"target":34962
		},
		{
			"buffer":0,
			"byteLength":14556,
			"byteOffset":2559624,
			"target":34962
		},
		{
			"buffer":0,
			"byteLength":9704,
			"byteOffset":2574180,
			"target":34962
		},
		{
			"buffer":0,
			"byteLength":5256,
			"byteOffset":2583884,
			"target":34963
		},
		{
			"buffer":0,
			"byteLength":2760,
			"byteOffset":2589140,
			"target":34962
		},
		{
			"buffer":0,
			"byteLength":2760,
			"byteOffset":2591900,
			"target":34962
		},
		{
			"buffer":0,
			"byteLength":1840,
			"byteOffset":2594660,
			"target":34962
		},
		{
			"buffer":0,
			"byteLength":1272,
			"byteOffset":2596500,
			"target":34963
		},
		{
			"buffer":0,
			"byteLength":28644,
			"byteOffset":2597772,
			"target":34962
		},
		{
			"buffer":0,
			"byteLength":28644,
			"byteOffset":2626416,
			"target":34962
		},
		{
			"buffer":0,
			"byteLength":19096,
			"byteOffset":2655060,
			"target":34962
		},
		{
			"buffer":0,
			"byteLength":16848,
			"byteOffset":2674156,
			"target":34963
		},
		{
			"buffer":0,
			"byteLength":27096,
			"byteOffset":2691004,
			"target":34962
		},
		{
			"buffer":0,
			"byteLength":27096,
			"byteOffset":2718100,
			"target":34962
		},
		{
			"buffer":0,
			"byteLength":18064,
			"byteOffset":2745196,
			"target":34962
		},
		{
			"buffer":0,
			"byteLength":14388,
			"byteOffset":2763260,
			"target":34963
		},
		{
			"buffer":0,
			"byteLength":648,
			"byteOffset":2777648,
			"target":34962
		},
		{
			"buffer":0,
			"byteLength":648,
			"byteOffset":2778296,
			"target":34962
		},
		{
			"buffer":0,
			"byteLength":432,
			"byteOffset":2778944,
			"target":34962
		},
		{
			"buffer":0,
			"byteLength":360,
			"byteOffset":2779376,
			"target":34963
		},
		{
			"buffer":0,
			"byteLength":127524,
			"byteOffset":2779736,
			"target":34962
		},
		{
			"buffer":0,
			"byteLength":127524,
			"byteOffset":2907260,
			"target":34962
		},
		{
			"buffer":0,
			"byteLength":85016,
			"byteOffset":3034784,
			"target":34962
		},
		{
			"buffer":0,
			"byteLength":60636,
			"byteOffset":3119800,
			"target":34963
		},
		{
			"buffer":0,
			"byteLength":10584,
			"byteOffset":3180436,
			"target":34962
		},
		{
			"buffer":0,
			"byteLength":10584,
			"byteOffset":3191020,
			"target":34962
		},
		{
			"buffer":0,
			"byteLength":7056,
			"byteOffset":3201604,
			"target":34962
		},
		{
			"buffer":0,
			"byteLength":6912,
			"byteOffset":3208660,
			"target":34963
		}
	],
	"samplers":[
		{
			"magFilter":9729,
			"minFilter":9987
		}
	],
	"buffers":[
		{
			"byteLength":3215572,
			"uri":"heavy_falcon-booster1.bin"
		}
	]
}
