{
	"asset":{
		"generator":"Khronos glTF Blender I/O v4.4.56",
		"version":"2.0"
	},
	"scene":0,
	"scenes":[
		{
			"name":"Scene",
			"nodes":[
				1
			]
		}
	],
	"nodes":[
		{
			"mesh":0,
			"name":"Object_90",
			"translation":[
				-0.044546060264110565,
				-30.52483558654785,
				0.6614049673080444
			]
		},
		{
			"children":[
				0
			],
			"name":"Right Fairing_19",
			"scale":[
				0.026601266115903854,
				0.026601271703839302,
				0.026601271703839302
			],
			"translation":[
				0.0011849801521748304,
				0.7531761527061462,
				-1.811382026062347e-05
			]
		}
	],
	"materials":[
		{
			"doubleSided":true,
			"name":"Material.207",
			"pbrMetallicRoughness":{
				"metallicFactor":0,
				"metallicRoughnessTexture":{
					"index":0
				}
			}
		}
	],
	"meshes":[
		{
			"name":"Object_69.006",
			"primitives":[
				{
					"attributes":{
						"POSITION":0,
						"NORMAL":1,
						"TEXCOORD_0":2
					},
					"indices":3,
					"material":0
				}
			]
		}
	],
	"textures":[
		{
			"sampler":0,
			"source":0
		}
	],
	"images":[
		{
			"mimeType":"image/png",
			"name":"Material.022_metallicRoughness",
			"uri":"textures/Material_022_metallicRoughness.png"
		}
	],
	"accessors":[
		{
			"bufferView":0,
			"componentType":5126,
			"count":668,
			"max":[
				1.3214480876922607,
				9.270753860473633,
				-1.1920928955078125e-07
			],
			"min":[
				-1.3214480876922607,
				2.2112998962402344,
				-1.3214483261108398
			],
			"type":"VEC3"
		},
		{
			"bufferView":1,
			"componentType":5126,
			"count":668,
			"type":"VEC3"
		},
		{
			"bufferView":2,
			"componentType":5126,
			"count":668,
			"type":"VEC2"
		},
		{
			"bufferView":3,
			"componentType":5123,
			"count":3165,
			"type":"SCALAR"
		}
	],
	"bufferViews":[
		{
			"buffer":0,
			"byteLength":8016,
			"byteOffset":0,
			"target":34962
		},
		{
			"buffer":0,
			"byteLength":8016,
			"byteOffset":8016,
			"target":34962
		},
		{
			"buffer":0,
			"byteLength":5344,
			"byteOffset":16032,
			"target":34962
		},
		{
			"buffer":0,
			"byteLength":6330,
			"byteOffset":21376,
			"target":34963
		}
	],
	"samplers":[
		{
			"magFilter":9729,
			"minFilter":9987
		}
	],
	"buffers":[
		{
			"byteLength":27708,
			"uri":"heavy_falcon-fairing2.bin"
		}
	]
}
