{
	"asset":{
		"generator":"Khronos glTF Blender I/O v4.4.56",
		"version":"2.0"
	},
	"scene":0,
	"scenes":[
		{
			"name":"Scene",
			"nodes":[
				2
			]
		}
	],
	"nodes":[
		{
			"mesh":0,
			"name":"Object_92",
			"translation":[
				-0.044546060264110565,
				-30.524837493896484,
				-0.6736840605735779
			]
		},
		{
			"mesh":1,
			"name":"Object_93",
			"translation":[
				-0.044546060264110565,
				-30.524837493896484,
				-0.6736840605735779
			]
		},
		{
			"children":[
				0,
				1
			],
			"name":"Left Fairing_20",
			"scale":[
				0.026601266115903854,
				0.026601271703839302,
				0.026601271703839302
			],
			"translation":[
				0.0011849801521748304,
				0.7531761527061462,
				-1.811382026062347e-05
			]
		}
	],
	"materials":[
		{
			"doubleSided":true,
			"name":"Material.207",
			"pbrMetallicRoughness":{
				"metallicFactor":0,
				"metallicRoughnessTexture":{
					"index":0
				}
			}
		},
		{
			"doubleSided":true,
			"name":"Material.205",
			"pbrMetallicRoughness":{
				"baseColorFactor":[
					0.004241450224071741,
					0.004241450224071741,
					0.004241450224071741,
					1
				],
				"metallicFactor":0.46363601088523865,
				"metallicRoughnessTexture":{
					"index":1
				}
			}
		}
	],
	"meshes":[
		{
			"name":"Object_70.006",
			"primitives":[
				{
					"attributes":{
						"POSITION":0,
						"NORMAL":1,
						"TEXCOORD_0":2
					},
					"indices":3,
					"material":0
				}
			]
		},
		{
			"name":"Object_71.006",
			"primitives":[
				{
					"attributes":{
						"POSITION":4,
						"NORMAL":5,
						"TEXCOORD_0":6
					},
					"indices":7,
					"material":1
				}
			]
		}
	],
	"textures":[
		{
			"sampler":0,
			"source":0
		},
		{
			"sampler":0,
			"source":0
		}
	],
	"images":[
		{
			"mimeType":"image/png",
			"name":"Material.022_metallicRoughness",
			"uri":"textures/Material_022_metallicRoughness.png"
		}
	],
	"accessors":[
		{
			"bufferView":0,
			"componentType":5126,
			"count":674,
			"max":[
				1.3214480876922607,
				9.270755767822266,
				1.3214480876922607
			],
			"min":[
				-1.3214480876922607,
				2.211301803588867,
				5.960464477539063e-08
			],
			"type":"VEC3"
		},
		{
			"bufferView":1,
			"componentType":5126,
			"count":674,
			"type":"VEC3"
		},
		{
			"bufferView":2,
			"componentType":5126,
			"count":674,
			"type":"VEC2"
		},
		{
			"bufferView":3,
			"componentType":5123,
			"count":3165,
			"type":"SCALAR"
		},
		{
			"bufferView":4,
			"componentType":5126,
			"count":426,
			"max":[
				0.015133820474147797,
				4.412693977355957,
				1.3487300872802734
			],
			"min":[
				-0.10422582924365997,
				4.103911399841309,
				1.2293691635131836
			],
			"type":"VEC3"
		},
		{
			"bufferView":5,
			"componentType":5126,
			"count":426,
			"type":"VEC3"
		},
		{
			"bufferView":6,
			"componentType":5126,
			"count":426,
			"type":"VEC2"
		},
		{
			"bufferView":7,
			"componentType":5123,
			"count":744,
			"type":"SCALAR"
		}
	],
	"bufferViews":[
		{
			"buffer":0,
			"byteLength":8088,
			"byteOffset":0,
			"target":34962
		},
		{
			"buffer":0,
			"byteLength":8088,
			"byteOffset":8088,
			"target":34962
		},
		{
			"buffer":0,
			"byteLength":5392,
			"byteOffset":16176,
			"target":34962
		},
		{
			"buffer":0,
			"byteLength":6330,
			"byteOffset":21568,
			"target":34963
		},
		{
			"buffer":0,
			"byteLength":5112,
			"byteOffset":27900,
			"target":34962
		},
		{
			"buffer":0,
			"byteLength":5112,
			"byteOffset":33012,
			"target":34962
		},
		{
			"buffer":0,
			"byteLength":3408,
			"byteOffset":38124,
			"target":34962
		},
		{
			"buffer":0,
			"byteLength":1488,
			"byteOffset":41532,
			"target":34963
		}
	],
	"samplers":[
		{
			"magFilter":9729,
			"minFilter":9987
		}
	],
	"buffers":[
		{
			"byteLength":43020,
			"uri":"heavy_falcon-fairing1.bin"
		}
	]
}
