{
	"asset":{
		"generator":"Khronos glTF Blender I/O v4.4.56",
		"version":"2.0"
	},
	"scene":0,
	"scenes":[
		{
			"name":"Scene",
			"nodes":[
				0,
				1,
				2,
				3,
				4,
				5,
				6,
				7,
				8,
				9,
				10,
				11,
				12,
				13,
				14,
				15,
				16,
				17
			]
		}
	],
	"nodes":[
		{
			"mesh":0,
			"name":"Object_77",
			"scale":[
				0.016305258497595787,
				0.016305260360240936,
				0.016305260360240936
			],
			"translation":[
				0.0013127202400937676,
				0.05663818120956421,
				0.00011816026380984113
			]
		},
		{
			"mesh":1,
			"name":"Object_78",
			"scale":[
				0.016305258497595787,
				0.016305260360240936,
				0.016305260360240936
			],
			"translation":[
				0.0013127202400937676,
				0.05663818120956421,
				0.00011816026380984113
			]
		},
		{
			"mesh":2,
			"name":"Object_79",
			"scale":[
				0.016305258497595787,
				0.016305260360240936,
				0.016305260360240936
			],
			"translation":[
				0.0013127202400937676,
				0.05663818120956421,
				0.00011816026380984113
			]
		},
		{
			"mesh":3,
			"name":"Object_80",
			"scale":[
				0.016305258497595787,
				0.016305260360240936,
				0.016305260360240936
			],
			"translation":[
				0.0013127202400937676,
				0.05663818120956421,
				0.00011816026380984113
			]
		},
		{
			"mesh":4,
			"name":"Object_81",
			"scale":[
				0.016305258497595787,
				0.016305260360240936,
				0.016305260360240936
			],
			"translation":[
				0.0013127202400937676,
				0.05663818120956421,
				0.00011816026380984113
			]
		},
		{
			"mesh":5,
			"name":"Object_82",
			"scale":[
				0.016305258497595787,
				0.016305260360240936,
				0.016305260360240936
			],
			"translation":[
				0.0013127202400937676,
				0.05663818120956421,
				0.00011816026380984113
			]
		},
		{
			"mesh":6,
			"name":"Object_83",
			"scale":[
				0.016305258497595787,
				0.016305260360240936,
				0.016305260360240936
			],
			"translation":[
				0.0013127202400937676,
				0.05663818120956421,
				0.00011816026380984113
			]
		},
		{
			"mesh":7,
			"name":"Object_84",
			"scale":[
				0.016305258497595787,
				0.016305260360240936,
				0.016305260360240936
			],
			"translation":[
				0.0013127202400937676,
				0.05663818120956421,
				0.00011816026380984113
			]
		},
		{
			"mesh":8,
			"name":"Object_85",
			"scale":[
				0.016305258497595787,
				0.016305260360240936,
				0.016305260360240936
			],
			"translation":[
				0.0013127202400937676,
				0.05663818120956421,
				0.00011816026380984113
			]
		},
		{
			"mesh":9,
			"name":"Object_86",
			"scale":[
				0.016305258497595787,
				0.016305260360240936,
				0.016305260360240936
			],
			"translation":[
				0.0013127202400937676,
				0.05663818120956421,
				0.00011816026380984113
			]
		},
		{
			"mesh":10,
			"name":"Object_87",
			"scale":[
				0.016305258497595787,
				0.016305260360240936,
				0.016305260360240936
			],
			"translation":[
				0.0013127202400937676,
				0.05663818120956421,
				0.00011816026380984113
			]
		},
		{
			"mesh":11,
			"name":"Object_88",
			"scale":[
				0.016305258497595787,
				0.016305260360240936,
				0.016305260360240936
			],
			"translation":[
				0.0013127202400937676,
				0.05663818120956421,
				0.00011816026380984113
			]
		},
		{
			"mesh":12,
			"name":"Object_70",
			"scale":[
				0.026601264253258705,
				0.026601269841194153,
				0.026601269841194153
			],
			"translation":[
				0.001207284047268331,
				0.13418519496917725,
				-0.0006849949713796377
			]
		},
		{
			"mesh":13,
			"name":"Object_71",
			"scale":[
				0.026601264253258705,
				0.026601269841194153,
				0.026601269841194153
			],
			"translation":[
				0.001207284047268331,
				0.13418519496917725,
				-0.0006849949713796377
			]
		},
		{
			"mesh":14,
			"name":"Object_72",
			"scale":[
				0.026601264253258705,
				0.026601269841194153,
				0.026601269841194153
			],
			"translation":[
				0.001207284047268331,
				0.13418519496917725,
				-0.0006849949713796377
			]
		},
		{
			"mesh":15,
			"name":"Object_73",
			"scale":[
				0.026601264253258705,
				0.026601269841194153,
				0.026601269841194153
			],
			"translation":[
				0.001207284047268331,
				0.13418519496917725,
				-0.0006849949713796377
			]
		},
		{
			"mesh":16,
			"name":"Object_74",
			"scale":[
				0.026601264253258705,
				0.026601269841194153,
				0.026601269841194153
			],
			"translation":[
				0.001207284047268331,
				0.13418519496917725,
				-0.0006849949713796377
			]
		},
		{
			"mesh":17,
			"name":"Object_75",
			"scale":[
				0.026601264253258705,
				0.026601269841194153,
				0.026601269841194153
			],
			"translation":[
				0.001207284047268331,
				0.13418519496917725,
				-0.0006849949713796377
			]
		}
	],
	"materials":[
		{
			"doubleSided":true,
			"name":"Material.228",
			"pbrMetallicRoughness":{
				"baseColorFactor":[
					0.34238401055336,
					0.34238401055336,
					0.34238401055336,
					1
				],
				"metallicFactor":0.889706015586853
			}
		},
		{
			"doubleSided":true,
			"name":"Engine_MVAC_Heat.007",
			"pbrMetallicRoughness":{
				"baseColorFactor":[
					0.2140350043773651,
					0.2140350043773651,
					0.2140350043773651,
					1
				],
				"metallicRoughnessTexture":{
					"index":0
				}
			}
		},
		{
			"doubleSided":true,
			"name":"Material.229",
			"pbrMetallicRoughness":{
				"baseColorFactor":[
					0,
					0,
					0,
					1
				],
				"metallicFactor":0,
				"roughnessFactor":0.5
			}
		},
		{
			"doubleSided":true,
			"name":"Material.230",
			"pbrMetallicRoughness":{
				"baseColorFactor":[
					0.1282390058040619,
					0.1282390058040619,
					0.1282390058040619,
					1
				],
				"metallicFactor":0.2045450061559677
			}
		},
		{
			"doubleSided":true,
			"name":"Material.231",
			"pbrMetallicRoughness":{
				"baseColorFactor":[
					0.24210099875926971,
					0.24210099875926971,
					0.24210099875926971,
					1
				],
				"metallicFactor":0.6818180084228516,
				"metallicRoughnessTexture":{
					"index":1
				}
			}
		},
		{
			"doubleSided":true,
			"name":"Material.232",
			"pbrMetallicRoughness":{
				"baseColorFactor":[
					0.5925769805908203,
					0.5925769805908203,
					0.5925769805908203,
					1
				],
				"metallicFactor":0.8455880284309387
			}
		},
		{
			"doubleSided":true,
			"name":"Material.233",
			"pbrMetallicRoughness":{
				"baseColorFactor":[
					0,
					0,
					0,
					1
				],
				"metallicFactor":0,
				"roughnessFactor":0.5
			}
		},
		{
			"doubleSided":true,
			"name":"Material.234",
			"pbrMetallicRoughness":{
				"baseColorFactor":[
					0.34238401055336,
					0.34238401055336,
					0.34238401055336,
					1
				],
				"metallicFactor":0.889706015586853
			}
		},
		{
			"doubleSided":true,
			"name":"Material.235",
			"pbrMetallicRoughness":{
				"baseColorFactor":[
					0.04954909905791283,
					0.04954909905791283,
					0.04954909905791283,
					1
				],
				"metallicFactor":0
			}
		},
		{
			"doubleSided":true,
			"name":"Material.236",
			"pbrMetallicRoughness":{
				"baseColorFactor":[
					0.31760498881340027,
					0.31760498881340027,
					0.31760498881340027,
					1
				],
				"metallicFactor":0.3499999940395355
			}
		},
		{
			"doubleSided":true,
			"name":"Material.237",
			"pbrMetallicRoughness":{
				"baseColorFactor":[
					0,
					0,
					0,
					1
				],
				"metallicFactor":0,
				"roughnessFactor":0.5
			}
		},
		{
			"doubleSided":true,
			"name":"Material.238",
			"pbrMetallicRoughness":{
				"baseColorFactor":[
					0.43255001306533813,
					0.41111499071121216,
					0.15915100276470184,
					1
				],
				"metallicFactor":0.3499999940395355
			}
		},
		{
			"doubleSided":true,
			"name":"Material.207",
			"pbrMetallicRoughness":{
				"metallicFactor":0,
				"metallicRoughnessTexture":{
					"index":2
				}
			}
		},
		{
			"doubleSided":true,
			"name":"Material.226",
			"pbrMetallicRoughness":{
				"baseColorFactor":[
					0.17574499547481537,
					0.17574499547481537,
					0.17574499547481537,
					1
				],
				"metallicFactor":0.6969249844551086,
				"metallicRoughnessTexture":{
					"index":3
				}
			}
		},
		{
			"doubleSided":true,
			"name":"Material.227",
			"pbrMetallicRoughness":{
				"baseColorFactor":[
					0.039361000061035156,
					0.039361000061035156,
					0.039361000061035156,
					1
				],
				"metallicFactor":0.6332889795303345,
				"metallicRoughnessTexture":{
					"index":4
				}
			}
		},
		{
			"doubleSided":true,
			"name":"Material.210",
			"pbrMetallicRoughness":{
				"baseColorFactor":[
					0.35255399346351624,
					0.35255399346351624,
					0.35255399346351624,
					1
				],
				"metallicFactor":0.3499999940395355,
				"metallicRoughnessTexture":{
					"index":5
				}
			}
		},
		{
			"doubleSided":true,
			"name":"Material.211",
			"pbrMetallicRoughness":{
				"baseColorFactor":[
					0.0871398001909256,
					0.0871398001909256,
					0.0871398001909256,
					1
				],
				"metallicFactor":0.3499999940395355,
				"metallicRoughnessTexture":{
					"index":6
				}
			}
		},
		{
			"doubleSided":true,
			"name":"Material.223",
			"pbrMetallicRoughness":{
				"baseColorFactor":[
					0.1901780068874359,
					0.1901780068874359,
					0.1901780068874359,
					1
				],
				"metallicFactor":0.8909090161323547,
				"metallicRoughnessTexture":{
					"index":7
				}
			}
		}
	],
	"meshes":[
		{
			"name":"Object_57.006",
			"primitives":[
				{
					"attributes":{
						"POSITION":0,
						"NORMAL":1,
						"TEXCOORD_0":2
					},
					"indices":3,
					"material":0
				}
			]
		},
		{
			"name":"Object_58.006",
			"primitives":[
				{
					"attributes":{
						"POSITION":4,
						"NORMAL":5,
						"TEXCOORD_0":6
					},
					"indices":7,
					"material":1
				}
			]
		},
		{
			"name":"Object_59.006",
			"primitives":[
				{
					"attributes":{
						"POSITION":8,
						"NORMAL":9,
						"TEXCOORD_0":10
					},
					"indices":11,
					"material":2
				}
			]
		},
		{
			"name":"Object_60.006",
			"primitives":[
				{
					"attributes":{
						"POSITION":12,
						"NORMAL":13,
						"TEXCOORD_0":14
					},
					"indices":15,
					"material":3
				}
			]
		},
		{
			"name":"Object_61.006",
			"primitives":[
				{
					"attributes":{
						"POSITION":16,
						"NORMAL":17,
						"TEXCOORD_0":18
					},
					"indices":19,
					"material":4
				}
			]
		},
		{
			"name":"Object_62.006",
			"primitives":[
				{
					"attributes":{
						"POSITION":20,
						"NORMAL":21,
						"TEXCOORD_0":22
					},
					"indices":23,
					"material":5
				}
			]
		},
		{
			"name":"Object_63.006",
			"primitives":[
				{
					"attributes":{
						"POSITION":24,
						"NORMAL":25,
						"TEXCOORD_0":26
					},
					"indices":27,
					"material":6
				}
			]
		},
		{
			"name":"Object_64.006",
			"primitives":[
				{
					"attributes":{
						"POSITION":28,
						"NORMAL":29,
						"TEXCOORD_0":30
					},
					"indices":31,
					"material":7
				}
			]
		},
		{
			"name":"Object_65.006",
			"primitives":[
				{
					"attributes":{
						"POSITION":32,
						"NORMAL":33,
						"TEXCOORD_0":34
					},
					"indices":35,
					"material":8
				}
			]
		},
		{
			"name":"Object_66.006",
			"primitives":[
				{
					"attributes":{
						"POSITION":36,
						"NORMAL":37,
						"TEXCOORD_0":38
					},
					"indices":39,
					"material":9
				}
			]
		},
		{
			"name":"Object_67.006",
			"primitives":[
				{
					"attributes":{
						"POSITION":40,
						"NORMAL":41,
						"TEXCOORD_0":42
					},
					"indices":43,
					"material":10
				}
			]
		},
		{
			"name":"Object_68.006",
			"primitives":[
				{
					"attributes":{
						"POSITION":44,
						"NORMAL":45,
						"TEXCOORD_0":46
					},
					"indices":47,
					"material":11
				}
			]
		},
		{
			"name":"Object_51.006",
			"primitives":[
				{
					"attributes":{
						"POSITION":48,
						"NORMAL":49,
						"TEXCOORD_0":50
					},
					"indices":51,
					"material":12
				}
			]
		},
		{
			"name":"Object_52.006",
			"primitives":[
				{
					"attributes":{
						"POSITION":52,
						"NORMAL":53,
						"TEXCOORD_0":54
					},
					"indices":55,
					"material":13
				}
			]
		},
		{
			"name":"Object_53.006",
			"primitives":[
				{
					"attributes":{
						"POSITION":56,
						"NORMAL":57,
						"TEXCOORD_0":58
					},
					"indices":59,
					"material":14
				}
			]
		},
		{
			"name":"Object_54.006",
			"primitives":[
				{
					"attributes":{
						"POSITION":60,
						"NORMAL":61,
						"TEXCOORD_0":62
					},
					"indices":63,
					"material":15
				}
			]
		},
		{
			"name":"Object_55.006",
			"primitives":[
				{
					"attributes":{
						"POSITION":64,
						"NORMAL":65,
						"TEXCOORD_0":66
					},
					"indices":67,
					"material":16
				}
			]
		},
		{
			"name":"Object_56.006",
			"primitives":[
				{
					"attributes":{
						"POSITION":68,
						"NORMAL":69,
						"TEXCOORD_0":70
					},
					"indices":71,
					"material":17
				}
			]
		}
	],
	"textures":[
		{
			"sampler":0,
			"source":0
		},
		{
			"sampler":0,
			"source":0
		},
		{
			"sampler":0,
			"source":0
		},
		{
			"sampler":0,
			"source":0
		},
		{
			"sampler":0,
			"source":0
		},
		{
			"sampler":0,
			"source":0
		},
		{
			"sampler":0,
			"source":0
		},
		{
			"sampler":0,
			"source":0
		}
	],
	"images":[
		{
			"mimeType":"image/png",
			"name":"Material.022_metallicRoughness",
			"uri":"textures/Material_022_metallicRoughness.png"
		}
	],
	"accessors":[
		{
			"bufferView":0,
			"componentType":5126,
			"count":98,
			"max":[
				0.19955015182495117,
				0.005499362945556641,
				0.19955019652843475
			],
			"min":[
				-0.19955027103424072,
				-1.1821593046188354,
				-0.19955019652843475
			],
			"type":"VEC3"
		},
		{
			"bufferView":1,
			"componentType":5126,
			"count":98,
			"type":"VEC3"
		},
		{
			"bufferView":2,
			"componentType":5126,
			"count":98,
			"type":"VEC2"
		},
		{
			"bufferView":3,
			"componentType":5123,
			"count":282,
			"type":"SCALAR"
		},
		{
			"bufferView":4,
			"componentType":5126,
			"count":264,
			"max":[
				0.94637531042099,
				-1.1821593046188354,
				0.94637531042099
			],
			"min":[
				-0.94637531042099,
				-3.4736151695251465,
				-0.94637531042099
			],
			"type":"VEC3"
		},
		{
			"bufferView":5,
			"componentType":5126,
			"count":264,
			"type":"VEC3"
		},
		{
			"bufferView":6,
			"componentType":5126,
			"count":264,
			"type":"VEC2"
		},
		{
			"bufferView":7,
			"componentType":5123,
			"count":1152,
			"type":"SCALAR"
		},
		{
			"bufferView":8,
			"componentType":5126,
			"count":32,
			"max":[
				0.3881036043167114,
				-1.5798170566558838,
				0.3881036639213562
			],
			"min":[
				-0.3881036639213562,
				-1.5798170566558838,
				-0.3881036341190338
			],
			"type":"VEC3"
		},
		{
			"bufferView":9,
			"componentType":5126,
			"count":32,
			"type":"VEC3"
		},
		{
			"bufferView":10,
			"componentType":5126,
			"count":32,
			"type":"VEC2"
		},
		{
			"bufferView":11,
			"componentType":5123,
			"count":90,
			"type":"SCALAR"
		},
		{
			"bufferView":12,
			"componentType":5126,
			"count":5138,
			"max":[
				0.4509914815425873,
				-0.1252521574497223,
				0.4509916305541992
			],
			"min":[
				-0.4509916305541992,
				-1.5798170566558838,
				-0.50856614112854
			],
			"type":"VEC3"
		},
		{
			"bufferView":13,
			"componentType":5126,
			"count":5138,
			"type":"VEC3"
		},
		{
			"bufferView":14,
			"componentType":5126,
			"count":5138,
			"type":"VEC2"
		},
		{
			"bufferView":15,
			"componentType":5123,
			"count":16668,
			"type":"SCALAR"
		},
		{
			"bufferView":16,
			"componentType":5126,
			"count":263,
			"max":[
				0.5958852767944336,
				-0.052442461252212524,
				0.589429497718811
			],
			"min":[
				-0.607932448387146,
				-1.3396103382110596,
				-0.6143882274627686
			],
			"type":"VEC3"
		},
		{
			"bufferView":17,
			"componentType":5126,
			"count":263,
			"type":"VEC3"
		},
		{
			"bufferView":18,
			"componentType":5126,
			"count":263,
			"type":"VEC2"
		},
		{
			"bufferView":19,
			"componentType":5123,
			"count":1050,
			"type":"SCALAR"
		},
		{
			"bufferView":20,
			"componentType":5126,
			"count":766,
			"max":[
				0.0677291601896286,
				-0.1376645565032959,
				0.03390654921531677
			],
			"min":[
				-0.29988962411880493,
				-0.9166144132614136,
				-0.35131606459617615
			],
			"type":"VEC3"
		},
		{
			"bufferView":21,
			"componentType":5126,
			"count":766,
			"type":"VEC3"
		},
		{
			"bufferView":22,
			"componentType":5126,
			"count":766,
			"type":"VEC2"
		},
		{
			"bufferView":23,
			"componentType":5123,
			"count":2370,
			"type":"SCALAR"
		},
		{
			"bufferView":24,
			"componentType":5126,
			"count":32,
			"max":[
				0.047224126756191254,
				-0.625906229019165,
				-0.22110097110271454
			],
			"min":[
				-0.062485940754413605,
				-0.625906229019165,
				-0.3308110237121582
			],
			"type":"VEC3"
		},
		{
			"bufferView":25,
			"componentType":5126,
			"count":32,
			"type":"VEC3"
		},
		{
			"bufferView":26,
			"componentType":5126,
			"count":32,
			"type":"VEC2"
		},
		{
			"bufferView":27,
			"componentType":5123,
			"count":90,
			"type":"SCALAR"
		},
		{
			"bufferView":28,
			"componentType":5126,
			"count":48,
			"max":[
				0.15885484218597412,
				-0.10061122477054596,
				0.4212439954280853
			],
			"min":[
				-0.19224637746810913,
				-0.20421603322029114,
				-0.41705232858657837
			],
			"type":"VEC3"
		},
		{
			"bufferView":29,
			"componentType":5126,
			"count":48,
			"type":"VEC3"
		},
		{
			"bufferView":30,
			"componentType":5126,
			"count":48,
			"type":"VEC2"
		},
		{
			"bufferView":31,
			"componentType":5123,
			"count":72,
			"type":"SCALAR"
		},
		{
			"bufferView":32,
			"componentType":5126,
			"count":44,
			"max":[
				-0.007314338814467192,
				-0.11751735210418701,
				0.4070839583873749
			],
			"min":[
				-0.04314213618636131,
				-0.5842185020446777,
				0.08177843689918518
			],
			"type":"VEC3"
		},
		{
			"bufferView":33,
			"componentType":5126,
			"count":44,
			"type":"VEC3"
		},
		{
			"bufferView":34,
			"componentType":5126,
			"count":44,
			"type":"VEC2"
		},
		{
			"bufferView":35,
			"componentType":5123,
			"count":84,
			"type":"SCALAR"
		},
		{
			"bufferView":36,
			"componentType":5126,
			"count":146,
			"max":[
				0.20658725500106812,
				-0.18928778171539307,
				0.2285163700580597
			],
			"min":[
				-0.0314357727766037,
				-0.2856634557247162,
				-0.23445242643356323
			],
			"type":"VEC3"
		},
		{
			"bufferView":37,
			"componentType":5126,
			"count":146,
			"type":"VEC3"
		},
		{
			"bufferView":38,
			"componentType":5126,
			"count":146,
			"type":"VEC2"
		},
		{
			"bufferView":39,
			"componentType":5123,
			"count":360,
			"type":"SCALAR"
		},
		{
			"bufferView":40,
			"componentType":5126,
			"count":370,
			"max":[
				0.2190782129764557,
				-0.1804223358631134,
				0.12810984253883362
			],
			"min":[
				0.050468046218156815,
				-0.28944462537765503,
				-0.38473641872406006
			],
			"type":"VEC3"
		},
		{
			"bufferView":41,
			"componentType":5126,
			"count":370,
			"type":"VEC3"
		},
		{
			"bufferView":42,
			"componentType":5126,
			"count":370,
			"type":"VEC2"
		},
		{
			"bufferView":43,
			"componentType":5123,
			"count":972,
			"type":"SCALAR"
		},
		{
			"bufferView":44,
			"componentType":5126,
			"count":60,
			"max":[
				0.10553508996963501,
				-0.18891581892967224,
				-0.25948596000671387
			],
			"min":[
				0.050468046218156815,
				-0.24398288130760193,
				-0.3576771318912506
			],
			"type":"VEC3"
		},
		{
			"bufferView":45,
			"componentType":5126,
			"count":60,
			"type":"VEC3"
		},
		{
			"bufferView":46,
			"componentType":5126,
			"count":60,
			"type":"VEC2"
		},
		{
			"bufferView":47,
			"componentType":5123,
			"count":120,
			"type":"SCALAR"
		},
		{
			"bufferView":48,
			"componentType":5126,
			"count":1250,
			"max":[
				1.0209875106811523,
				2.8448362350463867,
				1.042344093322754
			],
			"min":[
				-1.0209875106811523,
				-2.41389799118042,
				-1.042344093322754
			],
			"type":"VEC3"
		},
		{
			"bufferView":49,
			"componentType":5126,
			"count":1250,
			"type":"VEC3"
		},
		{
			"bufferView":50,
			"componentType":5126,
			"count":1250,
			"type":"VEC2"
		},
		{
			"bufferView":51,
			"componentType":5123,
			"count":3414,
			"type":"SCALAR"
		},
		{
			"bufferView":52,
			"componentType":5126,
			"count":2608,
			"max":[
				0.4520455002784729,
				2.9723305702209473,
				0.4834807515144348
			],
			"min":[
				-0.45368003845214844,
				2.7750091552734375,
				-0.42150625586509705
			],
			"type":"VEC3"
		},
		{
			"bufferView":53,
			"componentType":5126,
			"count":2608,
			"type":"VEC3"
		},
		{
			"bufferView":54,
			"componentType":5126,
			"count":2608,
			"type":"VEC2"
		},
		{
			"bufferView":55,
			"componentType":5123,
			"count":4722,
			"type":"SCALAR"
		},
		{
			"bufferView":56,
			"componentType":5126,
			"count":64,
			"max":[
				0.4102182984352112,
				2.9457240104675293,
				0.44201400876045227
			],
			"min":[
				-0.4118480682373047,
				2.897519588470459,
				-0.3800523579120636
			],
			"type":"VEC3"
		},
		{
			"bufferView":57,
			"componentType":5126,
			"count":64,
			"type":"VEC3"
		},
		{
			"bufferView":58,
			"componentType":5126,
			"count":64,
			"type":"VEC2"
		},
		{
			"bufferView":59,
			"componentType":5123,
			"count":96,
			"type":"SCALAR"
		},
		{
			"bufferView":60,
			"componentType":5126,
			"count":5055,
			"max":[
				0.9991615414619446,
				2.9255480766296387,
				1.0250694751739502
			],
			"min":[
				-1.0008385181427002,
				-2.962801456451416,
				-0.974930465221405
			],
			"type":"VEC3"
		},
		{
			"bufferView":61,
			"componentType":5126,
			"count":5055,
			"type":"VEC3"
		},
		{
			"bufferView":62,
			"componentType":5126,
			"count":5055,
			"type":"VEC2"
		},
		{
			"bufferView":63,
			"componentType":5123,
			"count":15438,
			"type":"SCALAR"
		},
		{
			"bufferView":64,
			"componentType":5126,
			"count":1813,
			"max":[
				0.8571208715438843,
				2.5598130226135254,
				0.8782031536102295
			],
			"min":[
				-0.8587977886199951,
				-2.8281941413879395,
				-0.8377155065536499
			],
			"type":"VEC3"
		},
		{
			"bufferView":65,
			"componentType":5126,
			"count":1813,
			"type":"VEC3"
		},
		{
			"bufferView":66,
			"componentType":5126,
			"count":1813,
			"type":"VEC2"
		},
		{
			"bufferView":67,
			"componentType":5123,
			"count":6912,
			"type":"SCALAR"
		},
		{
			"bufferView":68,
			"componentType":5126,
			"count":291,
			"max":[
				0.9866257309913635,
				2.792370319366455,
				0.09588299691677094
			],
			"min":[
				-0.9755964279174805,
				-2.9723305702209473,
				-0.03911460191011429
			],
			"type":"VEC3"
		},
		{
			"bufferView":69,
			"componentType":5126,
			"count":291,
			"type":"VEC3"
		},
		{
			"bufferView":70,
			"componentType":5126,
			"count":291,
			"type":"VEC2"
		},
		{
			"bufferView":71,
			"componentType":5123,
			"count":756,
			"type":"SCALAR"
		}
	],
	"bufferViews":[
		{
			"buffer":0,
			"byteLength":1176,
			"byteOffset":0,
			"target":34962
		},
		{
			"buffer":0,
			"byteLength":1176,
			"byteOffset":1176,
			"target":34962
		},
		{
			"buffer":0,
			"byteLength":784,
			"byteOffset":2352,
			"target":34962
		},
		{
			"buffer":0,
			"byteLength":564,
			"byteOffset":3136,
			"target":34963
		},
		{
			"buffer":0,
			"byteLength":3168,
			"byteOffset":3700,
			"target":34962
		},
		{
			"buffer":0,
			"byteLength":3168,
			"byteOffset":6868,
			"target":34962
		},
		{
			"buffer":0,
			"byteLength":2112,
			"byteOffset":10036,
			"target":34962
		},
		{
			"buffer":0,
			"byteLength":2304,
			"byteOffset":12148,
			"target":34963
		},
		{
			"buffer":0,
			"byteLength":384,
			"byteOffset":14452,
			"target":34962
		},
		{
			"buffer":0,
			"byteLength":384,
			"byteOffset":14836,
			"target":34962
		},
		{
			"buffer":0,
			"byteLength":256,
			"byteOffset":15220,
			"target":34962
		},
		{
			"buffer":0,
			"byteLength":180,
			"byteOffset":15476,
			"target":34963
		},
		{
			"buffer":0,
			"byteLength":61656,
			"byteOffset":15656,
			"target":34962
		},
		{
			"buffer":0,
			"byteLength":61656,
			"byteOffset":77312,
			"target":34962
		},
		{
			"buffer":0,
			"byteLength":41104,
			"byteOffset":138968,
			"target":34962
		},
		{
			"buffer":0,
			"byteLength":33336,
			"byteOffset":180072,
			"target":34963
		},
		{
			"buffer":0,
			"byteLength":3156,
			"byteOffset":213408,
			"target":34962
		},
		{
			"buffer":0,
			"byteLength":3156,
			"byteOffset":216564,
			"target":34962
		},
		{
			"buffer":0,
			"byteLength":2104,
			"byteOffset":219720,
			"target":34962
		},
		{
			"buffer":0,
			"byteLength":2100,
			"byteOffset":221824,
			"target":34963
		},
		{
			"buffer":0,
			"byteLength":9192,
			"byteOffset":223924,
			"target":34962
		},
		{
			"buffer":0,
			"byteLength":9192,
			"byteOffset":233116,
			"target":34962
		},
		{
			"buffer":0,
			"byteLength":6128,
			"byteOffset":242308,
			"target":34962
		},
		{
			"buffer":0,
			"byteLength":4740,
			"byteOffset":248436,
			"target":34963
		},
		{
			"buffer":0,
			"byteLength":384,
			"byteOffset":253176,
			"target":34962
		},
		{
			"buffer":0,
			"byteLength":384,
			"byteOffset":253560,
			"target":34962
		},
		{
			"buffer":0,
			"byteLength":256,
			"byteOffset":253944,
			"target":34962
		},
		{
			"buffer":0,
			"byteLength":180,
			"byteOffset":254200,
			"target":34963
		},
		{
			"buffer":0,
			"byteLength":576,
			"byteOffset":254380,
			"target":34962
		},
		{
			"buffer":0,
			"byteLength":576,
			"byteOffset":254956,
			"target":34962
		},
		{
			"buffer":0,
			"byteLength":384,
			"byteOffset":255532,
			"target":34962
		},
		{
			"buffer":0,
			"byteLength":144,
			"byteOffset":255916,
			"target":34963
		},
		{
			"buffer":0,
			"byteLength":528,
			"byteOffset":256060,
			"target":34962
		},
		{
			"buffer":0,
			"byteLength":528,
			"byteOffset":256588,
			"target":34962
		},
		{
			"buffer":0,
			"byteLength":352,
			"byteOffset":257116,
			"target":34962
		},
		{
			"buffer":0,
			"byteLength":168,
			"byteOffset":257468,
			"target":34963
		},
		{
			"buffer":0,
			"byteLength":1752,
			"byteOffset":257636,
			"target":34962
		},
		{
			"buffer":0,
			"byteLength":1752,
			"byteOffset":259388,
			"target":34962
		},
		{
			"buffer":0,
			"byteLength":1168,
			"byteOffset":261140,
			"target":34962
		},
		{
			"buffer":0,
			"byteLength":720,
			"byteOffset":262308,
			"target":34963
		},
		{
			"buffer":0,
			"byteLength":4440,
			"byteOffset":263028,
			"target":34962
		},
		{
			"buffer":0,
			"byteLength":4440,
			"byteOffset":267468,
			"target":34962
		},
		{
			"buffer":0,
			"byteLength":2960,
			"byteOffset":271908,
			"target":34962
		},
		{
			"buffer":0,
			"byteLength":1944,
			"byteOffset":274868,
			"target":34963
		},
		{
			"buffer":0,
			"byteLength":720,
			"byteOffset":276812,
			"target":34962
		},
		{
			"buffer":0,
			"byteLength":720,
			"byteOffset":277532,
			"target":34962
		},
		{
			"buffer":0,
			"byteLength":480,
			"byteOffset":278252,
			"target":34962
		},
		{
			"buffer":0,
			"byteLength":240,
			"byteOffset":278732,
			"target":34963
		},
		{
			"buffer":0,
			"byteLength":15000,
			"byteOffset":278972,
			"target":34962
		},
		{
			"buffer":0,
			"byteLength":15000,
			"byteOffset":293972,
			"target":34962
		},
		{
			"buffer":0,
			"byteLength":10000,
			"byteOffset":308972,
			"target":34962
		},
		{
			"buffer":0,
			"byteLength":6828,
			"byteOffset":318972,
			"target":34963
		},
		{
			"buffer":0,
			"byteLength":31296,
			"byteOffset":325800,
			"target":34962
		},
		{
			"buffer":0,
			"byteLength":31296,
			"byteOffset":357096,
			"target":34962
		},
		{
			"buffer":0,
			"byteLength":20864,
			"byteOffset":388392,
			"target":34962
		},
		{
			"buffer":0,
			"byteLength":9444,
			"byteOffset":409256,
			"target":34963
		},
		{
			"buffer":0,
			"byteLength":768,
			"byteOffset":418700,
			"target":34962
		},
		{
			"buffer":0,
			"byteLength":768,
			"byteOffset":419468,
			"target":34962
		},
		{
			"buffer":0,
			"byteLength":512,
			"byteOffset":420236,
			"target":34962
		},
		{
			"buffer":0,
			"byteLength":192,
			"byteOffset":420748,
			"target":34963
		},
		{
			"buffer":0,
			"byteLength":60660,
			"byteOffset":420940,
			"target":34962
		},
		{
			"buffer":0,
			"byteLength":60660,
			"byteOffset":481600,
			"target":34962
		},
		{
			"buffer":0,
			"byteLength":40440,
			"byteOffset":542260,
			"target":34962
		},
		{
			"buffer":0,
			"byteLength":30876,
			"byteOffset":582700,
			"target":34963
		},
		{
			"buffer":0,
			"byteLength":21756,
			"byteOffset":613576,
			"target":34962
		},
		{
			"buffer":0,
			"byteLength":21756,
			"byteOffset":635332,
			"target":34962
		},
		{
			"buffer":0,
			"byteLength":14504,
			"byteOffset":657088,
			"target":34962
		},
		{
			"buffer":0,
			"byteLength":13824,
			"byteOffset":671592,
			"target":34963
		},
		{
			"buffer":0,
			"byteLength":3492,
			"byteOffset":685416,
			"target":34962
		},
		{
			"buffer":0,
			"byteLength":3492,
			"byteOffset":688908,
			"target":34962
		},
		{
			"buffer":0,
			"byteLength":2328,
			"byteOffset":692400,
			"target":34962
		},
		{
			"buffer":0,
			"byteLength":1512,
			"byteOffset":694728,
			"target":34963
		}
	],
	"samplers":[
		{
			"magFilter":9729,
			"minFilter":9987
		}
	],
	"buffers":[
		{
			"byteLength":696240,
			"uri":"heavy_falcon-S2.bin"
		}
	]
}
